<svg width="11" height="15" viewBox="0 0 11 15" fill="none" xmlns="http://www.w3.org/2000/svg">
<circle cx="5.5" cy="5.5" r="1.5" transform="rotate(90 5.5 5.5)" fill="#F4EDE5"/>
<circle cx="9.5" cy="5.5" r="1.5" transform="rotate(90 9.5 5.5)" fill="#F4EDE5"/>
<circle cx="1.5" cy="5.5" r="1.5" transform="rotate(90 1.5 5.5)" fill="#F4EDE5"/>
<circle cx="5.5" cy="1.5" r="1.5" transform="rotate(90 5.5 1.5)" fill="#F4EDE5"/>
<circle cx="9.5" cy="1.5" r="1.5" transform="rotate(90 9.5 1.5)" fill="#F4EDE5"/>
<circle cx="1.5" cy="1.5" r="1.5" transform="rotate(90 1.5 1.5)" fill="#F4EDE5"/>
<circle cx="5.5" cy="9.5" r="1.5" transform="rotate(90 5.5 9.5)" fill="#F4EDE5"/>
<circle cx="9.5" cy="9.5" r="1.5" transform="rotate(90 9.5 9.5)" fill="#F4EDE5"/>
<circle cx="1.5" cy="9.5" r="1.5" transform="rotate(90 1.5 9.5)" fill="#F4EDE5"/>
<circle cx="5.5" cy="13.5" r="1.5" transform="rotate(90 5.5 13.5)" fill="#F4EDE5"/>
<circle cx="9.5" cy="13.5" r="1.5" transform="rotate(90 9.5 13.5)" fill="#F4EDE5"/>
<circle cx="1.5" cy="13.5" r="1.5" transform="rotate(90 1.5 13.5)" fill="#F4EDE5"/>
</svg>
