<svg width="11" height="5" viewBox="0 0 11 5" fill="none" xmlns="http://www.w3.org/2000/svg">
<path d="M1.52992 -0.000127369L8.722 -0.000126932C9.00593 -0.000363426 9.28418 0.0456948 9.52453 0.132718C9.76489 0.219741 9.95751 0.344169 10.0801 0.491601C10.2237 0.66653 10.2789 0.861151 10.2397 1.05329C10.2004 1.24542 10.0682 1.42734 9.85804 1.57832L6.262 4.08614C6.12088 4.17987 5.9464 4.25505 5.75039 4.30658C5.55439 4.3581 5.34143 4.38477 5.12596 4.38477C4.91048 4.38477 4.69753 4.3581 4.50152 4.30658C4.30551 4.25505 4.13104 4.17987 3.98991 4.08613L0.393872 1.57832C0.183742 1.42734 0.0515103 1.24542 0.0122446 1.05329C-0.02702 0.861151 0.0282626 0.666529 0.171791 0.491601C0.294399 0.344169 0.487028 0.21974 0.727379 0.132718C0.967731 0.0456943 1.24598 -0.000363898 1.52992 -0.000127369Z" fill="#F4EDE5"/>
</svg>
