<svg width="11" height="5" viewBox="0 0 11 5" fill="none" xmlns="http://www.w3.org/2000/svg">
<path d="M8.72204 4.38489H1.52996C1.24602 4.38513 0.967772 4.33907 0.72742 4.25205C0.487068 4.16502 0.294439 4.0406 0.171831 3.89316C0.028303 3.71824 -0.026978 3.52361 0.0122871 3.33148C0.0515522 3.13934 0.183784 2.95742 0.393914 2.80644L3.98996 0.29863C4.13108 0.204892 4.30555 0.129714 4.50156 0.0781897C4.69757 0.0266656 4.91052 0 5.126 0C5.34147 0 5.55443 0.0266656 5.75043 0.0781897C5.94644 0.129714 6.12092 0.204892 6.26204 0.29863L9.85808 2.80644C10.0682 2.95742 10.2004 3.13934 10.2397 3.33148C10.279 3.52361 10.2237 3.71824 10.0802 3.89316C9.95755 4.0406 9.76493 4.16502 9.52457 4.25205C9.28422 4.33907 9.00597 4.38513 8.72204 4.38489Z" fill="#F4EDE5"/>
</svg>
