<svg width="28" height="28" viewBox="0 0 28 28" fill="none" xmlns="http://www.w3.org/2000/svg">
<path d="M18.9669 6.02023V3.74023M8.7664 6.02023V3.74023M3.94949 9.44023H23.7838M3.66614 11.7704C3.66614 9.35929 3.66614 8.15317 4.1603 7.23205C4.60713 6.41046 5.30048 5.75177 6.14146 5.34991C7.11165 4.88023 8.38104 4.88023 10.9198 4.88023H16.8135C19.3523 4.88023 20.6217 4.88023 21.5919 5.34991C22.4453 5.76259 23.1378 6.42151 23.573 7.23091C24.0672 8.15431 24.0672 9.36043 24.0672 11.7715V17.3712C24.0672 19.7823 24.0672 20.9884 23.573 21.9096C23.1262 22.7311 22.4328 23.3898 21.5919 23.7917C20.6217 24.2602 19.3523 24.2602 16.8135 24.2602H10.9198C8.38104 24.2602 7.11165 24.2602 6.14146 23.7906C5.30065 23.389 4.60732 22.7307 4.1603 21.9096C3.66614 20.9862 3.66614 19.78 3.66614 17.3689V11.7704Z" stroke="white" stroke-width="1.2" stroke-linecap="round" stroke-linejoin="round"/>
<path d="M19.5713 14.7931C19.5713 14.5875 19.5272 14.3844 19.4419 14.1975C19.3567 14.0107 19.2324 13.8445 19.0775 13.7105C18.9225 13.5764 18.7407 13.4775 18.5443 13.4206C18.3479 13.3637 18.1416 13.3501 17.9395 13.3807C17.7297 13.0778 17.4293 12.8501 17.0819 12.7308C16.7346 12.6114 16.3584 12.6067 16.0082 12.7173C15.658 12.8279 15.3521 13.048 15.1349 13.3457C14.9177 13.6433 14.8006 14.0028 14.8007 14.372V15.4009L13.8297 15.4015L13.8291 16.7916H14.8007L14.8007 17.8216C14.8007 18.1907 14.9177 18.5501 15.1349 18.8477C15.352 19.1452 15.6578 19.3653 16.0079 19.4759C16.3579 19.5866 16.734 19.582 17.0813 19.4629C17.4286 19.3437 17.729 19.1162 17.9389 18.8135C18.141 18.8441 18.3473 18.8305 18.5437 18.7736C18.7401 18.7167 18.9219 18.6179 19.0769 18.4838C19.2318 18.3497 19.3561 18.1835 19.4414 17.9967C19.5266 17.8099 19.5707 17.6067 19.5708 17.4011L19.5708 16.7916L20.1009 16.7916C20.282 16.7883 20.4546 16.7137 20.5815 16.5838C20.7085 16.4538 20.7796 16.279 20.7797 16.0968C20.7798 15.9146 20.7088 15.7397 20.5819 15.6097C20.4551 15.4797 20.2826 15.4049 20.1015 15.4015L19.5713 15.4015L19.5713 14.7931ZM17.5565 17.151C17.5022 17.151 17.4484 17.1403 17.3982 17.1194C17.348 17.0986 17.3024 17.068 17.264 17.0293C17.2256 16.9907 17.1952 16.9448 17.1744 16.8944C17.1537 16.8439 17.143 16.7898 17.1431 16.7352L17.1431 15.4397C17.145 15.3308 17.1893 15.227 17.2665 15.1507C17.3437 15.0744 17.4476 15.0316 17.5559 15.0316C17.6641 15.0316 17.768 15.0744 17.8453 15.1507C17.9225 15.227 17.9668 15.3308 17.9687 15.4397L17.9692 16.7358C17.9692 16.8459 17.9257 16.9515 17.8483 17.0293C17.7709 17.1072 17.6659 17.1509 17.5565 17.151ZM11.2794 12.639C11.7366 12.6394 12.1748 12.8223 12.4981 13.1474C12.8213 13.4726 13.0031 13.9134 13.0035 14.3732V17.8228C13.0032 18.1917 12.886 18.5508 12.6689 18.8481C12.4517 19.1453 12.146 19.3652 11.7961 19.4758C11.4463 19.5863 11.0704 19.5817 10.7233 19.4627C10.3762 19.3437 10.0758 19.1165 9.86589 18.8141C9.66379 18.8447 9.4575 18.8311 9.2611 18.7742C9.0647 18.7173 8.88283 18.6184 8.7279 18.4844C8.57297 18.3503 8.44865 18.1841 8.36341 17.9973C8.27818 17.8104 8.23404 17.6073 8.23402 17.4017L8.23343 16.7927L7.68519 16.7933C7.59441 16.7933 7.50452 16.7753 7.42065 16.7404C7.33677 16.7054 7.26057 16.6542 7.19638 16.5897C7.13218 16.5251 7.08126 16.4484 7.04652 16.3641C7.01178 16.2797 6.9939 16.1893 6.9939 16.098C6.9939 16.0067 7.01178 15.9163 7.04652 15.8319C7.08126 15.7476 7.13218 15.6709 7.19638 15.6063C7.26057 15.5418 7.33677 15.4906 7.42065 15.4556C7.50452 15.4207 7.59441 15.4027 7.68519 15.4027L8.23401 15.4027L8.23285 14.7931C8.23294 14.5875 8.27715 14.3844 8.36246 14.1976C8.44777 14.0107 8.57216 13.8446 8.72714 13.7106C8.88213 13.5766 9.06405 13.4778 9.26048 13.4209C9.4569 13.3641 9.66321 13.3506 9.86531 13.3813C10.0244 13.1523 10.236 12.9653 10.4823 12.8362C10.7286 12.707 11.0023 12.6396 11.28 12.6396M10.2401 16.7369L10.2401 15.4414C10.2383 15.3326 10.1939 15.2288 10.1167 15.1525C10.0395 15.0762 9.93561 15.0334 9.82736 15.0334C9.71911 15.0334 9.61519 15.0762 9.53798 15.1525C9.46077 15.2288 9.41645 15.3326 9.41457 15.4414L9.41457 16.7369C9.41645 16.8458 9.46077 16.9496 9.53798 17.0259C9.61519 17.1022 9.71911 17.145 9.82736 17.145C9.93561 17.145 10.0395 17.1022 10.1167 17.0259C10.1939 16.9496 10.2383 16.8458 10.2401 16.7369Z" fill="white"/>
</svg>
