<svg width="15" height="15" viewBox="0 0 15 15" fill="none" xmlns="http://www.w3.org/2000/svg">
<path d="M6.11475 1.375C5.73764 1.375 5.37598 1.5248 5.10933 1.79146C4.84268 2.05811 4.69287 2.41977 4.69287 2.79688V10.6719C4.69287 10.8586 4.72965 11.0435 4.80111 11.216C4.87256 11.3885 4.9773 11.5453 5.10933 11.6773C5.24136 11.8093 5.39811 11.9141 5.57062 11.9855C5.74313 12.057 5.92802 12.0938 6.11475 12.0938H11.3647C11.5515 12.0938 11.7364 12.057 11.9089 11.9855C12.0814 11.9141 12.2381 11.8093 12.3702 11.6773C12.5022 11.5453 12.6069 11.3885 12.6784 11.216C12.7498 11.0435 12.7866 10.8586 12.7866 10.6719V2.79688C12.7866 2.41977 12.6368 2.05811 12.3702 1.79146C12.1035 1.5248 11.7419 1.375 11.3647 1.375H6.11475ZM5.56787 2.79688C5.56787 2.495 5.81287 2.25 6.11475 2.25H11.3647C11.6666 2.25 11.9116 2.495 11.9116 2.79688V10.6719C11.9116 10.9738 11.6666 11.2188 11.3647 11.2188H6.11475C5.81287 11.2188 5.56787 10.9738 5.56787 10.6719V2.79688ZM4.03662 3.01519C3.523 3.22956 3.16162 3.73662 3.16162 4.32769V10.7812C3.16162 11.1547 3.23518 11.5245 3.37809 11.8695C3.521 12.2145 3.73047 12.528 3.99454 12.7921C4.52784 13.3254 5.25116 13.625 6.00537 13.625H9.8335C10.1143 13.6251 10.3888 13.542 10.6225 13.3863C10.8561 13.2306 11.0384 13.0092 11.1464 12.75H6.00537C5.48323 12.75 4.98247 12.5426 4.61325 12.1734C4.24404 11.8042 4.03662 11.3034 4.03662 10.7812V3.01519Z" fill="white"/>
</svg>
