<svg width="41" height="41" viewBox="0 0 41 41" fill="none" xmlns="http://www.w3.org/2000/svg">
<g clip-path="url(#clip0_0_3)">
<path d="M30.9411 9.31371C31.0716 9.44417 31.1449 9.62111 31.1449 9.80561C31.1449 9.99011 31.0716 10.167 30.9411 10.2975L20.6112 20.6274L30.9411 30.9573C31.0716 31.0878 31.1449 31.2647 31.1449 31.4492C31.1449 31.6337 31.0716 31.8107 30.9411 31.9411C30.8107 32.0716 30.6337 32.1449 30.4492 32.1449C30.2647 32.1449 30.0878 32.0716 29.9573 31.9411L19.6274 21.6112L9.29751 31.9411C9.16705 32.0716 8.99011 32.1449 8.80561 32.1449C8.62111 32.1449 8.44417 32.0716 8.31371 31.9411C8.18325 31.8107 8.10996 31.6337 8.10996 31.4492C8.10996 31.2647 8.18325 31.0878 8.31371 30.9573L18.6436 20.6274L8.31371 10.2975C8.18325 10.167 8.10996 9.99011 8.10996 9.80561C8.10996 9.62111 8.18325 9.44417 8.31371 9.31371C8.44417 9.18325 8.62111 9.10996 8.80561 9.10996C8.99011 9.10996 9.16705 9.18325 9.29751 9.31371L19.6274 19.6436L29.9573 9.31371C30.0878 9.18325 30.2647 9.10996 30.4492 9.10996C30.6337 9.10996 30.8107 9.18325 30.9411 9.31371Z" fill="black"/>
</g>
<defs>
<clipPath id="clip0_0_3">
<rect width="40.28" height="40.28" fill="white" transform="translate(0.342133 0.430777)"/>
</clipPath>
</defs>
</svg>
