<svg width="12" height="27" viewBox="0 0 12 27" fill="none" xmlns="http://www.w3.org/2000/svg">
<path d="M7.64645 26.3536C7.84171 26.5488 8.15829 26.5488 8.35355 26.3536L11.5355 23.1716C11.7308 22.9763 11.7308 22.6597 11.5355 22.4645C11.3403 22.2692 11.0237 22.2692 10.8284 22.4645L8 25.2929L5.17157 22.4645C4.97631 22.2692 4.65973 22.2692 4.46447 22.4645C4.2692 22.6597 4.2692 22.9763 4.46447 23.1716L7.64645 26.3536ZM7.5 7L7.5 26L8.5 26L8.5 7L7.5 7Z" fill="#F4EDE5"/>
<path d="M4.35355 0.646446C4.15829 0.451185 3.84171 0.451185 3.64645 0.646446L0.464465 3.82843C0.269203 4.02369 0.269203 4.34027 0.464465 4.53553C0.659728 4.7308 0.97631 4.7308 1.17157 4.53553L4 1.70711L6.82843 4.53553C7.02369 4.7308 7.34027 4.7308 7.53553 4.53553C7.7308 4.34027 7.7308 4.02369 7.53553 3.82843L4.35355 0.646446ZM4.5 21L4.5 1L3.5 1L3.5 21L4.5 21Z" fill="#F4EDE5"/>
</svg>
