<svg width="15" height="14" viewBox="0 0 15 14" fill="none" xmlns="http://www.w3.org/2000/svg">
<path d="M6.32812 2.84375V3.0625H8.67188V2.84375C8.67188 2.55367 8.54841 2.27547 8.32864 2.07035C8.10887 1.86523 7.8108 1.75 7.5 1.75C7.1892 1.75 6.89113 1.86523 6.67136 2.07035C6.45159 2.27547 6.32812 2.55367 6.32812 2.84375ZM5.39062 3.0625V2.84375C5.39062 2.32161 5.61286 1.82085 6.00845 1.45163C6.40403 1.08242 6.94056 0.875 7.5 0.875C8.05944 0.875 8.59597 1.08242 8.99155 1.45163C9.38714 1.82085 9.60938 2.32161 9.60938 2.84375V3.0625H13.125C13.2493 3.0625 13.3685 3.10859 13.4565 3.19064C13.5444 3.27269 13.5938 3.38397 13.5938 3.5C13.5938 3.61603 13.5444 3.72731 13.4565 3.80936C13.3685 3.89141 13.2493 3.9375 13.125 3.9375H12.4181L11.5312 11.186C11.4659 11.7198 11.1922 12.2125 10.7626 12.5701C10.3329 12.9277 9.77725 13.1253 9.20156 13.125H5.79844C5.22275 13.1253 4.6671 12.9277 4.23743 12.5701C3.80777 12.2125 3.53415 11.7198 3.46875 11.186L2.58187 3.9375H1.875C1.75068 3.9375 1.63145 3.89141 1.54354 3.80936C1.45564 3.72731 1.40625 3.61603 1.40625 3.5C1.40625 3.38397 1.45564 3.27269 1.54354 3.19064C1.63145 3.10859 1.75068 3.0625 1.875 3.0625H5.39062ZM4.40062 11.0863C4.43976 11.4065 4.60376 11.702 4.86137 11.9167C5.11898 12.1313 5.45219 12.2499 5.7975 12.25H9.20203C9.54734 12.2499 9.88055 12.1313 10.1382 11.9167C10.3958 11.702 10.5598 11.4065 10.5989 11.0863L11.475 3.9375H3.52547L4.40062 11.0863ZM6.09375 5.46875C6.21807 5.46875 6.3373 5.51484 6.42521 5.59689C6.51311 5.67894 6.5625 5.79022 6.5625 5.90625V10.2812C6.5625 10.3973 6.51311 10.5086 6.42521 10.5906C6.3373 10.6727 6.21807 10.7188 6.09375 10.7188C5.96943 10.7188 5.8502 10.6727 5.76229 10.5906C5.67439 10.5086 5.625 10.3973 5.625 10.2812V5.90625C5.625 5.79022 5.67439 5.67894 5.76229 5.59689C5.8502 5.51484 5.96943 5.46875 6.09375 5.46875ZM9.375 5.90625C9.375 5.79022 9.32561 5.67894 9.23771 5.59689C9.1498 5.51484 9.03057 5.46875 8.90625 5.46875C8.78193 5.46875 8.6627 5.51484 8.57479 5.59689C8.48689 5.67894 8.4375 5.79022 8.4375 5.90625V10.2812C8.4375 10.3973 8.48689 10.5086 8.57479 10.5906C8.6627 10.6727 8.78193 10.7188 8.90625 10.7188C9.03057 10.7188 9.1498 10.6727 9.23771 10.5906C9.32561 10.5086 9.375 10.3973 9.375 10.2812V5.90625Z" fill="white"/>
</svg>
