<svg width="21" height="21" viewBox="0 0 21 21" fill="none" xmlns="http://www.w3.org/2000/svg">
<rect x="0.130615" y="0.130615" width="19.9446" height="19.9446" rx="9.9723" fill="#0070F0"/>
<path d="M13.1613 8.36102C13.2236 8.29869 13.2586 8.21415 13.2586 8.12601C13.2586 8.03787 13.2236 7.95333 13.1613 7.891L12.315 7.04468C12.2843 7.01293 12.2476 6.98761 12.2071 6.97019C12.1665 6.95276 12.1229 6.9436 12.0788 6.94321C12.0346 6.94283 11.9909 6.95124 11.95 6.96795C11.9092 6.98467 11.8721 7.00935 11.8408 7.04056C11.8096 7.07177 11.785 7.10888 11.7682 7.14974C11.7515 7.19059 11.7431 7.23436 11.7435 7.2785C11.7439 7.32263 11.753 7.36625 11.7705 7.40681C11.7879 7.44736 11.8132 7.48404 11.845 7.51471L12.6913 8.36102C12.7536 8.42334 12.8382 8.45835 12.9263 8.45835C13.0144 8.45835 13.099 8.42334 13.1613 8.36102ZM8.64718 12.4038C8.67893 12.4345 8.70425 12.4711 8.72167 12.5117C8.7391 12.5522 8.74827 12.5959 8.74865 12.64C8.74903 12.6841 8.74062 12.7279 8.72391 12.7688C8.70719 12.8096 8.68251 12.8467 8.6513 12.8779C8.62009 12.9092 8.58298 12.9338 8.54212 12.9505C8.50127 12.9673 8.4575 12.9757 8.41336 12.9753C8.36923 12.9749 8.32561 12.9657 8.28505 12.9483C8.2445 12.9309 8.20782 12.9056 8.17715 12.8738L7.3315 12.0282C7.26908 11.9658 7.23398 11.8813 7.23392 11.7931C7.23386 11.7048 7.26884 11.6202 7.33117 11.5578C7.3935 11.4954 7.47807 11.4603 7.56628 11.4602C7.65449 11.4602 7.73911 11.4951 7.80153 11.5575L8.64718 12.4038ZM14.8699 5.34739C14.6871 5.16466 14.4393 5.06201 14.1808 5.06201C13.9224 5.06201 13.6745 5.16466 13.4917 5.34739L13.0795 5.75958L12.9167 5.59737C12.7882 5.46882 12.6328 5.37038 12.4617 5.30912C12.2906 5.24787 12.1081 5.22533 11.9272 5.24314C11.7464 5.26094 11.5717 5.31865 11.4159 5.41209C11.26 5.50553 11.1268 5.63239 11.0259 5.78352C10.7069 5.71427 10.3741 5.75016 10.0772 5.88582C9.78036 6.02148 9.53539 6.24962 9.37898 6.53611C9.22256 6.82259 9.16311 7.15202 9.20952 7.47511C9.25593 7.7982 9.4057 8.09757 9.63643 8.32845L10.0739 8.76523L8.76485 10.0743L8.3274 9.63681C8.09653 9.40608 7.79715 9.25631 7.47406 9.2099C7.15098 9.16349 6.82155 9.22294 6.53506 9.37936C6.24858 9.53577 6.02044 9.78074 5.88478 10.0776C5.74911 10.3745 5.71322 10.7073 5.78247 11.0263C5.63164 11.1274 5.50507 11.2607 5.41184 11.4166C5.31861 11.5724 5.26103 11.747 5.24324 11.9277C5.22544 12.1085 5.24787 12.2909 5.30892 12.462C5.36997 12.633 5.46811 12.7884 5.59632 12.917L5.7592 13.0799L5.33571 13.5034C5.15287 13.6862 5.05011 13.9341 5.05005 14.1926C5.04999 14.4511 5.15262 14.6991 5.33538 14.8819C5.51814 15.0648 5.76604 15.1675 6.02456 15.1676C6.28308 15.1676 6.53104 15.065 6.71388 14.8822L7.13804 14.4581L7.30026 14.6203C7.42871 14.7488 7.58408 14.8473 7.75518 14.9085C7.92627 14.9698 8.10882 14.9923 8.28967 14.9745C8.47052 14.9567 8.64517 14.899 8.80103 14.8056C8.95689 14.7121 9.09008 14.5853 9.191 14.4342C9.50998 14.5034 9.8428 14.4675 10.1397 14.3319C10.4365 14.1962 10.6815 13.968 10.8379 13.6816C10.9943 13.3951 11.0538 13.0656 11.0074 12.7426C10.961 12.4195 10.8112 12.1201 10.5805 11.8892L10.143 11.4524L11.4521 10.1441L11.8895 10.5809C12.1204 10.8113 12.4197 10.9608 12.7427 11.007C13.0656 11.0533 13.3948 10.9937 13.6811 10.8374C13.9675 10.681 14.1955 10.4362 14.3311 10.1395C14.4668 9.84284 14.5028 9.51022 14.4338 9.19138C14.5846 9.09023 14.7112 8.95694 14.8044 8.80109C14.8976 8.64523 14.9552 8.47067 14.973 8.28994C14.9908 8.1092 14.9684 7.92676 14.9073 7.75572C14.8463 7.58468 14.7481 7.42926 14.6199 7.30064L14.457 7.13842L14.8692 6.72623C14.9598 6.63572 15.0317 6.52825 15.0807 6.40995C15.1297 6.29166 15.1549 6.16486 15.1549 6.03681C15.1549 5.90876 15.1297 5.78197 15.0807 5.66367C15.0317 5.54538 14.9598 5.43791 14.8692 5.34739H14.8699ZM13.987 6.66839L13.5489 6.22961L13.9611 5.81742C14.0193 5.75924 14.0982 5.72655 14.1805 5.72655C14.2628 5.72655 14.3417 5.75924 14.3999 5.81742C14.4581 5.87561 14.4907 5.95453 14.4907 6.03681C14.4907 6.1191 14.4581 6.19802 14.3999 6.2562L13.9877 6.66839H13.987ZM10.982 9.67338L9.673 10.9824L9.23488 10.5443L10.5439 9.23593L10.982 9.67338ZM6.66735 13.9881L6.24386 14.4116C6.18576 14.4697 6.10693 14.5025 6.0247 14.5025C5.94248 14.5026 5.86359 14.47 5.80541 14.4119C5.74722 14.3538 5.7145 14.275 5.71444 14.1927C5.71437 14.1105 5.74698 14.0316 5.80508 13.9734L6.2299 13.5499L6.66735 13.9881ZM11.6495 6.06739C11.7019 6.01497 11.764 5.97338 11.8325 5.945C11.9009 5.91663 11.9743 5.90202 12.0484 5.90202C12.1225 5.90202 12.1959 5.91663 12.2643 5.945C12.3328 5.97338 12.3949 6.01497 12.4473 6.06739L14.1506 7.77066C14.2189 7.83879 14.2687 7.92332 14.295 8.01617C14.3213 8.10902 14.3234 8.20708 14.301 8.30095C14.2785 8.39483 14.2324 8.48137 14.167 8.5523C14.1015 8.62324 14.019 8.67618 13.9272 8.70606C13.8827 8.72057 13.8417 8.74431 13.807 8.77574C13.7723 8.80717 13.7446 8.84558 13.7258 8.88845C13.707 8.93132 13.6974 8.97768 13.6977 9.0245C13.6981 9.07132 13.7083 9.11754 13.7277 9.16014C13.8101 9.34052 13.8265 9.54409 13.7741 9.73533C13.7217 9.92656 13.6038 10.0933 13.4409 10.2065C13.2781 10.3197 13.0807 10.3721 12.8832 10.3546C12.6857 10.3371 12.5006 10.2509 12.3602 10.1108L10.1065 7.85775C9.96643 7.71736 9.88014 7.53225 9.86266 7.33473C9.84517 7.13722 9.89759 6.93983 10.0108 6.77702C10.124 6.6142 10.2907 6.4963 10.482 6.44389C10.6732 6.39147 10.8768 6.40787 11.0572 6.49022C11.0998 6.50977 11.1461 6.52008 11.193 6.52048C11.2399 6.52087 11.2863 6.51133 11.3293 6.4925C11.3722 6.47366 11.4107 6.44595 11.4422 6.41118C11.4736 6.37641 11.4974 6.33538 11.5119 6.29077C11.5394 6.20646 11.5866 6.1299 11.6495 6.06739ZM6.66136 10.1068C6.82007 9.94818 7.03529 9.85906 7.2597 9.85906C7.48411 9.85906 7.69933 9.94818 7.85804 10.1068L10.1111 12.3599C10.2511 12.5003 10.3374 12.6854 10.3549 12.8829C10.3724 13.0805 10.32 13.2778 10.2068 13.4407C10.0936 13.6035 9.92685 13.7214 9.73561 13.7738C9.54437 13.8262 9.3408 13.8098 9.16042 13.7274C9.11779 13.7079 9.07151 13.6976 9.02461 13.6972C8.97772 13.6968 8.93127 13.7063 8.88832 13.7252C8.84537 13.744 8.80689 13.7717 8.77541 13.8065C8.74394 13.8413 8.72017 13.8823 8.70568 13.9269C8.67575 14.0185 8.62281 14.101 8.55193 14.1663C8.48105 14.2317 8.39459 14.2777 8.30083 14.3002C8.20706 14.3226 8.10911 14.3206 8.01634 14.2943C7.92357 14.2681 7.83909 14.2185 7.77095 14.1503L6.06768 12.447C5.99948 12.3789 5.94988 12.2944 5.92364 12.2016C5.8974 12.1088 5.89539 12.0109 5.9178 11.9171C5.94021 11.8234 5.98629 11.7369 6.05164 11.666C6.11698 11.5951 6.19942 11.5422 6.29106 11.5123C6.33566 11.4978 6.3767 11.474 6.41146 11.4425C6.44623 11.4111 6.47394 11.3726 6.49278 11.3296C6.51162 11.2867 6.52115 11.2402 6.52076 11.1933C6.52037 11.1464 6.51006 11.1002 6.4905 11.0575C6.41861 10.9006 6.39645 10.7253 6.42699 10.5554C6.45753 10.3855 6.53931 10.229 6.66136 10.1068Z" fill="white"/>
</svg>
