<svg width="24" height="24" viewBox="0 0 24 24" fill="none" xmlns="http://www.w3.org/2000/svg">
<path d="M17.4838 8.83313C17.5961 8.72078 17.6592 8.56843 17.6592 8.40958C17.6592 8.25072 17.5961 8.09837 17.4838 7.98603L15.9585 6.46078C15.9033 6.40356 15.8372 6.35792 15.7641 6.32653C15.691 6.29513 15.6124 6.2786 15.5328 6.27791C15.4533 6.27722 15.3744 6.29238 15.3008 6.3225C15.2271 6.35262 15.1603 6.39711 15.104 6.45336C15.0478 6.5096 15.0033 6.57649 14.9731 6.65012C14.943 6.72374 14.9279 6.80263 14.9286 6.88217C14.9292 6.96172 14.9458 7.04033 14.9772 7.11342C15.0086 7.18651 15.0542 7.25261 15.1114 7.30788L16.6367 8.83313C16.749 8.94543 16.9014 9.00853 17.0602 9.00853C17.2191 9.00853 17.3714 8.94543 17.4838 8.83313ZM9.34831 16.1191C9.40553 16.1744 9.45117 16.2405 9.48256 16.3136C9.51396 16.3866 9.53049 16.4653 9.53118 16.5448C9.53187 16.6243 9.51671 16.7032 9.48659 16.7769C9.45647 16.8505 9.41198 16.9174 9.35574 16.9736C9.29949 17.0299 9.2326 17.0743 9.15897 17.1045C9.08535 17.1346 9.00646 17.1497 8.92692 17.1491C8.84737 17.1484 8.76876 17.1318 8.69567 17.1004C8.62258 17.069 8.55648 17.0234 8.50122 16.9662L6.97716 15.4421C6.86467 15.3298 6.80141 15.1774 6.8013 15.0184C6.80119 14.8594 6.86423 14.7069 6.97657 14.5944C7.0889 14.482 7.24131 14.4187 7.40029 14.4186C7.55926 14.4185 7.71177 14.4815 7.82426 14.5938L9.34831 16.1191ZM20.563 3.4019C20.2336 3.07258 19.7869 2.88757 19.3211 2.88757C18.8554 2.88757 18.4086 3.07258 18.0793 3.4019L17.3364 4.14475L17.0429 3.8524C16.8113 3.62074 16.5313 3.44332 16.223 3.33292C15.9146 3.22253 15.5856 3.18192 15.2597 3.21401C14.9338 3.24609 14.619 3.35009 14.3381 3.51849C14.0572 3.6869 13.8172 3.91552 13.6353 4.18788C13.0604 4.06308 12.4606 4.12777 11.9256 4.37226C11.3906 4.61675 10.9491 5.02791 10.6672 5.54422C10.3853 6.06053 10.2781 6.65423 10.3618 7.23651C10.4454 7.81879 10.7153 8.35833 11.1312 8.77442L11.9195 9.5616L9.56038 11.9208L8.772 11.1324C8.35591 10.7166 7.81637 10.4466 7.23409 10.363C6.65182 10.2794 6.05811 10.3865 5.5418 10.6684C5.02549 10.9503 4.61433 11.3918 4.36984 11.9268C4.12535 12.4618 4.06066 13.0617 4.18547 13.6365C3.91364 13.8188 3.68553 14.059 3.5175 14.3399C3.34948 14.6208 3.24571 14.9354 3.21364 15.2611C3.18158 15.5869 3.222 15.9156 3.33202 16.2239C3.44204 16.5322 3.61892 16.8123 3.84998 17.0441L4.14353 17.3376L3.38031 18.1008C3.05078 18.4302 2.86559 18.877 2.86548 19.3429C2.86537 19.8088 3.05034 20.2557 3.37971 20.5852C3.70908 20.9147 4.15586 21.0999 4.62177 21.1C5.08768 21.1002 5.53455 20.9152 5.86408 20.5858L6.6285 19.8214L6.92085 20.1137C7.15236 20.3454 7.43237 20.5228 7.74072 20.6332C8.04906 20.7436 8.37806 20.7842 8.70399 20.7521C9.02993 20.72 9.34468 20.6161 9.62558 20.4476C9.90648 20.2792 10.1465 20.0506 10.3284 19.7783C10.9033 19.9031 11.5031 19.8384 12.0381 19.5939C12.5731 19.3494 13.0146 18.9382 13.2965 18.4219C13.5784 17.9056 13.6856 17.3119 13.6019 16.7296C13.5183 16.1474 13.2484 15.6078 12.8325 15.1917L12.0442 14.4045L14.4033 12.0466L15.1917 12.8338C15.6079 13.249 16.1473 13.5185 16.7293 13.6018C17.3113 13.6851 17.9046 13.5779 18.4206 13.2961C18.9366 13.0143 19.3476 12.5731 19.5921 12.0384C19.8366 11.5037 19.9014 10.9042 19.777 10.3296C20.0489 10.1473 20.277 9.9071 20.445 9.62621C20.613 9.34533 20.7168 9.03074 20.7489 8.70501C20.7809 8.37928 20.7405 8.05049 20.6305 7.74223C20.5205 7.43397 20.3436 7.15389 20.1125 6.92207L19.819 6.62972L20.5618 5.88687C20.7251 5.72374 20.8546 5.53005 20.9429 5.31686C21.0313 5.10367 21.0767 4.87516 21.0767 4.64438C21.0767 4.41361 21.0313 4.18509 20.9429 3.9719C20.8546 3.75871 20.7251 3.56502 20.5618 3.4019H20.563ZM18.9719 5.78263L18.1823 4.99185L18.9251 4.24899C19.03 4.14413 19.1722 4.08521 19.3205 4.08521C19.4688 4.08521 19.6111 4.14413 19.7159 4.24899C19.8208 4.35385 19.8797 4.49608 19.8797 4.64438C19.8797 4.79268 19.8208 4.93491 19.7159 5.03977L18.9731 5.78263H18.9719ZM13.5562 11.1983L11.1971 13.5574L10.4075 12.7679L12.7666 10.4099L13.5562 11.1983ZM5.78021 18.9743L5.01699 19.7375C4.91228 19.8424 4.77021 19.9014 4.62202 19.9015C4.47383 19.9016 4.33167 19.8428 4.2268 19.7381C4.12194 19.6334 4.06296 19.4913 4.06285 19.3431C4.06274 19.195 4.1215 19.0528 4.2262 18.9479L4.99182 18.1847L5.78021 18.9743ZM14.7592 4.6995C14.8535 4.60501 14.9656 4.53006 15.0889 4.47892C15.2123 4.42778 15.3445 4.40146 15.4781 4.40146C15.6116 4.40146 15.7438 4.42778 15.8672 4.47892C15.9905 4.53006 16.1026 4.60501 16.197 4.6995L19.2666 7.76917C19.3898 7.89194 19.4795 8.04429 19.5269 8.21163C19.5744 8.37897 19.5781 8.55569 19.5377 8.72487C19.4973 8.89405 19.4141 9.05002 19.2962 9.17786C19.1782 9.30569 19.0294 9.40111 18.864 9.45497C18.7838 9.4811 18.71 9.52389 18.6475 9.58054C18.5849 9.63718 18.535 9.7064 18.5011 9.78366C18.4672 9.86092 18.4499 9.94447 18.4505 10.0289C18.4511 10.1132 18.4696 10.1965 18.5046 10.2733C18.653 10.5984 18.6826 10.9653 18.5881 11.3099C18.4936 11.6546 18.2812 11.9551 17.9877 12.1591C17.6943 12.3631 17.3386 12.4576 16.9826 12.4261C16.6266 12.3945 16.293 12.239 16.04 11.9867L11.9783 7.92612C11.7259 7.6731 11.5704 7.3395 11.5389 6.98352C11.5074 6.62755 11.6018 6.27182 11.8058 5.97839C12.0098 5.68497 12.3103 5.47248 12.655 5.37802C12.9996 5.28355 13.3665 5.31311 13.6916 5.46152C13.7684 5.49676 13.8519 5.51534 13.9364 5.51605C14.0209 5.51676 14.1046 5.49957 14.182 5.46562C14.2594 5.43167 14.3288 5.38173 14.3855 5.31907C14.4422 5.25641 14.485 5.18246 14.5112 5.10208C14.5608 4.95013 14.6458 4.81215 14.7592 4.6995ZM5.76943 11.9795C6.05545 11.6935 6.44333 11.5329 6.84776 11.5329C7.2522 11.5329 7.64008 11.6935 7.9261 11.9795L11.9866 16.04C12.239 16.293 12.3945 16.6266 12.426 16.9826C12.4575 17.3386 12.3631 17.6943 12.1591 17.9877C11.9551 18.2812 11.6546 18.4937 11.3099 18.5881C10.9653 18.6826 10.5984 18.653 10.2733 18.5046C10.1965 18.4694 10.113 18.4508 10.0285 18.4501C9.94401 18.4494 9.8603 18.4666 9.78289 18.5005C9.70549 18.5345 9.63614 18.5844 9.57942 18.6471C9.52269 18.7097 9.47986 18.7837 9.45375 18.8641C9.39979 19.0292 9.30439 19.1778 9.17664 19.2956C9.0489 19.4133 8.89309 19.4964 8.7241 19.5368C8.55511 19.5771 8.37859 19.5735 8.2114 19.5262C8.04421 19.4789 7.89194 19.3896 7.76914 19.2666L4.69947 16.197C4.57656 16.0742 4.48718 15.9219 4.43989 15.7547C4.3926 15.5875 4.38897 15.411 4.42936 15.242C4.46974 15.073 4.55279 14.9172 4.67056 14.7895C4.78833 14.6617 4.9369 14.5663 5.10205 14.5124C5.18244 14.4863 5.25639 14.4434 5.31905 14.3867C5.38171 14.33 5.43165 14.2606 5.4656 14.1832C5.49955 14.1058 5.51674 14.0221 5.51603 13.9376C5.51532 13.8531 5.49674 13.7697 5.4615 13.6928C5.33193 13.4099 5.29198 13.0942 5.34702 12.7879C5.40206 12.4817 5.54946 12.1996 5.76943 11.9795Z" fill="white"/>
</svg>
