<svg width="36" height="37" viewBox="0 0 36 37" fill="none" xmlns="http://www.w3.org/2000/svg">
<rect y="0.692383" width="36" height="36" rx="18" fill="#EC1C4E"/>
<path d="M23.13 10.7126V8.43256M12.87 10.7126V8.43256M8.02499 14.1326H27.975M7.73999 16.4627C7.73999 14.0516 7.73999 12.8455 8.23703 11.9244C8.68647 11.1028 9.38386 10.4441 10.2298 10.0422C11.2056 9.57256 12.4824 9.57256 15.036 9.57256H20.964C23.5176 9.57256 24.7944 9.57256 25.7702 10.0422C26.6287 10.4549 27.3252 11.1138 27.7629 11.9232C28.26 12.8466 28.26 14.0528 28.26 16.4639V22.0635C28.26 24.4746 28.26 25.6808 27.7629 26.6019C27.3135 27.4235 26.6161 28.0822 25.7702 28.484C24.7944 28.9526 23.5176 28.9526 20.964 28.9526H15.036C12.4824 28.9526 11.2056 28.9526 10.2298 28.4829C9.38403 28.0813 8.68666 27.423 8.23703 26.6019C7.73999 25.6785 7.73999 24.4724 7.73999 22.0613V16.4627Z" stroke="white" stroke-width="1.2" stroke-linecap="round" stroke-linejoin="round"/>
<path d="M23.7379 19.4854C23.7379 19.2798 23.6935 19.0767 23.6078 18.8899C23.5221 18.703 23.397 18.5369 23.2412 18.4028C23.0854 18.2687 22.9024 18.1698 22.7049 18.1129C22.5073 18.056 22.2998 18.0424 22.0966 18.0731C21.8856 17.7701 21.5834 17.5424 21.234 17.4231C20.8846 17.3038 20.5063 17.299 20.1541 17.4096C19.8018 17.5202 19.4941 17.7404 19.2756 18.038C19.0572 18.3356 18.9394 18.6952 18.9394 19.0644L18.9394 20.0932L17.9628 20.0938L17.9622 21.4839H18.9394L18.9394 22.5139C18.9394 22.883 19.0572 23.2425 19.2756 23.54C19.494 23.8375 19.8016 24.0576 20.1537 24.1683C20.5058 24.2789 20.884 24.2743 21.2333 24.1552C21.5827 24.036 21.8849 23.8086 22.096 23.5058C22.2992 23.5365 22.5067 23.5229 22.7043 23.466C22.9018 23.4091 23.0848 23.3102 23.2406 23.1761C23.3964 23.042 23.5215 22.8759 23.6072 22.689C23.6929 22.5022 23.7373 22.299 23.7374 22.0935L23.7374 21.4839L24.2706 21.4839C24.4527 21.4806 24.6263 21.406 24.754 21.2761C24.8817 21.1462 24.9533 20.9713 24.9534 20.7891C24.9534 20.607 24.882 20.4321 24.7544 20.302C24.6268 20.172 24.4533 20.0972 24.2712 20.0938L23.7379 20.0938L23.7379 19.4854ZM21.7113 21.8433C21.6567 21.8433 21.6026 21.8326 21.5521 21.8118C21.5016 21.7909 21.4558 21.7603 21.4172 21.7217C21.3785 21.683 21.3479 21.6372 21.327 21.5867C21.3062 21.5362 21.2955 21.4821 21.2955 21.4275L21.2955 20.132C21.2974 20.0231 21.342 19.9194 21.4197 19.843C21.4973 19.7667 21.6018 19.724 21.7107 19.724C21.8196 19.724 21.9241 19.7667 22.0018 19.843C22.0794 19.9194 22.124 20.0231 22.1259 20.132L22.1265 21.4281C22.1265 21.5382 22.0827 21.6438 22.0049 21.7217C21.927 21.7995 21.8214 21.8433 21.7113 21.8433ZM15.3977 17.3314C15.8575 17.3318 16.2983 17.5146 16.6234 17.8397C16.9486 18.1649 17.1314 18.6057 17.1318 19.0655L17.1318 22.5151C17.1315 22.884 17.0136 23.2431 16.7952 23.5404C16.5768 23.8377 16.2693 24.0575 15.9174 24.1681C15.5655 24.2786 15.1875 24.2741 14.8383 24.1551C14.4892 24.0361 14.1871 23.8088 13.9759 23.5064C13.7726 23.537 13.5651 23.5234 13.3676 23.4665C13.17 23.4096 12.9871 23.3108 12.8313 23.1767C12.6754 23.0426 12.5504 22.8765 12.4647 22.6896C12.3789 22.5028 12.3345 22.2996 12.3345 22.094L12.3339 21.485L11.7825 21.4856C11.6912 21.4856 11.6008 21.4677 11.5164 21.4327C11.432 21.3978 11.3554 21.3465 11.2908 21.282C11.2263 21.2174 11.175 21.1408 11.1401 21.0564C11.1052 20.972 11.0872 20.8816 11.0872 20.7903C11.0872 20.699 11.1052 20.6086 11.1401 20.5242C11.175 20.4399 11.2263 20.3632 11.2908 20.2987C11.3554 20.2341 11.432 20.1829 11.5164 20.1479C11.6008 20.113 11.6912 20.095 11.7825 20.095L12.3345 20.095L12.3333 19.4854C12.3334 19.2798 12.3779 19.0767 12.4637 18.8899C12.5495 18.7031 12.6746 18.537 12.8305 18.4029C12.9864 18.2689 13.1694 18.1701 13.367 18.1133C13.5645 18.0564 13.772 18.0429 13.9753 18.0736C14.1353 17.8446 14.3482 17.6576 14.5959 17.5285C14.8437 17.3994 15.1189 17.3319 15.3982 17.3319M14.3523 21.4293L14.3523 20.1338C14.3504 20.0249 14.3059 19.9211 14.2282 19.8448C14.1506 19.7685 14.046 19.7257 13.9371 19.7257C13.8283 19.7257 13.7237 19.7685 13.6461 19.8448C13.5684 19.9211 13.5238 20.0249 13.522 20.1338V21.4293C13.5238 21.5381 13.5684 21.6419 13.6461 21.7182C13.7237 21.7945 13.8283 21.8373 13.9371 21.8373C14.046 21.8373 14.1506 21.7945 14.2282 21.7182C14.3059 21.6419 14.3504 21.5381 14.3523 21.4293Z" fill="white"/>
</svg>
