<svg width="28" height="28" viewBox="0 0 28 28" fill="none" xmlns="http://www.w3.org/2000/svg">
<path d="M3.47363 3.59895H6.94759V7.07291H3.47363V3.59895Z" fill="#F4EDE5"/>
<path d="M10.4219 0.125V10.5469H0V0.125H10.4219ZM8.6849 1.86198H1.73698V8.8099H8.6849V1.86198ZM6.94792 20.9688H3.47396V24.4427H6.94792V20.9688Z" fill="#F4EDE5"/>
<path d="M10.4219 17.4948V27.9167H0V17.4948H10.4219ZM1.73698 19.2318V26.1797H8.6849V19.2318H1.73698ZM20.8438 3.59895H24.3177V7.07291H20.8438V3.59895Z" fill="#F4EDE5"/>
<path d="M17.3698 0.125V10.5469H27.7917V0.125H17.3698ZM26.0547 1.86198V8.8099H19.1068V1.86198H26.0547ZM13.8958 1.86198V0.125H15.6328V3.59896H13.8958V7.07292H12.1589V1.86198H13.8958ZM13.8958 10.5469V7.07292H15.6328V10.5469H13.8958ZM10.4219 14.0208V12.2839H12.1589V10.5469H13.8958V14.0208H15.6328V12.2839H24.3177V14.0208H17.3698V15.7578H12.1589V14.0208H10.4219ZM10.4219 14.0208V15.7578H3.47396V14.0208H1.73698V15.7578H0V12.2839H5.21094V14.0208H10.4219ZM27.7917 15.7578H26.0547V12.2839H27.7917V15.7578ZM26.0547 15.7578H24.3177V19.2318H27.7917V17.4948H26.0547V15.7578ZM19.1068 15.7578H22.5807V17.4948H20.8438V19.2318H19.1068V15.7578ZM22.5807 20.9688V19.2318H20.8438V20.9688H19.1068V22.7057H15.6328V24.4427H20.8438V20.9688H22.5807ZM22.5807 20.9688H27.7917V22.7057H24.3177V24.4427H22.5807V20.9688ZM15.6328 19.2318V20.9688H17.3698V17.4948H12.1589V19.2318H15.6328Z" fill="#F4EDE5"/>
<path d="M12.1592 20.9688H13.8962V26.1797H20.8441V27.9167H12.1592V20.9688ZM27.792 24.4427V27.9167H22.5811V26.1797H26.055V24.4427H27.792Z" fill="#F4EDE5"/>
</svg>
