<svg width="24" height="28" viewBox="0 0 24 28" fill="none" xmlns="http://www.w3.org/2000/svg">
<path d="M12 3.47266H5C4.46957 3.47266 3.96086 3.71657 3.58579 4.15075C3.21071 4.58493 3 5.1738 3 5.78782V21.994C3 22.608 3.21071 23.1969 3.58579 23.6311C3.96086 24.0652 4.46957 24.3091 5 24.3091H19C19.5304 24.3091 20.0391 24.0652 20.4142 23.6311C20.7893 23.1969 21 22.608 21 21.994V13.8909" stroke="white" stroke-width="1.5" stroke-linecap="round" stroke-linejoin="round"/>
<path d="M18.3751 3.03857C18.7729 2.57805 19.3125 2.31934 19.8751 2.31934C20.4377 2.31934 20.9773 2.57805 21.3751 3.03857C21.7729 3.49908 21.9964 4.12367 21.9964 4.77494C21.9964 5.42621 21.7729 6.0508 21.3751 6.51131L12.3621 16.9458C12.1246 17.2204 11.8313 17.4214 11.5091 17.5303L8.63609 18.5027C8.55005 18.5318 8.45883 18.5335 8.372 18.5078C8.28517 18.482 8.20592 18.4297 8.14254 18.3563C8.07916 18.283 8.03398 18.1912 8.01174 18.0907C7.98949 17.9902 7.991 17.8846 8.01609 17.785L8.85609 14.4593C8.95062 14.0866 9.12463 13.7474 9.36209 13.473L18.3751 3.03857Z" stroke="white" stroke-width="1.5" stroke-linecap="round" stroke-linejoin="round"/>
</svg>
