<svg width="57" height="54" viewBox="0 0 57 54" fill="none" xmlns="http://www.w3.org/2000/svg">
<path d="M38.6436 14.8544L38.7544 15.0448L38.9697 15.0914L53.5974 18.2605C54.0874 18.367 54.5409 18.6001 54.9128 18.9365C55.2846 19.2729 55.5618 19.7009 55.7166 20.1778C55.8715 20.6547 55.8987 21.1639 55.7954 21.6545C55.6921 22.1452 55.4621 22.6002 55.1281 22.9743L45.1571 34.1338L45.0102 34.2981L45.0325 34.5173L46.5416 49.4067L46.5416 49.4068C46.5923 49.9061 46.5111 50.4099 46.3062 50.868C46.1013 51.3261 45.7798 51.7224 45.3738 52.0174C44.9678 52.3124 44.4915 52.4957 43.9925 52.549C43.4935 52.6023 42.9893 52.5238 42.5301 52.3213L42.53 52.3213L28.8345 46.2847L28.6328 46.1958L28.4312 46.2847L14.7356 52.3213L14.7355 52.3213C14.2764 52.5238 13.7721 52.6023 13.2731 52.549C12.7741 52.4957 12.2978 52.3124 11.8918 52.0174L11.5979 52.4219L11.8918 52.0174C11.4858 51.7224 11.1643 51.3261 10.9594 50.868C10.7545 50.4099 10.6733 49.9061 10.724 49.4068L10.724 49.4067L12.2332 34.5173L12.2554 34.2981L12.1085 34.1337L2.13738 22.9768L2.13724 22.9767C1.80271 22.6026 1.57213 22.1474 1.46854 21.6564C1.36494 21.1654 1.39195 20.6559 1.54686 20.1786C1.70178 19.7013 1.97918 19.273 2.35137 18.9365C2.72357 18.5999 3.17753 18.3669 3.66795 18.2606L18.2959 15.0914L18.5112 15.0448L18.6221 14.8544L26.1543 1.9243C26.1543 1.92428 26.1543 1.92426 26.1544 1.92423C26.4069 1.49089 26.7686 1.13134 27.2035 0.881435C27.6384 0.631518 28.1312 0.5 28.6328 0.5C29.1344 0.5 29.6272 0.631518 30.0621 0.881435C30.497 1.13134 30.8587 1.49089 31.1113 1.92423C31.1113 1.92426 31.1113 1.92428 31.1113 1.9243L38.6436 14.8544Z" stroke="#F4EDE5"/>
</svg>
