<svg width="45" height="60" viewBox="0 0 45 60" fill="none" xmlns="http://www.w3.org/2000/svg">
<path d="M32.0319 13.9442C33.7711 13.9442 35.4391 13.2533 36.6689 12.0235C37.8986 10.7937 38.5895 9.12579 38.5895 7.3866C38.5895 5.64741 37.8986 3.97945 36.6689 2.74966C35.4391 1.51987 33.7711 0.828979 32.0319 0.828979C30.2927 0.828979 28.6248 1.51987 27.395 2.74966C26.1652 3.97945 25.4743 5.64741 25.4743 7.3866C25.4743 9.12579 26.1652 10.7937 27.395 12.0235C28.6248 13.2533 30.2927 13.9442 32.0319 13.9442ZM18.8584 20.1842C17.0412 20.6359 15.8011 21.315 14.8 22.1573C13.299 23.4222 12.0866 25.2466 10.4486 28.1145C10.065 28.7856 9.43054 29.2769 8.68474 29.4802C7.93894 29.6836 7.14291 29.5823 6.47178 29.1987C5.80065 28.8151 5.30938 28.1806 5.10606 27.4348C4.90273 26.689 5.004 25.893 5.38759 25.2219C7.01825 22.37 8.6664 19.7018 11.0461 17.6995C13.5292 15.6069 16.5691 14.4237 20.6683 13.9675C22.382 13.7781 24.2677 13.816 26.0353 14.6044C27.8904 15.4335 29.2457 16.9185 30.1696 18.9032C31.414 21.5744 32.3394 23.1642 33.0797 24.0867C33.4367 24.5282 33.6859 24.7337 33.8272 24.8255C33.9395 24.8984 33.9875 24.9042 34.005 24.9071C34.1318 24.9217 34.5442 24.9071 35.7508 24.3723C36.2769 24.1391 36.851 23.8593 37.5534 23.5169L37.721 23.4353C38.5801 23.0115 39.4468 22.6034 40.3207 22.2112C41.0264 21.9014 41.8259 21.8837 42.5446 22.1619C43.2632 22.4402 43.8424 22.9917 44.1555 23.6958C44.4685 24.4 44.49 25.1995 44.2151 25.9194C43.9403 26.6393 43.3915 27.2211 42.6888 27.5374C41.8788 27.9008 41.0758 28.2793 40.2799 28.6726L40.089 28.7659C39.4173 29.0938 38.7411 29.4246 38.1072 29.7044C36.7957 30.2843 35.1198 30.9139 33.3026 30.6938C31.3849 30.4607 29.9073 29.3779 28.6904 27.9251L24.7078 35.6091L30.2162 42.7759C30.5441 43.2043 30.7466 43.7143 30.8035 44.2506L32.0159 55.9028C32.0621 56.2867 32.0314 56.6759 31.9257 57.0479C31.82 57.4198 31.6413 57.767 31.4 58.0692C31.1588 58.3714 30.8599 58.6226 30.5206 58.8081C30.1813 58.9936 29.8085 59.1098 29.424 59.1498C29.0394 59.1898 28.6506 59.1529 28.2804 59.0412C27.9103 58.9295 27.566 58.7453 27.2677 58.4992C26.9694 58.2532 26.7231 57.9503 26.543 57.6081C26.363 57.2659 26.2528 56.8913 26.219 56.5061L25.091 45.6743L21.7452 41.3201L21.7161 41.374L21.5936 41.1234L15.412 33.0793C15.1081 32.684 14.9108 32.2172 14.8388 31.7238C14.7669 31.2304 14.8227 30.7267 15.0011 30.261L18.8584 20.1842Z" fill="#F4EDE5"/>
<path d="M14.4457 37.2704L12.3006 43.0411L3.84854 42.3708C3.46427 42.3351 3.07673 42.3761 2.70843 42.4913C2.34012 42.6066 1.99838 42.7939 1.70303 43.0423C1.40768 43.2907 1.16461 43.5953 0.98793 43.9384C0.811244 44.2816 0.704461 44.6563 0.673777 45.041C0.643094 45.4257 0.68912 45.8127 0.809185 46.1795C0.929251 46.5463 1.12096 46.8855 1.3732 47.1776C1.62544 47.4697 1.93317 47.7088 2.27855 47.881C2.62392 48.0532 3.00006 48.1551 3.38513 48.1808L14.0347 49.026C14.6667 49.0763 15.2979 48.9191 15.8326 48.5783C16.3672 48.2375 16.7761 47.7316 16.9973 47.1374L18.6367 42.7249L14.4457 37.2704Z" fill="#F4EDE5"/>
</svg>
