<svg width="71" height="70" viewBox="0 0 71 70" fill="none" xmlns="http://www.w3.org/2000/svg">
<path d="M29.3235 5.33632C27.2713 7.42793 27.1521 8.45529 26.1167 11.3342C26.4842 12.5829 26.8208 13.6467 27.3665 14.7656C28.0712 14.8043 28.8372 14.8298 29.4625 14.8244C28.6277 13.4298 28.3318 12.1849 28.8159 10.0053C29.4033 12.6079 30.571 14.1029 31.7125 14.6957C32.1268 14.6501 32.5264 14.598 32.9115 14.5391C32.057 13.1269 31.7511 11.8792 32.2402 9.67719C32.7726 12.0366 33.7822 13.4855 34.8168 14.1774C35.4531 14.0349 36.085 13.8709 36.7194 13.6946C35.9657 12.3707 35.7139 11.1409 36.1771 9.05545C36.6357 11.0878 37.4486 12.4449 38.3263 13.2245C38.9581 13.0295 39.5889 12.8315 40.2187 12.6306C40.1252 11.8407 40.1619 10.9656 40.3641 10.0191L40.6213 8.81691L43.0262 9.33059L42.7694 10.5334C42.2726 12.857 42.9503 13.8696 43.7675 14.4496C44.5845 15.0294 45.7744 14.9223 45.9575 14.8048L46.9925 14.1409L48.3204 16.2106C47.7935 16.5303 47.2411 16.9538 46.7053 17.1751C49.2532 20.9564 51.1021 25.5723 50.0874 29.9557C49.7643 31.25 49.2636 32.448 48.4869 33.3692C50.2254 35.0263 51.3853 36.3783 52.7264 38.0825C52.1974 37.7415 51.6649 37.4059 51.1291 37.0756C49.5721 36.1179 47.8733 35.1337 46.3502 34.3703C44.1627 33.3047 42.065 31.8832 39.8295 31.5665C36.7485 31.1612 33.5082 32.2219 29.8128 34.4437C30.8882 35.635 31.6273 36.5577 32.5877 37.7618C31.6341 37.1692 30.586 36.5227 29.4237 35.8178C24.9762 33.4297 20.4903 29.2291 15.7021 28.9883C11.5271 28.8391 7.51166 31.0314 3.45072 34.2573L2.84277 34.7408V67.4889H7.20946C13.3824 65.1067 18.178 59.6124 20.4654 54.5758L20.4996 54.4988L20.544 54.4277C21.8368 52.3441 22.067 50.3719 22.8378 48.3166C23.609 46.2613 25.1476 44.2566 28.5598 43.0219C29.1545 42.7268 29.2525 42.8285 29.7393 43.2124C33.9017 46.4926 37.566 47.5869 41.1113 47.632C45.5663 47.4193 49.0954 46.282 52.8169 44.9844C52.2751 45.4664 51.6187 45.9694 50.9062 46.4546C48.8128 47.8804 46.2315 49.1771 44.5802 49.8427C42.5698 50.1168 40.7058 50.1728 38.8468 49.9269C37.4861 51.5786 35.353 52.7081 33.7442 53.5709C42.4767 55.4867 49.5754 53.6952 56.612 50.4429C55.3111 50.1947 54.0151 49.9385 52.7875 49.7024C57.1092 49.0983 61.6654 49.1879 65.7258 49.2202C66.2838 49.2174 66.7112 49.1583 66.9144 49.0991C68.8498 42.1218 66.3549 35.7253 62.2292 29.2602C58.0948 22.7811 52.3682 16.4035 48.3085 9.71845C45.4259 7.36085 41.6689 5.42116 37.7177 3.41016C34.9326 3.99078 32.1128 4.68548 29.3235 5.33632ZM40.9886 14.9665C39.3932 15.4583 37.7494 15.9808 36.3638 16.3343C36.709 17.0078 36.8741 17.7912 36.8276 18.5477C38.3342 18.6675 39.7078 18.272 40.7847 17.6794C41.4467 17.3152 41.9788 16.8531 42.3441 16.4553C41.8176 16.0817 41.3522 15.5796 40.9884 14.9662L40.9886 14.9665ZM33.5822 16.9745C31.9755 17.1306 30.2227 17.2971 28.7924 17.2799C29.1189 17.9319 29.3088 18.9285 29.955 19.3073C31.4823 19.4663 32.7693 19.5802 34.0412 19.0688C34.7837 18.6297 34.2896 17.0116 33.5822 16.9745ZM28.8033 45.5728C26.3998 46.5609 25.7177 47.6412 25.1402 49.1803C24.594 50.6366 24.2895 52.6061 23.162 54.7835C27.5733 53.9119 32.6739 51.8831 35.9837 49.3068C33.6589 48.6103 31.2632 47.4144 28.8036 45.5728H28.8033ZM30.0763 55.3252C27.5184 56.3139 24.4974 57.5307 21.9208 57.2463C20.0256 61.0242 17.3258 64.7606 12.9199 67.4889H24.4886C27.4347 63.418 29.6892 59.7598 30.0763 55.3252Z" fill="#F4EDE5"/>
</svg>
