<svg width="69" height="68" viewBox="0 0 69 68" fill="none" xmlns="http://www.w3.org/2000/svg">
<path d="M11.2207 2.43741L8.86752 2.85034L10.1053 9.83413C9.4056 9.94252 8.70643 10.0543 8.00782 10.1695L7.14453 5.29808L4.79136 5.71062L5.65293 10.5695C4.89135 10.703 4.13041 10.84 3.37012 10.9805L3.80714 13.3173C4.56754 13.1765 5.32012 13.0413 6.06764 12.91L7.00434 18.1948L9.35764 17.7823L8.42307 12.5094C9.12719 12.3933 9.82626 12.2815 10.5203 12.174L11.8182 19.4964L14.1715 19.0836L12.8842 11.8219C13.9971 11.6632 15.1114 11.5144 16.2269 11.3756C18.2899 17.5016 20.833 24.5803 25.1128 29.1299C26.2706 33.1445 26.4219 35.3905 29.4168 40.9367C26.4219 45.9547 24.2979 54.4062 23.131 62.1973L16.7589 62.9897V64.9705H26.4219C28.5459 58.6319 34.918 45.9547 34.918 45.9547C34.918 45.9547 41.2901 58.6319 43.4142 64.9705H53.0772V62.9897L46.7051 62.1973C45.5382 54.4062 43.4142 45.9547 39.9626 40.9367C43.4142 35.3905 43.1719 33.0683 44.7191 29.1342C49.0004 24.5846 51.5453 17.5035 53.6092 11.3758C54.7129 11.5132 55.8257 11.6611 56.9519 11.8222L55.6647 19.0838L58.0181 19.4964L59.3161 12.174C60.0102 12.2815 60.7093 12.3933 61.4135 12.5094L60.4787 17.7823L62.832 18.195L63.7687 12.9102C64.5161 13.0413 65.2688 13.1765 66.0292 13.3173L66.4662 10.9805C65.6989 10.8385 64.9386 10.7018 64.1835 10.5694L65.0451 5.71036L62.6918 5.29769L61.8284 10.1691C61.1298 10.0538 60.4306 9.94198 59.7309 9.83373L60.9687 2.84994L58.6155 2.43701L57.3668 9.48207C49.5184 8.36041 42.217 7.79654 34.918 7.79654C27.6193 7.79654 20.3175 8.36041 12.4694 9.48247L11.2207 2.43741ZM34.918 10.1656C39.6347 10.1656 44.3527 10.4072 49.2317 10.887C47.3622 15.4901 44.1268 20.5935 40.8413 24.3521C39.4705 26.3144 37.354 27.5993 34.918 27.5993C32.482 27.5993 30.3654 26.3144 28.9946 24.3521C25.7093 20.5935 22.4738 15.49 20.6044 10.887C25.4831 10.4072 30.2011 10.1656 34.918 10.1656ZM34.918 12.8093C32.1521 12.8093 29.7407 15.4821 29.7407 19.0158C29.7407 22.5496 32.1521 25.2223 34.918 25.2223C37.6839 25.2223 40.0954 22.5496 40.0954 19.0158C40.0954 15.4821 37.6839 12.8093 34.918 12.8093Z" fill="#F4EDE5"/>
</svg>
