<svg width="56" height="55" viewBox="0 0 56 55" fill="none" xmlns="http://www.w3.org/2000/svg">
<path d="M30.4561 4.29384C29.8244 3.69656 28.988 3.36377 28.1186 3.36377C27.2492 3.36377 26.4127 3.69656 25.781 4.29384L9.29893 19.8708C8.79427 20.3484 8.39243 20.9239 8.11802 21.5623C7.84362 22.2006 7.70244 22.8882 7.70313 23.583V42.5353C7.70403 43.8884 8.24215 45.1857 9.19922 46.1421C10.1563 47.0985 11.4539 47.6358 12.807 47.6358H17.9108C19.2645 47.6358 20.5627 47.0981 21.5198 46.1409C22.477 45.1838 23.0147 43.8856 23.0147 42.5319V34.0255C23.0147 33.5743 23.1939 33.1416 23.513 32.8225C23.8321 32.5035 24.2648 32.3242 24.716 32.3242H31.5211C31.9723 32.3242 32.4051 32.5035 32.7241 32.8225C33.0432 33.1416 33.2224 33.5743 33.2224 34.0255V42.5319C33.2224 43.8856 33.7601 45.1838 34.7173 46.1409C35.6745 47.0981 36.9727 47.6358 38.3263 47.6358H43.4301C44.7838 47.6358 46.082 47.0981 47.0391 46.1409C47.9963 45.1838 48.534 43.8856 48.534 42.5319V23.5796C48.5338 22.8851 48.3918 22.198 48.1169 21.5603C47.8419 20.9226 47.4397 20.3477 46.9348 19.8708L30.4561 4.29384Z" fill="#F4EDE5"/>
</svg>
