<svg width="62" height="61" viewBox="0 0 62 61" fill="none" xmlns="http://www.w3.org/2000/svg">
<path d="M5.73926 53.3622L23.5267 12.7052L36.232 43.198L41.3141 27.9516L56.5605 53.3622H5.73926ZM47.6668 17.7873C49.3516 17.7873 50.9674 17.118 52.1588 15.9267C53.3502 14.7353 54.0194 13.1195 54.0194 11.4347C54.0194 9.74986 53.3502 8.13404 52.1588 6.94268C50.9674 5.75133 49.3516 5.08203 47.6668 5.08203C45.982 5.08203 44.3661 5.75133 43.1748 6.94268C41.9834 8.13404 41.3141 9.74986 41.3141 11.4347C41.3141 13.1195 41.9834 14.7353 43.1748 15.9267C44.3661 17.118 45.982 17.7873 47.6668 17.7873Z" fill="#F4EDE5" stroke="#F4EDE5" stroke-width="2" stroke-linejoin="round"/>
</svg>
