<svg width="83" height="82" viewBox="0 0 83 82" fill="none" xmlns="http://www.w3.org/2000/svg">
<path fill-rule="evenodd" clip-rule="evenodd" d="M60.8295 61.1926C61.1882 60.9236 61.639 60.8081 62.0828 60.8715C62.5266 60.9349 62.9271 61.172 63.1961 61.5307L67.7602 67.6161H70.2958C70.7441 67.6161 71.1741 67.7942 71.4911 68.1112C71.8081 68.4283 71.9862 68.8582 71.9862 69.3065C71.9862 69.7549 71.8081 70.1848 71.4911 70.5018C71.1741 70.8189 70.7441 70.9969 70.2958 70.9969H61.8437C61.3954 70.9969 60.9654 70.8189 60.6484 70.5018C60.3314 70.1848 60.1533 69.7549 60.1533 69.3065C60.1533 68.8582 60.3314 68.4283 60.6484 68.1112C60.9654 67.7942 61.3954 67.6161 61.8437 67.6161H63.5341L60.4914 63.5591C60.2224 63.2005 60.1069 62.7497 60.1703 62.3058C60.2337 61.862 60.4708 61.4616 60.8295 61.1926Z" fill="#F4EDE5"/>
<path fill-rule="evenodd" clip-rule="evenodd" d="M56.7733 64.2355C59.4015 64.235 61.9848 63.5536 64.2714 62.2578C66.558 60.9619 68.4699 59.0958 69.8207 56.8413C71.1716 54.5868 71.9154 52.0207 71.9795 49.3933C72.0437 46.7658 71.4261 44.1665 70.1869 41.8487C68.9477 39.5309 67.1292 37.5737 64.9086 36.1678C62.688 34.7619 60.1411 33.9552 57.516 33.8264C54.8909 33.6976 52.2772 34.251 49.9296 35.4328C47.5821 36.6146 45.5807 38.3844 44.1205 40.5697H56.0582C58.2793 40.5683 60.4253 41.3733 62.0974 42.8351C63.7696 44.297 64.8542 46.3161 65.1496 48.5174C65.4451 50.7188 64.9313 52.9525 63.7037 54.8034C62.4761 56.6544 60.6183 57.9968 58.4755 58.581L47.9916 61.4463C50.5581 63.2654 53.6274 64.2403 56.7733 64.2355ZM45.0689 58.7416L57.583 55.3186C58.9348 54.9493 60.1066 54.1019 60.8809 52.9339C61.6552 51.7659 61.9793 50.3565 61.793 48.9676C61.6067 47.5787 60.9227 46.3046 59.868 45.3819C58.8133 44.4592 57.4596 43.9506 56.0582 43.9506H42.4251C41.8508 45.5796 41.5581 47.2945 41.5596 49.0218C41.5596 52.717 42.8781 56.1046 45.0689 58.7416Z" fill="#F4EDE5"/>
<path fill-rule="evenodd" clip-rule="evenodd" d="M52.6636 63.6744C50.9903 63.2041 49.41 62.4505 47.9913 61.4464L58.4752 58.5812C60.618 57.9969 62.4758 56.6546 63.7034 54.8036C64.9309 52.9526 65.4448 50.7189 65.1493 48.5176C64.8539 46.3163 63.7693 44.2971 62.0971 42.8353C60.425 41.3735 58.2789 40.5685 56.0579 40.5699H44.1202C44.9732 39.2936 46.0145 38.1537 47.2086 37.1891C49.2387 35.5495 51.6564 34.4596 54.2294 34.0243C56.8023 33.5889 59.444 33.8227 61.9005 34.7031C64.3571 35.5835 66.5458 37.081 68.2564 39.0517C69.9671 41.0223 71.1421 43.3998 71.6685 45.9557C72.1949 48.5116 72.055 51.1599 71.2623 53.6461C70.4696 56.1323 69.0508 58.3729 67.1421 60.1524C65.2334 61.9319 62.8991 63.1905 60.3635 63.8073C57.828 64.4241 55.1763 64.3783 52.6636 63.6744ZM68.6007 49.3735C68.6041 49.2586 68.6058 49.1414 68.6058 49.0219C68.6058 47.4381 68.2879 45.8704 67.6709 44.4117C67.0538 42.9531 66.1502 41.6331 65.0137 40.5301C63.8771 39.4271 62.5306 38.5635 61.0541 37.9904C59.5776 37.4174 58.0011 37.1466 56.4179 37.1941C59.6195 37.2864 62.6647 38.5994 64.9297 40.864C67.1946 43.1287 68.508 46.172 68.6007 49.3735ZM45.0685 58.7418L57.5826 55.3204C58.9359 54.9523 60.1095 54.1053 60.885 52.9368C61.6606 51.7683 61.9853 50.3579 61.7989 48.9679C61.6125 47.5779 60.9276 46.3029 59.8716 45.38C58.8156 44.4572 57.4603 43.9492 56.0579 43.9507H42.4247C41.8505 45.5797 41.5578 47.2947 41.5593 49.0219C41.5593 52.7172 42.8778 56.1047 45.0685 58.7418ZM45.0584 47.3315C44.9795 47.8837 44.9395 48.4472 44.9384 49.0219C44.9384 51.1451 45.4962 53.1313 46.4716 54.8522L56.6901 52.0579C57.2524 51.9048 57.74 51.5528 58.0622 51.0672C58.3845 50.5817 58.5195 49.9957 58.4423 49.4181C58.365 48.8405 58.0807 48.3105 57.6421 47.9268C57.2036 47.543 56.6406 47.3315 56.0579 47.3315H45.0584ZM23.979 61.1929C24.3377 61.4619 24.5748 61.8623 24.6382 62.3061C24.7016 62.75 24.5861 63.2008 24.3171 63.5594L19.2459 70.3211C18.9769 70.6797 18.5764 70.9168 18.1326 70.9803C17.6888 71.0437 17.238 70.9282 16.8793 70.6592C16.5206 70.3902 16.2835 69.9897 16.2201 69.5459C16.1567 69.1021 16.2722 68.6512 16.5412 68.2926L21.6124 61.531C21.8814 61.1723 22.2819 60.9352 22.7257 60.8718C23.1695 60.8084 23.6204 60.9239 23.979 61.1929Z" fill="#F4EDE5"/>
<path d="M12.8223 69.3066C12.8223 68.8583 13.0004 68.4283 13.3174 68.1113C13.6344 67.7943 14.0643 67.6162 14.5127 67.6162H22.9647C23.413 67.6162 23.843 67.7943 24.16 68.1113C24.477 68.4283 24.6551 68.8583 24.6551 69.3066C24.6551 69.7549 24.477 70.1849 24.16 70.5019C23.843 70.8189 23.413 70.997 22.9647 70.997H14.5127C14.0643 70.997 13.6344 70.8189 13.3174 70.5019C13.0004 70.1849 12.8223 69.7549 12.8223 69.3066Z" fill="#F4EDE5"/>
<path fill-rule="evenodd" clip-rule="evenodd" d="M14.5127 67.6164C14.0643 67.6164 13.6344 67.7945 13.3174 68.1115C13.0004 68.4285 12.8223 68.8585 12.8223 69.3068C12.8223 69.7551 13.0004 70.1851 13.3174 70.5021C13.6344 70.8191 14.0643 70.9972 14.5127 70.9972H22.9647C23.413 70.9972 23.843 70.8191 24.16 70.5021C24.477 70.1851 24.6551 69.7551 24.6551 69.3068C24.6551 68.8585 24.477 68.4285 24.16 68.1115C23.843 67.7945 23.413 67.6164 22.9647 67.6164H14.5127ZM14.5127 54.1269C14.5127 51.428 15.5848 48.8397 17.4932 46.9312C19.4016 45.0228 21.99 43.9507 24.6889 43.9507H56.0629C57.4579 43.9497 58.8063 44.4531 59.8593 45.3682C60.9123 46.2832 61.5989 47.5482 61.7924 48.9297C61.986 50.3113 61.6735 51.7162 60.9125 52.8854C60.1516 54.0546 58.9935 54.9092 57.6519 55.2916L27.4832 63.911C20.9836 65.7671 14.5127 60.8852 14.5127 54.1269ZM27.5829 55.7835C27.2108 56.428 26.6364 56.9317 25.9488 57.2165C25.2613 57.5013 24.4989 57.5512 23.7801 57.3586C23.0612 57.166 22.426 56.7416 21.973 56.1512C21.5199 55.5607 21.2743 54.8373 21.2743 54.0931C21.2743 53.3489 21.5199 52.6255 21.973 52.0351C22.426 51.4447 23.0612 51.0203 23.7801 50.8277C24.4989 50.6351 25.2613 50.685 25.9488 50.9698C26.6364 51.2546 27.2108 51.7582 27.5829 52.4027H33.1072C33.5555 52.4027 33.9855 52.5808 34.3025 52.8978C34.6195 53.2148 34.7976 53.6448 34.7976 54.0931C34.7976 54.5415 34.6195 54.9714 34.3025 55.2884C33.9855 55.6055 33.5555 55.7835 33.1072 55.7835H27.5829Z" fill="#F4EDE5"/>
<path fill-rule="evenodd" clip-rule="evenodd" d="M17.8935 54.11V54.1269C17.8935 58.6403 22.2142 61.8994 26.5552 60.6604L31.7887 59.1644H29.1263C28.1514 60.0237 26.9495 60.5839 25.6644 60.7779C24.3794 60.9719 23.0657 60.7915 21.8806 60.2582C20.6954 59.7249 19.6891 58.8614 18.982 57.7711C18.2749 56.6807 17.897 55.4096 17.8935 54.11ZM24.672 47.3315H56.0629C56.6425 47.3306 57.2029 47.5395 57.6405 47.9195C58.0781 48.2996 58.3634 48.8251 58.4437 49.3991C58.5241 49.9731 58.394 50.5568 58.0776 51.0424C57.7612 51.528 57.2797 51.8827 56.7222 52.041L36.5691 57.7985C37.3127 57.1038 37.83 56.2014 38.0538 55.2087C38.2777 54.216 38.1977 53.1789 37.8243 52.2323C37.4509 51.2857 36.8014 50.4733 35.9601 49.9007C35.1189 49.3282 34.1248 49.022 33.1072 49.0219H29.1263C27.8958 47.9367 26.3127 47.3359 24.672 47.3315ZM27.5829 55.7835C27.2108 56.428 26.6364 56.9317 25.9488 57.2165C25.2613 57.5013 24.499 57.5512 23.7801 57.3586C23.0613 57.166 22.4261 56.7416 21.973 56.1512C21.5199 55.5607 21.2744 54.8373 21.2743 54.0931C21.2744 53.3489 21.5199 52.6255 21.973 52.0351C22.4261 51.4447 23.0613 51.0203 23.7801 50.8277C24.499 50.635 25.2613 50.685 25.9488 50.9698C26.6364 51.2546 27.2108 51.7582 27.5829 52.4027H33.1072C33.5555 52.4027 33.9855 52.5808 34.3025 52.8978C34.6195 53.2148 34.7976 53.6448 34.7976 54.0931C34.7976 54.5415 34.6195 54.9714 34.3025 55.2884C33.9855 55.6054 33.5555 55.7835 33.1072 55.7835H27.5829ZM24.689 43.9507C21.99 43.9507 19.4017 45.0228 17.4933 46.9312C15.5848 48.8397 14.5127 51.428 14.5127 54.1269C14.5127 60.8869 20.9836 65.7671 27.4832 63.911L57.6502 55.2899C58.9903 54.9064 60.1467 54.0517 60.9064 52.8831C61.6662 51.7145 61.9782 50.3108 61.785 48.9304C61.5917 47.55 60.9063 46.2859 59.8548 45.3709C58.8034 44.4559 57.4568 43.9515 56.0629 43.9507H24.689Z" fill="#F4EDE5"/>
<path fill-rule="evenodd" clip-rule="evenodd" d="M19.0801 30.505C19.5078 30.3717 19.9709 30.4136 20.3677 30.6215C20.7646 30.8294 21.0626 31.1864 21.1964 31.6139L25.4225 45.1372C25.5394 45.56 25.4875 46.0118 25.2775 46.397C25.0675 46.7822 24.716 47.0706 24.2973 47.2015C23.8785 47.3323 23.4253 47.2951 23.0334 47.0979C22.6415 46.9007 22.3417 46.5589 22.1972 46.1447L17.9711 32.6214C17.8378 32.1937 17.8797 31.7306 18.0876 31.3337C18.2955 30.9369 18.6525 30.6389 19.0801 30.505ZM60.7334 10.2438C60.942 10.32 61.1336 10.4365 61.2971 10.5868C61.4606 10.737 61.593 10.918 61.6865 11.1195C61.7801 11.3209 61.833 11.5387 61.8424 11.7606C61.8517 11.9825 61.8172 12.2041 61.7409 12.4126L60.0505 17.0409C59.9684 17.2659 59.8394 17.4708 59.6721 17.6422C59.5049 17.8135 59.3031 17.9474 59.0802 18.0349L53.015 20.4099L58.3584 34.9136C58.4407 35.123 58.4803 35.3467 58.475 35.5716C58.4697 35.7965 58.4195 36.0181 58.3275 36.2234C58.2355 36.4287 58.1034 36.6135 57.9389 36.7671C57.7745 36.9207 57.5811 37.0399 57.3701 37.1177C57.159 37.1956 56.9345 37.2305 56.7098 37.2205C56.485 37.2105 56.2645 37.1557 56.0612 37.0594C55.8579 36.963 55.6759 36.8271 55.5258 36.6595C55.3757 36.4919 55.2606 36.296 55.1872 36.0834L49.2708 20.0245C49.1177 19.6095 49.1334 19.151 49.3144 18.7475C49.4955 18.3439 49.8276 18.0274 50.2394 17.8659L57.1362 15.1646L58.5663 11.253C58.7202 10.8321 59.0349 10.4895 59.4413 10.3006C59.8477 10.1117 60.3124 10.0902 60.7334 10.2438Z" fill="#F4EDE5"/>
<path d="M11.1318 28.9906C11.1316 28.3172 11.2724 27.6513 11.5453 27.0358C11.8183 26.4203 12.2172 25.8688 12.7163 25.4169C13.2155 24.9651 13.8039 24.6228 14.4434 24.4124C15.083 24.2019 15.7596 24.1278 16.4296 24.1949L24.0398 24.9556C25.1726 25.0687 26.2187 25.613 26.9615 26.4758C27.7043 27.3386 28.087 28.4538 28.0306 29.5909C27.9741 30.728 27.4828 31.7999 26.6582 32.5849C25.8336 33.3698 24.7388 33.8078 23.6003 33.8082H15.9495C14.6718 33.8082 13.4464 33.3007 12.5429 32.3972C11.6394 31.4937 11.1318 30.2683 11.1318 28.9906Z" fill="#F4EDE5"/>
<path fill-rule="evenodd" clip-rule="evenodd" d="M23.7049 28.3211L16.093 27.5604C15.8995 27.5416 15.7043 27.5622 15.519 27.621C15.3338 27.6799 15.1624 27.7756 15.0152 27.9026C14.868 28.0296 14.7482 28.1851 14.6628 28.3597C14.5775 28.5344 14.5285 28.7245 14.5188 28.9186C14.509 29.1127 14.5388 29.3068 14.6062 29.4891C14.6737 29.6714 14.7774 29.8381 14.9111 29.9791C15.0449 30.1202 15.2058 30.2326 15.3843 30.3097C15.5627 30.3867 15.7549 30.4267 15.9493 30.4274H23.5984C23.8672 30.4243 24.1248 30.3188 24.3185 30.1324C24.5123 29.946 24.6277 29.6928 24.6413 29.4243C24.6549 29.1558 24.5656 28.8922 24.3916 28.6872C24.2176 28.4822 23.972 28.3513 23.7049 28.3211ZM16.4294 24.1965C15.7799 24.1319 15.1241 24.1999 14.5018 24.3964C13.8794 24.593 13.3035 24.9139 12.8089 25.3397C12.3144 25.7655 11.9115 26.2874 11.6247 26.8737C11.338 27.46 11.1733 28.0984 11.1408 28.7502C11.1082 29.402 11.2084 30.0537 11.4353 30.6656C11.6623 31.2775 12.0111 31.8369 12.4608 32.3099C12.9105 32.7829 13.4516 33.1596 14.0512 33.4172C14.6509 33.6747 15.2966 33.8078 15.9493 33.8082H23.5984C24.7342 33.804 25.8251 33.3645 26.6466 32.5801C27.4681 31.7957 27.9575 30.7262 28.014 29.5918C28.0706 28.4574 27.6899 27.3445 26.9506 26.4823C26.2112 25.6201 25.1693 25.0743 24.0396 24.9572L16.4294 24.1965Z" fill="#F4EDE5"/>
</svg>
