<svg width="68" height="68" viewBox="0 0 68 68" fill="none" xmlns="http://www.w3.org/2000/svg">
<path fill-rule="evenodd" clip-rule="evenodd" d="M33.9586 18.1863C35.6282 18.1863 37.2295 17.5231 38.4101 16.3425C39.5907 15.1619 40.2539 13.5606 40.2539 11.891C40.2539 10.2214 39.5907 8.62016 38.4101 7.43956C37.2295 6.25896 35.6282 5.5957 33.9586 5.5957C32.289 5.5957 30.6878 6.25896 29.5072 7.43956C28.3266 8.62016 27.6633 10.2214 27.6633 11.891C27.6633 13.5606 28.3266 15.1619 29.5072 16.3425C30.6878 17.5231 32.289 18.1863 33.9586 18.1863ZM53.4321 21.5998C53.6399 22.3122 53.5562 23.0779 53.1994 23.7285C52.8426 24.3792 52.2419 24.8614 51.5295 25.0692C48.2056 26.0373 45.2034 26.7675 42.3524 27.253V58.7561C42.3532 59.4768 42.0759 60.17 41.5783 60.6913C41.0807 61.2126 40.4011 61.5218 39.6812 61.5544C38.9613 61.587 38.2565 61.3406 37.7137 60.8665C37.171 60.3924 36.8321 59.7271 36.7677 59.0093L35.3688 43.6208C35.3612 43.5366 35.3575 43.4521 35.3576 43.3676H32.5597C32.5598 43.4521 32.556 43.5366 32.5485 43.6208L31.1495 59.0093C31.0851 59.7271 30.7462 60.3924 30.2035 60.8665C29.6607 61.3406 28.956 61.587 28.2361 61.5544C27.5161 61.5218 26.8365 61.2126 26.3389 60.6913C25.8413 60.17 25.564 59.4768 25.5649 58.7561V27.2012C22.7208 26.7116 19.7298 25.9967 16.4227 25.079C16.0652 24.9838 15.7302 24.8187 15.437 24.5932C15.1437 24.3677 14.8981 24.0862 14.7144 23.7652C14.5306 23.4442 14.4123 23.0899 14.3664 22.7228C14.3204 22.3558 14.3477 21.9832 14.4467 21.6268C14.5457 21.2704 14.7143 20.9371 14.9429 20.6463C15.1715 20.3555 15.4555 20.1128 15.7785 19.9325C16.1014 19.7521 16.457 19.6376 16.8245 19.5955C17.192 19.5535 17.5642 19.5847 17.9196 19.6874C24.366 21.4753 29.2092 22.3622 33.9712 22.3832C38.7221 22.4042 43.5541 21.5648 49.9627 19.6972C50.6751 19.4894 51.4408 19.5732 52.0914 19.93C52.7421 20.2868 53.2243 20.8874 53.4321 21.5998Z" fill="#F4EDE5"/>
</svg>
