<svg width="71" height="70" viewBox="0 0 71 70" fill="none" xmlns="http://www.w3.org/2000/svg">
<path d="M45.0314 18.9443C46.7706 18.9443 48.4386 18.2534 49.6684 17.0237C50.8982 15.7939 51.589 14.1259 51.589 12.3867C51.589 10.6475 50.8982 8.97958 49.6684 7.74978C48.4386 6.51999 46.7706 5.8291 45.0314 5.8291C43.2922 5.8291 41.6243 6.51999 40.3945 7.74978C39.1647 8.97958 38.4738 10.6475 38.4738 12.3867C38.4738 14.1259 39.1647 15.7939 40.3945 17.0237C41.6243 18.2534 43.2922 18.9443 45.0314 18.9443ZM31.8579 25.1843C30.0407 25.636 28.8006 26.3151 27.7995 27.1574C26.2985 28.4223 25.0861 30.2468 23.4481 33.1146C23.0645 33.7858 22.4301 34.277 21.6843 34.4803C20.9385 34.6837 20.1424 34.5824 19.4713 34.1988C18.8002 33.8152 18.3089 33.1807 18.1056 32.4349C17.9022 31.6891 18.0035 30.8931 18.3871 30.222C20.0178 27.3701 21.6659 24.7019 24.0456 22.6997C26.5287 20.6071 29.5686 19.4238 33.6678 18.9677C35.3815 18.7782 37.2672 18.8161 39.0349 19.6045C40.8899 20.4336 42.2452 21.9186 43.1691 23.9034C44.4136 26.5745 45.3389 28.1643 46.0792 29.0868C46.4362 29.5283 46.6854 29.7338 46.8268 29.8256C46.939 29.8985 46.9871 29.9043 47.0045 29.9072C47.1313 29.9218 47.5437 29.9072 48.7503 29.3724C49.2764 29.1392 49.8506 28.8595 50.5529 28.517L50.7205 28.4354C51.5796 28.0116 52.4463 27.6035 53.3203 27.2113C54.0259 26.9015 54.8254 26.8838 55.5441 27.1621C56.2627 27.4403 56.8419 27.9918 57.155 28.6959C57.468 29.4001 57.4895 30.1996 57.2146 30.9195C56.9398 31.6394 56.391 32.2212 55.6883 32.5376C54.8784 32.9009 54.0753 33.2794 53.2795 33.6728L53.0886 33.766C52.4168 34.0939 51.7406 34.4247 51.1067 34.7045C49.7952 35.2845 48.1193 35.914 46.3022 35.694C44.3844 35.4608 42.9068 34.3781 41.69 32.9252L37.7073 40.6093L43.2157 47.776C43.5436 48.2044 43.7461 48.7145 43.803 49.2507L45.0154 60.9029C45.0616 61.2868 45.0309 61.6761 44.9252 62.048C44.8195 62.4199 44.6408 62.7671 44.3996 63.0693C44.1583 63.3715 43.8594 63.6227 43.5201 63.8082C43.1808 63.9937 42.8081 64.1099 42.4235 64.1499C42.0389 64.1899 41.6502 64.153 41.28 64.0413C40.9098 63.9297 40.5655 63.7454 40.2672 63.4994C39.9689 63.2533 39.7226 62.9504 39.5425 62.6082C39.3625 62.266 39.2523 61.8914 39.2185 61.5062L38.0906 50.6745L34.7447 46.3202L34.7156 46.3741L34.5932 46.1235L28.4115 38.0795C28.1076 37.6841 27.9103 37.2174 27.8383 36.7239C27.7664 36.2305 27.8222 35.7268 28.0006 35.2612L31.8579 25.1843Z" fill="#F4EDE5"/>
<path d="M27.4452 42.2705L25.3001 48.0412L16.8481 47.3709C16.4638 47.3352 16.0762 47.3762 15.7079 47.4915C15.3396 47.6068 14.9979 47.794 14.7025 48.0424C14.4072 48.2909 14.1641 48.5955 13.9874 48.9386C13.8108 49.2817 13.704 49.6565 13.6733 50.0412C13.6426 50.4259 13.6886 50.8128 13.8087 51.1796C13.9288 51.5464 14.1205 51.8857 14.3727 52.1778C14.6249 52.4699 14.9327 52.7089 15.2781 52.8811C15.6234 53.0534 15.9996 53.1552 16.3846 53.1809L27.0342 54.0261C27.6662 54.0764 28.2974 53.9192 28.8321 53.5784C29.3667 53.2376 29.7756 52.7317 29.9968 52.1375L31.6362 47.725L27.4452 42.2705Z" fill="#F4EDE5"/>
</svg>
