<svg width="85" height="84" viewBox="0 0 85 84" fill="none" xmlns="http://www.w3.org/2000/svg">
<path fill-rule="evenodd" clip-rule="evenodd" d="M18.6249 12.1936C18.6055 11.9648 18.5412 11.742 18.4358 11.538C18.3303 11.334 18.1856 11.1528 18.0101 11.0047C17.8345 10.8566 17.6315 10.7445 17.4127 10.6749C17.1938 10.6053 16.9634 10.5794 16.7346 10.5988L13.2494 10.8961C12.7876 10.9353 12.3602 11.1562 12.0611 11.5103C11.7621 11.8645 11.6159 12.3228 11.6546 12.7847L12.2299 19.5504C11.9783 19.7258 11.7773 19.9644 11.6471 20.242C11.5168 20.5197 11.4618 20.8267 11.4877 21.1323C11.5135 21.4379 11.6193 21.7313 11.7944 21.9831C11.9695 22.2349 12.2078 22.4363 12.4852 22.5669L13.0973 29.7751C13.1167 30.0041 13.181 30.227 13.2866 30.4311C13.3922 30.6352 13.537 30.8166 13.7127 30.9647C13.8885 31.1128 14.0917 31.2248 14.3107 31.2943C14.5298 31.3639 14.7604 31.3895 14.9894 31.3699L18.4745 31.0726C18.9361 31.033 19.363 30.8119 19.6617 30.4578C19.9604 30.1037 20.1063 29.6456 20.0676 29.184L19.4223 21.5842C20.313 21.4244 21.1891 21.2729 22.0506 21.1295C22.236 24.0148 22.7676 28.9095 23.7521 33.519C24.3799 36.4568 25.2402 39.524 26.4363 41.9373C27.0309 43.1404 27.8038 44.3714 28.8268 45.3437C29.7326 46.2041 30.955 46.9648 32.4659 47.1641V54.7395L31.8975 54.5349L31.5076 54.395C29.7501 53.7654 27.963 53.1254 26.6007 52.7809C25.938 52.6131 24.936 52.3945 23.9532 52.4819C23.1141 52.5455 22.3136 52.8599 21.6554 53.3842C21.2053 53.7508 20.8431 54.2137 20.5956 54.7388C20.348 55.2638 20.2214 55.8377 20.225 56.4182C20.225 57.8574 20.7164 61.5594 21.1343 64.5164C21.392 66.3419 21.6601 68.1658 21.9387 69.9881L21.9947 70.3536L22.0104 70.4498L22.0139 70.4743V70.483L25.4711 69.9479L22.0156 70.4847C22.148 71.3337 22.5882 72.1042 23.2524 72.6493C23.9165 73.1944 24.758 73.476 25.6165 73.4403C26.4749 73.4047 27.2902 73.0543 27.9068 72.4559C28.5235 71.8576 28.8982 71.0532 28.9597 70.1962L29.6067 61.145C31.5478 61.8409 33.8176 62.6436 36.0559 63.2731C38.282 63.8992 40.725 64.4273 42.958 64.4273C45.1911 64.4273 47.6341 63.8992 49.8619 63.2731C52.0828 62.6488 54.3298 61.8532 56.2621 61.1624L56.9581 70.2154C57.0245 71.0702 57.4025 71.8707 58.0204 72.4651C58.6382 73.0594 59.4528 73.4062 60.3095 73.4394C61.1661 73.4726 62.0051 73.19 62.6672 72.6453C63.3292 72.1006 63.7681 71.3318 63.9005 70.4847L60.445 69.9479L63.9022 70.483V70.4725L63.9075 70.448L63.9214 70.3518L63.9774 69.9846C64.2557 68.1628 64.5239 66.3395 64.7818 64.5147C65.2015 61.5576 65.6911 57.8557 65.6911 56.4182C65.6911 55.3865 65.2889 54.2184 64.2624 53.3825C63.6038 52.8578 62.8026 52.5434 61.9629 52.4802C60.9801 52.3927 59.9781 52.6113 59.3171 52.7774C57.9531 53.1237 56.1677 53.7637 54.4103 54.3932L54.0203 54.5331L53.4502 54.7377V47.1711C56.7553 46.8021 58.7575 44.1231 59.8627 41.9915C61.141 39.5223 61.9769 36.4009 62.5435 33.4473C63.4318 28.8325 63.7833 23.9869 63.897 21.1505C64.748 21.2904 65.6136 21.4384 66.4938 21.5946L65.8485 29.1822C65.8098 29.6441 65.956 30.1025 66.255 30.4566C66.5541 30.8108 66.9815 31.0317 67.4433 31.0708L70.9285 31.3681C71.3904 31.4069 71.8487 31.2606 72.2029 30.9616C72.557 30.6626 72.7779 30.2352 72.8171 29.7733L73.4309 22.5652C73.7092 22.4353 73.9483 22.2343 74.1241 21.9825C74.2998 21.7306 74.406 21.4369 74.4319 21.1308C74.4578 20.8248 74.4025 20.5174 74.2716 20.2396C74.1406 19.9618 73.9387 19.7235 73.6862 19.5487L74.2632 12.783C74.302 12.3208 74.1555 11.8622 73.8561 11.508C73.5567 11.1538 73.1288 10.9331 72.6667 10.8944L69.1833 10.5971C68.9544 10.5777 68.724 10.6035 68.5052 10.6731C68.2863 10.7428 68.0833 10.8549 67.9078 11.0029C67.7322 11.151 67.5876 11.3323 67.4821 11.5363C67.3766 11.7403 67.3123 11.9631 67.2929 12.1919L66.7911 18.0955C65.6984 17.9033 64.6043 17.7197 63.5088 17.5447C63.2474 17.0707 62.8795 16.6638 62.4342 16.3561C61.9888 16.0484 61.4781 15.8483 60.9423 15.7715C60.4065 15.6947 59.8601 15.7433 59.3463 15.9136C58.8324 16.0838 58.3651 16.371 57.9811 16.7525C47.3543 15.4113 38.3572 15.413 27.9175 16.735C27.5335 16.3593 27.0681 16.0772 26.5575 15.9104C26.0468 15.7436 25.5046 15.6967 24.9729 15.7733C24.4412 15.8499 23.9343 16.048 23.4915 16.3521C23.0487 16.6563 22.6819 17.0584 22.4196 17.5272C21.3412 17.6985 20.243 17.8839 19.125 18.0833L18.6249 12.1936ZM30.5913 32.0589C29.7776 28.1234 29.2446 24.135 28.9964 20.124C38.6685 18.9471 47.0885 18.9471 56.9319 20.1485C56.8672 22.4777 56.5682 27.4825 55.6746 32.1271C55.15 34.8568 54.468 37.2 53.6513 38.7756C53.0953 39.8476 52.7158 40.1483 52.5881 40.22H33.592C33.3892 40.0084 33.0744 39.58 32.7037 38.8316C31.8958 37.2 31.1788 34.8043 30.5913 32.0589ZM50.8272 28.8535C50.8272 30.9405 49.9981 32.9421 48.5224 34.4178C47.0466 35.8936 45.0451 36.7226 42.958 36.7226C40.871 36.7226 38.8695 35.8936 37.3937 34.4178C35.918 32.9421 35.0889 30.9405 35.0889 28.8535C35.0889 26.7665 35.918 24.7649 37.3937 23.2892C38.8695 21.8134 40.871 20.9844 42.958 20.9844C45.0451 20.9844 47.0466 21.8134 48.5224 23.2892C49.9981 24.7649 50.8272 26.7665 50.8272 28.8535Z" fill="#F4EDE5"/>
</svg>
