<svg width="22" height="20" viewBox="0 0 22 20" fill="none" xmlns="http://www.w3.org/2000/svg">
<path d="M11 3.25C15.044 3.25 18.4085 6.16 19.1143 10C18.4093 13.84 15.044 16.75 11 16.75C6.956 16.75 3.5915 13.84 2.88575 10C3.59075 6.16 6.956 3.25 11 3.25ZM11 15.25C12.5296 15.2497 14.0138 14.7301 15.2096 13.7764C16.4055 12.8226 17.2422 11.4912 17.5828 10C17.2409 8.50998 16.4037 7.18 15.208 6.22752C14.0122 5.27504 12.5287 4.7564 11 4.7564C9.47127 4.7564 7.98777 5.27504 6.79203 6.22752C5.5963 7.18 4.75908 8.50998 4.41725 10C4.75782 11.4912 5.59451 12.8226 6.79036 13.7764C7.98621 14.7301 9.4704 15.2497 11 15.25V15.25ZM11 13.375C10.1049 13.375 9.24645 13.0194 8.61351 12.3865C7.98058 11.7535 7.625 10.8951 7.625 10C7.625 9.10489 7.98058 8.24645 8.61351 7.61351C9.24645 6.98058 10.1049 6.625 11 6.625C11.8951 6.625 12.7535 6.98058 13.3865 7.61351C14.0194 8.24645 14.375 9.10489 14.375 10C14.375 10.8951 14.0194 11.7535 13.3865 12.3865C12.7535 13.0194 11.8951 13.375 11 13.375ZM11 11.875C11.4973 11.875 11.9742 11.6775 12.3258 11.3258C12.6775 10.9742 12.875 10.4973 12.875 10C12.875 9.50272 12.6775 9.02581 12.3258 8.67417C11.9742 8.32254 11.4973 8.125 11 8.125C10.5027 8.125 10.0258 8.32254 9.67417 8.67417C9.32254 9.02581 9.125 9.50272 9.125 10C9.125 10.4973 9.32254 10.9742 9.67417 11.3258C10.0258 11.6775 10.5027 11.875 11 11.875Z" fill="#99A0AE"/>
<rect x="0.754487" y="16.5729" width="1.50897" height="24.5322" rx="0.754487" transform="rotate(-120 0.754487 16.5729)" fill="#99A0AE"/>
</svg>
