<svg width="57" height="54" viewBox="0 0 57 54" fill="none" xmlns="http://www.w3.org/2000/svg">
<path d="M38.6128 14.8544L38.7237 15.0448L38.939 15.0914L53.5666 18.2605C54.0566 18.367 54.5101 18.6001 54.882 18.9365C55.2538 19.2729 55.531 19.7009 55.6859 20.1778C55.8407 20.6547 55.8679 21.1639 55.7646 21.6545C55.6614 22.1452 55.4313 22.6002 55.0973 22.9743L45.1263 34.1338L44.9795 34.2981L45.0017 34.5173L46.5108 49.4067L46.5108 49.4068C46.5616 49.9061 46.4804 50.4099 46.2755 50.868C46.0705 51.3261 45.749 51.7224 45.343 52.0174C44.937 52.3124 44.4608 52.4957 43.9618 52.549C43.4628 52.6023 42.9585 52.5238 42.4994 52.3213L42.4993 52.3213L28.8037 46.2847L28.6021 46.1958L28.4004 46.2847L14.7049 52.3213L14.7048 52.3213C14.2456 52.5238 13.7413 52.6023 13.2423 52.549C12.7433 52.4957 12.2671 52.3124 11.8611 52.0174L11.5672 52.4219L11.8611 52.0174C11.4551 51.7224 11.1336 51.3261 10.9287 50.868C10.7237 50.4099 10.6426 49.9061 10.6933 49.4068L10.6933 49.4067L12.2024 34.5173L12.2247 34.2981L12.0778 34.1337L2.10662 22.9768L2.10648 22.9767C1.77195 22.6026 1.54137 22.1474 1.43778 21.6564C1.33418 21.1654 1.36119 20.6559 1.5161 20.1786C1.67101 19.7013 1.94842 19.273 2.32061 18.9365C2.6928 18.5999 3.14677 18.3669 3.63719 18.2606L18.2652 15.0914L18.4804 15.0448L18.5913 14.8544L26.1236 1.9243C26.1236 1.92428 26.1236 1.92426 26.1236 1.92423C26.3761 1.49089 26.7379 1.13134 27.1728 0.881435C27.6076 0.631518 28.1005 0.5 28.6021 0.5C29.1036 0.5 29.5965 0.631518 30.0314 0.881435C30.4662 1.13134 30.828 1.49089 31.0805 1.92423C31.0805 1.92426 31.0805 1.92428 31.0806 1.9243L38.6128 14.8544Z" fill="#F4EDE5" stroke="#F4EDE5"/>
</svg>
