<svg width="24" height="24" viewBox="0 0 24 24" fill="none" xmlns="http://www.w3.org/2000/svg">
<path d="M20.638 14.136L20.588 13.639L20.573 13.64L20.556 13.643L20.638 14.136ZM20.638 14.136L20.688 14.634L20.705 14.632L20.721 14.629L20.638 14.136ZM16.598 19.618L16.915 19.231L16.91 19.228L16.598 19.618ZM16.598 19.618L16.281 20.005L16.286 20.009L16.598 19.618ZM7.402 19.618L7.085 19.232L7.078 19.238L7.07 19.245L7.402 19.618ZM7.402 19.618L7.719 20.006L7.727 19.999L7.734 19.993L7.402 19.618ZM3.361 9.864V9.364H3.337L3.312 9.366L3.361 9.864ZM3.361 9.864V10.364H3.386L3.411 10.361L3.361 9.864ZM14.632 3.311C14.6172 3.12967 14.5962 2.9489 14.569 2.769C14.5465 2.60971 14.4986 2.45506 14.427 2.311L13.538 2.77C13.548 2.79 13.565 2.83 13.582 2.934C13.601 3.044 13.615 3.187 13.638 3.41L14.632 3.311ZM14.828 4.514C14.816 4.499 14.78 4.438 14.741 4.224C14.6942 3.92103 14.6592 3.61651 14.634 3.311L13.638 3.41C13.678 3.811 13.711 4.143 13.757 4.401C13.802 4.653 13.872 4.91 14.033 5.121L14.828 4.514ZM15.292 4.706C15.2046 4.71776 15.1156 4.70619 15.0341 4.67247C14.9527 4.63875 14.8815 4.58408 14.828 4.514L14.032 5.12C14.1926 5.33058 14.4061 5.4949 14.6507 5.59624C14.8954 5.69759 15.1625 5.73235 15.425 5.697L15.292 4.706ZM16.28 3.993C15.955 4.26 15.733 4.441 15.558 4.562C15.379 4.686 15.31 4.703 15.292 4.706L15.425 5.697C15.687 5.662 15.918 5.53 16.129 5.383C16.344 5.233 16.601 5.023 16.914 4.767L16.28 3.993ZM17.132 3.432C16.972 3.483 16.837 3.564 16.709 3.655C16.585 3.743 16.444 3.859 16.28 3.993L16.914 4.767C17.087 4.625 17.199 4.534 17.289 4.47C17.334 4.43441 17.3838 4.40545 17.437 4.384L17.132 3.432ZM18.185 3.484C17.8519 3.33982 17.4777 3.32135 17.132 3.432L17.437 4.384C17.552 4.34758 17.6763 4.35397 17.787 4.402L18.185 3.484ZM18.977 4.128C18.827 3.978 18.698 3.848 18.584 3.748C18.466 3.63922 18.3313 3.55009 18.185 3.484L17.787 4.402C17.808 4.411 17.846 4.432 17.926 4.502C18.009 4.574 18.111 4.676 18.27 4.835L18.977 4.128ZM19.87 5.021L18.977 4.128L18.27 4.835L19.163 5.728L19.87 5.021ZM20.514 5.813C20.4476 5.66666 20.3581 5.53195 20.249 5.414C20.149 5.3 20.019 5.171 19.87 5.021L19.163 5.728C19.322 5.887 19.423 5.989 19.497 6.072C19.567 6.152 19.587 6.19 19.596 6.211L20.514 5.813ZM20.566 6.866C20.6767 6.52027 20.6582 6.14614 20.514 5.813L19.596 6.211C19.6437 6.3218 19.6497 6.4461 19.613 6.561L20.566 6.866ZM20.005 7.718C20.139 7.554 20.255 7.413 20.343 7.289C20.433 7.161 20.515 7.026 20.566 6.866L19.613 6.561C19.5919 6.61413 19.5632 6.66397 19.528 6.709C19.4328 6.83693 19.3337 6.96199 19.231 7.084L20.005 7.718ZM19.292 8.706C19.295 8.688 19.312 8.619 19.436 8.44C19.557 8.265 19.738 8.043 20.005 7.718L19.231 7.084C18.975 7.397 18.764 7.654 18.615 7.869C18.468 8.079 18.336 8.311 18.301 8.573L19.292 8.706ZM19.484 9.17C19.4139 9.11646 19.3592 9.04534 19.3255 8.96385C19.2918 8.88236 19.2802 8.7934 19.292 8.706L18.301 8.573C18.2658 8.8353 18.3007 9.10223 18.402 9.34671C18.5034 9.59119 18.6676 9.8045 18.878 9.965L19.484 9.17ZM20.687 9.365C20.268 9.323 19.984 9.295 19.774 9.257C19.56 9.218 19.499 9.182 19.484 9.17L18.878 9.965C19.088 10.125 19.345 10.195 19.598 10.241C19.855 10.287 20.186 10.321 20.588 10.361L20.687 9.365ZM21.687 9.571C21.5429 9.49941 21.3883 9.45147 21.229 9.429C21.079 9.404 20.897 9.386 20.687 9.365L20.587 10.36C20.811 10.383 20.954 10.397 21.064 10.416C21.1205 10.4228 21.1757 10.4376 21.228 10.46L21.687 9.571ZM22.394 10.352C22.2605 10.0147 22.0093 9.73729 21.687 9.571L21.228 10.46C21.3355 10.5153 21.4194 10.6077 21.464 10.72L22.394 10.352ZM22.499 11.367C22.499 11.156 22.499 10.973 22.489 10.821C22.4826 10.6606 22.4506 10.5022 22.394 10.352L21.464 10.72C21.472 10.741 21.484 10.783 21.491 10.888C21.4985 11.0479 21.5011 11.208 21.499 11.368L22.499 11.367ZM22.499 12.631V11.367H21.499V12.631H22.499ZM22.394 13.645C22.456 13.489 22.479 13.333 22.489 13.176C22.499 13.025 22.499 12.842 22.499 12.631H21.499C21.499 12.855 21.499 12.999 21.491 13.11C21.49 13.167 21.4809 13.2236 21.464 13.278L22.394 13.645ZM21.687 14.427C22.0095 14.2605 22.2607 13.9826 22.394 13.645L21.464 13.278C21.4194 13.3903 21.3355 13.4827 21.228 13.538L21.687 14.427ZM20.687 14.633C20.897 14.612 21.08 14.593 21.229 14.568C21.384 14.543 21.537 14.504 21.686 14.428L21.228 13.538C21.1757 13.5604 21.1205 13.5752 21.064 13.582C20.954 13.601 20.811 13.615 20.588 13.638L20.687 14.633ZM19.485 14.828C19.5 14.816 19.561 14.779 19.775 14.741C19.985 14.703 20.269 14.674 20.687 14.633L20.588 13.638C20.187 13.678 19.855 13.71 19.597 13.757C19.345 13.802 19.089 13.872 18.878 14.032L19.485 14.828ZM19.292 15.292C19.2804 15.2045 19.2921 15.1155 19.326 15.034C19.3599 14.9525 19.4147 14.8814 19.485 14.828L18.878 14.032C18.6674 14.1926 18.5031 14.4061 18.4018 14.6507C18.3004 14.8954 18.2656 15.1625 18.301 15.425L19.292 15.292ZM20.005 16.28C19.8069 16.0461 19.6171 15.8053 19.436 15.558C19.312 15.38 19.295 15.31 19.292 15.292L18.302 15.426C18.337 15.688 18.469 15.918 18.615 16.129C18.765 16.343 18.975 16.601 19.231 16.913L20.005 16.28ZM20.566 17.132C20.5149 16.9796 20.4396 16.8365 20.343 16.708C20.2347 16.562 20.122 16.4192 20.005 16.28L19.231 16.913C19.373 17.087 19.464 17.198 19.528 17.289C19.5632 17.3337 19.5918 17.3832 19.613 17.436L20.566 17.132ZM20.514 18.185C20.6582 17.8519 20.6767 17.4777 20.566 17.132L19.613 17.436C19.65 17.5512 19.6439 17.6759 19.596 17.787L20.514 18.185ZM19.871 18.976C20.02 18.827 20.149 18.698 20.249 18.584C20.353 18.465 20.447 18.34 20.514 18.185L19.596 17.787C19.5694 17.8375 19.5357 17.884 19.496 17.925C19.3885 18.043 19.2774 18.1577 19.163 18.269L19.871 18.976ZM18.977 19.87L19.871 18.976L19.163 18.269L18.27 19.163L18.977 19.87ZM18.185 20.513C18.339 20.446 18.465 20.353 18.584 20.249C18.698 20.149 18.827 20.019 18.977 19.869L18.27 19.163C18.111 19.322 18.009 19.423 17.926 19.496C17.8847 19.5358 17.8379 19.5695 17.787 19.596L18.185 20.513ZM17.132 20.566C17.4778 20.6763 17.852 20.6575 18.185 20.513L17.787 19.596C17.6762 19.6437 17.5519 19.6497 17.437 19.613L17.132 20.566ZM16.28 20.004C16.444 20.138 16.585 20.254 16.709 20.342C16.837 20.433 16.972 20.515 17.132 20.566L17.437 19.613C17.3839 19.5919 17.334 19.5632 17.289 19.528C17.1611 19.4324 17.036 19.3331 16.914 19.23L16.28 20.004ZM15.292 19.292C15.31 19.294 15.38 19.312 15.558 19.436C15.733 19.557 15.955 19.738 16.28 20.004L16.914 19.23C16.601 18.975 16.344 18.764 16.129 18.614C15.919 18.468 15.687 18.336 15.425 18.301L15.292 19.292ZM14.828 19.484C14.8815 19.4139 14.9527 19.3592 15.0341 19.3255C15.1156 19.2918 15.2046 19.2802 15.292 19.292L15.425 18.301C15.1628 18.2657 14.8959 18.3004 14.6514 18.4016C14.407 18.5027 14.1936 18.6668 14.033 18.877L14.828 19.484ZM14.633 20.687C14.675 20.268 14.703 19.984 14.741 19.774C14.78 19.56 14.816 19.499 14.828 19.484L14.033 18.877C13.873 19.087 13.803 19.345 13.757 19.597C13.711 19.854 13.677 20.185 13.637 20.587L14.633 20.687ZM14.427 21.687C14.504 21.537 14.542 21.384 14.568 21.229C14.594 21.079 14.612 20.897 14.633 20.687L13.637 20.587C13.6231 20.7465 13.6054 20.9056 13.582 21.064C13.5752 21.1205 13.5604 21.1757 13.538 21.228L14.427 21.687ZM13.646 22.394C13.9832 22.2605 14.2607 22.0093 14.427 21.687L13.538 21.228C13.4827 21.3355 13.3903 21.4194 13.278 21.464L13.646 22.394ZM12.631 22.499C12.842 22.499 13.025 22.499 13.177 22.489C13.333 22.479 13.49 22.456 13.646 22.394L13.278 21.464C13.2236 21.4809 13.167 21.49 13.11 21.491C13 21.499 12.855 21.499 12.63 21.499L12.631 22.499ZM11.367 22.499H12.631L12.63 21.499H11.367V22.499ZM10.352 22.394C10.509 22.456 10.665 22.479 10.822 22.489C10.973 22.499 11.156 22.499 11.367 22.499V21.499C11.143 21.499 10.999 21.499 10.888 21.491C10.831 21.49 10.7744 21.4809 10.72 21.464L10.352 22.394ZM9.571 21.687C9.73729 22.0093 10.0148 22.2605 10.352 22.394L10.72 21.464C10.6077 21.4194 10.5153 21.3355 10.46 21.228L9.571 21.687ZM9.365 20.687C9.385 20.8983 9.40633 21.079 9.429 21.229C9.455 21.384 9.494 21.537 9.571 21.687L10.46 21.228C10.4376 21.1757 10.4228 21.1205 10.416 21.064C10.3926 20.9059 10.3739 20.7472 10.36 20.588L9.365 20.687ZM9.17 19.484C9.182 19.499 9.218 19.56 9.257 19.774C9.295 19.984 9.323 20.269 9.365 20.687L10.36 20.588C10.32 20.187 10.287 19.855 10.241 19.597C10.196 19.345 10.126 19.088 9.965 18.877L9.17 19.484ZM8.706 19.292C8.7934 19.2802 8.88236 19.2918 8.96385 19.3255C9.04534 19.3592 9.11646 19.4139 9.17 19.484L9.965 18.877C9.8045 18.6666 9.59119 18.5034 9.34671 18.402C9.10223 18.3007 8.8353 18.2658 8.573 18.301L8.706 19.292ZM7.718 20.005C8.043 19.738 8.265 19.557 8.44 19.436C8.619 19.312 8.688 19.294 8.706 19.292L8.573 18.301C8.311 18.336 8.08 18.468 7.869 18.615C7.654 18.764 7.397 18.975 7.084 19.231L7.718 20.005ZM6.866 20.566C7.026 20.515 7.161 20.434 7.289 20.343C7.413 20.255 7.554 20.139 7.718 20.005L7.084 19.231C6.96199 19.3337 6.83693 19.4328 6.709 19.528C6.66397 19.5632 6.61413 19.5919 6.561 19.613L6.866 20.566ZM5.813 20.515C6.14614 20.6592 6.52027 20.6767 6.866 20.566L6.561 19.613C6.4461 19.6497 6.3218 19.6437 6.211 19.596L5.813 20.515ZM5.021 19.87C5.171 20.02 5.3 20.15 5.414 20.25C5.532 20.353 5.659 20.448 5.813 20.515L6.211 19.596C6.16012 19.5695 6.11331 19.5358 6.072 19.496C5.95404 19.3885 5.83932 19.2774 5.728 19.163L5.021 19.87ZM4.128 18.977L5.021 19.87L5.728 19.163L4.835 18.27L4.128 18.977ZM3.484 18.185C3.551 18.339 3.645 18.465 3.749 18.584C3.849 18.698 3.979 18.827 4.128 18.977L4.835 18.27C4.72025 18.1587 4.60887 18.044 4.501 17.926C4.46119 17.8847 4.42752 17.8379 4.401 17.787L3.484 18.185ZM3.432 17.132C3.32135 17.4777 3.33982 17.8519 3.484 18.185L4.401 17.787C4.35297 17.6763 4.34758 17.552 4.384 17.437L3.432 17.132ZM3.993 16.28C3.859 16.444 3.743 16.585 3.655 16.709C3.55853 16.8372 3.48324 16.98 3.432 17.132L4.384 17.437C4.40545 17.3838 4.43441 17.334 4.47 17.289C4.534 17.199 4.625 17.087 4.767 16.914L3.993 16.28ZM4.706 15.292C4.703 15.31 4.686 15.379 4.562 15.558C4.44 15.733 4.26 15.955 3.993 16.28L4.767 16.914C5.023 16.601 5.234 16.344 5.383 16.129C5.53 15.919 5.662 15.687 5.697 15.425L4.706 15.292ZM4.514 14.828C4.58408 14.8815 4.63875 14.9527 4.67247 15.0341C4.70619 15.1156 4.71776 15.2046 4.706 15.292L5.697 15.425C5.73217 15.1627 5.69732 14.8958 5.59598 14.6513C5.49464 14.4068 5.33042 14.1935 5.12 14.033L4.514 14.828ZM3.311 14.634C3.73 14.675 4.014 14.703 4.224 14.741C4.438 14.78 4.499 14.816 4.514 14.828L5.12 14.032C4.91 13.872 4.653 13.802 4.4 13.757C4.143 13.711 3.812 13.677 3.41 13.637L3.311 14.634ZM2.311 14.427C2.461 14.504 2.614 14.542 2.769 14.568C2.919 14.594 3.1 14.613 3.311 14.634L3.411 13.638C3.25148 13.6241 3.0924 13.6054 2.934 13.582C2.87752 13.5752 2.8223 13.5604 2.77 13.538L2.311 14.427ZM1.604 13.645C1.73729 13.9826 1.98848 14.2605 2.311 14.427L2.77 13.538C2.66249 13.4827 2.57865 13.3903 2.534 13.278L1.604 13.645ZM1.5 12.633C1.5 12.844 1.5 13.027 1.51 13.179C1.51647 13.3391 1.54854 13.4971 1.605 13.647L2.535 13.28C2.51806 13.2256 2.50897 13.169 2.508 13.112C2.50053 12.9521 2.49786 12.792 2.5 12.632L1.5 12.633ZM1.5 11.369V12.633H2.5V11.369H1.5ZM1.605 10.354C1.54834 10.5046 1.51626 10.6633 1.51 10.824C1.5 10.975 1.5 11.158 1.5 11.369H2.5C2.5 11.145 2.5 11.001 2.508 10.89C2.50897 10.833 2.51806 10.7764 2.535 10.722L1.605 10.354ZM2.312 9.573C1.98966 9.73929 1.73849 10.0168 1.605 10.354L2.535 10.722C2.57965 10.6097 2.66349 10.5173 2.771 10.462L2.312 9.573ZM3.312 9.366C3.10067 9.386 2.92 9.40833 2.77 9.431C2.61071 9.45347 2.45606 9.50141 2.312 9.573L2.771 10.462C2.791 10.452 2.831 10.435 2.935 10.418C3.045 10.399 3.188 10.385 3.411 10.362L3.312 9.366ZM4.515 9.172C4.5 9.184 4.439 9.22 4.225 9.259C4.015 9.297 3.731 9.324 3.312 9.366L3.411 10.362C3.812 10.322 4.145 10.289 4.402 10.243C4.655 10.198 4.912 10.128 5.122 9.967L4.515 9.172ZM4.707 8.708C4.71876 8.7954 4.70719 8.88436 4.67347 8.96585C4.63975 9.04734 4.58508 9.11846 4.515 9.172L5.122 9.967C5.33224 9.80639 5.49626 9.59302 5.59742 9.34855C5.69858 9.10408 5.73328 8.83621 5.698 8.574L4.707 8.708ZM3.994 7.719C4.261 8.045 4.442 8.267 4.564 8.442C4.688 8.621 4.704 8.69 4.707 8.708L5.698 8.574C5.663 8.312 5.531 8.082 5.384 7.871C5.235 7.656 5.024 7.399 4.768 7.086L3.994 7.719ZM3.433 6.867C3.483 7.027 3.565 7.163 3.656 7.291C3.744 7.414 3.86 7.556 3.994 7.719L4.768 7.086C4.66527 6.96366 4.56622 6.83827 4.471 6.71C4.43549 6.66534 4.40653 6.61584 4.385 6.563L3.433 6.867ZM3.485 5.815C3.34107 6.14785 3.3226 6.52158 3.433 6.867L4.385 6.563C4.34858 6.44798 4.35497 6.32367 4.403 6.213L3.485 5.815ZM4.129 5.023C3.979 5.172 3.849 5.301 3.749 5.416C3.64022 5.53402 3.55109 5.66873 3.485 5.815L4.403 6.213C4.4296 6.16248 4.46327 6.11501 4.503 6.074C4.61004 5.95557 4.72111 5.84084 4.836 5.73L4.129 5.023ZM5.022 4.129L4.129 5.023L4.836 5.73L5.729 4.836L5.022 4.129ZM5.814 3.486C5.66773 3.55209 5.53302 3.64122 5.415 3.75C5.301 3.85 5.171 3.979 5.022 4.129L5.729 4.836C5.888 4.678 5.99 4.576 6.073 4.503C6.153 4.433 6.191 4.413 6.212 4.403L5.814 3.486ZM6.867 3.433C6.52115 3.32266 6.14702 3.34149 5.814 3.486L6.212 4.403C6.32267 4.35497 6.44698 4.34958 6.562 4.386L6.867 3.433ZM7.719 3.995C7.555 3.861 7.414 3.745 7.29 3.657C7.1619 3.56017 7.01908 3.48454 6.867 3.433L6.562 4.386C6.61513 4.40714 6.66497 4.43576 6.71 4.471C6.8 4.536 6.912 4.627 7.086 4.769L7.719 3.995ZM8.707 4.708C8.689 4.705 8.62 4.688 8.441 4.564C8.19368 4.38258 7.95287 4.19346 7.719 3.995L7.086 4.769C7.398 5.025 7.656 5.236 7.87 5.385C8.08 5.531 8.312 5.663 8.574 5.699L8.707 4.708ZM9.171 4.515C9.11758 4.58526 9.04651 4.64013 8.96501 4.67403C8.88351 4.70793 8.79449 4.71965 8.707 4.708L8.574 5.699C8.83637 5.73446 9.10345 5.69886 9.34811 5.59769C9.59277 5.49652 9.8063 5.3324 9.967 5.122L9.171 4.515ZM9.366 3.313C9.324 3.731 9.296 4.016 9.258 4.225C9.219 4.439 9.183 4.5 9.171 4.515L9.967 5.122C10.127 4.912 10.197 4.655 10.242 4.402C10.288 4.145 10.322 3.814 10.362 3.412L9.366 3.313ZM9.572 2.313C9.495 2.463 9.456 2.616 9.43 2.771C9.405 2.921 9.387 3.102 9.366 3.313L10.361 3.413C10.3749 3.25347 10.3936 3.0944 10.417 2.936C10.4238 2.87952 10.4386 2.8243 10.461 2.772L9.572 2.313ZM10.354 1.606C10.0162 1.73953 9.73835 1.9901 9.572 2.313L10.461 2.772C10.5163 2.66449 10.6087 2.58065 10.721 2.536L10.354 1.606ZM11.368 1.501C11.157 1.501 10.974 1.501 10.822 1.511C10.6619 1.51747 10.5039 1.54954 10.354 1.606L10.721 2.536C10.7754 2.51906 10.832 2.50997 10.889 2.509C10.999 2.501 11.144 2.501 11.369 2.501L11.368 1.501ZM12.632 1.501H11.368V2.501H12.632V1.501ZM13.647 1.606C13.4964 1.54933 13.3377 1.51726 13.177 1.511C13.026 1.501 12.843 1.501 12.632 1.501V2.501C12.856 2.501 13 2.501 13.111 2.509C13.168 2.50997 13.2246 2.51906 13.279 2.536L13.647 1.606ZM14.428 2.313C14.2615 1.99048 13.9836 1.73929 13.646 1.606L13.279 2.536C13.3913 2.58065 13.4837 2.66449 13.539 2.772L14.428 2.313ZM15.5 12C15.5 12.9283 15.1313 13.8185 14.4749 14.4749C13.8185 15.1313 12.9283 15.5 12 15.5V16.5C13.1935 16.5 14.3381 16.0259 15.182 15.182C16.0259 14.3381 16.5 13.1935 16.5 12H15.5ZM12 8.5C12.9283 8.5 13.8185 8.86875 14.4749 9.52513C15.1313 10.1815 15.5 11.0717 15.5 12H16.5C16.5 10.8065 16.0259 9.66193 15.182 8.81802C14.3381 7.97411 13.1935 7.5 12 7.5V8.5ZM8.5 12C8.5 11.0717 8.86875 10.1815 9.52513 9.52513C10.1815 8.86875 11.0717 8.5 12 8.5V7.5C10.8065 7.5 9.66193 7.97411 8.81802 8.81802C7.97411 9.66193 7.5 10.8065 7.5 12H8.5ZM12 15.5C11.0717 15.5 10.1815 15.1313 9.52513 14.4749C8.86875 13.8185 8.5 12.9283 8.5 12H7.5C7.5 13.1935 7.97411 14.3381 8.81802 15.182C9.66193 16.0259 10.8065 16.5 12 16.5V15.5Z" fill="#F4EDE5"/>
</svg>
