<svg width="57" height="49" viewBox="0 0 57 49" fill="none" xmlns="http://www.w3.org/2000/svg">
<path d="M0.10791 18.3037C0.10791 12.7809 4.58506 8.30371 10.1079 8.30371H46.5736C52.0965 8.30371 56.5736 12.7809 56.5736 18.3037V45.1619C56.5736 46.8187 55.2305 48.1619 53.5736 48.1619H3.10791C1.45106 48.1619 0.10791 46.8187 0.10791 45.1619V18.3037Z" fill="#87C2A5"/>
<path d="M0.10791 11.3037C0.10791 9.64685 1.45106 8.30371 3.10791 8.30371H53.5736C55.2305 8.30371 56.5736 9.64686 56.5736 11.3037V19.929H0.10791V11.3037Z" fill="#FBEAEA"/>
<rect x="35.1167" width="3.38794" height="12.4225" rx="1.69397" fill="#87C2A5"/>
<rect x="17.0479" width="3.38794" height="12.4225" rx="1.69397" fill="#87C2A5"/>
<circle cx="11.3182" cy="26.9873" r="3.7367" fill="#F5F5F5"/>
<circle cx="11.3182" cy="37.7822" r="3.7367" fill="#F5F5F5"/>
<circle cx="22.1127" cy="26.9873" r="3.7367" fill="#F5F5F5"/>
<circle cx="22.1127" cy="37.7822" r="3.7367" fill="#F5F5F5"/>
<circle cx="32.9076" cy="26.9873" r="3.7367" fill="#F5F5F5"/>
<circle cx="32.9076" cy="37.7822" r="3.7367" fill="#F5F5F5"/>
<circle cx="43.703" cy="26.9873" r="3.7367" fill="#F5F5F5"/>
<circle cx="43.703" cy="37.7822" r="3.7367" fill="#F5F5F5"/>
</svg>
