<svg width="29" height="22" viewBox="0 0 29 22" fill="none" xmlns="http://www.w3.org/2000/svg">
<circle cx="14" cy="11" r="10.5" fill="white" stroke="black"/>
<path d="M13.1465 13.2351V13.1136C13.155 12.321 13.2338 11.6903 13.383 11.2216C13.5364 10.7528 13.7537 10.3736 14.035 10.0838C14.3162 9.79403 14.655 9.52983 15.0513 9.29119C15.307 9.12926 15.5371 8.94815 15.7417 8.74787C15.9462 8.54758 16.1081 8.31747 16.2275 8.05753C16.3468 7.79758 16.4064 7.50994 16.4064 7.1946C16.4064 6.81534 16.3169 6.48722 16.138 6.21023C15.959 5.93324 15.7203 5.72017 15.4221 5.57102C15.128 5.41761 14.7999 5.34091 14.4377 5.34091C14.1096 5.34091 13.7963 5.40909 13.498 5.54545C13.1998 5.68182 12.9526 5.89489 12.7566 6.18466C12.5605 6.47017 12.4476 6.83878 12.4178 7.29048H10.4746C10.5044 6.52344 10.6983 5.87571 11.0563 5.3473C11.4142 4.81463 11.8873 4.41193 12.4753 4.1392C13.0676 3.86648 13.7218 3.73011 14.4377 3.73011C15.2218 3.73011 15.9078 3.87713 16.4959 4.17116C17.084 4.46094 17.54 4.8679 17.8638 5.39205C18.1919 5.91193 18.356 6.51918 18.356 7.21378C18.356 7.69105 18.2814 8.12145 18.1323 8.50497C17.9831 8.88423 17.7701 9.22301 17.4931 9.52131C17.2203 9.8196 16.8922 10.0838 16.5087 10.3139C16.1465 10.5398 15.8525 10.7741 15.6266 11.017C15.405 11.2599 15.2431 11.5476 15.1408 11.88C15.0385 12.2124 14.9831 12.6236 14.9746 13.1136V13.2351H13.1465ZM14.1117 17.1214C13.7623 17.1214 13.4618 16.9979 13.2104 16.7507C12.959 16.4993 12.8333 16.1967 12.8333 15.843C12.8333 15.4936 12.959 15.1953 13.2104 14.9482C13.4618 14.6967 13.7623 14.571 14.1117 14.571C14.4569 14.571 14.7551 14.6967 15.0066 14.9482C15.2623 15.1953 15.3901 15.4936 15.3901 15.843C15.3901 16.0774 15.3304 16.2926 15.2111 16.4886C15.0961 16.6804 14.9426 16.8338 14.7509 16.9489C14.5591 17.0639 14.3461 17.1214 14.1117 17.1214Z" fill="#262626"/>
</svg>
