<svg width="35" height="36" viewBox="0 0 35 36" fill="none" xmlns="http://www.w3.org/2000/svg">
<path fill-rule="evenodd" clip-rule="evenodd" d="M18.531 4.09397C18.2575 3.82058 17.8866 3.66699 17.4999 3.66699C17.1132 3.66699 16.7424 3.82058 16.4689 4.09397L6.26056 14.3023L3.34389 17.219C3.20461 17.3535 3.09351 17.5144 3.01708 17.6923C2.94065 17.8703 2.90042 18.0616 2.89874 18.2553C2.89705 18.4489 2.93395 18.6409 3.00728 18.8202C3.08061 18.9994 3.18889 19.1622 3.32582 19.2991C3.46274 19.4361 3.62557 19.5443 3.80479 19.6177C3.98402 19.691 4.17605 19.7279 4.36969 19.7262C4.56332 19.7245 4.75469 19.6843 4.93261 19.6079C5.11053 19.5314 5.27145 19.4203 5.40598 19.2811L5.83327 18.8538V28.4583C5.83327 29.6187 6.2942 30.7315 7.11468 31.5519C7.93515 32.3724 9.04795 32.8333 10.2083 32.8333H24.7916C25.9519 32.8333 27.0647 32.3724 27.8852 31.5519C28.7057 30.7315 29.1666 29.6187 29.1666 28.4583V18.8538L29.5939 19.2811C29.8689 19.5467 30.2373 19.6937 30.6197 19.6904C31.0021 19.687 31.3678 19.5337 31.6382 19.2633C31.9086 18.9929 32.062 18.6271 32.0653 18.2448C32.0686 17.8624 31.9216 17.494 31.656 17.219L18.531 4.09397Z" fill="white"/>
</svg>
