<svg width="36" height="34" viewBox="0 0 36 34" fill="none" xmlns="http://www.w3.org/2000/svg">
<path d="M10.0625 18.6562L11.625 21.7812L13.9688 24.125L14.75 24.9062V28.8125H21V24.9062L21.7812 24.125L23.3438 22.5625L24.9062 21L25.6875 19.4375V17.875V15.5312L24.9062 13.9688L24.125 12.4062L22.5625 10.8438L21 10.0625L18.6562 9.28125H16.3125L14.75 10.0625L13.1875 10.8438L11.625 12.4062L10.8438 13.9688L10.0625 15.5312V18.6562Z" fill="white"/>
<path d="M20.1522 29.4228H15.7258C15.3674 29.4216 15.024 29.2787 14.7707 29.0252C14.5174 28.7717 14.3748 28.4282 14.3739 28.0698L14.1234 24.6409C12.748 23.9341 11.5934 22.8627 10.7859 21.5438C9.97838 20.2249 9.5491 18.7094 9.54498 17.163C9.54498 12.5342 13.3108 8.76733 17.9406 8.76733C22.5705 8.76733 26.3362 12.5331 26.3362 17.163C26.3321 18.7094 25.9028 20.2249 25.0953 21.5438C24.2879 22.8627 23.1332 23.9341 21.7578 24.6409L21.5051 28.1092C21.504 28.8158 20.8981 29.4228 20.1522 29.4228ZM17.9395 9.86108C16.0036 9.8634 14.1477 10.6334 12.7789 12.0023C11.41 13.3712 10.64 15.2271 10.6376 17.163C10.6407 18.5563 11.041 19.9198 11.7914 21.0938C12.5419 22.2677 13.6115 23.2034 14.8748 23.7911L15.1669 23.9267L15.4655 28.0305C15.4665 28.2131 15.5825 28.3291 15.7258 28.3291H20.1522C20.2944 28.3291 20.4103 28.2131 20.4103 28.0698L20.71 23.9267L21.0031 23.7922C22.2658 23.2033 23.3348 22.2672 24.0851 21.0933C24.8354 19.9194 25.2361 18.5562 25.2403 17.163C25.238 15.2273 24.4681 13.3715 23.0995 12.0027C21.7308 10.6339 19.8752 9.86369 17.9395 9.86108Z" fill="white"/>
<path d="M20.2736 33.0716H15.6043C15.2461 33.071 14.9027 32.9284 14.6495 32.6749C14.3962 32.4215 14.2539 32.078 14.2536 31.7197V30.4313C14.2536 29.6853 14.8595 29.0805 15.6043 29.0805H20.2736C21.0195 29.0805 21.6254 29.6864 21.6254 30.4313V31.7197C21.6252 32.0782 21.4826 32.4219 21.2292 32.6753C20.9757 32.9288 20.632 33.0713 20.2736 33.0716ZM15.6054 30.1732C15.5373 30.1732 15.4719 30.2002 15.4237 30.2484C15.3755 30.2966 15.3484 30.362 15.3484 30.4302V31.7186C15.3484 31.8608 15.4633 31.9768 15.6054 31.9768H20.2747C20.4168 31.9768 20.5328 31.8608 20.5328 31.7186V30.4313C20.5325 30.363 20.5052 30.2976 20.4568 30.2495C20.4084 30.2013 20.3429 30.1742 20.2747 30.1742L15.6054 30.1732ZM17.3926 0.490967H18.4864V7.25362H17.3926V0.490967ZM29.88 6.03519L30.6533 6.80847L25.8714 11.5892L25.0981 10.816L29.88 6.03519ZM28.2492 17.4955H35.0118V18.5892H28.2492V17.4955ZM5.87435 6.033L10.6551 10.8138L9.88185 11.5871L5.10107 6.80737L5.87435 6.033ZM0.738098 17.4955H7.50185V18.5892H0.738098V17.4955Z" fill="white"/>
</svg>
