<svg width="19" height="19" viewBox="0 0 19 19" fill="none" xmlns="http://www.w3.org/2000/svg">
<path d="M9.78569 12.4356C11.482 12.4356 12.8571 11.0604 12.8571 9.36415C12.8571 7.66785 11.482 6.29272 9.78569 6.29272C8.08939 6.29272 6.71426 7.66785 6.71426 9.36415C6.71426 11.0604 8.08939 12.4356 9.78569 12.4356Z" stroke="black" stroke-width="1.075" stroke-linecap="round" stroke-linejoin="round"/>
<path d="M2.875 12.4358V6.2929C2.875 4.17252 4.59391 2.45361 6.71429 2.45361H12.8571C14.9775 2.45361 16.6964 4.17252 16.6964 6.2929V12.4358C16.6964 14.5561 14.9775 16.275 12.8571 16.275H6.71429C4.59391 16.275 2.875 14.5561 2.875 12.4358Z" stroke="black" stroke-width="1.075"/>
<path d="M14.0089 5.14946L14.0173 5.14014" stroke="black" stroke-width="1.075" stroke-linecap="round" stroke-linejoin="round"/>
</svg>
