<svg width="20" height="24" viewBox="0 0 20 24" fill="none" xmlns="http://www.w3.org/2000/svg">
<g clip-path="url(#clip0_11_545)">
<path d="M17.0265 13.4919H15.0825V7.04858C15.0825 5.69592 14.5469 4.39866 13.5934 3.44218C12.64 2.48571 11.3468 1.94836 9.99846 1.94836C8.65009 1.94836 7.35694 2.48571 6.40349 3.44218C5.45005 4.39866 4.9144 5.69592 4.9144 7.04858V13.4919H2.97308V7.04858C2.97308 3.16189 6.12539 0 9.99977 0C13.8741 0 17.0265 3.16189 17.0265 7.04858V13.4919Z" fill="#72716F"/>
<path d="M19.2466 10.4348H0.753387C0.337303 10.4348 0 10.7732 0 11.1906V23.2443C0 23.6617 0.337303 24.0001 0.753387 24.0001H19.2466C19.6627 24.0001 20 23.6617 20 23.2443V11.1906C20 10.7732 19.6627 10.4348 19.2466 10.4348Z" fill="#F2CB30"/>
<path d="M19.9978 23.2442V15.8583C13.9081 21.0292 5.12147 22.9727 0.143982 23.6853C0.213334 23.7825 0.304729 23.8617 0.410618 23.9164C0.516506 23.9711 0.63385 23.9997 0.752956 23.9999H19.2466C19.446 23.9994 19.6371 23.9195 19.7779 23.7778C19.9188 23.6361 19.9978 23.4442 19.9978 23.2442Z" fill="#EAB531"/>
<path d="M11.6527 15.1741C11.6531 14.8909 11.5811 14.6123 11.4437 14.3649C11.3063 14.1176 11.1081 13.9096 10.8678 13.7609C10.6276 13.6121 10.3534 13.5276 10.0714 13.5153C9.78932 13.5031 9.50885 13.5635 9.25668 13.6908C9.00452 13.8181 8.78906 14.0081 8.63085 14.2427C8.47263 14.4772 8.37694 14.7485 8.35288 15.0307C8.32882 15.3128 8.3772 15.5965 8.49341 15.8546C8.60962 16.1127 8.78978 16.3366 9.01673 16.505L8.49084 20.2543H11.5087L10.9824 16.505C11.1902 16.3513 11.3591 16.1508 11.4756 15.9197C11.592 15.6885 11.6527 15.4331 11.6527 15.1741Z" fill="#58595A"/>
<path d="M0.63031 11.8656V14.4615C0.699037 13.3593 1.22754 10.9606 4.53514 10.9606H1.53377C1.29449 10.9609 1.06509 11.0563 0.895767 11.2259C0.726448 11.3956 0.631 11.6255 0.63031 11.8656Z" fill="#F7DB5E"/>
<path d="M8.49084 20.2542C8.49084 20.2542 10.7306 19.6189 10.9824 16.505L11.5087 20.2542H8.49084Z" fill="#3E3D40"/>
</g>
<defs>
<clipPath id="clip0_11_545">
<rect width="20" height="24" fill="white"/>
</clipPath>
</defs>
</svg>
