<svg width="65" height="52" viewBox="0 0 65 52" fill="none" xmlns="http://www.w3.org/2000/svg">
<path d="M19.0003 48.8337C18.6309 48.8337 18.3142 48.7281 18.0503 48.517C17.7864 48.3059 17.5885 48.0288 17.4566 47.6857C16.9552 46.208 16.3219 44.8225 15.5566 43.5295C14.8177 42.2364 13.7753 40.7191 12.4295 38.9774C11.0837 37.2357 9.98852 35.5732 9.14408 33.9899C8.32602 32.4066 7.91699 30.4934 7.91699 28.2503C7.91699 25.1628 8.98574 22.5503 11.1232 20.4128C13.2871 18.2489 15.9128 17.167 19.0003 17.167C22.0878 17.167 24.7003 18.2489 26.8378 20.4128C29.0017 22.5503 30.0837 25.1628 30.0837 28.2503C30.0837 30.6517 29.6219 32.6573 28.6982 34.267C27.801 35.8503 26.7587 37.4205 25.5712 38.9774C24.1462 40.8774 23.0642 42.4607 22.3253 43.7274C21.6128 44.9677 21.0191 46.2871 20.5441 47.6857C20.4121 48.0552 20.201 48.3455 19.9107 48.5566C19.6469 48.7413 19.3434 48.8337 19.0003 48.8337ZM19.0003 43.1732C19.4489 42.276 19.9503 41.392 20.5045 40.5212C21.085 39.6503 21.9295 38.4892 23.0378 37.0378C24.1726 35.56 25.0962 34.201 25.8087 32.9607C26.5475 31.6941 26.917 30.1239 26.917 28.2503C26.917 26.06 26.1385 24.1996 24.5816 22.6691C23.051 21.1121 21.1906 20.3337 19.0003 20.3337C16.81 20.3337 14.9364 21.1121 13.3795 22.6691C11.8489 24.1996 11.0837 26.06 11.0837 28.2503C11.0837 30.1239 11.4399 31.6941 12.1524 32.9607C12.8913 34.201 13.8281 35.56 14.9628 37.0378C16.0712 38.4892 16.9024 39.6503 17.4566 40.5212C18.0371 41.392 18.5517 42.276 19.0003 43.1732ZM19.0003 32.2087C20.1087 32.2087 21.0455 31.826 21.8107 31.0607C22.576 30.2955 22.9587 29.3587 22.9587 28.2503C22.9587 27.142 22.576 26.2052 21.8107 25.4399C21.0455 24.6746 20.1087 24.292 19.0003 24.292C17.892 24.292 16.9552 24.6746 16.1899 25.4399C15.4246 26.2052 15.042 27.142 15.042 28.2503C15.042 29.3587 15.4246 30.2955 16.1899 31.0607C16.9552 31.826 17.892 32.2087 19.0003 32.2087Z" fill="#F4EDE5"/>
<path d="M46.0003 34.8337C45.6309 34.8337 45.3142 34.7281 45.0503 34.517C44.7864 34.3059 44.5885 34.0288 44.4566 33.6857C43.9552 32.208 43.3219 30.8225 42.5566 29.5295C41.8177 28.2364 40.7753 26.7191 39.4295 24.9774C38.0837 23.2357 36.9885 21.5732 36.1441 19.9899C35.326 18.4066 34.917 16.4934 34.917 14.2503C34.917 11.1628 35.9857 8.55032 38.1232 6.41282C40.2871 4.24894 42.9128 3.16699 46.0003 3.16699C49.0878 3.16699 51.7003 4.24894 53.8378 6.41282C56.0017 8.55032 57.0837 11.1628 57.0837 14.2503C57.0837 16.6517 56.6219 18.6573 55.6982 20.267C54.801 21.8503 53.7587 23.4205 52.5712 24.9774C51.1462 26.8774 50.0642 28.4607 49.3253 29.7274C48.6128 30.9677 48.0191 32.2871 47.5441 33.6857C47.4121 34.0552 47.201 34.3455 46.9107 34.5566C46.6469 34.7413 46.3434 34.8337 46.0003 34.8337ZM46.0003 29.1732C46.4489 28.276 46.9503 27.392 47.5045 26.5212C48.085 25.6503 48.9295 24.4892 50.0378 23.0378C51.1726 21.56 52.0962 20.201 52.8087 18.9607C53.5475 17.6941 53.917 16.1239 53.917 14.2503C53.917 12.06 53.1385 10.1996 51.5816 8.66908C50.051 7.11213 48.1906 6.33366 46.0003 6.33366C43.81 6.33366 41.9364 7.11213 40.3795 8.66908C38.8489 10.1996 38.0837 12.06 38.0837 14.2503C38.0837 16.1239 38.4399 17.6941 39.1524 18.9607C39.8913 20.201 40.8281 21.56 41.9628 23.0378C43.0712 24.4892 43.9024 25.6503 44.4566 26.5212C45.0371 27.392 45.5517 28.276 46.0003 29.1732ZM46.0003 18.2087C47.1087 18.2087 48.0455 17.826 48.8107 17.0607C49.576 16.2955 49.9587 15.3587 49.9587 14.2503C49.9587 13.142 49.576 12.2052 48.8107 11.4399C48.0455 10.6746 47.1087 10.292 46.0003 10.292C44.892 10.292 43.9552 10.6746 43.1899 11.4399C42.4246 12.2052 42.042 13.142 42.042 14.2503C42.042 15.3587 42.4246 16.2955 43.1899 17.0607C43.9552 17.826 44.892 18.2087 46.0003 18.2087Z" fill="#F4EDE5"/>
<path d="M19 48C27 50 39.5 48 40 44.5C41.0794 36.9445 20 35 46 34" stroke="#F4EDE5"/>
</svg>
