<svg width="293" height="66" viewBox="0 0 293 66" fill="none" xmlns="http://www.w3.org/2000/svg">
<g clip-path="url(#clip0_2031_6651)">
<path d="M61.0509 65.0827H49.9176L58.2936 49.1011L50.7845 20.9363H61.8657L65.3204 35.7487L73.0838 20.9363H84.2237L61.0509 65.0827Z" fill="#2482DC"/>
<path d="M132.244 44.8441C131.892 47.6046 131.981 49.4456 132.512 50.3672H121.378C120.874 49.4456 120.798 47.6046 121.15 44.8441L122.376 34.728C122.81 31.6661 121.917 30.1329 119.697 30.1286C118.559 30.1334 117.461 30.5412 116.6 31.2785C115.606 32.1645 114.998 33.3993 114.906 34.7215L113.687 44.8441C113.341 47.6024 113.426 49.4435 113.954 50.3672H102.814C102.31 49.4456 102.232 47.6046 102.579 44.8441L103.779 34.728C104.213 31.6661 103.325 30.1329 101.113 30.1286C99.9823 30.1356 98.8923 30.5461 98.0425 31.2849C97.0525 32.175 96.4516 33.4124 96.3673 34.7345L94.4118 50.3672H83.3306L87.02 20.9363H98.1012L97.6449 24.5861C98.5863 23.1197 99.9199 21.9412 101.497 21.1818C103.075 20.4109 104.81 20.0108 106.569 20.0125C110.245 20.0125 112.798 21.5198 114.228 24.5344C115.611 23.0485 117.301 21.8754 119.183 21.0951C121.065 20.3148 123.094 19.9456 125.133 20.0125C128.175 20.0125 130.484 21.115 132.062 23.32C133.639 25.5249 134.178 28.7139 133.678 32.887L132.244 44.8441Z" fill="#2482DC"/>
<path d="M149.498 40.2447H164.347L163.128 50.3672H137.153L141.944 11.7375H153.025L149.498 40.2447Z" fill="#F4EDE5"/>
<path d="M186.399 20.0125C191.27 20.0125 195.077 21.5198 197.819 24.5344C200.561 27.549 201.665 31.2612 201.13 35.6711C200.628 40.0134 198.457 43.997 195.068 46.795C191.595 49.7991 187.116 51.4114 182.507 51.3168C177.445 51.3168 173.579 49.8225 170.911 46.8337C168.243 43.845 167.178 40.1241 167.717 35.6711C168.231 31.3514 170.351 27.3763 173.662 24.5215C177.047 21.5198 181.293 20.0168 186.399 20.0125ZM179.926 40.193C180.333 40.785 180.884 41.2661 181.527 41.5923C182.171 41.9185 182.886 42.0793 183.609 42.0599C184.403 42.0476 185.187 41.8732 185.91 41.5476C186.633 41.2219 187.281 40.752 187.813 40.1672C189.043 38.9533 189.812 37.3561 189.99 35.6453C190.26 34.0606 189.885 32.4348 188.948 31.1234C188.542 30.5251 187.992 30.0368 187.348 29.7028C186.704 29.3689 185.985 29.1999 185.258 29.2113C184.47 29.2209 183.693 29.3916 182.975 29.7129C182.258 30.0342 181.614 30.499 181.086 31.0782C179.854 32.3113 179.078 33.9205 178.883 35.6453C178.64 37.2373 179.013 38.8615 179.926 40.193Z" fill="#F4EDE5"/>
<path d="M228.038 20.9363H239.178L235.873 47.6024C235.139 53.6316 233.051 58.203 229.609 61.3166C226.167 64.4303 221.596 66.0022 215.894 66.0323C213.499 66.0216 211.12 65.6335 208.848 64.8825C206.956 64.3279 205.136 63.5561 203.425 62.5828L201.626 61.4329L206.404 53.1127C206.792 53.4232 207.199 53.7101 207.623 53.9718C208.694 54.5355 209.821 54.9879 210.986 55.3219C212.69 55.8778 214.472 56.1591 216.266 56.1552C221.176 56.1552 223.96 53.6079 224.616 48.5133L224.733 47.3634C223.623 48.5982 222.261 49.586 220.737 50.2618C219.214 50.9377 217.563 51.2862 215.894 51.2845C214.084 51.3341 212.289 50.9431 210.666 50.1458C209.043 49.3485 207.642 48.1691 206.586 46.711C204.266 43.6576 203.375 39.9777 203.914 35.6711C204.389 31.462 206.319 27.5455 209.376 24.5861C212.474 21.537 215.951 20.0125 219.805 20.0125C221.335 19.9615 222.854 20.2927 224.221 20.9757C225.587 21.6586 226.759 22.6714 227.627 23.9207L228.038 20.9363ZM216.123 40.193C216.529 40.7854 217.08 41.2669 217.723 41.5931C218.367 41.9194 219.083 42.0799 219.805 42.0599C220.6 42.0465 221.383 41.8715 222.106 41.546C222.829 41.2204 223.477 40.7511 224.01 40.1672C225.239 38.9533 226.008 37.3561 226.187 35.6453C226.453 34.0607 226.078 32.436 225.144 31.1234C224.733 30.5251 224.178 30.0379 223.53 29.7062C222.881 29.3745 222.158 29.2089 221.428 29.2242C220.64 29.2337 219.862 29.4044 219.143 29.7256C218.424 30.0468 217.779 30.5117 217.25 31.0911C216.018 32.3296 215.242 33.9428 215.047 35.6711C214.82 37.2588 215.204 38.8729 216.123 40.193Z" fill="#F4EDE5"/>
<path d="M253.355 44.8441C253.01 47.6024 253.095 49.4435 253.623 50.3672H242.483C241.979 49.4456 241.903 47.6046 242.255 44.8441L245.207 20.9427H256.289L253.355 44.8441ZM255.591 16.4209C254.382 17.5462 252.785 18.1723 251.126 18.1715C250.361 18.1961 249.599 18.0517 248.897 17.749C248.195 17.4462 247.569 16.9926 247.065 16.4209C246.549 15.8545 246.164 15.1824 245.939 14.4523C245.713 13.7222 245.653 12.952 245.762 12.1961C245.997 10.5658 246.808 9.07086 248.05 7.9769C249.292 6.88293 250.886 6.26074 252.547 6.22081C253.309 6.19365 254.068 6.33692 254.766 6.63999C255.465 6.94305 256.085 7.39811 256.582 7.97142C257.087 8.54374 257.459 9.21815 257.674 9.94775C257.889 10.6773 257.942 11.4446 257.827 12.1961C257.647 13.8338 256.848 15.3432 255.591 16.4209Z" fill="#F4EDE5"/>
<path d="M281.984 34.728L290.275 50.3672H278.679L274.116 42.0857L267.559 50.3672H255.943L268.041 34.728L260.499 20.9363H272.102L275.818 28.294L281.384 20.9363H292.987L281.984 34.728Z" fill="#F4EDE5"/>
<path d="M18.9228 33.4037C19.5746 33.0743 20.2264 32.7578 20.8327 32.4154C21.4389 32.073 21.9343 31.918 22.4622 31.6338C22.9818 31.3792 23.4313 31.0035 23.7719 30.5387C24.1125 30.074 24.3342 29.5342 24.4178 28.9658C24.6133 27.5899 24.7763 26.2075 24.8675 24.8251C24.9603 23.4481 24.5065 22.0897 23.603 21.0397C23.5511 20.9736 23.5032 20.9046 23.4596 20.8329H47.069C47.1147 21.3885 47.1994 21.944 47.2059 22.4931C47.2059 26.4121 47.2168 30.3332 47.2385 34.2564C47.2385 36.4657 47.2146 38.675 47.1668 40.8842C47.1753 41.3226 47.0786 41.7567 46.8849 42.1509C46.6911 42.545 46.4057 42.888 46.0522 43.1516C42.8665 45.5811 39.2396 47.3816 35.3686 48.4551C31.5506 49.5478 27.5635 49.9419 23.603 49.6179C19.924 49.3532 16.3347 48.3674 13.0432 46.7174C9.15955 44.7833 5.88248 41.8349 3.56554 38.1905C2.26402 36.0948 1.28217 33.8201 0.651835 31.44C0.454974 30.4383 0.483909 29.406 0.736573 28.4168C1.41884 24.0214 3.3703 19.9157 6.35539 16.5953C9.22598 13.319 13.1321 11.1034 17.4366 10.3099C19.2351 9.99912 21.0654 9.91016 22.8859 10.045C23.0848 10.0425 23.2804 10.0949 23.4508 10.1965C23.6213 10.298 23.7597 10.4447 23.8507 10.62C23.2379 10.691 22.6382 10.7233 22.0516 10.8396C20.2265 11.2078 18.3426 11.337 16.6088 12.0476C13.6755 13.2556 11.9742 15.4131 11.7396 18.6108C11.6874 19.3859 11.6874 20.1676 11.6222 20.9363C11.4675 22.0394 11.0906 23.1004 10.5141 24.0564C9.34339 26.3313 8.99815 28.9361 9.53635 31.4335C9.84069 33.0178 9.99563 34.6268 9.99915 36.2396C9.95439 37.5322 10.1762 38.8203 10.651 40.0251C10.9612 40.7837 11.4544 41.4555 12.0873 41.9814C12.7203 42.5074 13.4738 42.8715 14.2817 43.0418C16.7811 43.5807 19.3517 43.7181 21.8952 43.4488C25.3955 43.1581 28.6742 42.0599 31.9465 40.8648C34.1301 40.0832 36.3855 39.4889 38.6017 38.7977C39.2726 38.6268 39.9269 38.3977 40.5572 38.113C41.2002 37.7775 41.7507 37.2914 42.1608 36.6969C42.571 36.1025 42.8283 35.4177 42.9103 34.7022C43.1235 33.3783 42.9842 32.0223 42.5062 30.7681C42.3188 30.1855 41.9587 29.6723 41.4726 29.2955C40.9866 28.9186 40.3973 28.6957 39.7815 28.6558C38.9298 28.5826 38.0725 28.6064 37.2263 28.7268C36.7922 28.7876 36.3795 28.9523 36.024 29.2067C35.6685 29.4611 35.3809 29.7975 35.1861 30.1868C34.795 30.8909 34.4886 31.6402 34.1431 32.3702C34.0388 32.5963 33.9346 32.8288 33.8107 33.0162C33.6148 33.4154 33.2865 33.736 32.8807 33.9241C32.4749 34.1122 32.0163 34.1566 31.5814 34.0497C29.8736 33.7526 28.1658 33.4038 26.458 33.1324C24.8176 32.8014 23.135 32.7273 21.4715 32.9128C20.6371 33.0355 19.8093 33.2552 18.9814 33.4296L18.9228 33.4037Z" fill="#2482DC"/>
<path d="M44.8463 8.82411L37.4284 14.9351C31.425 9.48301 24.5155 6.93138 16.4328 8.77243C8.35001 10.6135 3.08318 15.6457 0.065182 23.1972C0.065182 22.6223 -0.00651998 22.0474 0.00651672 21.4724C0.127596 18.5144 1.01182 15.6364 2.57475 13.1134C5.07079 8.75725 8.78583 5.21019 13.2714 2.90046C15.9207 1.54363 18.7881 0.653976 21.7452 0.271305C25.0149 -0.203726 28.3457 -0.061251 31.5619 0.6912C36.7206 1.8509 41.353 4.65576 44.7485 8.67554L44.8463 8.82411Z" fill="#569ADC"/>
</g>
<defs>
<clipPath id="clip0_2031_6651">
<rect width="293" height="66" fill="white"/>
</clipPath>
</defs>
</svg>
