<svg width="40" height="48" viewBox="0 0 40 48" fill="none" xmlns="http://www.w3.org/2000/svg">
<path fill-rule="evenodd" clip-rule="evenodd" d="M33.137 11.0839L33.4455 10.5434C33.9409 10.7856 34.273 10.9088 34.3052 10.8515L37.3573 5.53547H37.3509C37.3305 5.38414 36.4288 4.75179 35.2703 4.07945C34.1118 3.40711 33.1209 2.93798 32.9769 2.99851H32.9704L29.9194 8.31455C29.8861 8.37292 30.1591 8.59992 30.6147 8.91015L30.4148 9.25821C31.3679 9.79941 32.278 10.4138 33.137 11.0958V11.0839ZM24.2343 12.8729C24.2976 12.9369 24.3406 13.0184 24.3579 13.107C24.3752 13.1956 24.3661 13.2874 24.3316 13.3708C24.2971 13.4542 24.2388 13.5254 24.1641 13.5756C24.0894 13.6257 24.0017 13.6524 23.9119 13.6524C23.8221 13.6524 23.7343 13.6257 23.6596 13.5756C23.5849 13.5254 23.5266 13.4542 23.4921 13.3708C23.4577 13.2874 23.4485 13.1956 23.4658 13.107C23.4831 13.0184 23.5262 12.9369 23.5895 12.8729C23.6317 12.8301 23.6819 12.7962 23.7373 12.773C23.7926 12.7499 23.8519 12.738 23.9119 12.738C23.9718 12.738 24.0311 12.7499 24.0865 12.773C24.1418 12.7962 24.192 12.8301 24.2343 12.8729ZM16.4084 42.2473C16.4717 42.3113 16.5147 42.3928 16.532 42.4814C16.5494 42.57 16.5402 42.6618 16.5057 42.7452C16.4712 42.8286 16.413 42.8999 16.3383 42.95C16.2636 43.0001 16.1758 43.0268 16.086 43.0268C15.9962 43.0268 15.9084 43.0001 15.8337 42.95C15.759 42.8999 15.7007 42.8286 15.6662 42.7452C15.6318 42.6618 15.6226 42.57 15.6399 42.4814C15.6572 42.3928 15.7003 42.3113 15.7636 42.2473C15.8057 42.2044 15.856 42.1703 15.9113 42.1471C15.9666 42.1239 16.026 42.1119 16.086 42.1119C16.1459 42.1119 16.2053 42.1239 16.2607 42.1471C16.316 42.1703 16.3662 42.2044 16.4084 42.2473ZM31.1284 17.0182C31.1515 17.1056 31.1483 17.1979 31.1193 17.2835C31.0902 17.369 31.0366 17.444 30.9652 17.4989C30.8938 17.5538 30.8078 17.5862 30.7181 17.592C30.6284 17.5978 30.539 17.5767 30.4613 17.5314C30.3835 17.4861 30.3208 17.4186 30.2811 17.3374C30.2415 17.2563 30.2266 17.1652 30.2384 17.0756C30.2503 16.9859 30.2882 16.9018 30.3476 16.8339C30.4069 16.766 30.4849 16.7173 30.5717 16.694C30.6295 16.6784 30.6897 16.6745 30.7489 16.6824C30.8081 16.6903 30.8652 16.7099 30.9169 16.74C30.9686 16.7701 31.0139 16.8102 31.0502 16.858C31.0865 16.9057 31.1131 16.9602 31.1284 17.0182ZM9.75175 38.517C9.77477 38.6043 9.77155 38.6965 9.7425 38.782C9.71345 38.8675 9.65986 38.9424 9.58851 38.9973C9.51716 39.0522 9.43124 39.0846 9.3416 39.0904C9.25195 39.0962 9.16261 39.0752 9.08484 39.03C9.00706 38.9848 8.94436 38.9174 8.90462 38.8364C8.86489 38.7553 8.84992 38.6643 8.8616 38.5747C8.87328 38.4851 8.91108 38.401 8.97023 38.333C9.02939 38.265 9.10725 38.2162 9.19398 38.1927C9.25178 38.177 9.31208 38.173 9.37143 38.1808C9.43078 38.1886 9.48801 38.2082 9.53983 38.2383C9.59166 38.2684 9.63706 38.3085 9.67342 38.3564C9.70979 38.4042 9.7364 38.4588 9.75175 38.517ZM35.0424 24.0659C35.0192 24.1533 34.9708 24.2317 34.9033 24.2914C34.8358 24.3511 34.7522 24.3893 34.6631 24.4012C34.574 24.4131 34.4833 24.3981 34.4027 24.3582C34.322 24.3183 34.2549 24.2553 34.2099 24.1771C34.1648 24.0988 34.1439 24.0089 34.1496 23.9187C34.1553 23.8285 34.1875 23.742 34.2421 23.6702C34.2967 23.5983 34.3713 23.5444 34.4563 23.5152C34.5414 23.486 34.6332 23.4828 34.72 23.506C34.8363 23.5377 34.9355 23.6143 34.9959 23.7192C35.0563 23.8241 35.073 23.9487 35.0424 24.0659ZM5.83665 31.9351C5.81344 32.0225 5.76502 32.101 5.69749 32.1606C5.62996 32.2203 5.54636 32.2585 5.45726 32.2704C5.36815 32.2823 5.27754 32.2673 5.19688 32.2274C5.11622 32.1875 5.04912 32.1245 5.00408 32.0463C4.95903 31.968 4.93805 31.8781 4.94379 31.7879C4.94954 31.6977 4.98174 31.6112 5.03634 31.5394C5.09094 31.4676 5.16548 31.4136 5.25054 31.3844C5.33561 31.3552 5.42737 31.352 5.51424 31.3752C5.57198 31.3907 5.62613 31.4174 5.6736 31.4539C5.72106 31.4904 5.7609 31.536 5.79084 31.588C5.82079 31.64 5.84025 31.6974 5.8481 31.757C5.85596 31.8165 5.85207 31.8771 5.83665 31.9351ZM34.9242 32.1405C34.8605 32.2042 34.7795 32.2475 34.6914 32.2649C34.6033 32.2823 34.5121 32.2731 34.4292 32.2384C34.3462 32.2037 34.2754 32.1451 34.2256 32.07C34.1757 31.9949 34.1492 31.9066 34.1492 31.8162C34.1492 31.7259 34.1757 31.6376 34.2256 31.5625C34.2754 31.4874 34.3462 31.4288 34.4292 31.3941C34.5121 31.3594 34.6033 31.3502 34.6914 31.3676C34.7795 31.385 34.8605 31.4283 34.9242 31.492C34.9667 31.5345 35.0005 31.585 35.0235 31.6406C35.0465 31.6963 35.0583 31.756 35.0583 31.8162C35.0583 31.8765 35.0465 31.9362 35.0235 31.9918C35.0005 32.0475 34.9667 32.098 34.9242 32.1405ZM5.71843 24.2713C5.65475 24.335 5.57374 24.3783 5.48563 24.3957C5.39752 24.4131 5.30626 24.4039 5.22335 24.3692C5.14045 24.3345 5.06961 24.2759 5.01978 24.2008C4.96995 24.1256 4.94335 24.0374 4.94335 23.947C4.94335 23.8567 4.96995 23.7684 5.01978 23.6933C5.06961 23.6182 5.14045 23.5596 5.22335 23.5249C5.30626 23.4902 5.39752 23.481 5.48563 23.4984C5.57374 23.5158 5.65475 23.5591 5.71843 23.6228C5.76093 23.6652 5.79466 23.7158 5.81768 23.7714C5.84069 23.8271 5.85254 23.8868 5.85254 23.947C5.85254 24.0073 5.84069 24.067 5.81768 24.1226C5.79466 24.1783 5.76093 24.2288 5.71843 24.2713ZM30.8082 39.0801C30.8949 39.0566 30.9728 39.0078 31.0319 38.9398C31.0911 38.8718 31.1289 38.7877 31.1405 38.6981C31.1522 38.6085 31.1373 38.5175 31.0975 38.4364C31.0578 38.3554 30.9951 38.288 30.9173 38.2428C30.8395 38.1976 30.7502 38.1766 30.6605 38.1824C30.5709 38.1882 30.485 38.2206 30.4136 38.2755C30.3423 38.3304 30.2887 38.4053 30.2596 38.4908C30.2306 38.5763 30.2274 38.6685 30.2504 38.7558C30.2655 38.8142 30.2919 38.8689 30.3282 38.9169C30.3645 38.9649 30.41 39.0051 30.4619 39.0353C30.5138 39.0655 30.5711 39.085 30.6305 39.0927C30.69 39.1004 30.7504 39.0961 30.8082 39.0801ZM9.42934 17.5738C9.34227 17.5973 9.25025 17.5942 9.16491 17.5651C9.07957 17.5359 9.00474 17.4819 8.9499 17.41C8.89506 17.338 8.86266 17.2513 8.8568 17.1609C8.85095 17.0704 8.8719 16.9802 8.91701 16.9018C8.96211 16.8233 9.02935 16.76 9.11021 16.7199C9.19107 16.6799 9.28193 16.6649 9.37128 16.6768C9.46063 16.6886 9.54448 16.7269 9.6122 16.7867C9.67992 16.8466 9.72849 16.9253 9.75175 17.0128C9.76733 17.071 9.77135 17.1316 9.76357 17.1913C9.75578 17.251 9.73636 17.3086 9.7064 17.3607C9.67645 17.4128 9.63655 17.4585 9.589 17.4951C9.54146 17.5316 9.4872 17.5584 9.42934 17.5738ZM23.7947 43.0136C23.7079 42.9903 23.6299 42.9416 23.5706 42.8737C23.5112 42.8058 23.4733 42.7217 23.4614 42.6321C23.4496 42.5424 23.4645 42.4513 23.5041 42.3702C23.5438 42.289 23.6065 42.2215 23.6843 42.1762C23.762 42.1309 23.8514 42.1098 23.9411 42.1156C24.0308 42.1214 24.1168 42.1538 24.1882 42.2087C24.2596 42.2636 24.3132 42.3386 24.3423 42.4241C24.3713 42.5097 24.3745 42.602 24.3514 42.6894C24.3202 42.8065 24.244 42.9064 24.1397 42.9672C24.0353 43.028 23.9113 43.0447 23.7947 43.0136ZM15.9688 13.6382C15.8818 13.6148 15.8035 13.5659 15.744 13.4978C15.6846 13.4297 15.6465 13.3454 15.6347 13.2555C15.6229 13.1656 15.6378 13.0742 15.6776 12.9929C15.7175 12.9116 15.7804 12.8439 15.8584 12.7986C15.9364 12.7532 16.0261 12.7321 16.116 12.738C16.206 12.7439 16.2922 12.7765 16.3637 12.8317C16.4352 12.8868 16.4889 12.9621 16.5179 13.0479C16.5469 13.1337 16.5499 13.2263 16.5266 13.3139C16.5113 13.3721 16.4846 13.4266 16.4483 13.4745C16.4119 13.5223 16.3665 13.5624 16.3147 13.5926C16.2629 13.6227 16.2056 13.6422 16.1463 13.65C16.0869 13.6579 16.0266 13.6538 15.9688 13.6382ZM27.7904 14.3191C27.8976 14.3818 27.9839 14.4751 28.0385 14.587C28.0931 14.699 28.1134 14.8247 28.097 14.9484C28.0806 15.072 28.0282 15.1879 27.9463 15.2816C27.8645 15.3753 27.7569 15.4424 27.6371 15.4747C27.5173 15.5069 27.3908 15.5027 27.2733 15.4627C27.1559 15.4226 27.0529 15.3485 26.9774 15.2496C26.9018 15.1507 26.857 15.0316 26.8487 14.9071C26.8404 14.7827 26.8689 14.6586 26.9307 14.5505C26.972 14.4784 27.027 14.4153 27.0926 14.3647C27.1581 14.3141 27.233 14.2769 27.3129 14.2555C27.3927 14.234 27.476 14.2285 27.558 14.2395C27.6399 14.2504 27.7189 14.2775 27.7904 14.3191ZM12.8415 40.3535C12.949 40.4161 13.0357 40.5094 13.0906 40.6216C13.1454 40.7338 13.1659 40.8598 13.1496 40.9838C13.1333 41.1077 13.0808 41.224 12.9988 41.3179C12.9168 41.4118 12.8089 41.4792 12.6888 41.5115C12.5688 41.5438 12.4419 41.5396 12.3242 41.4994C12.2065 41.4592 12.1033 41.3848 12.0276 41.2856C11.952 41.1865 11.9072 41.067 11.899 40.9422C11.8909 40.8175 11.9196 40.6931 11.9817 40.5848C12.0229 40.5127 12.0779 40.4494 12.1434 40.3987C12.209 40.348 12.2839 40.3108 12.3638 40.2893C12.4437 40.2678 12.527 40.2624 12.609 40.2735C12.691 40.2845 12.77 40.3116 12.8415 40.3535ZM33.4863 20.0524C33.548 20.1606 33.5766 20.2847 33.5683 20.4091C33.5599 20.5335 33.5152 20.6527 33.4396 20.7516C33.364 20.8504 33.2611 20.9246 33.1436 20.9646C33.0262 21.0047 32.8996 21.0089 32.7799 20.9766C32.6601 20.9444 32.5525 20.8772 32.4706 20.7836C32.3888 20.6899 32.3363 20.5739 32.3199 20.4503C32.3035 20.3267 32.3239 20.201 32.3785 20.089C32.433 19.977 32.5194 19.8838 32.6265 19.8211C32.698 19.7791 32.777 19.7518 32.859 19.7408C32.941 19.7297 33.0244 19.735 33.1043 19.7565C33.1843 19.7781 33.2592 19.8153 33.3247 19.8661C33.3903 19.9168 33.4452 19.9802 33.4863 20.0524ZM7.60236 35.0839C7.66411 35.1921 7.69263 35.3162 7.68432 35.4406C7.67602 35.565 7.63125 35.6842 7.55568 35.7831C7.48011 35.8819 7.37712 35.9561 7.2597 35.9961C7.14229 36.0362 7.0157 36.0403 6.89593 36.0081C6.77615 35.9759 6.66855 35.9087 6.5867 35.815C6.50485 35.7214 6.45241 35.6054 6.43601 35.4818C6.41961 35.3582 6.43998 35.2325 6.49454 35.1205C6.54911 35.0085 6.63543 34.9153 6.74261 34.8526C6.81407 34.8106 6.89308 34.7833 6.97509 34.7722C7.0571 34.7612 7.14048 34.7665 7.22042 34.788C7.30035 34.8095 7.37526 34.8468 7.44082 34.8975C7.50637 34.9483 7.56128 35.0117 7.60236 35.0839ZM33.4863 35.7184C33.424 35.8262 33.3313 35.913 33.22 35.9679C33.1086 36.0228 32.9836 36.0433 32.8607 36.0268C32.7378 36.0103 32.6225 35.9576 32.5294 35.8752C32.4363 35.7929 32.3695 35.6847 32.3374 35.5642C32.3054 35.4437 32.3096 35.3164 32.3494 35.1983C32.3892 35.0802 32.4629 34.9766 32.5612 34.9006C32.6595 34.8246 32.778 34.7796 32.9017 34.7712C33.0254 34.7629 33.1488 34.7916 33.2563 34.8537C33.3281 34.895 33.3911 34.9502 33.4416 35.0162C33.4921 35.0821 33.5291 35.1574 33.5505 35.2378C33.5719 35.3182 33.5772 35.4021 33.5662 35.4846C33.5552 35.5671 33.528 35.6465 33.4863 35.7184ZM7.60236 20.6837C7.54004 20.7915 7.44736 20.8783 7.33602 20.9332C7.22469 20.9881 7.09969 21.0086 6.97679 20.9921C6.85389 20.9756 6.73861 20.9228 6.64548 20.8405C6.55235 20.7582 6.48555 20.65 6.45351 20.5295C6.42147 20.409 6.42562 20.2817 6.46545 20.1636C6.50527 20.0455 6.57898 19.9419 6.67728 19.8659C6.77557 19.7899 6.89405 19.7449 7.01776 19.7365C7.14146 19.7282 7.26486 19.7568 7.37238 19.8189C7.4442 19.8603 7.50718 19.9155 7.55767 19.9814C7.60816 20.0474 7.64516 20.1227 7.66655 20.2031C7.68793 20.2835 7.69327 20.3674 7.68225 20.4499C7.67124 20.5323 7.64408 20.6118 7.60236 20.6837ZM27.7872 41.4474C27.6795 41.5098 27.5559 41.5388 27.4319 41.5305C27.3078 41.5223 27.189 41.4773 27.0904 41.4012C26.9918 41.3251 26.9178 41.2213 26.8779 41.1029C26.8379 40.9846 26.8337 40.8569 26.8658 40.7362C26.8979 40.6154 26.9649 40.5069 27.0583 40.4244C27.1517 40.3419 27.2673 40.2891 27.3905 40.2727C27.5138 40.2563 27.639 40.2769 27.7506 40.3321C27.8621 40.3873 27.9549 40.4744 28.0172 40.5826C28.1006 40.728 28.1232 40.9007 28.0801 41.0629C28.037 41.225 27.9316 41.3633 27.7872 41.4474ZM12.8415 15.4131C12.734 15.4752 12.6106 15.5038 12.4869 15.4955C12.3631 15.4871 12.2447 15.4421 12.1464 15.3661C12.0481 15.2901 11.9744 15.1865 11.9345 15.0684C11.8947 14.9503 11.8906 14.823 11.9226 14.7025C11.9547 14.582 12.0214 14.4738 12.1146 14.3915C12.2077 14.3092 12.323 14.2564 12.4459 14.2399C12.5688 14.2234 12.6938 14.2439 12.8051 14.2988C12.9165 14.3537 13.0091 14.4405 13.0715 14.5483C13.113 14.6202 13.1401 14.6997 13.151 14.7821C13.162 14.8646 13.1566 14.9484 13.1352 15.0288C13.1138 15.1091 13.0769 15.1844 13.0265 15.2504C12.9761 15.3163 12.9132 15.3716 12.8415 15.4131ZM20 12.22C20.217 12.22 20.4292 12.2847 20.6096 12.406C20.79 12.5272 20.9307 12.6996 21.0137 12.9013C21.0968 13.1029 21.1185 13.3248 21.0762 13.5389C21.0338 13.753 20.9293 13.9496 20.7759 14.104C20.6224 14.2583 20.4269 14.3635 20.2141 14.406C20.0012 14.4486 19.7806 14.4268 19.5801 14.3432C19.3796 14.2597 19.2082 14.1182 19.0877 13.9368C18.9671 13.7553 18.9027 13.5419 18.9027 13.3236C18.9027 13.0309 19.0183 12.7502 19.2241 12.5432C19.4299 12.3362 19.709 12.22 20 12.22ZM20 41.3404C20.217 41.3404 20.4292 41.4051 20.6096 41.5264C20.79 41.6476 20.9307 41.82 21.0137 42.0217C21.0968 42.2233 21.1185 42.4452 21.0762 42.6593C21.0338 42.8734 20.9293 43.07 20.7759 43.2244C20.6224 43.3787 20.4269 43.4838 20.2141 43.5264C20.0012 43.569 19.7806 43.5472 19.5801 43.4636C19.3796 43.3801 19.2082 43.2386 19.0877 43.0571C18.9671 42.8757 18.9027 42.6623 18.9027 42.444C18.9026 42.299 18.9309 42.1553 18.986 42.0213C19.041 41.8873 19.1218 41.7655 19.2237 41.6629C19.3256 41.5603 19.4467 41.4789 19.5798 41.4234C19.713 41.3679 19.8558 41.3393 20 41.3393V41.3404ZM35.5723 27.8838C35.5723 28.1021 35.5079 28.3155 35.3873 28.4971C35.2667 28.6786 35.0952 28.82 34.8947 28.9035C34.6941 28.987 34.4734 29.0088 34.2606 28.9661C34.0477 28.9235 33.8522 28.8183 33.6987 28.6638C33.5453 28.5093 33.4409 28.3126 33.3987 28.0984C33.3565 27.8843 33.3784 27.6624 33.4616 27.4607C33.5448 27.2591 33.6856 27.0868 33.8662 26.9656C34.0468 26.8445 34.259 26.78 34.4761 26.7802C34.7669 26.7805 35.0457 26.8969 35.2513 27.1038C35.4568 27.3107 35.5723 27.5913 35.5723 27.8838ZM6.62117 27.8838C6.62117 28.1021 6.55682 28.3155 6.43625 28.4969C6.31568 28.6784 6.14431 28.8199 5.94381 28.9034C5.74332 28.987 5.52269 29.0088 5.30985 28.9662C5.097 28.9236 4.90149 28.8185 4.74803 28.6642C4.59458 28.5098 4.49007 28.3132 4.44773 28.0991C4.4054 27.885 4.42713 27.6631 4.51018 27.4615C4.59322 27.2598 4.73386 27.0874 4.91431 26.9662C5.09475 26.8449 5.30689 26.7802 5.52391 26.7802C5.81492 26.7802 6.09402 26.8964 6.29979 27.1034C6.50557 27.3104 6.62117 27.5911 6.62117 27.8838ZM20 7.7676C31.0457 7.7676 40 16.7739 40 27.8838C40 38.9936 31.0457 48 20 48C8.95432 48 0 38.9936 0 27.8838C0 16.7739 8.95432 7.7676 20 7.7676ZM20 11.5747C16.793 11.5747 13.658 12.5312 10.9915 14.3232C8.32493 16.1153 6.24662 18.6625 5.01935 21.6426C3.79208 24.6227 3.47097 27.9019 4.09663 31.0656C4.72228 34.2292 6.26661 37.1352 8.53431 39.4161C10.802 41.697 13.6912 43.2503 16.8366 43.8796C19.982 44.5089 23.2423 44.1859 26.2052 42.9515C29.1681 41.7171 31.7005 39.6267 33.4822 36.9447C35.2639 34.2626 36.2149 31.1094 36.2149 27.8838C36.2149 23.5583 34.5066 19.41 31.4657 16.3515C28.4248 13.2929 24.3005 11.5747 20 11.5747ZM20 0C22.5158 0 24.5771 0.178355 24.7534 0.40427H24.7663V5.40468C24.7663 5.57654 23.5325 5.72355 21.7851 5.78516V6.58614C21.1961 6.53641 20.6011 6.51119 20 6.51047C19.3989 6.50975 18.8039 6.53497 18.2149 6.58614V5.78516C16.4675 5.72355 15.2337 5.57654 15.2337 5.40468V0.40427H15.2466C15.4229 0.178355 17.4831 0 20 0ZM4.72864 4.07945C3.5712 4.75179 2.66953 5.38414 2.64804 5.53547H2.64267L2.65019 5.54844L5.69264 10.845C5.72595 10.9023 6.05803 10.7791 6.55239 10.537L6.86083 11.0774C7.7197 10.3951 8.62982 9.78076 9.58302 9.23983L9.38313 8.89177C9.8388 8.58154 10.1118 8.3513 10.0785 8.29618L7.0274 2.98014H7.02096C6.88125 2.93798 5.88286 3.40711 4.72864 4.07945Z" fill="#F4EDE5"/>
</svg>
