<svg width="33" height="48" viewBox="0 0 33 48" fill="none" xmlns="http://www.w3.org/2000/svg">
<path d="M16.4997 0.00319644C12.2776 0.00319644 9.50896 -0.0788886 7.01944 0.588883C-4.22916 5.00372 0.89277 18.5422 6.9145 23.2931C9.48774 25.4961 12.8726 21.6381 10.3273 19.4107C9.07718 18.2528 7.9941 16.9287 7.10875 15.4762C5.69542 13.1257 4.84362 10.4712 6.12969 7.74247C6.92231 6.06306 7.09423 5.91664 8.36913 5.57499C9.64404 5.23334 12.2764 5.16678 16.4997 5.16678C20.7229 5.16678 23.3542 5.23334 24.6291 5.57499C25.904 5.91664 26.0804 6.06306 26.8686 7.74247C29.2387 11.4995 24.6102 17.9864 22.671 19.4118C20.1368 21.6792 23.477 25.4861 26.0849 23.2942C32.1077 18.5344 37.2308 5.0137 25.98 0.588883C23.4904 -0.0788886 20.7218 0.00319644 16.4997 0.00319644Z" fill="#F4EDE5"/>
<path d="M16.5 17.0669C0.200929 16.5578 -6.34661 39.4628 7.64492 47.6203H25.3551C39.35 39.4606 32.7935 16.5578 16.5 17.0669Z" fill="#F4EDE5"/>
</svg>
