<svg width="22" height="22" viewBox="0 0 22 22" fill="none" xmlns="http://www.w3.org/2000/svg">
<path d="M20.3751 5.15625H15.4688V1.71875H14.0938V5.15625H8.59375V6.53125H9.36375L9.62818 8.59375H4.8125C3.90113 8.59477 3.02739 8.95727 2.38295 9.6017C1.73852 10.2461 1.37602 11.1199 1.375 12.0312V12.7188H13.4062V12.0312C13.4068 11.5125 13.2893 11.0005 13.0625 10.534C12.8606 10.1183 12.5772 9.74739 12.2291 9.44338C11.881 9.13938 11.4754 8.90844 11.0363 8.76429L10.7501 6.53125H18.8124L17.2699 18.5625H1.375V19.9375H18.48L20.1987 6.53125H21.3125V5.15625H20.3751ZM11.9134 11.3438H2.86782C3.01043 10.9419 3.2739 10.594 3.62208 10.3478C3.97026 10.1016 4.38608 9.96922 4.8125 9.96875H9.96875C10.3952 9.96922 10.811 10.1016 11.1592 10.3478C11.5073 10.594 11.7708 10.9419 11.9134 11.3438Z" fill="#FFFAF7"/>
<path d="M13.0625 15.125H13.4062V13.75H1.375V15.125H13.0625ZM13.0625 17.5312H13.4062V16.1562H1.375V17.5312H13.0625Z" fill="#FFFAF7"/>
</svg>
