<svg width="24" height="24" viewBox="0 0 24 24" fill="none" xmlns="http://www.w3.org/2000/svg">
<path d="M18.4355 20.937H5.56152C4.89848 20.937 4.2626 20.6736 3.79376 20.2048C3.32492 19.7359 3.06152 19.1 3.06152 18.437V5.563C3.06152 4.89996 3.32492 4.26408 3.79376 3.79524C4.2626 3.3264 4.89848 3.063 5.56152 3.063H18.4355C19.0986 3.063 19.7344 3.3264 20.2033 3.79524C20.6721 4.26408 20.9355 4.89996 20.9355 5.563V18.437C20.9355 19.1 20.6721 19.7359 20.2033 20.2048C19.7344 20.6736 19.0986 20.937 18.4355 20.937ZM5.56152 4.063C5.1637 4.063 4.78217 4.22104 4.50086 4.50234C4.21956 4.78365 4.06152 5.16518 4.06152 5.563V18.437C4.06152 18.8348 4.21956 19.2164 4.50086 19.4977C4.78217 19.779 5.1637 19.937 5.56152 19.937H18.4355C18.8333 19.937 19.2149 19.779 19.4962 19.4977C19.7775 19.2164 19.9355 18.8348 19.9355 18.437V5.563C19.9355 5.16518 19.7775 4.78365 19.4962 4.50234C19.2149 4.22104 18.8333 4.063 18.4355 4.063H5.56152Z" fill="#F4EDE5"/>
<path d="M6.54384 8.283C6.41177 8.28061 6.28557 8.22805 6.19084 8.136C6.0971 8.04223 6.04445 7.91508 6.04445 7.7825C6.04445 7.64992 6.0971 7.52276 6.19084 7.429C6.28454 7.33553 6.41149 7.28303 6.54384 7.283H7.54984C7.68177 7.28512 7.80796 7.33731 7.90284 7.429C7.94942 7.47543 7.98638 7.53061 8.01161 7.59135C8.03683 7.6521 8.04983 7.71722 8.04984 7.783C8.04984 7.91561 7.99716 8.04278 7.90339 8.13655C7.80962 8.23032 7.68245 8.283 7.54984 8.283H6.54384ZM6.54384 12.5C6.41191 12.4979 6.28572 12.4457 6.19084 12.354C6.14428 12.3076 6.10733 12.2524 6.08213 12.1916C6.05692 12.1309 6.04395 12.0658 6.04395 12C6.04395 11.9342 6.05692 11.8691 6.08213 11.8084C6.10733 11.7476 6.14428 11.6924 6.19084 11.646C6.28572 11.5543 6.41191 11.5021 6.54384 11.5H7.54984C7.68177 11.5021 7.80796 11.5543 7.90284 11.646C7.9494 11.6924 7.98634 11.7476 8.01155 11.8084C8.03676 11.8691 8.04973 11.9342 8.04973 12C8.04973 12.0658 8.03676 12.1309 8.01155 12.1916C7.98634 12.2524 7.9494 12.3076 7.90284 12.354C7.80796 12.4457 7.68177 12.4979 7.54984 12.5H6.54384ZM6.54384 16.72C6.41177 16.7176 6.28557 16.6651 6.19084 16.573C6.0971 16.4792 6.04445 16.3521 6.04445 16.2195C6.04445 16.0869 6.0971 15.9598 6.19084 15.866C6.28572 15.7743 6.41191 15.7221 6.54384 15.72H7.54984C7.68177 15.7221 7.80796 15.7743 7.90284 15.866C7.94942 15.9124 7.98638 15.9676 8.01161 16.0284C8.03683 16.0891 8.04983 16.1542 8.04984 16.22C8.04984 16.3526 7.99716 16.4798 7.90339 16.5736C7.80962 16.6673 7.68245 16.72 7.54984 16.72H6.54384ZM10.5538 8.281C10.4212 8.281 10.2941 8.22832 10.2003 8.13455C10.1065 8.04078 10.0538 7.91361 10.0538 7.781C10.0538 7.64839 10.1065 7.52121 10.2003 7.42744C10.2941 7.33368 10.4212 7.281 10.5538 7.281H17.4538C17.5864 7.281 17.7136 7.33368 17.8074 7.42744C17.9012 7.52121 17.9538 7.64839 17.9538 7.781C17.9538 7.91361 17.9012 8.04078 17.8074 8.13455C17.7136 8.22832 17.5864 8.281 17.4538 8.281H10.5538ZM10.5538 12.5C10.4212 12.5 10.2941 12.4473 10.2003 12.3536C10.1065 12.2598 10.0538 12.1326 10.0538 12C10.0538 11.8674 10.1065 11.7402 10.2003 11.6464C10.2941 11.5527 10.4212 11.5 10.5538 11.5H17.4538C17.5864 11.5 17.7136 11.5527 17.8074 11.6464C17.9012 11.7402 17.9538 11.8674 17.9538 12C17.9538 12.1326 17.9012 12.2598 17.8074 12.3536C17.7136 12.4473 17.5864 12.5 17.4538 12.5H10.5538ZM10.5538 16.718C10.4212 16.718 10.2941 16.6653 10.2003 16.5716C10.1065 16.4778 10.0538 16.3506 10.0538 16.218C10.0538 16.0854 10.1065 15.9582 10.2003 15.8644C10.2941 15.7707 10.4212 15.718 10.5538 15.718H17.4538C17.5864 15.718 17.7136 15.7707 17.8074 15.8644C17.9012 15.9582 17.9538 16.0854 17.9538 16.218C17.9538 16.3506 17.9012 16.4778 17.8074 16.5716C17.7136 16.6653 17.5864 16.718 17.4538 16.718H10.5538Z" fill="#F4EDE5"/>
</svg>
