<svg width="22" height="22" viewBox="0 0 22 22" fill="none" xmlns="http://www.w3.org/2000/svg">
<circle cx="11" cy="11" r="10.5" stroke="#DC8236"/>
<path d="M10.6787 3.41306C10.2386 3.86159 10.213 4.0819 9.99099 4.69928C10.0698 4.96705 10.142 5.19519 10.259 5.43513C10.4101 5.44342 10.5744 5.4489 10.7085 5.44772C10.5295 5.14866 10.466 4.88171 10.5698 4.41431C10.6958 4.97241 10.9462 5.29301 11.191 5.42013C11.2798 5.41036 11.3655 5.39917 11.4481 5.38655C11.2648 5.08371 11.1992 4.81614 11.3041 4.34394C11.4183 4.84989 11.6348 5.16062 11.8567 5.30897C11.9931 5.27842 12.1286 5.24326 12.2647 5.20544C12.1031 4.92155 12.0491 4.65782 12.1484 4.21061C12.2467 4.64643 12.421 4.93746 12.6093 5.10463C12.7448 5.06282 12.88 5.02037 13.0151 4.97728C12.995 4.80788 13.0029 4.62023 13.0463 4.41727L13.1014 4.15945L13.6171 4.26961L13.5621 4.52754C13.4555 5.02582 13.6009 5.24297 13.7761 5.36736C13.9513 5.4917 14.2065 5.46873 14.2457 5.44353L14.4677 5.30115L14.7525 5.745C14.6395 5.81355 14.521 5.90437 14.4061 5.95184C14.9525 6.76271 15.349 7.75257 15.1314 8.69256C15.0621 8.97012 14.9547 9.22702 14.7882 9.42457C15.161 9.77994 15.4097 10.0699 15.6973 10.4353C15.5839 10.3622 15.4697 10.2902 15.3548 10.2194C15.0209 10.014 14.6566 9.80297 14.33 9.63926C13.8609 9.41074 13.411 9.10591 12.9316 9.038C12.2709 8.95107 11.5761 9.17853 10.7836 9.65499C11.0142 9.91046 11.1727 10.1083 11.3787 10.3666C11.1742 10.2395 10.9494 10.1008 10.7001 9.94966C9.74642 9.43755 8.78442 8.53676 7.75763 8.48511C6.86231 8.45311 6.00122 8.92324 5.13037 9.61503L5 9.71871V16.7414H5.93642C7.26017 16.2305 8.28857 15.0523 8.77909 13.9722L8.78642 13.9557L8.79594 13.9405C9.07317 13.4936 9.12254 13.0707 9.28783 12.63C9.45321 12.1892 9.78315 11.7593 10.5149 11.4945C10.6424 11.4313 10.6634 11.4531 10.7678 11.5354C11.6604 12.2388 12.4462 12.4735 13.2065 12.4832C14.1619 12.4375 14.9187 12.1937 15.7167 11.9154C15.6005 12.0188 15.4598 12.1266 15.307 12.2307C14.858 12.5364 14.3045 12.8145 13.9504 12.9572C13.5193 13.016 13.1195 13.028 12.7209 12.9753C12.4291 13.3295 11.9717 13.5717 11.6267 13.7567C13.4993 14.1676 15.0216 13.7834 16.5305 13.0859C16.2516 13.0327 15.9737 12.9778 15.7104 12.9272C16.6372 12.7976 17.6142 12.8168 18.485 12.8237C18.6046 12.8232 18.6963 12.8105 18.7399 12.7978C19.1549 11.3015 18.6199 9.92982 17.7351 8.54341C16.8485 7.154 15.6205 5.78637 14.7499 4.35278C14.1317 3.84721 13.3261 3.43125 12.4788 3C11.8815 3.12451 11.2768 3.27349 10.6787 3.41306ZM13.1802 5.47819C12.8381 5.58366 12.4856 5.69572 12.1884 5.77151C12.2625 5.91595 12.2979 6.08394 12.2879 6.24618C12.611 6.27188 12.9055 6.18706 13.1365 6.05997C13.2784 5.98187 13.3925 5.88278 13.4709 5.79747C13.358 5.71734 13.2582 5.60968 13.1802 5.47813L13.1802 5.47819ZM11.5919 5.9088C11.2474 5.94229 10.8715 5.978 10.5648 5.97431C10.6348 6.11411 10.6755 6.32783 10.8141 6.40907C11.1416 6.44317 11.4176 6.46758 11.6904 6.35792C11.8496 6.26376 11.7436 5.91677 11.5919 5.9088ZM10.5671 12.0416C10.0517 12.2535 9.90541 12.4851 9.78157 12.8152C9.66444 13.1275 9.59914 13.5498 9.35735 14.0168C10.3033 13.8299 11.3971 13.3948 12.1069 12.8423C11.6084 12.693 11.0946 12.4365 10.5672 12.0416H10.5671ZM10.8401 14.1329C10.2916 14.345 9.64373 14.6059 9.09119 14.5449C8.68478 15.355 8.10582 16.1563 7.161 16.7414H9.64186C10.2736 15.8684 10.7571 15.0839 10.8401 14.1329Z" fill="#DC8236"/>
</svg>
