<svg width="22" height="22" viewBox="0 0 22 22" fill="none" xmlns="http://www.w3.org/2000/svg">
<circle cx="11" cy="11" r="10.5" stroke="#DC8236"/>
<g clip-path="url(#clip0_54648_3007)">
<path d="M7.19908 17.9998C6.99971 17.9018 6.92159 17.7402 6.94421 17.5223C6.9471 17.4677 6.9471 17.4129 6.94421 17.3583C6.94421 17.0595 7.02597 16.9615 7.33741 16.8998C7.33741 16.6552 7.3436 16.4063 7.33484 16.158C7.33036 16.0289 7.36814 15.9335 7.46399 15.8462C7.60905 15.7146 7.74727 15.5756 7.8781 15.4299C7.92564 15.3736 7.95398 15.3036 7.959 15.2301C7.96925 15.0166 7.96477 14.8019 7.96199 14.588C7.96071 14.4832 7.9923 14.3991 8.10693 14.3976C8.22156 14.3961 8.25635 14.483 8.25635 14.5859C8.25635 14.8457 8.26212 15.1054 8.25251 15.3648C8.24604 15.4356 8.21649 15.5022 8.16841 15.5546C8.02048 15.7153 7.86017 15.8645 7.70819 16.0216C7.67574 16.0551 7.63817 16.1023 7.6371 16.1442C7.63049 16.3941 7.6339 16.6443 7.6339 16.8913C7.97544 16.9878 8.02667 17.0561 8.02688 17.3987C8.02688 17.458 8.0224 17.5176 8.02688 17.5763C8.04567 17.7808 7.9415 17.9097 7.77222 17.9994L7.19908 17.9998ZM7.48363 17.2059C7.2247 17.2091 7.23153 17.1643 7.23217 17.4508C7.23217 17.7432 7.21488 17.7033 7.48832 17.7033C7.75109 17.7033 7.73999 17.7436 7.73999 17.4595C7.73999 17.1628 7.75173 17.2095 7.48363 17.2059Z" fill="#DC8236"/>
<path d="M4 14.227C4.09776 14.0268 4.25957 13.9495 4.47751 13.9732C4.53212 13.9761 4.58684 13.9761 4.64145 13.9732C4.94029 13.9732 5.03678 14.0529 5.10017 14.3654C5.35376 14.3654 5.61248 14.3683 5.86863 14.3622C5.90577 14.3622 5.94697 14.322 5.97771 14.2919C6.13418 14.1393 6.28338 13.9788 6.44497 13.8319C6.50145 13.7822 6.57255 13.7523 6.64755 13.7465C6.89772 13.7365 7.14832 13.7431 7.39893 13.742C7.50438 13.742 7.60214 13.7647 7.6015 13.8898C7.60086 14.0149 7.50608 14.0383 7.39871 14.0383C7.19827 14.0356 6.99762 14.0432 6.79761 14.0353C6.74851 14.0313 6.69916 14.0392 6.65375 14.0583C6.60833 14.0774 6.5682 14.1071 6.53676 14.1451C6.40631 14.2912 6.26724 14.4294 6.1203 14.559C6.05348 14.6156 5.97066 14.65 5.88336 14.6574C5.62465 14.67 5.36508 14.6621 5.1149 14.6621C5.08011 14.7513 5.06794 14.848 5.01394 14.9046C4.94441 14.9727 4.85822 15.0214 4.76397 15.0459C4.67453 15.07 4.57335 15.0459 4.47858 15.0553C4.26042 15.0766 4.09905 15.0004 4.00085 14.8008L4 14.227ZM4.79407 14.5193C4.79087 14.2471 4.83548 14.261 4.54283 14.2612C4.26213 14.2612 4.29522 14.2439 4.29543 14.5086C4.29543 14.7861 4.25914 14.7662 4.54582 14.7669C4.83249 14.7675 4.79172 14.7788 4.79407 14.5193Z" fill="#DC8236"/>
<path d="M14.2246 17.9998C14.025 17.9016 13.9471 17.74 13.97 17.5223C13.9727 17.4677 13.9727 17.4129 13.97 17.3583C13.971 17.0595 14.0515 16.9617 14.3625 16.8998C14.3625 16.646 14.3653 16.3875 14.3593 16.1313C14.3582 16.0942 14.3194 16.053 14.2893 16.0223C14.1365 15.8656 13.9762 15.7166 13.8293 15.5548C13.7796 15.4982 13.7497 15.427 13.7439 15.352C13.7339 15.1018 13.7405 14.8512 13.7396 14.6006C13.7396 14.4951 13.7629 14.3974 13.888 14.3984C14.0131 14.3995 14.0353 14.4945 14.0334 14.6019C14.0304 14.784 14.0419 14.9669 14.0297 15.1481C14.0195 15.2976 14.066 15.4043 14.1792 15.5029C14.3168 15.6223 14.4457 15.7514 14.5651 15.8891C14.6164 15.9496 14.6473 16.0247 14.6535 16.1038C14.6639 16.367 14.6575 16.6311 14.6575 16.8921C15.0023 16.9905 15.0505 17.0556 15.0505 17.4134C15.0505 17.4681 15.0462 17.5231 15.0505 17.5773C15.0695 17.7818 14.9662 17.9108 14.7961 18.0004L14.2246 17.9998ZM14.5043 17.7041H14.5585C14.7651 17.7041 14.7651 17.7041 14.7653 17.4967V17.4693C14.7653 17.1641 14.7828 17.207 14.5053 17.2066C14.2472 17.2061 14.2575 17.1673 14.2575 17.4537C14.2575 17.7402 14.2428 17.7016 14.5043 17.7041Z" fill="#DC8236"/>
<path d="M4 7.20067C4.09755 7.00023 4.25978 6.92317 4.47751 6.94686C4.53212 6.94985 4.58684 6.94985 4.64145 6.94686C4.94029 6.94686 5.03635 7.02606 5.10039 7.33857C5.3448 7.33857 5.59369 7.34476 5.84195 7.33601C5.9005 7.3314 5.95932 7.34075 6.01357 7.36327C6.06781 7.38579 6.11595 7.42085 6.15403 7.46558C6.28577 7.61049 6.42469 7.7487 6.57027 7.8797C6.62652 7.92718 6.69643 7.95552 6.76986 7.9606C6.98332 7.97085 7.19785 7.96615 7.41195 7.96359C7.51654 7.96231 7.60065 7.99454 7.60193 8.10896C7.60321 8.22337 7.51654 8.2571 7.41302 8.25689C7.15345 8.25689 6.89367 8.26244 6.63453 8.25283C6.56372 8.24602 6.49716 8.21601 6.44519 8.16745C6.28125 8.01631 6.12863 7.85301 5.96853 7.69783C5.93822 7.66858 5.89382 7.63678 5.8554 7.63592C5.60565 7.63229 5.35654 7.63443 5.10829 7.63443C5.01052 7.97597 4.94392 8.0272 4.60046 8.0272C4.54134 8.0272 4.48157 8.02229 4.42308 8.0272C4.21816 8.04705 4.08965 7.94374 4 7.77339V7.20067ZM4.79407 7.4961V7.44231C4.79407 7.23546 4.79407 7.23546 4.5868 7.23546H4.55969C4.26085 7.23696 4.29564 7.20878 4.29543 7.49333C4.29543 7.7576 4.2617 7.74095 4.54283 7.74137C4.83036 7.74116 4.79172 7.75375 4.79407 7.4961Z" fill="#DC8236"/>
<path d="M3.99966 9.41514C4.09295 9.21192 4.25582 9.13294 4.47269 9.15002C4.53673 9.15514 4.60077 9.15002 4.66481 9.15108C4.93654 9.15535 5.03729 9.24565 5.1024 9.5509C5.36282 9.5509 5.62623 9.54535 5.889 9.55432C5.96875 9.55876 6.04595 9.58401 6.11292 9.62753C6.29884 9.74921 6.46022 9.93385 6.66194 9.99853C6.86366 10.0632 7.10338 10.0139 7.32644 10.0145H7.44811C7.54054 10.0145 7.59754 10.0639 7.60202 10.1533C7.6065 10.2427 7.54652 10.2984 7.45729 10.301C7.27521 10.3066 7.09163 10.2903 6.91126 10.3085C6.64913 10.3352 6.42649 10.2694 6.24185 10.0824C6.03928 9.87686 5.79614 9.80791 5.51203 9.84078C5.37798 9.85637 5.24072 9.84356 5.11542 9.84356C5.07828 9.93663 5.06568 10.0357 5.0104 10.0893C4.93577 10.1582 4.84483 10.2071 4.74613 10.2312C4.652 10.2551 4.54655 10.2312 4.44729 10.2387C4.22849 10.2555 4.07864 10.1678 3.99902 9.96118L3.99966 9.41514ZM4.79374 9.70225C4.79139 9.42005 4.82853 9.44353 4.54121 9.44374C4.26862 9.44374 4.29403 9.41749 4.29509 9.69477C4.29616 9.97206 4.25838 9.94517 4.55402 9.94645C4.83451 9.94752 4.79053 9.95435 4.79374 9.70225Z" fill="#DC8236"/>
<path d="M9.41227 17.9998C9.20927 17.9063 9.12922 17.7451 9.14822 17.5268C9.15334 17.4678 9.14822 17.4083 9.14822 17.3492C9.15057 17.0623 9.23681 16.9626 9.54739 16.8987C9.54739 16.6381 9.54205 16.3747 9.55081 16.1119C9.55578 16.0321 9.58162 15.9549 9.62573 15.8882C9.74698 15.7021 9.93012 15.5403 9.99608 15.3388C10.0601 15.1411 10.0112 14.9063 10.0117 14.6877C10.0117 14.6512 10.0132 14.6147 10.0117 14.5784C10.007 14.4781 10.0448 14.4006 10.1508 14.3976C10.2676 14.3942 10.3015 14.4789 10.3015 14.5825C10.3015 14.769 10.2892 14.9569 10.3047 15.1422C10.3235 15.365 10.2736 15.5561 10.1126 15.7134C9.87783 15.9431 9.79714 16.2197 9.83855 16.542C9.85349 16.658 9.84111 16.7769 9.84111 16.8911C10.1865 16.9895 10.2347 17.0556 10.2347 17.416C10.2347 17.4659 10.2313 17.5163 10.2347 17.5654C10.2527 17.7808 10.1553 17.9212 9.95851 17.9991L9.41227 17.9998ZM9.69489 17.7041H9.74954C9.944 17.7041 9.944 17.7041 9.94443 17.5105V17.4698C9.94443 17.1587 9.96086 17.2083 9.68294 17.2066C9.4223 17.2053 9.44045 17.1754 9.4413 17.4473C9.44322 17.7342 9.41227 17.702 9.69575 17.7041H9.69489Z" fill="#DC8236"/>
<path d="M7.93697 11.0012C7.93697 10.2451 7.93697 9.48907 7.93697 8.73313C7.93697 8.24216 8.23773 7.93925 8.72677 7.93904C10.2435 7.93904 11.76 7.93904 13.2765 7.93904C13.7557 7.93904 14.0599 8.24472 14.0601 8.72544C14.0601 10.2419 14.0601 11.7584 14.0601 13.275C14.0601 13.7566 13.7563 14.0622 13.2773 14.0627C11.7562 14.0627 10.2352 14.0627 8.71418 14.0627C8.24328 14.0627 7.93804 13.7551 7.9374 13.2831C7.9364 12.5225 7.93626 11.7618 7.93697 11.0012ZM11.0052 8.23213C10.2492 8.23213 9.49302 8.23213 8.7368 8.23213C8.39676 8.23213 8.23154 8.39543 8.23154 8.7312C8.23154 10.2437 8.23154 11.7561 8.23154 13.2684C8.23154 13.6054 8.39569 13.7677 8.73659 13.7679C10.245 13.7679 11.7529 13.7679 13.26 13.7679C13.6016 13.7679 13.7655 13.6054 13.7655 13.2684C13.7655 11.7559 13.7655 10.2436 13.7655 8.73142C13.7655 8.39393 13.6016 8.23255 13.26 8.23213C12.5085 8.23213 11.7569 8.23213 11.0052 8.23213Z" fill="#DC8236"/>
<path d="M7.33809 5.1019C7.02687 5.03957 6.94575 4.94116 6.94511 4.64253C6.94511 4.54241 6.94212 4.44208 6.94789 4.34218C6.9592 4.1475 7.09475 4.01281 7.28942 4.00448C7.4175 3.99893 7.54429 3.99957 7.67173 4.00448C7.87537 4.01153 8.01198 4.14558 8.02287 4.34816C8.02821 4.44358 8.02543 4.53921 8.02543 4.63484C8.02543 4.94308 7.9488 5.03637 7.63245 5.10318C7.63245 5.354 7.62989 5.60802 7.63544 5.86183C7.63544 5.90004 7.67002 5.94337 7.69948 5.97368C7.8489 6.12716 8.00878 6.27061 8.14775 6.43156C8.20652 6.50253 8.242 6.58989 8.24935 6.68174C8.26323 6.91292 8.25469 7.14581 8.25383 7.37785C8.25383 7.53453 8.20218 7.61607 8.10292 7.60582C7.96865 7.59216 7.95905 7.49226 7.96054 7.38425C7.96332 7.17484 7.96673 6.96522 7.95798 6.75624C7.9537 6.69122 7.92829 6.62938 7.88562 6.58013C7.73747 6.41961 7.57375 6.27339 7.42796 6.11051C7.37708 6.05036 7.34685 5.97546 7.34172 5.89684C7.33169 5.63364 7.33809 5.3698 7.33809 5.1019ZM7.47641 4.79537H7.54429C7.73897 4.79537 7.73897 4.79537 7.7394 4.60325V4.56269C7.7394 4.25914 7.76202 4.29864 7.48132 4.29864C7.21898 4.29864 7.232 4.25979 7.232 4.54412C7.23179 4.83358 7.22047 4.79323 7.47641 4.79537Z" fill="#DC8236"/>
<path d="M14.6592 5.10638C14.6592 5.36702 14.6646 5.63065 14.6558 5.89385C14.6533 5.96884 14.6265 6.04098 14.5794 6.09941C14.4058 6.29153 14.1525 6.44394 14.0585 6.66595C13.9674 6.88304 14.0338 7.16716 14.0346 7.42182C14.0346 7.51553 14.0045 7.58426 13.9085 7.60454C13.8186 7.62354 13.7443 7.55096 13.7428 7.43484C13.739 7.16182 13.7362 6.88837 13.7456 6.61557C13.7477 6.55622 13.7911 6.48749 13.8344 6.44181C13.9838 6.28235 14.1424 6.13207 14.2948 5.97539C14.3245 5.94487 14.3589 5.90217 14.3606 5.86439C14.3664 5.61015 14.3636 5.35571 14.3636 5.10425C14.0415 5.03124 13.971 4.9433 13.9708 4.62374C13.9708 4.52832 13.9682 4.43162 13.9742 4.33706C13.9862 4.14942 14.1198 4.0143 14.3079 4.00512C14.4442 3.99819 14.5809 3.99819 14.7173 4.00512C14.9049 4.01516 15.0375 4.15071 15.0492 4.33919C15.055 4.42992 15.0524 4.52128 15.0524 4.61221C15.0524 4.94479 14.9897 5.02462 14.6592 5.10638ZM14.5124 4.79536C14.5395 4.79334 14.5668 4.79334 14.5939 4.79536C14.7352 4.81778 14.7843 4.75267 14.7657 4.61926C14.7646 4.6012 14.7646 4.58309 14.7657 4.56504C14.7645 4.25402 14.7905 4.29842 14.4976 4.29757C14.2472 4.29757 14.2575 4.26171 14.2575 4.54049C14.2575 4.83806 14.2447 4.79259 14.5124 4.79536Z" fill="#DC8236"/>
<path d="M16.8954 14.6623C16.6392 14.6623 16.3803 14.6584 16.1216 14.6642C16.0742 14.6668 16.0268 14.6585 15.9831 14.64C15.9394 14.6215 15.9004 14.5933 15.8693 14.5575C15.7286 14.4081 15.5858 14.2612 15.433 14.1254C15.3733 14.0754 15.2993 14.0455 15.2216 14.04C15.0082 14.0289 14.7947 14.0347 14.58 14.0366C14.4732 14.0377 14.3938 13.9997 14.3955 13.8859C14.3968 13.7792 14.4781 13.7438 14.5759 13.7438C14.84 13.7438 15.1042 13.738 15.3678 13.7478C15.4319 13.7502 15.5068 13.7905 15.5559 13.8349C15.7132 13.9796 15.8569 14.1393 16.0144 14.2832C16.0664 14.3292 16.132 14.3571 16.2012 14.3626C16.4322 14.372 16.664 14.3662 16.8926 14.3662C16.9748 14.0356 17.0542 13.9743 17.3865 13.9743C17.4719 13.9743 17.5597 13.9719 17.6459 13.9758C17.8485 13.9845 17.9864 14.119 17.9953 14.3214C18.0011 14.4495 18.0009 14.5763 17.9953 14.7035C17.9868 14.912 17.8459 15.045 17.6354 15.0531C17.55 15.0561 17.4625 15.0542 17.3761 15.0542C17.0542 15.0538 16.9688 14.9846 16.8954 14.6623ZM17.7029 14.5146C17.7009 14.4875 17.7009 14.4603 17.7029 14.4332C17.7242 14.2934 17.6632 14.2411 17.5278 14.2608C17.5098 14.2619 17.4917 14.2619 17.4736 14.2608C17.1598 14.2608 17.2047 14.2377 17.2038 14.5265C17.2038 14.7741 17.166 14.7675 17.4455 14.7665C17.7373 14.7658 17.7003 14.7887 17.7029 14.5146Z" fill="#DC8236"/>
<path d="M16.8966 7.63443C16.6428 7.63443 16.3973 7.63123 16.152 7.63742C16.1094 7.63742 16.0598 7.67051 16.027 7.70146C15.8694 7.8528 15.7215 8.0144 15.5595 8.16062C15.5003 8.21358 15.4257 8.24614 15.3467 8.25347C15.0967 8.26457 14.8461 8.25732 14.5957 8.25796C14.489 8.25796 14.3936 8.23234 14.3966 8.10725C14.3995 7.98216 14.496 7.96274 14.6023 7.96423C14.8158 7.96722 15.0305 7.97042 15.244 7.96188C15.3091 7.95771 15.371 7.93237 15.4203 7.88973C15.5806 7.74159 15.7264 7.57765 15.8886 7.43185C15.9485 7.3803 16.0233 7.34932 16.1021 7.34348C16.3653 7.33302 16.6291 7.33942 16.89 7.33942C16.9833 7.00044 17.0529 6.94772 17.3974 6.94772C17.4793 6.94772 17.5615 6.94558 17.6433 6.949C17.8465 6.95754 17.9848 7.09074 17.9949 7.29225C18.001 7.42396 18.0015 7.55652 17.9949 7.68822C17.9846 7.8829 17.8467 8.0161 17.6516 8.02571C17.5562 8.03019 17.4595 8.02763 17.3649 8.02763C17.0558 8.0272 16.9636 7.95206 16.8966 7.63443ZM17.7031 7.49013C17.7003 7.21263 17.7381 7.23397 17.4497 7.23397C17.1613 7.23397 17.2038 7.22373 17.2038 7.48501C17.2038 7.75482 17.1611 7.74116 17.4565 7.74116C17.7374 7.74116 17.7005 7.75589 17.7031 7.49056V7.49013Z" fill="#DC8236"/>
<path d="M12.1559 5.10339C11.8376 5.03423 11.7625 4.94073 11.7622 4.63079C11.7622 4.53964 11.7601 4.44849 11.7633 4.35755C11.7706 4.15498 11.9068 4.01345 12.1063 4.00555C12.238 3.99957 12.3706 3.99979 12.5023 4.00555C12.6808 4.01324 12.8199 4.13171 12.8359 4.30653C12.8504 4.4651 12.8504 4.62464 12.8359 4.7832C12.8189 4.96806 12.7079 5.05195 12.4483 5.10339C12.4483 5.3572 12.4556 5.61571 12.4442 5.87186C12.4404 5.96045 12.4154 6.07102 12.3578 6.13037C12.0414 6.45611 11.9196 6.8365 11.984 7.28307C11.9932 7.3454 12.0032 7.41905 11.9787 7.47177C11.9541 7.5245 11.8899 7.59216 11.8361 7.59985C11.7964 7.60497 11.708 7.52514 11.7061 7.48052C11.6944 7.18039 11.6948 6.87962 11.7046 6.57971C11.7065 6.51994 11.7558 6.45163 11.8015 6.40531C12.0984 6.10432 12.2205 5.74933 12.1569 5.32967C12.1467 5.25645 12.1559 5.1828 12.1559 5.10339ZM12.5559 4.55415C12.554 4.26683 12.586 4.2997 12.3019 4.298C12.2655 4.30024 12.2291 4.30024 12.1928 4.298C12.0839 4.28369 12.0412 4.33151 12.0521 4.43739C12.0537 4.46917 12.0537 4.50102 12.0521 4.53281C12.0521 4.8434 12.035 4.79451 12.3134 4.79622C12.574 4.79643 12.5559 4.8261 12.5559 4.55415Z" fill="#DC8236"/>
<path d="M16.8956 12.4508C16.6395 12.4508 16.3799 12.4568 16.1212 12.4474C16.0371 12.4432 15.9556 12.4172 15.8845 12.372C15.702 12.2529 15.5453 12.0683 15.3478 12.0051C15.1453 11.9411 14.9064 11.9884 14.6831 11.9872C14.6332 11.9872 14.5736 12.0036 14.5352 11.9823C14.4795 11.9513 14.411 11.8979 14.4018 11.8448C14.395 11.8051 14.472 11.7112 14.5145 11.7095C14.8187 11.6975 15.1241 11.6945 15.4283 11.7095C15.5032 11.7131 15.5852 11.7822 15.6452 11.8405C15.9169 12.1039 16.2329 12.2166 16.6103 12.1607C16.7029 12.1468 16.7996 12.1586 16.8905 12.1586C16.9806 11.8192 17.0532 11.7647 17.4028 11.7647C17.4848 11.7647 17.5668 11.7624 17.6487 11.7647C17.8426 11.7731 17.9841 11.9067 17.9948 12.1003C18.0021 12.2367 18.0021 12.3735 17.9948 12.5099C17.9851 12.6873 17.865 12.8201 17.6874 12.8387C17.547 12.8527 17.4057 12.8551 17.2649 12.8459C17.0468 12.8333 16.9554 12.7307 16.8956 12.4508ZM17.4581 12.0553C17.1593 12.0553 17.2071 12.0382 17.2032 12.3114C17.2032 12.3296 17.2032 12.3479 17.2032 12.3661C17.2032 12.5582 17.2032 12.5582 17.3996 12.5582H17.4406C17.7322 12.556 17.7021 12.5906 17.7019 12.2946C17.7019 12.0363 17.7339 12.0561 17.4581 12.0553Z" fill="#DC8236"/>
<path d="M10.6637 6.00933C10.5004 6.20145 10.339 6.38673 10.1855 6.57778C10.1552 6.61535 10.1428 6.67683 10.1428 6.72721C10.1384 6.94985 10.1403 7.17292 10.1411 7.39578C10.1411 7.50251 10.1168 7.59771 9.99171 7.59579C9.86662 7.59387 9.84741 7.49781 9.84869 7.39151C9.85168 7.13685 9.84463 6.88197 9.85296 6.62752C9.85708 6.55687 9.88253 6.48914 9.92596 6.43327C10.0967 6.21981 10.2756 6.01509 10.4581 5.79928C10.4402 5.77303 10.4227 5.74848 10.4065 5.72329C10.3151 5.58155 10.3211 5.43575 10.4329 5.30938C10.5143 5.21754 10.6013 5.13078 10.6934 5.0496C10.831 4.92814 11.0012 4.92835 11.1384 5.0496C11.23 5.13125 11.3166 5.21828 11.3978 5.31024C11.5199 5.4475 11.5184 5.61677 11.3978 5.75552C11.3412 5.81956 11.2776 5.87976 11.2163 5.9406C11.0199 6.13741 10.9145 6.15214 10.6637 6.00933ZM11.2225 5.56106C11.1751 5.50342 11.1585 5.47717 11.1356 5.45625C10.8607 5.19668 10.976 5.18536 10.6874 5.46863C10.666 5.48997 10.6615 5.57344 10.6795 5.58625C10.7717 5.65285 10.8024 5.80505 10.9533 5.78989C10.9572 5.78989 10.9602 5.78413 10.9638 5.78114L11.2225 5.56106Z" fill="#DC8236"/>
<path d="M16.1967 10.4558C16.4659 10.2918 16.5637 10.304 16.785 10.5247C17.1306 10.8693 17.1302 10.964 16.7814 11.3122C16.5419 11.5513 16.3912 11.5504 16.1491 11.3086C16.1137 11.2733 16.0778 11.2383 16.0424 11.2018C15.8631 11.0212 15.849 10.8974 15.9933 10.6663C15.7954 10.4993 15.5971 10.3283 15.3933 10.164C15.3632 10.1396 15.3079 10.1426 15.263 10.1426C15.0446 10.1405 14.8262 10.1405 14.6079 10.1426C14.5033 10.1426 14.4043 10.1245 14.4024 9.99875C14.4005 9.87302 14.4935 9.84933 14.6017 9.8504C14.8564 9.85317 15.1115 9.8457 15.3657 9.85509C15.4406 9.86013 15.5123 9.88749 15.5715 9.93365C15.7852 10.1021 15.9903 10.2814 16.1967 10.4558ZM16.4315 11.2155C16.7771 10.9807 16.7867 10.9053 16.5329 10.6859C16.5295 10.6829 16.5263 10.6765 16.5233 10.6767C16.4817 10.6797 16.4185 10.668 16.4027 10.6902C16.3387 10.779 16.1918 10.8086 16.2095 10.9549C16.2095 10.9585 16.2153 10.9615 16.2183 10.9651L16.4315 11.2155Z" fill="#DC8236"/>
<path d="M5.7979 11.5425C5.55413 11.7077 5.43139 11.6951 5.22839 11.4909C5.16734 11.4298 5.10287 11.3713 5.04694 11.3058C4.92783 11.166 4.92783 10.9975 5.05015 10.8605C5.13192 10.7689 5.21887 10.682 5.31057 10.6003C5.44718 10.479 5.61731 10.4816 5.75585 10.6024C5.81988 10.6592 5.87987 10.7228 5.94092 10.7841C6.13645 10.9807 6.15096 11.0874 6.00837 11.3372C6.20326 11.5015 6.39879 11.67 6.59944 11.832C6.62997 11.8567 6.68482 11.8587 6.72752 11.8591C6.94589 11.8616 7.16426 11.8614 7.38263 11.8591C7.49128 11.8591 7.59609 11.8736 7.59481 12.0085C7.5931 12.1336 7.49491 12.1517 7.38924 12.1505C7.13928 12.1479 6.88868 12.156 6.63893 12.1458C6.55973 12.1403 6.48395 12.1114 6.4212 12.0627C6.2103 11.8984 6.00901 11.721 5.7979 11.5425ZM5.55904 10.7787C5.52321 10.8054 5.4888 10.8339 5.45593 10.8641C5.19509 11.1416 5.18356 11.0249 5.46575 11.3124C5.4871 11.335 5.56992 11.3402 5.58337 11.3224C5.65232 11.2315 5.80003 11.1978 5.78936 11.0488C5.78936 11.0451 5.7836 11.0417 5.78061 11.0383L5.55904 10.7787Z" fill="#DC8236"/>
<path d="M11.3366 15.9909C11.5011 15.7958 11.67 15.6002 11.832 15.3994C11.8563 15.3691 11.8559 15.314 11.8563 15.27C11.8587 15.0472 11.858 14.8243 11.8563 14.6014C11.8563 14.4947 11.8841 14.4012 12.0094 14.4051C12.1253 14.4087 12.1501 14.4966 12.1488 14.5995C12.1462 14.8587 12.153 15.118 12.1445 15.3772C12.1397 15.4478 12.1136 15.5154 12.0698 15.571C11.899 15.7845 11.7201 15.9892 11.5455 16.1954C11.7084 16.4897 11.6973 16.5636 11.4582 16.8033C11.137 17.1252 11.0313 17.1257 10.7098 16.8057C10.6712 16.7672 10.6304 16.7301 10.5954 16.6885C10.481 16.5521 10.477 16.3871 10.5933 16.2539C10.6776 16.158 10.768 16.0676 10.864 15.9834C10.9967 15.866 11.118 15.8701 11.3366 15.9909ZM10.7732 16.4872C10.8655 16.5681 10.9474 16.6332 11.0211 16.7064C11.077 16.7621 11.1227 16.7457 11.1541 16.6927C11.2091 16.5997 11.3923 16.5694 11.328 16.4283C11.283 16.3296 11.1709 16.2613 11.0894 16.18L10.7732 16.4872Z" fill="#DC8236"/>
<path d="M8.9039 6.14339C8.60314 6.0928 8.5105 5.9835 8.50964 5.69874C8.50964 5.60311 8.50772 5.50663 8.50964 5.41163C8.51605 5.20095 8.64818 5.05963 8.85758 5.04704C8.98499 5.03978 9.1127 5.03978 9.2401 5.04704C9.44033 5.05771 9.57353 5.18216 9.58996 5.38068C9.60078 5.517 9.60114 5.65395 9.59103 5.79032C9.57566 6.00058 9.45975 6.10133 9.1957 6.1436V7.34113C9.1957 7.38681 9.21043 7.44231 9.18994 7.47561C9.15814 7.52727 9.10285 7.59601 9.05525 7.59771C9.00765 7.59942 8.94638 7.53367 8.91415 7.48436C8.89088 7.44786 8.9039 7.38703 8.9039 7.33707C8.90369 6.94153 8.9039 6.54577 8.9039 6.14339ZM9.05717 5.33948C8.78842 5.34333 8.80102 5.29679 8.80102 5.5807C8.80102 5.8757 8.77668 5.83685 9.05397 5.83813C9.33125 5.83942 9.30286 5.86268 9.30286 5.5903C9.30307 5.31067 9.33061 5.34119 9.05717 5.33948Z" fill="#DC8236"/>
<path d="M12.8018 15.8528C12.8018 15.4508 12.8018 15.0465 12.8018 14.6424C12.8018 14.6017 12.7879 14.55 12.8075 14.522C12.8426 14.4721 12.8946 14.4098 12.9461 14.4031C12.9871 14.3978 13.0505 14.4597 13.0801 14.5069C13.1034 14.5438 13.0934 14.6038 13.0934 14.6533C13.0934 15.0527 13.0934 15.4521 13.0934 15.8487C13.4281 15.9354 13.4876 16.0141 13.4876 16.3563C13.4876 16.4336 13.4891 16.5111 13.4876 16.5882C13.4814 16.804 13.3468 16.9448 13.1294 16.9557C13.0068 16.962 12.8839 16.962 12.7612 16.9557C12.5559 16.9453 12.4214 16.8174 12.4065 16.6129C12.3971 16.4813 12.3971 16.3492 12.4065 16.2176C12.4199 16.0056 12.5249 15.9119 12.8018 15.8528ZM12.9341 16.6622C13.2116 16.6582 13.1958 16.7064 13.1956 16.4127C13.1956 16.1264 13.2144 16.1642 12.948 16.1636C12.6611 16.1636 12.6946 16.1345 12.694 16.4197C12.694 16.6881 12.6707 16.6612 12.9341 16.6622Z" fill="#DC8236"/>
<path d="M6.1408 13.097C6.08957 13.3975 5.9807 13.4899 5.69531 13.4908C5.59968 13.4908 5.50319 13.4929 5.4082 13.4897C5.19795 13.4829 5.05685 13.3506 5.04532 13.1409C5.03828 13.0135 5.03828 12.8858 5.04532 12.7584C5.056 12.5592 5.18215 12.4252 5.38003 12.4098C5.51638 12.3996 5.65331 12.3996 5.78966 12.4098C5.99949 12.4248 6.10003 12.5411 6.14165 12.8052H7.28473C7.33938 12.8052 7.39402 12.8052 7.44867 12.8052C7.54067 12.8066 7.59809 12.8555 7.60215 12.945C7.6062 13.0344 7.54515 13.085 7.457 13.0944C7.40727 13.0979 7.3574 13.0988 7.30757 13.0972L6.1408 13.097ZM5.59221 12.6969C5.30468 12.6986 5.33947 12.6679 5.33734 12.9531C5.33734 12.9757 5.33734 12.9985 5.33734 13.0214C5.33734 13.1998 5.33734 13.1998 5.51984 13.2005H5.57428C5.87931 13.2005 5.83406 13.2206 5.83577 12.9369C5.83747 12.6681 5.85754 12.6984 5.59221 12.6969Z" fill="#DC8236"/>
<path d="M15.8292 9.1972C15.4189 9.1972 14.992 9.1972 14.5649 9.1972C14.4684 9.1972 14.4005 9.15642 14.3958 9.05951C14.3902 8.95171 14.4654 8.91009 14.5638 8.90518C14.5956 8.90368 14.6278 8.90518 14.6594 8.90518H15.8302C15.8804 8.80122 15.9082 8.69598 15.972 8.62148C16.1156 8.45392 16.6978 8.46011 16.8514 8.61828C17.0051 8.77646 17.0039 9.33467 16.8476 9.49092C16.6864 9.6523 16.1146 9.65294 15.9688 9.48067C15.9079 9.40831 15.8815 9.30692 15.8292 9.1972ZM16.3993 9.30393C16.6945 9.30179 16.6598 9.33595 16.6595 9.04051C16.6595 8.79354 16.7022 8.80037 16.4153 8.80079C16.1208 8.80079 16.163 8.78329 16.1618 9.05844C16.1607 9.33104 16.1366 9.3035 16.3993 9.30478V9.30393Z" fill="#DC8236"/>
<path d="M15.7383 12.6892C15.8528 12.4331 16.19 12.3208 16.4287 12.4608C16.6513 12.5915 16.5708 12.8139 16.5679 13.0052C16.5657 13.1307 16.4778 13.2186 16.3531 13.2346C16.2325 13.2502 16.104 13.2583 15.9875 13.2321C15.9025 13.2077 15.8305 13.1508 15.7872 13.0737C15.7471 12.9956 15.7057 12.9817 15.632 12.9823C15.3227 12.9845 15.013 12.9849 14.7041 12.9823C14.652 12.9823 14.5874 12.974 14.5519 12.9428C14.5165 12.9117 14.4879 12.8286 14.5052 12.8043C14.5419 12.7535 14.6104 12.6976 14.6681 12.6952C14.9404 12.6841 15.2137 12.6901 15.4865 12.6901L15.7383 12.6892ZM16.2825 12.7217H16.0547V12.9507H16.2825V12.7217Z" fill="#DC8236"/>
<path d="M8.97528 15.6365C9.03572 15.6648 9.08993 15.7048 9.13473 15.7542C9.17952 15.8037 9.21402 15.8615 9.2362 15.9245C9.25838 15.9874 9.2678 16.0541 9.2639 16.1207C9.26 16.1873 9.24287 16.2525 9.21351 16.3124C9.15929 16.4268 9.06259 16.4808 8.93772 16.4763C8.76695 16.4701 8.57248 16.5286 8.45743 16.3352C8.33576 16.1303 8.43032 15.7868 8.63097 15.6615C8.6615 15.6425 8.67879 15.5806 8.67921 15.5383C8.68327 15.2427 8.68135 14.947 8.68156 14.6514C8.68156 14.6196 8.68028 14.5874 8.68156 14.5558C8.68818 14.4621 8.73258 14.394 8.83099 14.397C8.92939 14.3999 8.97358 14.4659 8.97358 14.5622C8.97358 14.867 8.97358 15.1718 8.97358 15.4764L8.97528 15.6365ZM8.94348 16.183V15.954H8.71273V16.183H8.94348Z" fill="#DC8236"/>
<path d="M13.0216 6.36496C12.9613 6.33658 12.9072 6.29648 12.8625 6.24702C12.8177 6.19755 12.7833 6.13968 12.7611 6.07679C12.7389 6.0139 12.7294 5.94722 12.7332 5.88064C12.737 5.81406 12.754 5.74889 12.7832 5.68892C12.8404 5.56896 12.9431 5.51922 13.0727 5.52456C13.2402 5.53139 13.4285 5.4776 13.5395 5.6663C13.6607 5.8725 13.567 6.21383 13.3657 6.33978C13.3352 6.35899 13.3181 6.42089 13.3177 6.46316C13.3137 6.7588 13.3156 7.05466 13.3154 7.35031C13.3168 7.38668 13.3161 7.4231 13.3132 7.45939C13.3028 7.54691 13.2558 7.60882 13.1638 7.60497C13.0718 7.60113 13.0236 7.54371 13.0223 7.45277C13.0201 7.28456 13.0223 7.11614 13.0223 6.94793L13.0216 6.36496ZM13.2889 5.82149H13.053V6.04776H13.2889V5.82149Z" fill="#DC8236"/>
<path d="M6.36333 8.97775C6.33474 9.03793 6.29454 9.09186 6.24504 9.13643C6.19553 9.18101 6.1377 9.21536 6.07487 9.2375C6.01204 9.25964 5.94545 9.26914 5.87894 9.26544C5.81242 9.26175 5.74729 9.24494 5.6873 9.21598C5.57353 9.16176 5.51824 9.06656 5.524 8.94019C5.53169 8.76941 5.47 8.57495 5.66425 8.45989C5.86874 8.33886 6.21263 8.43406 6.33835 8.63365C6.35757 8.66418 6.41947 8.68104 6.46195 8.68168C6.75738 8.68574 7.05302 8.68382 7.34866 8.68382C7.38047 8.68382 7.4127 8.68253 7.44408 8.68488C7.53779 8.6915 7.60609 8.7359 7.60311 8.83431C7.60012 8.93271 7.53416 8.97711 7.43789 8.97711H6.36333V8.97775ZM5.82135 8.71071V8.94552H6.04485V8.71071H5.82135Z" fill="#DC8236"/>
<path d="M11.0227 7.03673C11.0227 6.90033 11.0227 6.76393 11.0227 6.62752C11.0227 6.53018 11.0703 6.46721 11.1685 6.46764C11.2598 6.46764 11.3079 6.5289 11.3085 6.6192C11.3099 6.89656 11.3099 7.17406 11.3085 7.4517C11.3085 7.542 11.2603 7.6039 11.1695 7.60497C11.0722 7.60625 11.0227 7.54413 11.0225 7.44637C11.0225 7.30932 11.0229 7.17292 11.0227 7.03673Z" fill="#DC8236"/>
<path d="M7.02168 10.9779C6.88976 10.9779 6.75784 10.9779 6.62614 10.9779C6.52944 10.9779 6.46497 10.9303 6.46583 10.8321C6.46668 10.7339 6.53499 10.6914 6.63062 10.6914C6.89887 10.6914 7.16712 10.6914 7.43536 10.6914C7.53078 10.6914 7.60101 10.7314 7.6025 10.8302C7.60421 10.9359 7.53249 10.9796 7.43174 10.9796C7.29427 10.9775 7.15787 10.9781 7.02168 10.9779Z" fill="#DC8236"/>
<path d="M10.9755 14.965C10.9755 15.1014 10.9755 15.2378 10.9755 15.3742C10.9755 15.4713 10.9277 15.5343 10.8297 15.5343C10.7383 15.5343 10.6901 15.473 10.6897 15.3825C10.6881 15.1052 10.6881 14.8277 10.6897 14.55C10.6897 14.4597 10.7373 14.3978 10.8284 14.3967C10.9257 14.3957 10.9753 14.4576 10.9757 14.5551C10.9757 14.6922 10.9753 14.8282 10.9755 14.965Z" fill="#DC8236"/>
<path d="M14.9738 11.3124C14.8374 11.3124 14.701 11.3135 14.5646 11.3124C14.4642 11.3124 14.391 11.2676 14.3957 11.1604C14.4 11.0624 14.4702 11.0232 14.5665 11.0236C14.8346 11.0236 15.1029 11.0236 15.3712 11.0236C15.4677 11.0236 15.533 11.0695 15.5333 11.1679C15.5335 11.2663 15.4645 11.3105 15.3702 11.3118C15.2376 11.3137 15.1057 11.3124 14.9738 11.3124Z" fill="#DC8236"/>
<path d="M11.2519 11.306H9.74419V11.4554C9.74419 11.756 9.74419 12.0565 9.74419 12.3573C9.74419 12.4551 9.71772 12.5332 9.60544 12.5373C9.49316 12.5413 9.45495 12.467 9.45495 12.3684C9.45495 11.7261 9.44214 11.0834 9.4637 10.4419C9.48312 9.86683 9.96256 9.44695 10.5336 9.46403C10.803 9.47069 11.0592 9.58206 11.2479 9.77451C11.4365 9.96696 11.5428 10.2253 11.5441 10.4948C11.5501 11.1096 11.5452 11.7246 11.5462 12.3396C11.5462 12.4463 11.523 12.5381 11.3949 12.5356C11.2749 12.533 11.2519 12.4429 11.2519 12.3434V11.306ZM11.2495 10.999C11.2495 10.8114 11.2551 10.6385 11.2484 10.4654C11.2337 10.0942 10.9598 9.80664 10.5795 9.75498C10.2379 9.70866 9.86671 9.93535 9.78688 10.2829C9.73415 10.5119 9.74696 10.7561 9.7301 10.9982L11.2495 10.999Z" fill="#DC8236"/>
<path d="M12.254 10.9931C12.254 10.5427 12.251 10.0922 12.2581 9.64205C12.2606 9.61033 12.2697 9.57948 12.2848 9.55148C12.2999 9.52347 12.3207 9.49892 12.3458 9.47939C12.3774 9.45804 12.4679 9.47939 12.4997 9.51376C12.5315 9.54813 12.5413 9.62049 12.5424 9.6777C12.5462 9.96417 12.5443 10.2508 12.5443 10.5375C12.5443 11.1154 12.5443 11.6932 12.5443 12.2709C12.5443 12.3163 12.5586 12.3729 12.5373 12.4049C12.5021 12.4574 12.4423 12.5291 12.3943 12.5279C12.3462 12.5266 12.2672 12.4489 12.2621 12.3983C12.2448 12.2318 12.2549 12.0623 12.2547 11.8941C12.2541 11.5938 12.2539 11.2935 12.254 10.9931Z" fill="#DC8236"/>
</g>
<defs>
<clipPath id="clip0_54648_3007">
<rect width="14" height="14" fill="white" transform="translate(4 4)"/>
</clipPath>
</defs>
</svg>
