<svg width="22" height="22" viewBox="0 0 22 22" fill="none" xmlns="http://www.w3.org/2000/svg">
<circle cx="11" cy="11" r="10.5" stroke="#DC8236"/>
<g clip-path="url(#clip0_54648_3008)">
<path d="M15.4279 15.2059C15.5822 15.1959 15.7018 15.1762 15.8271 15.267C15.8758 15.3893 15.8944 15.4749 15.8629 15.6042C15.8136 15.8069 15.6916 16.0076 15.5583 16.1728C14.8795 17.0115 13.7917 16.4858 12.8959 16.7284C12.7321 16.7729 12.5727 16.8834 12.4297 16.9686L12.2681 16.9718C11.7114 16.9823 10.9292 17.1078 10.5012 16.7269C10.4019 16.5684 10.338 16.4144 10.3806 16.2277C10.4116 16.0912 10.5115 15.9844 10.6373 15.9125C11.0388 15.6834 11.9538 15.6991 12.4017 15.8199C12.688 15.8973 12.7731 16.0236 12.9102 16.2609C13.4914 16.3056 14.3271 16.3887 14.8688 16.1783C15.4249 15.9624 15.2278 15.6519 15.4042 15.2548C15.4115 15.2388 15.4201 15.2226 15.4279 15.2059Z" fill="#DC8236"/>
<path d="M16.0254 10.5858C16.441 10.621 16.8641 10.7685 17.1876 11.0141C17.6554 11.3693 17.9417 11.9209 17.9902 12.475C18.0467 13.1095 17.8439 13.6596 17.4095 14.1513C16.9918 14.477 16.5724 14.6593 16.031 14.7346L16.0254 10.5858Z" fill="#DC8236"/>
<path d="M5.8213 10.616L5.95058 10.6135C6.0944 10.7772 6.03407 14.1735 6.03434 14.6927C5.52745 14.6268 5.14877 14.527 4.73426 14.2344C4.37228 13.9182 4.13446 13.5418 4.04261 13.0863C3.92411 12.498 4.05258 11.8825 4.43046 11.3935C4.78463 10.935 5.2355 10.7081 5.8213 10.616Z" fill="#DC8236"/>
<path d="M6.58046 10.1642C6.84979 10.1572 7.11913 10.147 7.38657 10.1497C7.58885 10.152 7.78196 10.1515 7.93009 10.29C8.10893 10.8069 8.06476 13.5653 8.04133 14.2254C8.03325 14.4576 8.03836 14.5941 7.84687 14.7618C7.5269 14.829 7.08761 14.8989 6.77438 14.7883C6.68361 14.7563 6.55568 14.6797 6.52147 14.5931C6.40216 14.2936 6.43259 11.0138 6.48242 10.4797C6.49339 10.3698 6.52665 10.2627 6.58046 10.1642Z" fill="#DC8236"/>
<path d="M14.2399 10.1704C14.6156 10.1637 15.1796 10.1028 15.5044 10.2952C15.6391 10.5478 15.658 14.1456 15.5527 14.5013C15.5117 14.6393 15.4245 14.6912 15.2995 14.7546C14.9116 14.7698 14.3231 14.8509 13.9854 14.6455C13.8292 14.341 13.8483 10.8359 13.9377 10.3716C14.0172 10.2568 14.1123 10.2244 14.2399 10.1704Z" fill="#DC8236"/>
<path d="M10.4595 5.02047C10.5509 5.01019 10.6428 5.00502 10.7348 5.00499C12.388 4.94384 13.9129 5.43954 15.1249 6.49086C16.3792 7.57886 16.8156 8.82162 16.874 10.3741C16.5702 10.3015 16.2739 10.2838 15.9607 10.2783C15.9876 9.57416 15.4993 8.74225 15.018 8.21659C14.1543 7.27185 12.7244 6.57822 11.3949 6.46939C11.3168 6.4654 11.2387 6.46315 11.1606 6.46215C11.0825 6.46116 11.0044 6.46215 10.9263 6.46415C10.8482 6.46615 10.7703 6.47014 10.6922 6.47513C10.6141 6.48012 10.5366 6.48711 10.459 6.49535C10.3814 6.50359 10.3039 6.51332 10.2268 6.52455C10.1498 6.53579 10.0725 6.54951 9.99601 6.56249C9.91952 6.57547 9.84303 6.59244 9.76707 6.60967C9.69112 6.62689 9.61652 6.64461 9.54056 6.66458C9.46461 6.68455 9.39081 6.70626 9.31675 6.72923C9.24268 6.75219 9.16915 6.77665 9.09616 6.80236C9.02317 6.82807 8.95072 6.85552 8.87881 6.88423C8.8069 6.91293 8.73606 6.94288 8.66577 6.97433C8.59547 7.00578 8.52571 7.03848 8.45676 7.07267C8.38781 7.10687 8.31967 7.14206 8.25234 7.179C8.185 7.21594 8.11767 7.25388 8.05303 7.29307C7.98839 7.33226 7.92267 7.37294 7.85884 7.41488C6.76076 8.13397 6.1992 9.07247 5.97781 10.2838C5.86505 10.2773 5.75229 10.2733 5.63952 10.2718C5.4149 10.2718 5.3306 10.295 5.17169 10.444L5.13991 10.4745C5.08604 10.3996 5.09304 10.4278 5.07796 10.3369C5.0451 10.1373 5.09682 9.88466 5.12402 9.68349C5.25869 8.69108 5.63575 7.81448 6.31852 7.03773C7.38239 5.82468 8.79612 5.18445 10.4595 5.02047Z" fill="#DC8236"/>
</g>
<defs>
<clipPath id="clip0_54648_3008">
<rect width="14" height="12" fill="white" transform="translate(4 5)"/>
</clipPath>
</defs>
</svg>
