<svg width="24" height="25" viewBox="0 0 24 25" fill="none" xmlns="http://www.w3.org/2000/svg">
<path d="M12 10.0442C14.2091 10.0442 16 8.25333 16 6.04419C16 3.83505 14.2091 2.04419 12 2.04419C9.79086 2.04419 8 3.83505 8 6.04419C8 8.25333 9.79086 10.0442 12 10.0442Z" stroke="#FFFAF7" stroke-width="1.5"/>
<path d="M19.998 18.0442C19.9993 17.8802 20 17.7135 20 17.5442C20 15.0592 16.418 13.0442 12 13.0442C7.582 13.0442 4 15.0592 4 17.5442C4 20.0292 4 22.0442 12 22.0442C14.231 22.0442 15.84 21.8872 17 21.6072" stroke="#FFFAF7" stroke-width="1.5" stroke-linecap="round"/>
</svg>
