<svg width="24" height="24" viewBox="0 0 24 24" fill="none" xmlns="http://www.w3.org/2000/svg">
<path d="M6.44794 8.97C6.59941 7.60342 7.24957 6.34071 8.27396 5.42359C9.29835 4.50648 10.625 3.99938 11.9999 3.99938C13.3749 3.99938 14.7015 4.50648 15.7259 5.42359C16.7503 6.34071 17.4005 7.60342 17.5519 8.97L17.8039 11.236L17.8099 11.293C17.939 12.417 18.3051 13.5009 18.8839 14.473L18.9139 14.523L19.4909 15.486C20.0159 16.36 20.2779 16.797 20.2209 17.156C20.1833 17.3943 20.0608 17.6109 19.8759 17.766C19.5969 18 19.0869 18 18.0679 18H5.93194C4.91194 18 4.40194 18 4.12394 17.767C3.93855 17.6119 3.81563 17.3948 3.77794 17.156C3.72194 16.797 3.98394 16.36 4.50794 15.486L5.08694 14.522L5.11694 14.472C5.6953 13.5001 6.06101 12.4166 6.18994 11.293L6.19594 11.236L6.44794 8.97Z" stroke="#F4EDE5"/>
<path d="M9.10156 18.406C9.27256 19.15 9.64956 19.808 10.1736 20.276C10.6976 20.746 11.3396 21 11.9996 21C12.6596 21 13.3016 20.746 13.8256 20.277C14.3496 19.807 14.7256 19.15 14.8976 18.406" stroke="#F4EDE5" stroke-linecap="round"/>
</svg>
