<svg width="34" height="34" viewBox="0 0 34 34" fill="none" xmlns="http://www.w3.org/2000/svg">
<path d="M28.4181 10.8554L21.0353 3.47256C20.9372 3.37465 20.8209 3.29701 20.6929 3.24408C20.5648 3.19114 20.4276 3.16395 20.2891 3.16406H7.63281C7.07337 3.16406 6.53684 3.3863 6.14126 3.78188C5.74567 4.17747 5.52344 4.714 5.52344 5.27344V28.4766C5.52344 29.036 5.74567 29.5725 6.14126 29.9681C6.53684 30.3637 7.07337 30.5859 7.63281 30.5859H26.6172C27.1766 30.5859 27.7132 30.3637 28.1087 29.9681C28.5043 29.5725 28.7266 29.036 28.7266 28.4766V11.6016C28.7267 11.463 28.6995 11.3258 28.6466 11.1978C28.5936 11.0697 28.516 10.9534 28.4181 10.8554ZM21.3438 23.2031H12.9062C12.6265 23.2031 12.3583 23.092 12.1605 22.8942C11.9627 22.6964 11.8516 22.4282 11.8516 22.1484C11.8516 21.8687 11.9627 21.6005 12.1605 21.4027C12.3583 21.2049 12.6265 21.0938 12.9062 21.0938H21.3438C21.6235 21.0938 21.8917 21.2049 22.0895 21.4027C22.2873 21.6005 22.3984 21.8687 22.3984 22.1484C22.3984 22.4282 22.2873 22.6964 22.0895 22.8942C21.8917 23.092 21.6235 23.2031 21.3438 23.2031ZM21.3438 18.9844H12.9062C12.6265 18.9844 12.3583 18.8733 12.1605 18.6755C11.9627 18.4777 11.8516 18.2094 11.8516 17.9297C11.8516 17.65 11.9627 17.3817 12.1605 17.1839C12.3583 16.9861 12.6265 16.875 12.9062 16.875H21.3438C21.6235 16.875 21.8917 16.9861 22.0895 17.1839C22.2873 17.3817 22.3984 17.65 22.3984 17.9297C22.3984 18.2094 22.2873 18.4777 22.0895 18.6755C21.8917 18.8733 21.6235 18.9844 21.3438 18.9844ZM20.2891 11.6016V5.80078L26.0898 11.6016H20.2891Z" fill="white"/>
</svg>
