<svg width="19" height="19" viewBox="0 0 19 19" fill="none" xmlns="http://www.w3.org/2000/svg">
<path d="M11.0357 9.36433L8.34821 10.9V7.82861L11.0357 9.36433Z" fill="black" stroke="black" stroke-width="1.075" stroke-linecap="round" stroke-linejoin="round"/>
<path d="M1.82144 9.90748V8.82088C1.82144 6.59767 1.82144 5.48607 2.51673 4.77083C3.21202 4.0556 4.30666 4.02464 6.49592 3.96272C7.53332 3.93338 8.59302 3.91235 9.50001 3.91235C10.407 3.91235 11.4667 3.93338 12.5041 3.96272C14.6933 4.02464 15.788 4.0556 16.4833 4.77083C17.1786 5.48607 17.1786 6.59767 17.1786 8.82088V9.90748C17.1786 12.1307 17.1786 13.2423 16.4833 13.9575C15.788 14.6727 14.6934 14.7037 12.5042 14.7656C11.4667 14.795 10.407 14.816 9.50001 14.816C8.59302 14.816 7.53328 14.795 6.49585 14.7656C4.30662 14.7037 3.21201 14.6727 2.51672 13.9575C1.82144 13.2423 1.82144 12.1307 1.82144 9.90748Z" stroke="black" stroke-width="1.075"/>
</svg>
