<svg width="29" height="29" viewBox="0 0 29 29" fill="none" xmlns="http://www.w3.org/2000/svg">
<path d="M28.9757 14.5C28.9757 14.6669 28.9094 14.827 28.7913 14.945C28.6733 15.063 28.5132 15.1294 28.3463 15.1294H15.1294V28.3462C15.1294 28.5131 15.0631 28.6732 14.9451 28.7913C14.827 28.9093 14.667 28.9756 14.5 28.9756C14.3331 28.9756 14.173 28.9093 14.055 28.7913C13.937 28.6732 13.8707 28.5131 13.8707 28.3462V15.1294H0.653789C0.486868 15.1294 0.326785 15.063 0.208754 14.945C0.0907231 14.827 0.0244141 14.6669 0.0244141 14.5C0.0244141 14.3331 0.0907231 14.173 0.208754 14.0549C0.326785 13.9369 0.486868 13.8706 0.653789 13.8706H13.8707V0.653728C13.8707 0.486807 13.937 0.326724 14.055 0.208693C14.173 0.0906621 14.3331 0.024353 14.5 0.024353C14.667 0.024353 14.827 0.0906621 14.9451 0.208693C15.0631 0.326724 15.1294 0.486807 15.1294 0.653728V13.8706H28.3463C28.5132 13.8706 28.6733 13.9369 28.7913 14.0549C28.9094 14.173 28.9757 14.3331 28.9757 14.5Z" fill="white"/>
</svg>
