<svg width="28" height="45" viewBox="0 0 28 45" fill="none" xmlns="http://www.w3.org/2000/svg">
<path d="M13.9977 40.9967C6.54328 40.9967 0.502686 40.07 0.502686 38.9487V42.4887C0.502686 43.6192 6.54328 44.5367 13.9977 44.5367C21.4522 44.5367 27.4975 43.61 27.4975 42.4887V38.9487C27.4975 40.0793 21.4569 40.9967 13.9977 40.9967Z" stroke="#FFFBFB" stroke-width="2" stroke-linecap="round" stroke-linejoin="round"/>
<path d="M25.4024 37.3456V38.3603C25.954 38.4541 26.4811 38.6557 26.9525 38.9534C26.2714 39.6113 21.4803 40.5009 13.9977 40.5009C6.51501 40.5009 1.72857 39.6113 1.04748 38.9534C1.57288 38.6294 2.15924 38.4135 2.77135 38.3186V37.3039C0.347593 37.8413 0 38.4576 0 38.9487C0 41.4184 12.565 41.4925 13.9977 41.4925C15.4303 41.4925 28 41.4184 28 38.9487C28 38.4576 27.6618 37.8691 25.4024 37.3456Z" fill="#FFFBFB"/>
<path d="M20.2778 18.2697C22.866 16.8333 25.8064 15.2023 25.8064 11.1898V7.19574H24.8059V11.1898C24.8059 14.6231 22.2506 16.041 19.7846 17.4078C17.5863 18.6264 15.3129 19.8867 15.3129 22.5556C15.3129 25.2245 17.5863 26.4848 19.7846 27.708C22.2506 29.098 24.8059 30.4881 24.8059 33.9214V38.3278C23.8665 38.6012 20.7428 39.3287 14.0024 39.3287C7.26189 39.3287 4.13825 38.6012 3.19881 38.3278V33.9214C3.19881 30.4881 5.75409 29.0749 8.22012 27.708C10.4137 26.4848 12.6825 25.2245 12.6825 22.5556C12.6825 19.8867 10.409 18.6264 8.21072 17.4078C5.74469 16.0178 3.18942 14.6278 3.18942 11.1898V7.19574H2.19361V11.1898C2.19361 15.2023 5.13406 16.8333 7.72221 18.2697C9.86413 19.4605 11.6866 20.4659 11.6866 22.5556C11.6866 24.6453 9.86414 25.6646 7.72691 26.8462C5.13406 28.264 2.19361 29.9135 2.19361 33.9214V38.6846C2.19314 38.7834 2.22234 38.8801 2.27751 38.9626C2.33268 39.045 2.41135 39.1095 2.50362 39.148C2.62105 39.1943 5.49104 40.3202 13.9977 40.3202C22.5043 40.3202 25.3649 39.1897 25.4964 39.1433C25.5887 39.1049 25.6674 39.0404 25.7225 38.958C25.7777 38.8755 25.8069 38.7788 25.8064 38.68V33.9214C25.8064 29.9135 22.866 28.2825 20.2731 26.8462C18.15 25.6646 16.3134 24.6499 16.3134 22.5556C16.3134 20.4613 18.15 19.4605 20.2778 18.2697Z" fill="#FFFBFB"/>
<path d="M27.4975 2.51133C27.4975 1.39004 21.4569 0.463348 13.9977 0.463348C6.53859 0.463348 0.502686 1.39004 0.502686 2.51133C0.502686 3.63262 6.54328 4.55931 13.9977 4.55931C21.4522 4.55931 27.4975 3.64189 27.4975 2.51133Z" stroke="#FFFBFB" stroke-width="2" stroke-linecap="round" stroke-linejoin="round"/>
<path d="M13.9977 4.5593C6.54328 4.5593 0.502686 3.63262 0.502686 2.51132V6.05127C0.502686 7.18183 6.54328 8.09925 13.9977 8.09925C21.4522 8.09925 27.4975 7.17257 27.4975 6.05127V2.51132C27.4975 3.64188 21.4569 4.5593 13.9977 4.5593Z" stroke="#FFFBFB" stroke-width="2" stroke-linecap="round" stroke-linejoin="round"/>
<path d="M23.6411 38.8514C21.9454 39.185 18.9439 39.565 14.0118 39.565C9.07977 39.565 6.07826 39.185 4.38257 38.8514V36.0157C5.6696 37.3594 9.42736 38.5039 14.9701 38.5039C19.4935 38.5039 22.5138 37.9062 23.6411 36.8359V38.8514Z" fill="#FFFBFB"/>
<path d="M19.8082 34.3755C20.3108 34.4219 20.7805 34.4682 21.2173 34.5192H21.3395H21.4945H21.6777H21.7904L21.9971 34.5516H22.0722L22.293 34.5887H22.3353L22.5466 34.7508H22.5795L22.7909 34.8018L22.9882 34.862L23.1573 34.9315C23.2042 34.9535 23.2497 34.9782 23.2935 35.0057L23.3968 35.0844L23.4673 35.1632V35.2003C23.4802 35.2241 23.4912 35.2489 23.5002 35.2744C23.5024 35.2944 23.5024 35.3146 23.5002 35.3347C23.5024 35.3516 23.5024 35.3687 23.5002 35.3856C23.425 36.3864 21.1234 38.3093 14.8338 38.3093C7.44515 38.3093 4.24636 35.5293 4.24636 34.5053C4.2457 34.3805 4.25988 34.2561 4.28864 34.1346C4.39109 33.758 4.62581 33.4296 4.95094 33.2079L5.1858 33.055L5.26565 33.0133L5.46293 32.916L5.57097 32.8697L5.77295 32.7863L5.90447 32.7446C5.97963 32.7168 6.05478 32.6982 6.12994 32.6751L6.27555 32.638C6.3588 32.6141 6.44352 32.5955 6.5292 32.5824L6.68421 32.55L6.98013 32.5036H7.12574L7.56258 32.4666H7.60955C7.77865 32.4666 7.95245 32.4666 8.13564 32.4666H8.2014C8.45975 32.4666 8.72749 32.4666 9.00932 32.499H9.10326C9.38979 32.499 9.69041 32.5546 10.0004 32.6009L10.1695 32.6287C10.4795 32.6751 10.8083 32.7353 11.1418 32.8094L11.3016 32.8465C11.6585 32.9253 12.0249 33.0179 12.4101 33.1291C12.6872 33.2079 13.2697 33.3701 13.5468 33.4396C13.5468 33.4396 13.5844 34.496 13.3026 34.6952C13.0207 34.8945 13.2227 35.3903 13.8756 35.3903C14.5285 35.3903 14.8808 34.9964 14.5614 34.7508C14.242 34.5053 14.3219 33.5832 14.3219 33.5832C16.1357 33.9393 17.9669 34.2038 19.8082 34.3755Z" fill="#FFFBFB"/>
<path d="M14.7257 16.1151C9.47895 16.7545 4.8616 13.6223 5.33132 11.945C5.66482 10.6615 7.67992 11.7133 9.81245 11.8616C12.2127 12.0469 15.233 12.2462 17.995 11.1203C20.7569 9.99433 22.5231 9.73022 23.2934 10.138C24.6603 10.8701 20.4234 15.4155 14.7257 16.1151Z" fill="#FFFBFB"/>
<path d="M19.2257 15.9715C21.0623 14.9846 22.3916 13.9652 23.1385 12.9783C15.6229 17.6441 11.3955 16.685 7.53906 15.522C7.9806 15.7908 8.43153 16.0502 8.76503 16.2402L9.29582 16.5275C11.4377 17.6951 13.8615 19.0203 13.8756 22.0876V34.4496C13.8756 34.913 13.5327 34.8342 13.5562 35.0566C13.5881 35.1477 13.648 35.2266 13.7276 35.2825C13.8072 35.3384 13.9024 35.3684 14.0001 35.3684C14.0977 35.3684 14.193 35.3384 14.2725 35.2825C14.3521 35.2266 14.412 35.1477 14.4439 35.0566C14.4439 34.8713 14.2232 34.8898 14.148 34.6211V22.1108C14.1762 18.6774 17.0932 17.1113 19.2257 15.9715Z" fill="#FFFBFB"/>
</svg>
