<svg width="32" height="32" viewBox="0 0 32 32" fill="none" xmlns="http://www.w3.org/2000/svg">
<path d="M28.1561 18.6505C28.3989 18.8287 28.5799 19.0783 28.6739 19.3644C28.768 19.6504 28.7703 19.9588 28.6806 20.2462C28.0606 22.2249 27.0077 24.0406 25.5985 25.5616C25.3948 25.7797 25.1285 25.9293 24.8364 25.99C24.5442 26.0507 24.2404 26.0194 23.9667 25.9005L22.0575 25.0626C21.8489 24.9698 21.6215 24.927 21.3934 24.9376C21.1663 24.9518 20.9457 25.0187 20.7489 25.1329C20.5521 25.2466 20.3852 25.4054 20.2617 25.5963C20.1383 25.7871 20.062 26.0045 20.039 26.2306L19.8095 28.3107C19.7764 28.6068 19.6526 28.8855 19.4551 29.1085C19.2575 29.3316 18.9959 29.4881 18.7059 29.5568C16.6786 30.0402 14.5653 30.0402 12.538 29.5568C12.2498 29.4876 11.9898 29.3315 11.7933 29.1097C11.5968 28.8879 11.4732 28.611 11.4393 28.3165L11.2099 26.2404C11.1704 25.8865 11.0018 25.5596 10.7362 25.3224C10.5288 25.1394 10.2738 25.019 10.0007 24.9749C9.72767 24.9308 9.44771 24.965 9.19325 25.0734L7.28407 25.9122C7.01111 26.0309 6.70817 26.0624 6.41662 26.0025C6.12507 25.9425 5.85914 25.794 5.65517 25.5773C4.24366 24.0546 3.18944 22.2364 2.56923 20.255C2.47985 19.9679 2.48225 19.6601 2.57607 19.3744C2.66989 19.0887 2.85048 18.8395 3.09267 18.6613L4.77724 17.4161C4.96131 17.2812 5.111 17.1047 5.21418 16.9011C5.31736 16.6976 5.37113 16.4725 5.37113 16.2443C5.37113 16.016 5.31736 15.791 5.21418 15.5874C5.111 15.3838 4.96131 15.2074 4.77724 15.0724L3.09267 13.8292C2.85222 13.6516 2.67276 13.4038 2.57902 13.1199C2.48528 12.8361 2.48186 12.5301 2.56923 12.2443C3.1883 10.264 4.24233 8.44721 5.65419 6.92688C5.79091 6.77942 5.95692 6.66223 6.14247 6.58411C6.32321 6.50756 6.51748 6.46811 6.71376 6.46811C6.91004 6.46811 7.10431 6.50756 7.28505 6.58411L9.18642 7.422C9.39559 7.51185 9.6229 7.55146 9.85014 7.53767C10.0774 7.52389 10.2982 7.45708 10.495 7.3426C10.6918 7.22812 10.859 7.06915 10.9833 6.87842C11.1076 6.6877 11.1855 6.47051 11.2108 6.24426L11.4413 4.172C11.4745 3.87267 11.6004 3.5912 11.8014 3.36692C12.0024 3.14263 12.2685 2.98674 12.5624 2.92102C13.5717 2.6986 14.6012 2.58015 15.6347 2.5675C16.662 2.57922 17.6854 2.69739 18.6884 2.92102C18.9825 2.98709 19.2487 3.14349 19.4495 3.36834C19.6504 3.59318 19.7759 3.8752 19.8085 4.17493L20.039 6.24524C20.0634 6.47115 20.1406 6.68813 20.2644 6.87866C20.3883 7.06919 20.5552 7.22791 20.7517 7.342C20.9482 7.45608 21.1688 7.52232 21.3956 7.53537C21.6225 7.54842 21.8492 7.50791 22.0575 7.41711L23.9579 6.5802C24.2319 6.46053 24.5362 6.42876 24.829 6.48927C25.1218 6.54979 25.3886 6.69961 25.5927 6.91809C27.0045 8.4362 28.058 10.2516 28.6757 12.2306C28.7645 12.5175 28.7617 12.825 28.6677 13.1103C28.5738 13.3955 28.3932 13.6444 28.1513 13.8224L26.4716 15.0656C26.2868 15.1993 26.1362 15.3749 26.0323 15.578C25.9284 15.7811 25.874 16.0059 25.8736 16.234C25.8732 16.4621 25.9269 16.6871 26.0301 16.8905C26.1334 17.094 26.2833 17.2701 26.4677 17.4044L28.1561 18.6505ZM15.6249 20.1427C16.6609 20.1427 17.6545 19.7311 18.387 18.9986C19.1196 18.266 19.5311 17.2725 19.5311 16.2365C19.5311 15.2004 19.1196 14.2069 18.387 13.4743C17.6545 12.7417 16.6609 12.3302 15.6249 12.3302C14.5889 12.3302 13.5953 12.7417 12.8628 13.4743C12.1302 14.2069 11.7186 15.2004 11.7186 16.2365C11.7186 17.2725 12.1302 18.266 12.8628 18.9986C13.5953 19.7311 14.5889 20.1427 15.6249 20.1427Z" fill="white"/>
</svg>
