<svg width="20" height="20" viewBox="0 0 20 20" fill="none" xmlns="http://www.w3.org/2000/svg">
<path d="M15 18.3334C16.3807 18.3334 17.5 17.2141 17.5 15.8334C17.5 14.4526 16.3807 13.3334 15 13.3334C13.6192 13.3334 12.5 14.4526 12.5 15.8334C12.5 17.2141 13.6192 18.3334 15 18.3334Z" stroke="black" stroke-width="1.16667" stroke-linecap="round" stroke-linejoin="round"/>
<path d="M15 6.66663C16.3807 6.66663 17.5 5.54733 17.5 4.16663C17.5 2.78592 16.3807 1.66663 15 1.66663C13.6192 1.66663 12.5 2.78592 12.5 4.16663C12.5 5.54733 13.6192 6.66663 15 6.66663Z" stroke="black" stroke-width="1.16667" stroke-linecap="round" stroke-linejoin="round"/>
<path d="M5 12.5C6.38071 12.5 7.5 11.3807 7.5 10C7.5 8.61925 6.38071 7.5 5 7.5C3.61929 7.5 2.5 8.61925 2.5 10C2.5 11.3807 3.61929 12.5 5 12.5Z" stroke="black" stroke-width="1.16667" stroke-linecap="round" stroke-linejoin="round"/>
<path d="M12.9168 5.41663L7.0835 8.74996" stroke="black" stroke-width="1.16667"/>
<path d="M7.0835 11.25L12.9168 14.5833" stroke="black" stroke-width="1.16667"/>
</svg>
