<svg width="21" height="20" viewBox="0 0 21 20" fill="none" xmlns="http://www.w3.org/2000/svg">
<path d="M3 8.33337V15.8334C3 16.7539 3.74619 17.5 4.66667 17.5H16.3333C17.2538 17.5 18 16.7539 18 15.8334V8.33337" stroke="#525252" stroke-width="1.16667"/>
<path d="M12.8611 17.5V12.5C12.8611 11.5795 12.1149 10.8334 11.1944 10.8334H9.52775C8.60728 10.8334 7.86109 11.5795 7.86109 12.5V17.5" stroke="#525252" stroke-width="1.16667" stroke-linecap="round" stroke-linejoin="round"/>
<path d="M18.6819 7.80348L17.2702 2.86264C17.2089 2.64799 17.0127 2.5 16.7895 2.5H13.4167L13.8127 7.25314C13.8257 7.40869 13.9102 7.5492 14.0443 7.62912C14.3687 7.82248 15.0043 8.18082 15.5 8.33333C16.3465 8.59375 17.584 8.49983 18.2887 8.41317C18.5818 8.37717 18.7631 8.08742 18.6819 7.80348Z" stroke="#525252" stroke-width="1.16667"/>
<path d="M12.1667 8.33333C12.6396 8.18782 13.2399 7.85491 13.5758 7.65673C13.7357 7.56238 13.8237 7.38419 13.8083 7.1992L13.4167 2.5H7.58335L7.19175 7.1992C7.17633 7.38419 7.26437 7.56238 7.42423 7.65673C7.76007 7.85491 8.36043 8.18782 8.83335 8.33333C10.0775 8.71617 10.9225 8.71617 12.1667 8.33333Z" stroke="#525252" stroke-width="1.16667"/>
<path d="M3.72974 2.86264L2.31806 7.80348C2.23694 8.08742 2.41818 8.37717 2.71126 8.41317C3.41598 8.49983 4.65355 8.59375 5.50001 8.33333C5.99565 8.18082 6.63127 7.82248 6.95566 7.62912C7.08974 7.5492 7.17429 7.40869 7.18725 7.25314L7.58335 2.5H4.2105C3.98725 2.5 3.79106 2.64799 3.72974 2.86264Z" stroke="#525252" stroke-width="1.16667"/>
</svg>
