<svg width="33" height="33" viewBox="0 0 33 33" fill="none" xmlns="http://www.w3.org/2000/svg">
<path d="M25.7292 4.0625H6.77083C5.27506 4.0625 4.0625 5.27506 4.0625 6.77083V25.7292C4.0625 27.2249 5.27506 28.4375 6.77083 28.4375H25.7292C27.2249 28.4375 28.4375 27.2249 28.4375 25.7292V6.77083C28.4375 5.27506 27.2249 4.0625 25.7292 4.0625Z" fill="white"/>
<path d="M24.375 10.8333L19.1005 17.4281C19.0826 17.4503 19.0603 17.4686 19.0349 17.4816C19.0095 17.4946 18.9816 17.5021 18.9532 17.5036C18.9247 17.5052 18.8962 17.5007 18.8695 17.4905C18.8429 17.4802 18.8187 17.4645 18.7985 17.4444L15.0529 13.6987C15.033 13.6788 15.0091 13.6633 14.9828 13.6531C14.9565 13.643 14.9284 13.6384 14.9003 13.6396C14.8722 13.6409 14.8446 13.648 14.8193 13.6605C14.7941 13.673 14.7717 13.6907 14.7536 13.7123L8.125 21.6666" stroke="white" stroke-width="1.2" stroke-linecap="round" stroke-linejoin="round"/>
</svg>
