<svg width="18" height="18" viewBox="0 0 18 18" fill="none" xmlns="http://www.w3.org/2000/svg">
<path d="M8.35977 8.92266L5.11777 6.35742C5.05332 6.30586 4.96094 6.35313 4.96094 6.43477V8.26953H1.95312V1.95312H6.33594V4.70312C6.33594 4.75039 6.37461 4.78906 6.42188 4.78906H7.71094C7.7582 4.78906 7.79688 4.75039 7.79688 4.70312V1.09375C7.79688 0.760742 7.52832 0.492188 7.19531 0.492188H1.09375C0.760742 0.492188 0.492188 0.760742 0.492188 1.09375V16.9062C0.492188 17.2393 0.760742 17.5078 1.09375 17.5078H7.19531C7.52832 17.5078 7.79688 17.2393 7.79688 16.9062V13.2969C7.79688 13.2496 7.7582 13.2109 7.71094 13.2109H6.42188C6.37461 13.2109 6.33594 13.2496 6.33594 13.2969V16.0469H1.95312V9.73047H4.96094V11.5652C4.96094 11.6469 5.05547 11.6941 5.11777 11.6426L8.35977 9.07734C8.41133 9.03867 8.41133 8.96133 8.35977 8.92266ZM16.9062 0.492188H10.8047C10.4717 0.492188 10.2031 0.760742 10.2031 1.09375V4.70312C10.2031 4.75039 10.2418 4.78906 10.2891 4.78906H11.5781C11.6254 4.78906 11.6641 4.75039 11.6641 4.70312V1.95312H16.0469V8.26953H13.0391V6.43477C13.0391 6.35313 12.9467 6.30586 12.8822 6.35742L9.63809 8.92266C9.58867 8.96133 9.58867 9.03652 9.63809 9.0752L12.8822 11.6426C12.9445 11.692 13.0391 11.6469 13.0391 11.5652V9.73047H16.0469V16.0469H11.6641V13.2969C11.6641 13.2496 11.6254 13.2109 11.5781 13.2109H10.2891C10.2418 13.2109 10.2031 13.2496 10.2031 13.2969V16.9062C10.2031 17.2393 10.4717 17.5078 10.8047 17.5078H16.9062C17.2393 17.5078 17.5078 17.2393 17.5078 16.9062V1.09375C17.5078 0.760742 17.2393 0.492188 16.9062 0.492188Z" fill="white"/>
</svg>
