<svg width="94" height="94" viewBox="0 0 94 94" fill="none" xmlns="http://www.w3.org/2000/svg">
<path d="M21.9958 78.3332C20.1916 78.3332 18.6863 77.73 17.4799 76.5237C16.2736 75.3173 15.6691 73.8107 15.6665 72.0038V21.9958C15.6665 20.1916 16.271 18.6863 17.4799 17.4799C18.6889 16.2736 20.1942 15.6691 21.9958 15.6665H49.4125V19.5832H21.9958C21.2908 19.5832 20.7125 19.809 20.2608 20.2608C19.809 20.7125 19.5832 21.2908 19.5832 21.9958V72.0078C19.5832 72.7101 19.809 73.2872 20.2608 73.7389C20.7125 74.1906 21.2908 74.4165 21.9958 74.4165H72.0078C72.7101 74.4165 73.2872 74.1906 73.7389 73.7389C74.1906 73.2872 74.4165 72.7088 74.4165 72.0038V44.5872H78.3332V72.0038C78.3332 73.8081 77.73 75.3134 76.5237 76.5198C75.3173 77.7261 73.8107 78.3306 72.0038 78.3332H21.9958ZM26.5118 64.1705H67.4879L54.8332 47.3014L43.0832 62.1417L35.2498 52.726L26.5118 64.1705ZM66.5832 35.2498V27.4165H58.7498V23.4998H66.5832V15.6665H70.4998V23.4998H78.3332V27.4165H70.4998V35.2498H66.5832Z" fill="#F4EDE5"/>
</svg>
