<svg width="24" height="24" viewBox="0 0 24 24" fill="none" xmlns="http://www.w3.org/2000/svg">
<path d="M7.03804 6.135C7.03804 6.135 6.73254 5.9745 6.53404 5.065C6.33554 4.1555 8.07704 2.475 8.07704 2.475C8.07704 2.475 8.61204 2.2155 10.827 2.254C13.042 2.2925 13.57 2.651 14.0285 3.201C16.027 5.6 19.781 10.375 20.672 14.14C20.875 14.701 21.155 14.395 21.155 15.3005C21.155 15.9495 20.8 16.1285 20.705 16.2345C18.398 18.8165 12.745 19.672 10.2235 19.672C7.70204 19.672 7.71804 19.0915 7.01504 19.0915C6.31204 19.0915 5.53304 21.414 3.79504 21.75C2.50004 19.1525 2.55354 13.8965 3.79504 11.12C6.71704 11.12 7.18304 12.2425 8.39004 12.2425C9.42154 12.2425 9.26104 11.601 10.8885 11.601C12.516 11.601 14.7615 13.457 14.7615 13.457C13.4895 11.876 14.9075 8.023 12.1605 5.4585C11.6445 4.9775 11.404 6.5585 9.79954 6.5585C9.56304 6.6985 8.71204 6.81 8.71204 6.81" stroke="#F4EDE5" stroke-width="0.5" stroke-linecap="round" stroke-linejoin="round"/>
<path d="M15.4419 14.112C15.8889 14.622 16.8074 15.3135 17.6614 15.302M6.23643 14.7675C5.25093 15.9515 5.12093 17.235 4.12793 17.77M7.75643 15.3025C9.23893 16.8075 11.9204 16.7075 13.4864 15.1035M13.5529 4.37C13.4844 4.6565 13.1179 5.0975 12.8479 5.172M9.36493 3.224C9.16443 3.4645 8.18993 4.7025 8.21293 4.903C8.23593 5.1035 8.09293 6.106 8.39643 6.215C8.69993 6.324 9.73143 6.14 9.71993 5.705C9.70843 5.27 9.62243 5.046 9.64543 4.834C9.66843 4.622 10.3559 3.574 10.3559 3.574" stroke="#F4EDE5" stroke-width="0.5" stroke-linecap="round" stroke-linejoin="round"/>
<path d="M8.37338 3.0405C8.12138 3.3445 7.29038 4.519 7.30188 5.0115C7.31338 5.504 7.36488 5.8655 7.47938 5.9745C7.59388 6.0835 8.21338 5.827 8.21338 5.827" stroke="#F4EDE5" stroke-width="0.5" stroke-linecap="round" stroke-linejoin="round"/>
<path d="M8.43538 6.22601C8.43538 6.22601 8.68338 6.49601 8.71188 6.78801C8.74038 7.08001 8.33388 7.36101 7.96188 7.46401C7.58988 7.56701 7.06738 6.86801 7.06738 6.60451C7.06738 6.34101 7.47988 5.97451 7.47988 5.97451M10.7894 4.83501C10.8024 5.20551 10.8929 5.60701 10.5734 5.72351C10.2539 5.84001 9.70088 5.81151 9.70088 5.81151" stroke="#F4EDE5" stroke-width="0.5" stroke-linecap="round" stroke-linejoin="round"/>
</svg>
