<svg width="25" height="18" viewBox="0 0 25 18" fill="none" xmlns="http://www.w3.org/2000/svg">
<path d="M18.3712 11.6045C18.5237 11.6045 18.6699 11.5109 18.7777 11.3444C18.8855 11.1779 18.9461 10.9521 18.9461 10.7166L18.9461 7.5191C18.9474 7.4012 18.9335 7.28407 18.9053 7.17455C18.877 7.06503 18.8348 6.96531 18.7813 6.8812C18.7278 6.7971 18.664 6.7303 18.5935 6.6847C18.5231 6.6391 18.4475 6.61562 18.3712 6.61562C18.2948 6.61562 18.2193 6.6391 18.1488 6.6847C18.0784 6.7303 18.0146 6.7971 17.9611 6.8812C17.9076 6.96531 17.8654 7.06503 17.8371 7.17455C17.8088 7.28407 17.795 7.4012 17.7963 7.5191L17.7963 10.7166C17.7963 10.9521 17.8569 11.1779 17.9647 11.3444C18.0725 11.5109 18.2187 11.6045 18.3712 11.6045ZM7.90485 10.7141C7.90618 10.832 7.89229 10.9491 7.86399 11.0586C7.83569 11.1682 7.79356 11.2679 7.74004 11.352C7.68652 11.4361 7.6227 11.5029 7.55228 11.5485C7.48187 11.5941 7.40629 11.6176 7.32994 11.6176C7.25358 11.6176 7.178 11.5941 7.10759 11.5485C7.03717 11.5029 6.97335 11.4361 6.91983 11.352C6.86631 11.2679 6.82418 11.1682 6.79588 11.0586C6.76759 10.9491 6.7537 10.832 6.75502 10.7141L6.75502 7.5191C6.75491 7.28345 6.81542 7.05737 6.92324 6.89062C7.03106 6.72387 7.17735 6.6301 7.32993 6.62993C7.48252 6.62976 7.6289 6.72322 7.73687 6.88973C7.84484 7.05625 7.90555 7.28219 7.90566 7.51785L7.90485 10.7141ZM24.1472 9.13921C24.1471 8.44875 23.9695 7.78659 23.6534 7.29836C23.3373 6.81013 22.9085 6.53582 22.4615 6.53574L21.4531 6.53574L21.4523 5.92161C21.4524 5.43612 21.3828 4.95663 21.2484 4.51772C21.1141 4.0788 20.9184 3.69138 20.6754 3.38337C20.4324 3.07537 20.1482 2.85445 19.8433 2.73653C19.5383 2.61862 19.2202 2.60665 18.912 2.70149C18.6065 1.96811 18.1555 1.40719 17.6265 1.10265C17.0974 0.798102 16.5187 0.766309 15.977 1.01202C15.4353 1.25774 14.9596 1.76775 14.6212 2.46575C14.2828 3.16376 14.0998 4.01223 14.0996 4.88424L14.1004 6.53574L10.8981 6.53574L10.8981 4.88298C10.898 4.01098 10.715 3.1625 10.3766 2.4645C10.0381 1.76649 9.56248 1.25648 9.02075 1.01077C8.47902 0.765052 7.90033 0.796847 7.37128 1.10139C6.84222 1.40594 6.39123 1.96686 6.08578 2.70024C5.77756 2.6064 5.45972 2.61908 5.15505 2.73739C4.85038 2.85569 4.56645 3.07667 4.32361 3.38448C4.08078 3.6923 3.88507 4.0793 3.75053 4.51774C3.61598 4.95617 3.54594 5.43517 3.54543 5.92035L3.54543 6.53574L2.50945 6.53574C2.06226 6.53557 1.63335 6.80977 1.31707 7.29802C1.00078 7.78626 0.823034 8.44856 0.822926 9.13921C0.822819 9.82985 1.00036 10.4923 1.31649 10.9808C1.63262 11.4692 2.06145 11.7438 2.50863 11.7439L3.54624 11.7439L3.54624 12.3568C3.54614 12.8423 3.61576 13.3218 3.75011 13.7607C3.88446 14.1996 4.08018 14.587 4.32317 14.895C4.56615 15.203 4.85036 15.424 5.15529 15.5419C5.46023 15.6598 5.7783 15.6718 6.08659 15.5769C6.39204 16.3103 6.84303 16.8712 7.37209 17.1758C7.90115 17.4803 8.47983 17.5121 9.02156 17.2664C9.56329 17.0207 10.0389 16.5107 10.3774 15.8127C10.7158 15.1147 10.8988 14.2662 10.899 13.3942L10.8981 11.7427L14.0996 11.7439L14.1004 13.3954C14.101 14.267 14.2843 15.1148 14.6227 15.8122C14.9611 16.5096 15.4366 17.0191 15.9781 17.2646C16.5195 17.5101 17.0979 17.4783 17.6267 17.1741C18.1555 16.87 18.6064 16.3096 18.912 15.5769C19.2202 15.6708 19.538 15.6581 19.8427 15.5398C20.1474 15.4215 20.4313 15.2005 20.6741 14.8927C20.917 14.5849 21.1127 14.1979 21.2472 13.7594C21.3818 13.321 21.4518 12.842 21.4523 12.3568L21.4515 11.7427L22.4598 11.7427C22.6813 11.7428 22.9007 11.6755 23.1053 11.5447C23.31 11.4138 23.4959 11.2219 23.6526 10.98C23.8092 10.7382 23.9334 10.451 24.0181 10.1349C24.1029 9.81881 24.1464 9.48004 24.1464 9.13795L24.1472 9.13921ZM21.4515 9.96684L21.4523 8.31032L22.4606 8.31032C22.603 8.31032 22.7395 8.39764 22.8401 8.55309C22.9408 8.70854 22.9973 8.91937 22.9973 9.1392C22.9973 9.35904 22.9408 9.56987 22.8401 9.72532C22.7395 9.88077 22.603 9.9681 22.4606 9.9681L21.4523 9.9681L21.4515 9.96684ZM14.1004 9.96684H10.8981L10.8981 8.31157L14.0996 8.31283L14.1004 9.96684ZM3.54543 9.96684L2.50945 9.96684C2.36721 9.96701 2.23077 9.8799 2.13012 9.72469C2.02947 9.56948 1.97286 9.35887 1.97275 9.13921C1.97264 8.91954 2.02904 8.7088 2.12954 8.55335C2.23004 8.3979 2.3664 8.31048 2.50863 8.31032L3.54624 8.31283L3.54543 9.96684ZM19.3275 4.41579C19.4557 4.41567 19.5826 4.45456 19.701 4.53026C19.8194 4.60595 19.927 4.71696 20.0177 4.85692C20.1083 4.99689 20.1802 5.16308 20.2292 5.34598C20.2782 5.52889 20.3034 5.72491 20.3033 5.92286L20.3033 12.3581C20.3036 12.6159 20.261 12.8695 20.1797 13.0947C20.0983 13.3198 19.9809 13.509 19.8386 13.6439C19.6964 13.7789 19.5341 13.8553 19.3673 13.8656C19.2005 13.876 19.0347 13.82 18.8859 13.7031C18.8137 13.6464 18.7346 13.6139 18.6537 13.6077C18.5728 13.6015 18.492 13.6218 18.4165 13.6672C18.3411 13.7126 18.2727 13.7822 18.2158 13.8712C18.1589 13.9603 18.1149 14.0669 18.0866 14.1841C17.9667 14.6805 17.7377 15.096 17.4397 15.3582C17.1417 15.6205 16.7935 15.7128 16.4559 15.619C16.1183 15.5253 15.8128 15.2514 15.5926 14.8453C15.3724 14.4391 15.2515 13.9264 15.2511 13.3967L15.2502 4.88298C15.2507 4.35324 15.3716 3.84056 15.5918 3.4344C15.812 3.02823 16.1175 2.75439 16.4551 2.66064C16.7927 2.56689 17.1409 2.65919 17.4389 2.92143C17.7369 3.18368 17.9659 3.59922 18.0858 4.09554C18.114 4.213 18.158 4.31991 18.2149 4.40925C18.2718 4.49858 18.3402 4.56831 18.4158 4.61386C18.4914 4.65941 18.5723 4.67974 18.6534 4.67353C18.7344 4.66731 18.8137 4.63469 18.8859 4.5778C19.0227 4.47053 19.1741 4.41501 19.3275 4.41579ZM8.28541 2.62363C8.67359 2.62373 9.04586 2.86193 9.32034 3.28585C9.59483 3.70978 9.74906 4.28472 9.74913 4.88424L9.74912 13.3967C9.74868 13.9264 9.62781 14.4391 9.4076 14.8453C9.1874 15.2514 8.88184 15.5253 8.54425 15.619C8.20667 15.7128 7.85848 15.6205 7.56046 15.3582C7.26244 15.096 7.0335 14.6805 6.91359 14.1841C6.88537 14.0667 6.84137 13.9598 6.78448 13.8704C6.7276 13.7811 6.65912 13.7114 6.58355 13.6658C6.50798 13.6203 6.42702 13.5999 6.34599 13.6061C6.26497 13.6124 6.18571 13.645 6.11343 13.7019C5.96472 13.8184 5.79914 13.8741 5.63251 13.8637C5.46588 13.8532 5.30377 13.777 5.16167 13.6422C5.01957 13.5074 4.90223 13.3185 4.82086 13.0937C4.73948 12.8689 4.6968 12.6156 4.69688 12.3581L4.69688 5.92286C4.6968 5.6653 4.73948 5.41201 4.82086 5.1872C4.90223 4.96238 5.01957 4.77355 5.16167 4.63875C5.30377 4.50395 5.46588 4.42767 5.63251 4.41722C5.79914 4.40677 5.96472 4.46249 6.11343 4.57905C6.18571 4.63594 6.26497 4.66857 6.34599 4.67478C6.42702 4.681 6.50798 4.66066 6.58355 4.61511C6.65912 4.56957 6.7276 4.49983 6.78448 4.4105C6.84137 4.32117 6.88537 4.21426 6.91359 4.09679C7.01766 3.66444 7.20485 3.29159 7.45006 3.02827C7.69527 2.76494 7.98676 2.62375 8.28541 2.62363Z" fill="#FFFAF7"/>
</svg>
