<svg width="14" height="15" viewBox="0 0 14 15" fill="none" xmlns="http://www.w3.org/2000/svg">
<path d="M14 7.50269C13.9994 11.395 10.8551 14.5254 6.92237 14.4998C3.09859 14.4748 -0.00430869 11.3622 4.4912e-06 7.49377C0.00431767 3.62129 3.11757 0.53774 6.92352 0.500349C10.8451 0.461809 13.9914 3.61669 14 7.5024V7.50269ZM8.81671 4.73667C8.81901 4.70934 8.82333 4.69496 8.82131 4.68173C8.68387 3.83901 8.48517 3.01269 8.13609 2.22979C7.9581 1.83087 7.75193 1.44661 7.40889 1.15899C7.05809 0.865048 6.66818 0.85642 6.33319 1.16733C6.15002 1.33703 5.98784 1.54095 5.85931 1.75551C5.43691 2.46133 5.21665 3.24365 5.0447 4.04092C4.99783 4.25778 4.96102 4.47695 4.91731 4.70589C6.23456 4.86811 7.52448 4.87674 8.81642 4.73638L8.81671 4.73667ZM4.90955 10.2986C4.9869 10.6636 5.05016 11.0113 5.13527 11.3533C5.31585 12.0795 5.54042 12.7917 5.96714 13.417C6.09165 13.5993 6.25037 13.7693 6.42462 13.9045C6.7185 14.1326 7.06096 14.1176 7.35081 13.8861C7.4802 13.7828 7.60011 13.6609 7.69989 13.5288C8.09037 13.0134 8.31466 12.4172 8.48632 11.8031C8.62636 11.3033 8.73102 10.7936 8.85553 10.2704C7.52477 10.1266 6.23456 10.1347 4.90984 10.2983L4.90955 10.2986ZM9.0594 7.73019H4.68613C4.73587 8.44377 4.78504 9.14642 4.83536 9.86748C6.20552 9.69548 7.54404 9.69174 8.91505 9.83498C8.96365 9.1283 9.01081 8.43917 9.0594 7.73019ZM9.0594 7.27662C9.01052 6.56649 8.96279 5.87391 8.91419 5.16781C7.53886 5.31449 6.20063 5.30558 4.83421 5.13789C4.78418 5.86355 4.73558 6.56563 4.6867 7.27662H9.0594ZM4.39973 9.90285C4.3497 9.19186 4.29852 8.46103 4.24733 7.73249H1.94668C1.97314 8.66063 2.13186 9.54966 2.44759 10.3898C3.10808 10.225 3.74643 10.0659 4.39973 9.90285ZM2.44529 4.61414C2.13388 5.46319 1.97026 6.34876 1.94726 7.27087H4.24733C4.29909 6.53198 4.34999 5.80517 4.39944 5.1005C3.75103 4.93915 3.10865 4.77924 2.44558 4.61414H2.44529ZM11.7977 7.73192H9.49647C9.4473 8.45585 9.3987 9.16857 9.35097 9.86719C10.0057 10.015 10.6602 10.1629 11.3273 10.3136C11.6217 9.48983 11.7756 8.63072 11.7977 7.73192ZM11.7983 7.27604C11.7735 6.37034 11.6232 5.50777 11.3209 4.67684C11.2908 4.67684 11.2807 4.67512 11.2718 4.67684C10.6576 4.81663 10.0437 4.95871 9.42861 5.09418C9.33688 5.11431 9.33487 5.15228 9.34091 5.23223C9.38806 5.86614 9.4289 6.50063 9.47174 7.13511C9.4749 7.18055 9.47749 7.22629 9.48037 7.27576H11.7983V7.27604ZM11.1421 4.25663C10.7841 2.99313 8.99643 1.21997 7.98542 1.13225C8.38367 1.64593 8.64792 2.21829 8.82563 2.82545C9.00333 3.43261 9.14221 4.05128 9.30036 4.67397C9.91858 4.58682 10.5382 4.45854 11.1418 4.25692L11.1421 4.25663ZM9.2696 10.3268C9.0364 11.5886 8.76352 12.8173 7.99117 13.8743C9.04474 13.742 10.8862 11.9078 11.1366 10.7447C10.5339 10.5454 9.91513 10.4148 9.2696 10.3268ZM2.62155 10.7925C3.09802 12.1546 4.84629 13.8562 5.74976 13.8674C4.98719 12.8273 4.71776 11.607 4.47564 10.3337C3.8511 10.4882 3.24208 10.6389 2.62184 10.7925H2.62155ZM2.61666 4.17725C3.2392 4.39584 3.85081 4.5477 4.45063 4.63399C4.61367 4.00411 4.75485 3.39493 4.93054 2.79611C5.10623 2.19729 5.37106 1.635 5.74228 1.12419C4.21714 1.64075 3.28521 2.75671 2.61666 4.17696V4.17725ZM11.7592 4.51003C11.8713 4.96964 12.003 5.41918 12.0872 5.87765C12.1712 6.33611 12.208 6.8032 12.2658 7.27173H13.5546C13.5126 6.12068 13.1963 5.06743 12.608 4.09528C12.3069 4.24225 12.0251 4.38002 11.7592 4.51003ZM12.2664 7.72818C12.2072 8.20706 12.1712 8.67012 12.0875 9.12456C12.0033 9.58302 11.8716 10.0331 11.7589 10.4936C12.0274 10.6248 12.3127 10.7643 12.5971 10.9029C13.0905 10.292 13.6731 8.30686 13.5284 7.72818H12.2664ZM1.39086 10.9118C1.58409 10.8146 1.75173 10.7226 1.92598 10.6452C2.02547 10.6012 2.04589 10.556 2.00736 10.4505C1.74828 9.7369 1.5953 8.99973 1.53808 8.24273C1.52514 8.07274 1.51393 7.90276 1.50214 7.73479H0.441674C0.485381 8.88382 0.801105 9.9342 1.39086 10.9121V10.9118ZM1.39057 4.09125C0.80168 5.07117 0.482505 6.12327 0.443399 7.27115H1.50041C1.52054 7.00913 1.5332 6.75689 1.56051 6.50609C1.63384 5.82904 1.78135 5.16781 2.01455 4.52728C2.04359 4.44732 2.03122 4.40907 1.95301 4.37254C1.77128 4.28798 1.59415 4.19365 1.39086 4.09125H1.39057ZM12.3685 3.72771C11.6623 2.74405 10.7896 2.023 9.71759 1.5421C10.5446 2.24216 11.1366 3.11163 11.5746 4.11426C11.8431 3.9834 12.095 3.86087 12.3685 3.72771ZM12.3673 11.2759C12.0944 11.1425 11.8405 11.0185 11.5737 10.8879C11.1363 11.8949 10.5428 12.7592 9.72133 13.4592C10.7944 12.976 11.6671 12.255 12.3673 11.2757V11.2759ZM3.66879 13.1411C3.05028 12.5182 2.57986 11.7954 2.21238 10.982C2.01483 11.0844 1.83167 11.179 1.6347 11.2811C2.18909 12.0617 2.85964 12.6755 3.66879 13.1411ZM3.66592 1.86394C2.85734 2.33103 2.18506 2.94452 1.63326 3.72397C1.83512 3.82665 2.01943 3.92041 2.21468 4.01964C2.57957 3.20539 3.05 2.48692 3.66592 1.86394Z" fill="#888888"/>
</svg>
