<svg width="35" height="25" viewBox="0 0 35 25" fill="none" xmlns="http://www.w3.org/2000/svg">
<g clip-path="url(#clip0_10_360)">
<path d="M0.339981 13.4115V11.1801C0.413186 10.7992 0.354893 10.4149 0.373872 10.0326C0.370483 8.87348 0.390818 7.71236 0.489781 6.55938C0.584677 5.45317 0.680928 4.33001 1.14117 3.297C1.79799 1.82408 2.93741 0.923246 4.52624 0.637203C5.70024 0.425721 6.88915 0.338959 8.08077 0.277277C9.13682 0.223051 10.1936 0.192548 11.2483 0.134255C12.1498 0.0840961 13.0506 0.134255 13.9487 0.0779956C16.0317 -0.0521472 18.116 0.0156355 20.199 0.0319034C21.2896 0.0407151 22.3836 0.0434264 23.4729 0.0969748C24.4727 0.145778 25.4738 0.160013 26.4723 0.22644C27.8964 0.320658 29.3252 0.388441 30.7331 0.645337C32.833 1.02899 34.1493 2.41989 34.5594 4.65536C34.7933 5.93036 34.9031 7.21416 34.9397 8.51152C34.9885 10.2454 35.0142 11.9793 34.9925 13.7132C34.9769 14.9387 34.9736 16.1669 34.8861 17.3897C34.8082 18.4769 34.6997 19.571 34.3981 20.6209C33.8931 22.3819 32.7394 23.5071 30.929 23.8894C29.8824 24.1104 28.8141 24.1754 27.7472 24.2452C26.1083 24.3517 24.4666 24.3862 22.8262 24.4554C20.7304 24.5442 18.6366 24.4737 16.5421 24.5062C15.8209 24.5177 15.0997 24.513 14.3785 24.5069C12.713 24.494 11.0476 24.4418 9.38491 24.3557C7.78117 24.2724 6.17133 24.2093 4.58725 23.905C2.44192 23.4922 1.08762 22.0416 0.73651 19.8794C0.520961 18.5529 0.423354 17.2243 0.400986 15.8836C0.393529 15.4226 0.379295 14.961 0.37455 14.4994C0.354215 14.1375 0.417253 13.7721 0.340659 13.4122L0.339981 13.4115Z" fill="#FE0000"/>
<path d="M23.216 12.2786C20.1983 14.0166 17.224 15.7294 14.2178 17.4613V7.09595C17.2192 8.82441 20.2003 10.5413 23.216 12.2779V12.2786Z" fill="#FEFEFE"/>
</g>
<defs>
<clipPath id="clip0_10_360">
<rect width="34.66" height="24.5129" fill="white" transform="translate(0.339981)"/>
</clipPath>
</defs>
</svg>
