<svg width="77" height="104" viewBox="0 0 77 104" fill="none" xmlns="http://www.w3.org/2000/svg">
<path d="M37.4792 10.7234C36.3792 8.82342 35.1792 7.02342 33.9792 5.22342C33.5792 4.52342 32.8792 4.42342 32.0792 4.72342C30.4792 5.32342 28.7792 5.92343 27.1792 6.52343C24.2792 7.72343 22.2792 9.72342 21.5792 13.0234C20.8792 16.5234 19.9792 20.0234 19.1792 23.5234C19.0792 24.2234 19.1792 24.9234 19.1792 25.7234C19.4792 25.7234 19.5792 25.7234 19.6792 25.6234C19.9792 25.5234 20.1792 25.3234 20.4792 25.2234C23.7792 23.3234 27.1792 22.0234 30.9792 21.4234C32.6792 21.1234 34.3792 20.9234 36.0792 20.6234C37.4792 20.3234 37.7792 19.9234 37.7792 18.4234C37.7792 16.4234 37.7792 14.4234 37.7792 12.3234C37.6792 11.8234 37.6792 11.2234 37.4792 10.7234Z" fill="#C1C1C1" stroke="#231F20" stroke-width="0.5" stroke-miterlimit="10"/>
<path d="M37.4792 24.7235C37.2792 23.8235 36.7792 23.3235 35.7792 23.2235C30.2792 22.5235 25.4792 24.3235 21.1792 27.6235C20.3792 28.2235 19.5792 29.2235 19.1792 30.1235C18.0792 33.4235 17.4792 36.9235 17.6792 40.4235C17.6792 40.7235 17.8792 41.1235 17.9792 41.4235C18.2792 41.3235 18.6792 41.2235 18.9792 41.0235C21.2792 39.4235 23.7792 38.3235 26.6792 38.0235C28.5792 37.8235 30.3792 37.8235 32.2792 37.6235C32.2792 37.6235 32.2792 37.6235 32.2792 37.7235C33.5792 37.7235 34.9792 37.7235 36.2792 37.7235C36.9792 37.7235 37.4792 37.4235 37.5792 36.6235C37.9792 32.6235 38.1792 28.6235 37.4792 24.7235Z" fill="#C1C1C1" stroke="#231F20" stroke-width="0.5" stroke-miterlimit="10"/>
<path d="M39.2791 35.8235C39.2791 37.4235 39.5791 37.6235 41.1791 37.7235C43.1791 37.8235 45.1791 37.8235 47.1791 37.7235C51.0791 37.7235 54.5791 38.8235 57.8791 40.9235C58.1791 41.1235 58.6791 41.2235 59.0791 41.3235C59.1791 40.9235 59.4791 40.4235 59.3791 40.0235C58.9791 36.9235 58.6791 33.8235 58.1791 30.7235C58.0791 29.9235 57.3791 29.0235 56.7791 28.3235C53.1791 24.8235 48.7791 23.2235 43.7791 22.9235C43.1791 22.9235 42.4791 22.9235 41.8791 23.0235C40.0791 23.2235 39.6791 23.6235 39.3791 25.3235C39.2791 25.6235 39.2791 26.0235 39.2791 26.3235C39.1791 29.5235 39.1791 32.6235 39.2791 35.8235Z" fill="#C1C1C1" stroke="#231F20" stroke-width="0.5" stroke-miterlimit="10"/>
<path d="M39.2792 58.9235C39.2792 61.0235 40.4792 61.8235 42.4792 61.3235C45.7792 60.4235 49.0792 59.5235 52.3792 58.7235C53.7792 58.4235 54.7792 57.8235 55.4792 56.6235C57.5792 53.1235 58.6792 49.4235 59.0792 45.4235C59.1792 44.5235 58.7792 43.9235 58.0792 43.5235C53.6792 40.6235 48.8792 39.4235 43.6792 39.6235C40.3792 39.7235 39.9792 39.5235 39.2792 43.7235C39.1792 44.0235 39.1792 44.4235 39.1792 44.7235C39.1792 47.0235 39.1792 49.3235 39.1792 51.7235C39.1792 51.7235 39.1792 51.7235 39.2792 51.7235C39.2792 54.0235 39.2792 56.4235 39.2792 58.9235Z" fill="#C1C1C1" stroke="#231F20" stroke-width="0.5" stroke-miterlimit="10"/>
<path d="M73.2795 1.22341L59.2795 6.52341C59.0795 6.52341 58.8795 6.52341 58.5795 6.62341C57.0795 6.82341 56.2795 7.82341 56.5795 9.32341C57.6795 15.0234 58.7795 20.8234 60.1795 26.4234C60.5795 28.0234 61.4795 29.5234 62.4795 30.8234C63.7795 32.5234 65.3795 34.1234 66.8795 35.6234C69.2795 38.0234 71.0795 40.7234 71.9795 43.9234C72.0795 44.2234 72.1795 44.6234 72.3795 45.2234C73.6795 43.6234 74.0795 42.0234 74.2795 40.3234L75.0795 32.5234C75.1795 31.6234 75.3795 30.8234 75.4795 29.9234C76.1795 24.0234 76.2795 18.0234 75.8795 12.1234C75.6795 8.92341 75.3795 5.72341 75.0795 2.52341C74.9795 1.02341 74.5795 0.723408 73.2795 1.22341Z" fill="#C1C1C1" stroke="#231F20" stroke-width="0.5" stroke-miterlimit="10"/>
<path d="M57.5795 59.8235C59.0795 59.2235 60.6795 58.8235 61.9795 57.9235C65.7795 55.3235 68.1795 51.5235 69.8795 47.2235C70.6795 45.2235 70.3795 43.1235 69.0795 41.3235C66.9795 38.1235 64.2795 35.5235 61.3795 33.0235C61.0795 32.7235 60.6795 32.6235 59.9795 32.3235C60.0795 33.0235 60.1795 33.4235 60.2795 33.7235C61.4795 38.2235 61.9795 42.7235 61.6795 47.3235C61.3795 51.7235 60.0795 55.7235 56.6795 58.9235C56.4795 59.1235 56.3795 59.3235 55.9795 59.8235C56.7795 59.8235 57.2795 59.9235 57.5795 59.8235Z" fill="#C1C1C1" stroke="#231F20" stroke-width="0.5" stroke-miterlimit="10"/>
<path d="M39.2793 11.7235C39.2793 14.1235 39.2793 16.5235 39.2793 18.9235C39.2793 19.8235 39.7793 20.4235 40.6793 20.6235C41.1793 20.7235 41.7793 20.8235 42.3793 20.8235C47.4793 21.3235 52.2793 22.6235 56.6793 25.2235C56.9793 25.4235 57.2793 25.5235 57.9793 25.9235C57.9793 25.1235 58.0793 24.6235 57.9793 24.1235C57.0793 19.9235 56.0793 15.8235 55.0793 11.7235C54.6793 9.92347 53.5793 8.42347 51.8793 7.62347C49.6793 6.62347 47.3793 5.72347 45.0793 4.72347C44.1793 4.32347 43.4793 4.62348 42.9793 5.32348C41.7793 7.02348 40.6793 8.82347 39.5793 10.6235C39.2793 10.9235 39.2793 11.4235 39.2793 11.7235Z" fill="#C1C1C1" stroke="#231F20" stroke-width="0.5" stroke-miterlimit="10"/>
<path d="M21.0791 94.8234C22.9791 96.4234 24.9791 98.0234 27.4791 98.7234C27.7791 98.8234 28.1791 98.6234 28.4791 98.6234C28.3791 98.3234 28.3791 97.9234 28.2791 97.7234C27.2791 95.7234 26.0791 93.7234 25.1791 91.6234C21.1791 82.8234 18.1791 73.8234 18.1791 64.0234C18.1791 62.4234 17.5791 61.2234 16.0791 60.5234C12.0791 58.5234 9.37912 55.2234 7.17912 51.4234C6.77912 50.8234 6.47912 50.2234 6.17912 49.6234C6.07912 49.6234 5.87912 49.6234 5.77912 49.6234C5.57912 50.1234 5.27912 50.7234 5.17912 51.2234C4.57912 54.2234 3.87912 57.1234 3.47912 60.1234C2.87912 64.3234 2.87912 68.5234 4.57912 72.6234C8.07912 81.4234 13.7791 88.7234 21.0791 94.8234Z" fill="#C1C1C1" stroke="#231F20" stroke-width="0.5" stroke-miterlimit="10"/>
<path d="M20.3794 59.0235C17.3794 56.3235 15.9794 52.8235 15.4794 48.9235C14.7794 43.7235 15.3794 38.7235 16.6794 33.7235C16.7794 33.3235 16.7794 32.9235 16.8794 32.5235C16.7794 32.4235 16.6794 32.4235 16.5794 32.3235C16.1794 32.6235 15.5794 32.8235 15.2794 33.2235C12.8794 35.7235 10.3794 38.1235 8.17942 40.8235C6.37942 42.9235 6.17941 45.5235 7.37941 48.0235C8.27941 49.9235 9.37942 51.9235 10.6794 53.6235C12.5794 56.2235 14.8794 58.4235 17.9794 59.5235C18.7794 59.8235 19.7794 60.2235 20.7794 59.6235C20.5794 59.3235 20.4794 59.1235 20.3794 59.0235Z" fill="#C1C1C1" stroke="#231F20" stroke-width="0.5" stroke-miterlimit="10"/>
<path d="M24.2792 58.6235C27.7792 59.4235 31.2792 60.4235 34.6792 61.3235C36.3792 61.8235 37.5792 60.9235 37.5792 59.1235C37.6792 54.8235 37.8792 50.4235 37.8792 46.1235C37.8792 44.4235 37.4792 42.6234 37.0792 40.9234C36.8792 40.0234 36.1792 39.5234 35.2792 39.5234C32.9792 39.5234 30.6792 39.4234 28.3792 39.7234C24.9792 40.1234 21.8792 41.3234 19.0792 43.2234C18.2792 43.8234 17.7792 44.4234 17.9792 45.5234C18.3792 49.4234 19.4792 53.2235 21.5792 56.6235C22.0792 57.7235 22.9792 58.3235 24.2792 58.6235Z" fill="#C1C1C1" stroke="#231F20" stroke-width="0.5" stroke-miterlimit="10"/>
<path d="M3.97916 1.32348H3.87916H3.77916C2.27916 0.723481 1.97916 1.32348 1.77916 3.52348C1.07916 10.1235 0.779161 16.7235 1.17916 23.3235C1.27916 25.9235 1.77916 29.5235 2.07916 32.4235L2.77916 39.6235C2.77916 39.7235 2.77916 39.7235 2.77916 39.8235C2.77916 41.6235 3.17916 43.4235 4.47916 45.0235C4.67916 44.8235 4.77916 44.7235 4.77916 44.6235C4.87916 44.2235 4.97916 43.9235 5.17916 43.5235C5.87916 41.1235 6.97916 39.0235 8.67916 37.2235C10.1792 35.7235 11.5792 34.1235 13.0792 32.6235C15.3792 30.2235 16.9792 27.4235 17.4792 24.1235C17.5792 23.3235 17.7792 22.6235 17.8792 21.8235C18.6792 17.7235 19.5792 13.7235 20.3792 9.62348C20.7792 7.72348 19.8792 6.82348 17.9792 6.62348C17.8792 6.62348 17.8792 6.62348 17.7792 6.62348L3.97916 1.32348Z" fill="#C1C1C1" stroke="#231F20" stroke-width="0.5" stroke-miterlimit="10"/>
<path d="M36.8791 65.9234C36.6791 64.3234 35.8791 63.3234 34.3791 62.9234C33.6791 62.7234 32.9791 62.3234 32.2791 62.2234C29.3791 61.5234 26.3791 60.6235 23.4791 60.1235C21.2791 59.7235 19.9791 61.0234 20.0791 63.0234C20.4791 70.2234 21.6791 77.2235 23.6791 84.1235C25.2791 89.5235 27.2791 94.7235 30.7791 99.1235C32.6791 101.523 35.1791 102.423 38.0791 103.223C38.1791 102.323 38.1791 101.623 38.1791 100.923C38.1791 93.0234 38.1791 85.2235 37.9791 77.3235C37.7791 73.5235 37.1791 69.7234 36.8791 65.9234Z" fill="#C1C1C1" stroke="#231F20" stroke-width="0.5" stroke-miterlimit="10"/>
<path d="M47.4793 97.4235C51.0793 92.0235 53.0793 85.9235 54.4793 79.6235C55.6793 74.3235 56.5793 68.9235 56.8793 63.4235C56.9793 60.9235 55.9793 59.7235 53.3793 60.0235C49.4793 60.5235 45.8793 61.7235 42.2793 63.0235C41.0793 63.4235 40.3793 64.3235 40.1793 65.5235C39.8793 67.7235 39.3793 69.9235 39.2793 72.2235C38.9793 78.3235 38.7793 90.6235 38.7793 90.6235C38.7793 94.3235 38.7793 98.0235 38.7793 101.723C38.7793 103.123 38.9793 103.223 40.2793 102.823C43.3793 101.923 45.7793 100.123 47.4793 97.4235Z" fill="#C1C1C1" stroke="#231F20" stroke-width="0.5" stroke-miterlimit="10"/>
<path d="M48.7795 97.5234C48.5795 97.8234 48.5795 98.2234 48.4795 98.6234C48.8795 98.6234 49.2795 98.7234 49.6795 98.6234C50.8795 98.1234 52.0795 97.6234 53.0795 96.9234C60.7795 91.4234 66.6795 84.4234 70.8795 76.0234C72.2795 73.2234 73.5795 70.2234 73.7795 67.0234C74.0795 61.5234 73.1795 56.0234 71.6795 50.7234C71.5795 50.3234 71.2795 49.9234 70.9795 49.1234C70.5795 49.9234 70.2795 50.4234 70.0795 50.8234C68.0795 54.5234 65.4795 57.8234 61.7795 59.8234C59.5795 61.0234 58.7795 62.4234 58.7795 64.8234C58.7795 69.7234 57.7795 74.5234 56.4795 79.2234C54.5795 85.6234 51.9795 91.7234 48.7795 97.5234Z" fill="#C1C1C1" stroke="#231F20" stroke-width="0.5" stroke-miterlimit="10"/>
</svg>
