<svg width="65" height="78" viewBox="0 0 65 78" fill="none" xmlns="http://www.w3.org/2000/svg">
<path d="M26.5 24.6C24.3 22.8 18.6 20.2 16.5 18.3C11 13.3 8.2 11.7 4.1 5.40001C3.2 4.00001 2.29999 2.5 1.39999 1C1.29999 1 1.2 1.00001 1 1.10001C1.1 1.80001 1.1 2.5 1.2 3.3C2.3 10.1 4.1 16.8 6.2 23.3C11 38.4 14.9 53.8 18.5 69.2C19.1 71.8 19.6 74.4 20.2 77.1C20.5 76.8 20.6 76.5 20.7 76.2C21.2 73.4 22.8 67.8 23.2 65C25.3 55.2 25.4 53.6 26.5 45.5C27.5 37.5 27.6 36.1 27.6 31.5C27.7 27.3 27.7 25.6 26.5 24.6Z" fill="#C1C1C1" stroke="#231F20" stroke-width="0.5" stroke-miterlimit="10"/>
<path d="M46.5 69.2C50 53.8 53.9 38.4 58.8 23.3C60.9 16.7 62.7 10.1 63.8 3.3C63.9 2.6 64 1.90001 64 1.10001C63.9 1.10001 63.8 1.1 63.6 1C62.7 2.5 61.8 3.90001 60.9 5.40001C56.8 11.7 54.1 13.3 48.5 18.3C46.4 20.2 40.7 22.8 38.5 24.6C37.3 25.6 37.4 27.3 37.4 31.5C37.4 36 37.6 37.4 38.5 45.5C39.5 53.7 39.6 55.3 41.8 65C42.2 67.8 43.8 73.4 44.3 76.2C44.4 76.5 44.5 76.8 44.8 77.1C45.4 74.4 45.9 71.8 46.5 69.2Z" fill="#C1C1C1" stroke="#231F20" stroke-width="0.5" stroke-miterlimit="10"/>
</svg>
