<svg width="141" height="57" viewBox="0 0 141 57" fill="none" xmlns="http://www.w3.org/2000/svg">
<path d="M6.82952 53.0094C6.82952 53.8094 7.02952 54.7094 7.12952 55.7094C7.32952 55.4094 7.42952 55.3094 7.52952 55.2094C8.92952 52.9094 10.1295 50.4094 11.7295 48.2094C15.2295 43.5094 17.7295 38.4094 19.5295 32.9094C20.5295 29.8094 21.6295 26.7094 22.5295 23.5094C24.4295 17.2094 25.6295 10.8094 26.1295 4.30939C26.3295 1.70939 24.8295 0.409391 22.3295 1.30939C15.5295 3.70939 8.92952 3.80939 3.92952 14.6094C1.82952 19.2094 1.32952 21.6094 1.02952 26.7094C0.829518 29.3094 1.62952 33.9094 3.92952 36.7094C7.02952 40.4094 6.72952 48.0094 6.82952 53.0094Z" fill="#C1C1C1" stroke="#231F20" stroke-width="0.5" stroke-miterlimit="10"/>
<path d="M115.229 4.33442C115.729 10.8344 116.929 17.2344 118.829 23.5344C119.729 26.7344 120.829 29.8344 121.829 32.9344C123.629 38.4344 126.229 43.5344 129.629 48.2344C131.229 50.4344 132.429 52.9344 133.829 55.2344C133.929 55.3344 134.029 55.4344 134.229 55.7344C134.329 54.6344 134.529 53.8344 134.529 53.0344C134.629 48.0344 134.229 40.4344 137.329 36.6344C139.529 33.8344 140.329 29.3344 140.229 26.6344C139.929 21.6344 139.529 19.2344 137.329 14.5344C132.329 3.83443 125.729 3.73442 118.929 1.23442C116.529 0.434425 115.029 1.73442 115.229 4.33442Z" fill="#C1C1C1" stroke="#231F20" stroke-width="0.5" stroke-miterlimit="10"/>
</svg>
