<svg width="80" height="41" viewBox="0 0 80 41" fill="none" xmlns="http://www.w3.org/2000/svg">
<path d="M38.2324 14.5746C37.9324 10.3746 35.7324 7.17457 31.7324 5.67457C27.5324 4.07457 23.3324 2.57457 19.1324 1.27457C15.9324 0.274566 11.8324 3.77457 10.7324 6.57457C8.53241 12.2746 5.63241 17.5746 2.73241 22.8746C2.03241 24.1746 1.63242 25.5746 1.13242 26.9746C0.832415 27.8746 1.03241 28.7746 1.83241 29.4746C5.83241 33.1746 10.1324 36.4746 15.1324 38.4746C18.9324 39.9746 22.9324 40.2746 27.0324 39.6746C33.3324 38.6746 38.2324 32.4746 38.5324 26.5746C38.6324 22.4746 38.5324 18.5746 38.2324 14.5746Z" fill="#C1C1C1" stroke="#231F20" stroke-width="0.5" stroke-miterlimit="10"/>
<path d="M53.5327 39.5746C57.6327 40.2746 61.6327 39.8746 65.4327 38.3746C70.5327 36.3746 74.8326 33.1746 78.7327 29.3746C79.4327 28.6746 79.7327 27.7746 79.4327 26.8746C79.0327 25.4746 78.5327 24.0746 77.8327 22.7746C74.8327 17.4746 71.9327 12.1746 69.8327 6.47459C68.7327 3.67459 64.6327 0.174591 61.4327 1.17459C57.1327 2.47459 53.0327 3.97459 48.8327 5.57459C44.7327 7.07459 42.6327 10.2746 42.3327 14.4746C42.0327 18.4746 41.8327 22.3746 42.0327 26.3746C42.2327 32.3746 47.2327 38.5746 53.5327 39.5746Z" fill="#C1C1C1" stroke="#231F20" stroke-width="0.5" stroke-miterlimit="10"/>
</svg>
