<svg width="179" height="71" viewBox="0 0 179 71" fill="none" xmlns="http://www.w3.org/2000/svg">
<path d="M156 2.73398C154.5 5.83398 154.6 9.03399 154.8 12.334C155.7 24.434 160 35.334 166.1 45.634C168.9 50.334 172.1 54.834 175.7 59.034C176.3 59.634 177 60.134 177.7 60.734C177.8 60.634 177.9 60.534 178 60.434C177.6 59.834 177.2 59.134 176.9 58.534C172.4 49.234 169.6 39.434 168.7 29.034C167.9 19.334 165 10.334 159.1 2.43398C157.9 0.533977 157 0.73398 156 2.73398Z" fill="#C1C1C1" stroke="#231F20" stroke-width="0.5" stroke-miterlimit="10"/>
<path d="M157.7 32.2339C156.2 27.7339 154.7 23.3339 152.8 18.9339C151.2 15.1339 148.6 11.8339 146 8.73389C144.8 7.33389 143.6 5.83389 142.4 4.43389C142.1 4.13389 141.4 3.7339 141.1 3.8339C140.7 4.0339 140.4 4.6339 140.2 5.1339C139.4 8.0339 139.9 10.9339 141.3 13.5339C143.5 17.6339 143.5 21.5339 145 25.9339C147.3 32.5339 150.4 40.2339 153 46.8339C156 54.3339 160.2 60.9339 163.3 68.3339C163.5 68.9339 163.8 69.4339 164 70.0339C164.1 70.0339 164.3 69.9339 164.4 69.9339C164.5 69.1339 164.6 68.3339 164.6 67.5339C164.2 55.3339 161.6 43.6339 157.7 32.2339Z" fill="#C1C1C1" stroke="#231F20" stroke-width="0.5" stroke-miterlimit="10"/>
<path d="M38.0998 13.5339C39.4998 10.9339 39.8998 8.0339 39.1998 5.1339C39.0998 4.6339 38.6998 4.0339 38.2998 3.8339C37.9998 3.7339 37.2998 4.13389 36.9998 4.43389C35.7998 5.83389 34.5998 7.23389 33.3998 8.73389C30.6998 11.8339 28.1998 15.2339 26.5998 18.9339C24.6998 23.2339 23.1998 27.7339 21.6998 32.2339C17.7998 43.6339 15.1998 55.3339 14.7998 67.4339C14.7998 68.2339 14.8998 69.0339 14.9998 69.8339C15.0998 69.8339 15.2998 69.9339 15.3998 69.9339C15.5998 69.3339 15.8998 68.8339 16.0998 68.2339C19.1998 60.8339 23.3998 54.1339 26.3998 46.7339C28.9998 40.2339 32.0998 32.5339 34.3998 25.8339C35.9998 21.5339 35.9998 17.6339 38.0998 13.5339Z" fill="#C1C1C1" stroke="#231F20" stroke-width="0.5" stroke-miterlimit="10"/>
<path d="M3.5 58.9339C7.1 54.7339 10.3 50.2339 13.1 45.5339C19.2 35.2339 23.5 24.3339 24.4 12.2339C24.7 8.93386 24.7 5.73387 23.2 2.63387C22.2 0.633874 21.3 0.433865 19.9 2.23387C14 10.1339 11.1 19.1339 10.3 28.8339C9.5 39.2339 6.6 48.9339 2.1 58.3339C1.8 59.0339 1.4 59.6339 1 60.2339C1.1 60.3339 1.2 60.4339 1.3 60.5339C2.2 60.1339 3 59.6339 3.5 58.9339Z" fill="#C1C1C1" stroke="#231F20" stroke-width="0.5" stroke-miterlimit="10"/>
</svg>
