<svg width="32" height="26" viewBox="0 0 32 26" fill="none" xmlns="http://www.w3.org/2000/svg">
<path d="M5.4 2.4C4.4 2.1 3.6 1.6 2.3 1L1.5 3.4C1.3 5.5 1.1 7.6 1 9.8C1 10.4 1.2 11.1 1.5 11.7C3.3 15 5.5 18.1 8.2 20.8C9.6 22.2 11.3 23.5 13 24.6C14 25.3 14.5 25 14.5 23.8C14.5 22.3 14.6 20.8 14.4 19.3C13.9 15.4 12.5 11.7 11.1 8C10 5.3 8.3 3.3 5.4 2.4Z" fill="#C1C1C1" stroke="#231F20" stroke-width="0.5" stroke-miterlimit="10"/>
<path d="M17.5 23.9001C17.5 25.0001 17.9 25.3001 18.8 24.8001C20 24.1001 21.4 23.4001 22.3 22.4001C24.5 19.9001 26.6 17.4001 28.7 14.7001C30.2 12.7001 31.4 10.6001 31 7.90007C30.7 6.30007 30.6 4.70008 30.4 2.80008L29.4 1.20007C27.7 1.80007 26.1 2.50008 24.6 3.30008C23.8 3.80008 22.8 4.30007 22.4 5.00007C20.3 9.00007 18.6 13.2001 17.8 17.7001C17.5 19.8001 17.5 21.9001 17.5 23.9001Z" fill="#C1C1C1" stroke="#231F20" stroke-width="0.5" stroke-miterlimit="10"/>
<path d="M11.0998 6.00007C12.9998 10.4001 14.5998 15.0001 14.9998 19.9001C14.9998 20.3001 15.0998 20.7001 15.2998 21.0001C15.3998 21.3001 15.6998 21.5001 15.8998 21.7001C16.0998 21.5001 16.3998 21.3001 16.5998 21.0001C16.7998 20.5001 16.8998 20.0001 16.8998 19.5001C17.2998 15.3001 18.5998 11.3001 20.1998 7.40007C20.4998 6.70007 20.7998 5.90007 21.0998 5.20007H10.7998C10.8998 5.40007 10.9998 5.70007 11.0998 6.00007Z" fill="#C1C1C1" stroke="#231F20" stroke-width="0.5" stroke-miterlimit="10"/>
</svg>
