<svg width="99" height="140" viewBox="0 0 99 140" fill="none" xmlns="http://www.w3.org/2000/svg">
<path d="M86.2371 131.4C86.2371 127.4 86.2371 123.7 86.3371 119.9C86.4371 115.4 86.6371 110.8 86.8371 106.3C87.2371 97.4 87.9371 88.4 88.2371 79.5C88.3371 74.4 88.0371 69.3 87.7371 64.2C87.2371 56.6 86.4371 49 85.7371 41.5C85.3371 37.6 84.7371 33.8 84.4371 29.9C84.1371 26.3 84.1371 22.6 84.0371 19C83.9371 16 84.0371 13.1 84.0371 10.1C84.0371 9.80001 84.0371 9.6 83.9371 9.3C83.8371 9 83.6371 8.8 83.4371 8.5C83.2371 8.7 82.8371 8.90001 82.7371 9.10001C82.3371 10.2 82.0371 11.4 81.7371 12.6C79.4371 22.1 77.1371 31.7 74.8371 41.2C73.1371 48.3 71.1371 55.3 69.5371 62.4C68.5371 67 68.3371 71.7 68.4371 76.4C68.5371 79.5 68.5371 82.5 68.8371 85.6C69.6371 93.3 70.4371 101 72.7371 108.4C74.0371 112.4 76.0371 116.1 78.2371 119.6C80.6371 123.3 83.1371 126.9 85.6371 130.6C85.7371 130.9 85.9371 131.1 86.2371 131.4Z" fill="#C1C1C1" stroke="#231F20" stroke-width="0.5" stroke-miterlimit="10"/>
<path d="M3.5371 82C3.5371 82.3 10.7371 110.1 10.8371 110.3C11.0371 108.5 8.9371 81.5 9.1371 73.5C9.3371 62.3 10.7371 52.9 11.7371 41.7C11.9371 39.8 12.2371 37.8 12.3371 35.9C12.7371 31.7 13.2371 27.5 13.3371 23.3C13.4371 17.9 13.1371 12.4 13.0371 7C12.9371 5 12.8371 3 12.6371 1C12.5371 1 12.3371 1 12.2371 1C12.1371 1.3 12.0371 1.6 12.0371 1.8C11.3371 4.7 10.8371 7.70001 10.0371 10.6C7.2371 20.4 3.7371 32 2.9371 42.1C2.3371 48.8 0.7371 56.8 1.0371 62.8C1.4371 69.9 2.4371 74.2 3.5371 82Z" fill="#C1C1C1" stroke="#231F20" stroke-width="0.5" stroke-miterlimit="10"/>
<path d="M30.4369 76.5001C30.5369 71.8001 30.3369 67.1001 29.3369 62.5001C27.7369 55.4001 25.7369 48.4001 24.0369 41.3001C21.7369 31.8001 19.4369 22.2001 17.1369 12.7001C16.8369 11.5001 16.5369 10.4001 16.1369 9.20009C16.0369 8.90009 15.7369 8.8001 15.4369 8.6001C15.2369 8.9001 15.0369 9.1001 14.9369 9.4001C14.8369 9.6001 14.8369 9.90009 14.8369 10.2001C14.8369 13.2001 14.9369 16.1001 14.8369 19.1001C14.7369 22.7001 14.7369 26.4001 14.4369 30.0001C14.1369 33.9001 13.5369 37.7001 13.1369 41.6001C12.4369 49.2001 11.7369 56.7001 11.1369 64.3001C10.7369 69.4001 10.4369 74.5001 10.6369 79.6001C10.9369 88.5001 11.5369 97.5001 12.0369 106.4C12.2369 110.9 12.4369 115.5 12.5369 120C12.6369 123.7 12.6369 127.5 12.6369 131.5C12.9369 131.1 13.2369 130.9 13.3369 130.7C15.8369 127 18.3369 123.4 20.7369 119.7C22.9369 116.2 24.9369 112.5 26.2369 108.5C28.5369 101.1 29.3369 93.4001 30.1369 85.7001C30.3369 82.7001 30.3369 79.6001 30.4369 76.5001Z" fill="#C1C1C1" stroke="#231F20" stroke-width="0.5" stroke-miterlimit="10"/>
<path d="M33.1369 76.6001C33.0369 77.0001 32.9369 77.3001 32.9369 77.7001C32.6369 81.5001 32.3369 85.3001 31.9369 89.1001C31.6369 92.0001 31.4369 94.8001 30.8369 97.7001C29.8369 102.7 28.6369 107.6 27.5369 112.5C27.4369 113 27.4369 113.6 27.5369 114C29.7369 120.9 30.1369 128 30.0369 135.2C30.0369 136.6 29.9369 137.9 29.9369 139.3C30.0369 139.3 30.1369 139.3 30.2369 139.3C34.3369 129.7 36.5369 119.6 37.0369 109.1C37.5369 98.1001 36.5369 87.2001 33.5369 76.6001C33.4369 76.6001 33.2369 76.6001 33.1369 76.6001Z" fill="#C1C1C1" stroke="#231F20" stroke-width="0.5" stroke-miterlimit="10"/>
<path d="M68.8369 139.3C68.8369 137.9 68.7369 136.6 68.7369 135.2C68.6369 128 69.0369 120.9 71.2369 114C71.4369 113.5 71.3369 113 71.2369 112.5C70.1369 107.6 68.9369 102.7 67.9369 97.7001C67.3369 94.9001 67.1369 92.0001 66.8369 89.1001C66.4369 85.3001 66.1369 81.5001 65.8369 77.7001C65.8369 77.3001 65.7369 77.0001 65.6369 76.6001C65.4369 76.6001 65.3369 76.6001 65.1369 76.6001C62.1369 87.2001 61.1369 98.1001 61.6369 109.1C62.1369 119.6 64.3369 129.6 68.4369 139.3C68.6369 139.3 68.7369 139.3 68.8369 139.3Z" fill="#C1C1C1" stroke="#231F20" stroke-width="0.5" stroke-miterlimit="10"/>
<path d="M95.2371 82.0001C96.3371 74.2001 97.3371 69.9001 97.7371 62.9001C98.0371 57.0001 96.4371 48.9001 95.8371 42.2001C94.9371 32.1001 91.5371 20.6001 88.7371 10.7001C87.9371 7.80009 87.3371 4.9001 86.7371 1.9001C86.6371 1.6001 86.6371 1.3001 86.5371 1.1001C86.4371 1.1001 86.2371 1.1001 86.1371 1.1001C86.0371 3.1001 85.8371 5.1001 85.7371 7.1001C85.6371 12.5001 85.3371 18.0001 85.4371 23.4001C85.5371 27.6001 86.0371 31.8001 86.4371 36.0001C86.6371 37.9001 86.9371 39.9001 87.0371 41.8001C88.0371 52.9001 89.4371 62.4001 89.6371 73.6001C89.8371 81.6001 87.6371 108.6 87.9371 110.4C88.0371 110.1 95.2371 82.3001 95.2371 82.0001Z" fill="#C1C1C1" stroke="#231F20" stroke-width="0.5" stroke-miterlimit="10"/>
</svg>
