<svg width="125" height="38" viewBox="0 0 125 38" fill="none" xmlns="http://www.w3.org/2000/svg">
<path d="M92.8998 6.88944C94.1998 12.7894 98.2998 19.4894 101.4 24.7894C103.7 28.7894 103.9 27.6894 107.7 29.3894C109.7 30.2894 115.1 31.1894 117.1 32.0894C118.8 32.8894 121.2 33.9894 122.8 34.9894C123.1 35.1894 124 35.9894 124.3 36.2894C124.4 35.9894 124.5 35.7894 124.5 35.5894C124.3 29.2894 124.8 22.1894 122.5 16.1894C121.2 12.8894 117.1 8.28945 114.4 6.18945C109.8 2.78945 106.3 1.98944 100.2 1.08944C99.4998 0.989441 98.5999 0.889445 98.0999 1.28945C96.5999 2.18945 95.1999 3.18945 93.7999 4.28945C92.9999 4.98945 92.6998 5.88944 92.8998 6.88944Z" fill="#C1C1C1" stroke="#231F20" stroke-width="0.5" stroke-miterlimit="10"/>
<path d="M2.6 34.9894C4.2 33.9894 6.6 32.8894 8.3 32.0894C10.2 31.0894 15.7 30.2894 17.7 29.3894C21.5 27.6894 21.7 28.7894 24 24.7894C27 19.4894 31.1 12.7894 32.5 6.88944C32.7 5.88944 32.4 4.98944 31.7 4.38944C30.3 3.28944 28.9 2.28944 27.4 1.38944C26.9 1.08944 26 1.08945 25.3 1.18945C19.3 2.08945 15.7 2.88945 11.1 6.28945C8.3 8.38945 4.2 12.9894 3 16.2894C0.7 22.2894 1.2 29.3894 1 35.6894C1 35.8894 1.1 35.9894 1.2 36.3894C1.4 35.9894 2.3 35.1894 2.6 34.9894Z" fill="#C1C1C1" stroke="#231F20" stroke-width="0.5" stroke-miterlimit="10"/>
</svg>
