<svg width="369" height="439" viewBox="0 0 369 439" fill="none" xmlns="http://www.w3.org/2000/svg">
    <path
        d="M231.909 437.517C227.929 437.517 224.337 436.158 220.746 433.246C220.454 433.052 220.163 432.761 219.872 432.567C218.513 431.402 217.445 430.528 215.989 429.946C215.601 429.849 215.213 429.655 214.825 429.558C212.495 428.781 209 427.519 208.03 423.734L206.671 418.104V418.007C206.574 417.618 206.38 417.133 206.38 416.551C206.185 414.221 205.991 411.988 205.894 409.659L205.797 407.911C205.797 407.426 205.797 407.038 205.797 406.65L205.312 403.543C205.312 403.349 205.215 403.252 205.215 403.155C205.118 402.67 204.924 402.087 205.118 401.214C205.312 400.243 205.409 399.369 205.506 398.399C205.894 395.875 206.185 393.351 207.059 390.827C208.03 387.624 208.224 382.577 207.544 378.985C206.574 374.229 205.409 370.831 204.147 367.337C202.885 363.842 201.623 360.251 200.555 355.203C199.488 350.059 199.391 343.652 200.361 339.09C200.944 336.372 201.332 333.945 201.817 331.324C202.011 329.965 202.303 328.704 202.497 327.247C202.497 326.956 202.497 326.471 202.497 325.791C202.691 320.064 202.788 319.482 202.982 318.9H202.885L202.011 316.861C198.032 307.446 195.702 297.253 195.217 286.576C194.828 279.296 195.217 272.307 196.284 265.512L196.187 265.415C195.411 264.735 194.925 263.862 194.731 262.891C194.537 261.726 194.052 259.882 193.664 258.135C193.081 255.902 192.596 253.67 192.305 252.116C190.46 243.477 190.169 241.342 189.393 235.032L189.101 232.994L189.004 231.926C188.228 225.034 188.034 223.384 188.034 219.016V218.531C188.034 216.686 188.228 214.842 188.713 212.61C188.713 212.61 185.024 212.707 184.054 212.707C184.539 214.26 184.539 216.104 184.539 218.628V219.113C184.539 223.481 184.345 225.131 183.568 232.023L183.471 232.994L183.18 235.032C182.404 241.342 182.112 243.477 180.268 252.116C180.074 253.767 179.492 255.999 178.909 258.135C178.521 259.882 178.036 261.726 177.841 262.891C177.647 263.959 177.162 264.735 176.385 265.415L176.288 265.512C177.356 272.307 177.647 279.296 177.356 286.576C176.871 297.253 174.541 307.446 170.561 316.861L169.688 318.9H169.493C169.785 319.482 169.785 320.064 169.979 325.791C169.979 326.471 169.979 326.956 169.979 327.247C170.27 328.704 170.464 329.965 170.658 331.324C171.144 333.945 171.532 336.372 172.114 339.09C173.085 343.652 172.988 349.962 171.92 355.203C170.852 360.251 169.591 363.842 168.329 367.337C167.067 370.831 165.902 374.229 164.931 378.985C164.155 382.674 164.349 387.624 165.417 390.827C166.193 393.351 166.581 395.972 166.97 398.399C167.067 399.369 167.261 400.243 167.358 401.214C167.455 401.99 167.358 402.67 167.261 403.155C167.261 403.252 167.164 403.446 167.164 403.543L166.679 406.747C166.679 407.135 166.679 407.62 166.679 408.009L166.581 409.756C166.387 412.085 166.29 414.318 166.096 416.648C166.096 417.23 165.902 417.715 165.805 418.104V418.201L164.446 423.831C163.475 427.713 159.981 428.878 157.651 429.655C157.263 429.752 156.875 429.946 156.486 430.043C155.03 430.626 153.963 431.499 152.604 432.664C152.312 432.858 152.021 433.149 151.73 433.343C148.235 436.158 144.547 437.614 140.567 437.614C136.199 437.614 131.928 435.867 127.657 434.023C126.298 433.441 125.424 432.373 125.133 431.014C124.551 428.587 126.201 426.063 127.463 424.413C129.695 421.598 133.093 418.589 134.063 418.007C138.14 415.483 140.761 413.153 143.867 408.979L143.964 408.882L146.391 406.358L148.041 396.263C148.138 394.71 148.333 393.157 148.527 391.701L148.624 390.633C148.721 389.857 149.109 388.983 149.789 388.401C148.527 385.974 147.362 383.45 146.779 381.606C144.062 373.355 143.285 368.599 142.217 361.319C142.023 359.96 141.732 358.407 141.538 356.756C140.276 349.088 140.761 339.381 141.538 332.877C142.411 325.403 144.45 318.317 147.653 311.911V308.028C147.653 306.766 147.653 305.601 147.653 304.436C147.653 301.816 147.653 299.389 147.556 296.962C147.459 294.05 147.362 291.138 147.265 288.323L138.917 260.561C138.626 258.523 138.334 256.679 138.043 255.028C137.267 250.466 136.781 246.875 136.49 241.73C136.296 237.653 136.878 232.897 137.558 228.238C137.849 225.811 138.237 223.481 138.334 221.249C139.111 211.736 142.217 201.252 144.838 191.934L145.323 190.187C145.809 188.342 146.779 186.013 147.265 184.46C147.556 183.586 149.497 178.733 149.497 178.733C148.721 175.529 148.527 172.035 149.109 167.861C149.4 165.531 149.886 163.299 150.371 161.066C150.565 160.387 150.662 159.707 150.759 159.028C150.856 158.348 151.148 157.863 151.342 157.377C151.439 157.28 151.439 157.086 151.536 156.989L151.633 156.698L150.759 155.63C149.206 153.786 148.43 151.456 148.43 148.738V148.641L147.75 141.555C147.653 140.682 147.556 139.808 147.459 138.837C147.265 136.702 146.974 134.566 146.877 132.819C146.779 131.751 146.779 130.781 146.779 129.713C146.003 131.946 145.032 134.081 143.479 137.284C142.994 138.255 142.12 139.711 141.052 141.361C140.858 141.749 140.567 142.041 140.47 142.332C140.276 142.72 139.985 143.108 139.693 143.4C139.888 143.788 139.985 144.176 140.082 144.37C140.955 147.768 140.567 151.359 138.82 154.66C137.752 156.698 137.267 158.736 136.781 161.066C136.393 162.716 136.005 164.463 135.422 166.308C133.287 172.617 130.375 179.8 127.56 186.692C126.007 190.478 124.162 194.069 122.415 197.467C120.765 200.767 119.018 204.067 117.562 207.562C117.368 207.95 117.174 208.338 117.076 208.727L115.912 211.445H115.815C117.465 216.686 116.785 220.763 113.291 225.131L108.923 230.955C107.467 233.77 105.817 236.974 103.39 239.692C103.099 240.08 102.322 240.954 100.963 241.148C100.575 241.148 100.187 241.245 99.8953 241.245C99.6041 241.245 99.3129 241.245 99.0217 241.148C98.8276 241.536 98.6334 242.021 98.4393 242.41C97.4686 244.351 95.6243 245.419 93.2947 245.419C92.2269 245.419 91.2562 245.127 90.4797 244.545L89.8002 245.127H88.7324C86.8881 245.127 85.335 244.254 84.4614 242.895C83.6849 241.633 83.5878 240.177 83.9761 238.818C82.6171 237.847 81.7435 236.488 81.6464 234.935C81.4523 232.509 82.7142 230.664 83.6849 229.305C83.9761 228.917 84.2673 228.529 84.3644 228.238C85.5292 226.102 86.7911 223.869 87.9559 221.831C87.3735 221.928 84.1702 222.705 84.1702 222.705L83.5878 222.608C80.967 222.219 79.1227 220.957 78.0549 218.919C77.3754 217.56 77.8608 216.104 77.9578 215.716C78.3461 214.551 79.2197 213.968 79.8021 213.774L80.8699 213.289C81.9376 212.804 83.1025 212.318 84.1702 211.833L86.2087 209.309L88.15 207.368C89.9943 205.523 91.9357 203.582 93.9741 201.738C94.8478 200.864 95.9155 200.185 97.0803 199.699C97.0803 199.699 98.6334 195.914 98.7305 195.622C103.099 186.498 105.622 177.471 106.399 168.055C107.175 157.572 110.573 148.35 116.3 140.682C116.591 140.293 117.174 139.517 118.047 138.934C116.3 135.731 115.62 131.751 115.718 128.936C116.009 123.695 116.494 120.977 118.824 116.123C120.183 113.114 121.736 110.882 123.386 109.134C123.386 108.94 123.289 108.649 123.289 108.358C123.289 107.096 123.386 105.737 123.386 104.378C123.483 99.0393 123.483 93.6034 125.424 88.5559C126.88 84.8672 131.151 79.9167 134.355 77.5871C139.402 73.8014 143.382 72.9278 149.497 72.0542C149.789 72.0542 149.983 71.9571 150.177 71.9571L155.807 69.4333L156.875 69.0451C157.457 68.7539 157.942 68.5597 158.525 68.3656C161.728 66.9096 164.834 65.4535 167.94 63.9004C168.232 63.8034 168.523 63.6092 168.814 63.5122C168.911 61.9591 169.008 60.406 169.202 58.8529L169.396 57.1056L170.173 54.9701C168.717 53.9024 167.843 52.2522 167.746 50.3108C167.552 48.2724 167.358 46.1369 167.164 44.1955C166.29 44.0984 165.514 43.7102 164.931 43.1278C164.155 42.3512 163.669 41.4776 163.281 40.701C162.116 38.1773 161.243 36.2359 160.369 34.3916C159.787 33.0326 159.884 31.3825 160.854 29.8294C161.728 28.3733 162.893 27.3056 164.252 26.9173L164.543 26.7232C164.543 25.8496 164.543 24.9759 164.64 24.0053C164.834 20.2196 165.611 16.7251 166.97 13.5218C169.202 8.28014 175.026 3.23258 180.462 1.77655C182.404 1.29121 184.345 1 186.286 1C195.12 1 202.788 6.04757 206.185 14.2984C207.253 16.7251 207.641 19.5401 207.933 21.3844C208.03 21.8697 208.03 22.4522 207.933 24.1023C207.933 24.7818 207.933 25.7525 207.933 26.529L209.097 27.3056C212.689 29.7323 213.466 32.3532 211.524 36.333C211.427 36.5271 211.33 36.8183 211.136 37.2066C210.165 39.8274 208.612 43.7102 205.603 44.2926C205.409 46.0398 205.312 47.7871 205.215 49.5343C205.118 51.8639 204.147 53.9024 202.594 55.1643L203.273 56.232L203.37 56.9115C203.467 57.4939 203.467 58.0763 203.565 58.5617C203.662 59.6294 203.759 60.6972 203.953 61.6679C204.05 62.4444 204.05 63.1239 204.05 63.9004C204.147 63.9004 204.244 63.9975 204.341 63.9975C207.447 65.4535 210.651 67.0066 213.757 68.4627C214.242 68.6568 214.825 68.948 215.407 69.1421L216.378 69.5304L222.008 71.9571C222.396 71.9571 222.784 71.9571 223.269 72.0542C229.288 73.0249 233.365 73.8014 238.412 77.5871C241.615 79.9167 245.886 84.8672 247.245 88.5559C249.187 93.6034 249.284 99.1363 249.284 104.378C249.284 105.737 249.284 106.999 249.381 108.358C249.381 108.649 249.381 108.94 249.284 109.134C250.934 110.882 252.487 113.114 253.846 116.123C256.079 120.977 256.564 123.695 256.952 128.936C257.146 131.751 256.467 135.828 254.623 138.934C255.496 139.517 256.176 140.293 256.37 140.682C262.097 148.35 265.397 157.572 266.271 168.055C267.047 177.471 269.474 186.498 273.939 195.622C274.133 195.914 274.328 196.302 274.522 196.69C274.619 196.884 274.813 197.079 274.91 197.273L276.075 199.311L275.687 199.699C276.851 200.185 277.919 200.864 278.793 201.738C280.734 203.582 282.675 205.523 284.617 207.368L286.558 209.309L288.597 211.833C289.664 212.318 290.829 212.804 291.897 213.289L292.868 213.774C293.45 214.066 294.227 214.551 294.712 215.716C294.906 216.104 295.294 217.56 294.615 218.919C293.547 220.957 291.703 222.219 289.082 222.608L288.5 222.705C288.5 222.705 285.296 222.025 284.714 221.831C285.879 223.967 287.141 226.102 288.305 228.238C288.5 228.529 288.791 228.917 288.985 229.305C289.859 230.664 291.12 232.509 291.023 234.935C290.926 236.488 290.15 237.847 288.694 238.818C289.179 240.177 288.985 241.73 288.208 242.895C287.335 244.351 285.782 245.127 283.937 245.127H282.773L282.093 244.545C281.316 245.127 280.346 245.419 279.278 245.419C277.045 245.419 275.104 244.351 274.133 242.41C273.939 242.021 273.745 241.536 273.551 241.148C273.26 241.148 272.969 241.245 272.677 241.245C272.289 241.245 271.901 241.245 271.61 241.148C270.251 240.954 269.474 240.08 269.183 239.789C266.756 236.974 265.106 233.77 263.65 230.955L259.282 225.131C255.885 220.86 255.108 216.783 256.855 211.542H256.758L255.593 208.824C255.399 208.436 255.205 208.047 255.108 207.659C253.652 204.165 251.905 200.864 250.255 197.564C248.507 194.069 246.663 190.575 245.11 186.789C242.295 179.897 239.383 172.617 237.247 166.405C236.568 164.561 236.277 162.813 235.888 161.163C235.403 158.834 234.918 156.795 233.85 154.757C232.103 151.456 231.714 147.865 232.588 144.467C232.685 144.273 232.782 143.885 232.976 143.497C232.685 143.108 232.394 142.72 232.2 142.429C232.006 142.138 231.812 141.847 231.617 141.458C230.55 139.808 229.676 138.352 229.191 137.381C227.735 134.372 226.764 132.237 226.084 130.198C225.987 133.402 225.793 136.411 225.405 139.517C225.308 140.099 225.211 140.779 225.114 141.361L225.017 142.041L224.337 149.515C224.143 151.942 223.367 153.98 221.911 155.824L221.037 156.892C221.037 156.989 221.134 156.989 221.134 157.086C221.328 157.475 221.522 157.96 221.716 158.542C223.464 164.949 224.143 170.288 223.852 175.335C223.755 176.5 223.561 177.665 223.269 178.83C223.269 178.83 225.114 183.295 225.89 185.139C226.667 186.983 227.152 188.439 227.735 190.187L228.22 191.934C230.841 201.252 233.947 211.736 234.724 221.249C234.918 223.481 235.209 225.811 235.5 228.238C236.083 232.897 236.762 237.653 236.568 241.73C236.277 246.875 235.694 250.466 235.015 255.028C234.724 256.679 233.947 259.202 233.656 261.338L225.793 288.42C225.696 291.332 225.599 294.244 225.502 297.059C225.405 299.486 225.405 302.01 225.405 304.533C225.405 305.698 225.405 306.863 225.405 308.125V312.008C228.511 318.414 230.647 325.5 231.52 332.975C232.297 339.478 232.685 349.185 231.52 356.853C231.229 358.504 231.035 359.96 230.841 361.416C229.773 368.696 228.997 373.549 226.279 381.703C225.696 383.547 224.531 385.974 223.269 388.498C223.949 389.177 224.337 389.954 224.434 390.73L224.531 391.798C224.726 393.254 224.92 394.807 225.017 396.36L226.667 406.455L229.094 408.979L229.191 409.076C232.394 413.25 234.918 415.58 238.995 418.104C239.965 418.686 243.363 421.695 245.595 424.51C246.857 426.16 248.604 428.587 247.925 431.111C247.634 432.47 246.663 433.441 245.401 434.023C240.548 435.77 236.277 437.517 231.909 437.517Z"
        fill="white" stroke="#452F2C" stroke-width="1.0172" stroke-miterlimit="10" />
    <path
        d="M185.801 88.7499C185.995 88.5558 186.092 88.4587 186.092 88.3616C186.674 86.032 187.645 83.8965 189.392 82.0522C189.587 81.858 189.587 81.3727 189.587 81.0815C189.295 81.0815 188.907 80.8874 188.616 80.9844C186.869 81.5668 185.218 81.5668 183.471 81.0815C183.083 80.9844 182.598 81.0815 182.112 81.0815C182.306 81.4698 182.306 81.9551 182.598 82.3434C183.859 83.8965 184.733 85.6437 185.316 87.5851C185.51 87.9734 185.607 88.2646 185.801 88.7499Z"
        fill="#C1C1C1" stroke="#231F20" stroke-width="0.5" stroke-miterlimit="10" />
    <path
        d="M136.199 141.943C136.782 141.846 137.364 141.07 137.655 140.682C138.335 139.614 139.985 137.09 140.47 135.925C143.188 130.198 144.062 128.354 145.13 122.53C145.227 121.85 145.518 117.579 145.421 116.9C145.324 116.511 145.421 114.279 145.324 113.794C145.033 110.979 144.45 106.902 144.256 107.29C143.771 109.523 141.829 119.715 141.441 120.88C139.985 126.024 138.529 131.169 137.17 136.313C136.782 137.77 136.394 139.323 136.005 140.779C136.297 140.876 136.102 141.943 136.199 141.943Z"
        fill="#C1C1C1" stroke="#231F20" stroke-width="0.5" stroke-miterlimit="10" />
    <path
        d="M186.772 116.706C187.646 115.541 188.422 114.376 189.296 113.114C189.587 112.726 189.781 112.241 189.975 111.755C189.878 111.464 189.878 111.173 189.684 110.882C188.714 109.426 187.84 107.97 186.772 106.611C185.996 105.64 185.51 105.64 184.831 106.611C183.86 107.97 182.889 109.426 182.016 110.882C181.822 111.173 181.822 111.755 182.016 112.144C182.986 113.697 183.957 115.153 185.025 116.609C185.51 117.482 186.19 117.385 186.772 116.706Z"
        fill="#C1C1C1" stroke="#231F20" stroke-width="0.5" stroke-miterlimit="10" />
    <path
        d="M290.927 216.104C289.277 215.424 287.626 214.648 285.879 213.968L283.453 211.056C280.929 208.533 278.502 206.009 275.978 203.679C274.716 202.514 273.066 201.835 271.416 201.544L268.795 199.02C264.912 193.487 261.127 188.051 257.05 182.324C257.05 183.004 256.953 183.489 257.05 183.877C257.147 184.362 257.244 184.945 257.341 185.43L258.7 192.419C258.797 193.002 258.797 193.681 258.894 194.263C259.282 198.534 259.768 202.806 259.962 207.077C260.059 208.63 259.768 210.28 259.185 211.736C257.632 216.104 258.021 219.307 261.03 223.093L265.495 229.111C266.951 232.12 268.601 235.032 270.737 237.556C270.834 237.75 271.028 237.944 271.222 237.944C271.707 238.041 272.193 238.041 272.678 237.944C272.872 237.847 272.872 237.071 272.678 236.779C271.804 235.032 270.834 233.285 270.057 231.538C269.96 231.247 269.863 231.052 269.669 230.858L270.639 229.888C271.901 232.217 273.066 234.644 274.231 236.974C274.91 238.236 275.493 239.594 276.075 240.856C276.561 241.827 277.434 242.312 278.599 242.312C279.764 242.312 280.249 241.633 279.667 240.468C278.793 238.527 277.92 236.585 277.046 234.741C275.687 232.12 274.328 229.596 272.872 227.073L273.552 225.908C275.493 229.499 277.434 233.091 279.376 236.779C280.055 238.041 280.638 239.497 281.511 240.662C281.996 241.342 282.773 241.73 283.161 242.021C284.909 242.021 285.685 240.565 285.006 239.206C283.841 236.779 282.676 234.353 281.414 232.023C279.57 228.723 277.628 225.422 275.784 222.122L276.366 221.443C277.143 222.802 277.92 224.258 278.696 225.617C280.443 228.626 282.288 231.538 284.035 234.45C284.229 234.838 284.52 235.226 284.909 235.518C285.297 235.809 286.073 236.391 286.268 236.197C286.753 235.906 287.335 235.323 287.335 234.547C287.432 232.606 285.782 231.052 284.909 229.402C283.064 226.005 281.123 222.705 279.279 219.404C279.181 219.21 279.084 219.113 278.987 218.919C278.89 218.822 278.89 218.725 278.793 218.628L280.832 217.851C283.161 218.434 285.491 218.919 287.724 219.404C289.18 219.21 290.344 218.628 291.024 217.269C291.315 216.978 291.218 216.201 290.927 216.104Z"
        fill="#C1C1C1" stroke="#231F20" stroke-width="0.5" stroke-miterlimit="10" />
    <path
        d="M236.86 420.53C232.298 417.715 229.483 414.997 226.182 410.726L223.27 407.717L221.426 396.554C221.329 394.71 221.038 392.866 220.844 391.022C220.844 390.827 220.552 390.439 220.358 390.342C220.164 390.342 219.776 390.536 219.679 390.73C217.64 395.293 213.952 398.593 210.748 402.184C209.292 403.835 208.516 405.485 208.71 407.717C208.904 410.532 209.098 413.444 209.292 416.259C209.292 416.648 209.487 417.036 209.584 417.424V417.618C209.584 417.618 210.846 422.666 210.943 422.957C211.622 425.675 214.825 426.257 217.058 427.228C219.291 428.102 220.747 429.461 222.591 431.014C229.774 436.838 235.986 434.605 243.558 431.208C245.305 430.431 244.334 428.296 242.587 426.257C240.549 423.539 237.345 420.822 236.86 420.53Z"
        fill="#C1C1C1" stroke="#231F20" stroke-width="0.5" stroke-miterlimit="10" />
    <path
        d="M165.514 39.1479C165.805 39.7303 166.096 40.3128 166.485 40.701C166.776 40.9922 167.358 41.0893 167.746 40.9922H169.397C169.688 43.9043 169.979 46.8163 170.173 49.7284C170.27 51.0874 170.853 52.0581 172.017 52.6405C175.9 54.6789 180.365 57.688 184.928 57.688C189.975 57.688 195.023 55.2613 199.391 52.9317C200.944 52.058 201.72 50.6991 201.817 48.8548C201.915 46.2339 202.206 43.6131 202.497 40.9922L204.147 40.7981C206.186 41.4776 207.836 35.8476 208.418 34.5857C209.68 31.9649 209.389 30.8971 206.962 29.2469L204.73 27.6938C204.438 27.4997 204.632 21.9668 204.535 21.1902C204.244 19.1518 203.856 16.8222 202.982 14.8808C199.197 6.04755 189.878 1.58239 180.754 4.10617C176.191 5.36807 171.047 9.73615 169.202 14.2013C167.941 17.2104 167.261 20.4137 167.164 23.617C167.067 25.073 167.067 26.529 167.164 27.985L164.834 29.2469C163.572 29.4411 162.116 31.5766 162.602 32.7414C163.572 35.0711 164.543 37.1095 165.514 39.1479Z"
        fill="#C1C1C1" stroke="#231F20" stroke-width="0.5" stroke-miterlimit="10" />
    <path
        d="M235.5 141.943C235.695 141.943 235.403 140.876 235.5 140.779C235.112 139.323 234.821 137.77 234.336 136.313C232.88 131.169 231.521 126.024 230.065 120.88C229.773 119.715 227.832 109.523 227.25 107.29C227.055 106.902 226.473 110.979 226.182 113.794C226.085 114.279 226.182 116.414 226.085 116.9C225.988 117.579 226.279 121.85 226.376 122.53C227.444 128.257 228.317 130.198 231.035 135.925C231.618 137.09 233.268 139.614 233.85 140.682C234.336 141.07 234.918 141.846 235.5 141.943Z"
        fill="#C1C1C1" stroke="#231F20" stroke-width="0.75" stroke-miterlimit="10" />
    <path
        d="M111.738 207.077C111.932 202.806 112.417 198.534 112.806 194.263C112.903 193.681 112.903 193.002 113 192.419L114.359 185.43C114.456 184.945 114.553 184.362 114.65 183.877C114.747 183.489 114.65 183.004 114.65 182.324C110.67 188.051 106.787 193.584 102.905 199.02L100.284 201.544C98.5365 201.738 96.9834 202.417 95.7215 203.679C93.1977 206.106 90.6739 208.63 88.2472 211.056L85.8205 213.968C84.1703 214.648 82.5201 215.424 80.7729 216.104C80.5788 216.201 80.3846 216.978 80.5788 217.269C81.2582 218.531 82.4231 219.113 83.8791 219.404C86.2087 218.919 88.5384 218.434 90.771 217.851L92.8094 218.628C92.7123 218.725 92.7123 218.822 92.6153 218.919C92.5182 219.113 92.4211 219.21 92.3241 219.404C90.4798 222.705 88.5384 226.102 86.6941 229.402C85.8205 231.052 84.1703 232.508 84.2674 234.547C84.2674 235.323 84.8498 235.809 85.3351 236.197C85.5293 236.294 86.3058 235.809 86.6941 235.518C87.0824 235.226 87.2765 234.838 87.5677 234.45C89.3149 231.538 91.1592 228.529 92.9065 225.617C93.683 224.258 94.5566 222.899 95.2361 221.443L95.8185 222.122C93.8772 225.422 92.0329 228.723 90.1886 232.023C88.9267 234.353 87.7618 236.779 86.597 239.206C85.9175 240.565 86.6941 242.021 88.4413 242.021C88.8296 241.73 89.6061 241.342 90.0915 240.662C90.9651 239.4 91.5475 238.041 92.227 236.779C94.1684 233.188 96.1097 229.499 98.0511 225.908L98.7306 227.073C97.2746 229.596 95.9156 232.217 94.5566 234.741C93.586 236.585 92.7123 238.527 91.9358 240.468C91.4504 241.633 91.8387 242.312 93.0035 242.312C94.0713 242.312 95.042 241.924 95.5273 240.856C96.2068 239.594 96.7892 238.236 97.3716 236.974C98.5365 234.644 99.7013 232.217 100.963 229.888L101.934 230.858C101.837 231.052 101.643 231.344 101.546 231.538C100.769 233.285 99.7983 235.032 98.9247 236.779C98.7306 237.071 98.8277 237.847 98.9247 237.944C99.313 238.138 99.8954 238.041 100.381 237.944C100.575 237.944 100.769 237.653 100.866 237.556C103.099 235.032 104.652 232.023 106.108 229.111L110.573 223.093C113.582 219.307 113.97 216.104 112.417 211.736C111.932 210.28 111.641 208.63 111.738 207.077Z"
        fill="#C1C1C1" stroke="#231F20" stroke-width="0.5" stroke-miterlimit="10" />
    <path
        d="M152.41 390.827C152.312 390.633 151.924 390.342 151.73 390.439C151.536 390.536 151.245 390.827 151.245 391.119C151.051 392.963 150.759 394.807 150.662 396.651L148.818 407.717L145.906 410.726C142.703 414.997 139.888 417.715 135.228 420.53C134.743 420.822 131.54 423.539 129.404 426.257C127.754 428.393 126.783 430.431 128.434 431.208C136.102 434.605 142.314 436.741 149.4 431.014C151.245 429.558 152.701 428.102 154.933 427.228C157.166 426.354 160.369 425.772 161.049 422.957C161.146 422.666 162.408 417.618 162.408 417.618V417.424C162.505 417.036 162.602 416.648 162.699 416.259C162.893 413.444 163.087 410.532 163.281 407.717C163.475 405.582 162.699 403.835 161.243 402.184C158.137 398.69 154.448 395.39 152.41 390.827Z"
        fill="#C1C1C1" stroke="#231F20" stroke-width="0.5" stroke-miterlimit="10" />
    <path
        d="M184.941 119.155C183.873 117.311 182.708 115.564 181.543 113.816C181.155 113.137 180.476 113.04 179.699 113.331C178.146 113.913 176.496 114.496 174.943 115.078C172.128 116.243 170.186 118.184 169.507 121.388C168.827 124.785 167.954 128.183 167.177 131.58C167.08 132.259 167.177 132.939 167.177 133.715C167.468 133.715 167.565 133.715 167.662 133.618C167.954 133.521 168.148 133.327 168.439 133.23C171.642 131.386 174.943 130.124 178.631 129.541C180.281 129.25 181.932 129.056 183.582 128.765C184.941 128.474 185.232 128.085 185.232 126.629C185.232 124.688 185.232 122.747 185.232 120.708C185.135 120.223 185.135 119.641 184.941 119.155Z"
        fill="#C1C1C1" stroke="#231F20" stroke-width="0.5" stroke-miterlimit="10" />
    <path
        d="M184.941 132.745C184.747 131.871 184.261 131.386 183.291 131.289C177.952 130.609 173.292 132.357 169.119 135.56C168.342 136.142 167.565 137.113 167.177 137.987C166.109 141.19 165.527 144.587 165.721 147.985C165.721 148.276 165.915 148.664 166.012 148.955C166.304 148.858 166.692 148.761 166.983 148.567C169.216 147.014 171.642 145.946 174.457 145.655C176.302 145.461 178.049 145.461 179.893 145.267C179.893 145.267 179.893 145.267 179.893 145.364C181.155 145.364 182.514 145.364 183.776 145.364C184.455 145.364 184.941 145.073 185.038 144.296C185.426 140.413 185.62 136.53 184.941 132.745Z"
        fill="#C1C1C1" stroke="#231F20" stroke-width="0.5" stroke-miterlimit="10" />
    <path
        d="M186.688 143.519C186.688 145.073 186.979 145.267 188.532 145.364C190.473 145.461 192.415 145.461 194.356 145.364C198.142 145.364 201.539 146.431 204.743 148.47C205.034 148.664 205.519 148.761 205.907 148.858C206.004 148.47 206.296 147.985 206.199 147.596C205.81 144.587 205.519 141.578 205.034 138.569C204.937 137.792 204.257 136.919 203.675 136.239C200.18 132.842 195.909 131.289 191.056 130.998C190.473 130.998 189.794 130.998 189.212 131.095C187.464 131.289 187.076 131.677 186.785 133.327C186.688 133.618 186.688 134.007 186.688 134.298C186.591 137.404 186.591 140.413 186.688 143.519Z"
        fill="#C1C1C1" stroke="#231F20" stroke-width="0.5" stroke-miterlimit="10" />
    <path
        d="M186.688 165.942C186.688 167.981 187.853 168.757 189.794 168.272C192.997 167.398 196.201 166.525 199.404 165.748C200.763 165.457 201.734 164.875 202.413 163.71C204.451 160.312 205.519 156.721 205.907 152.838C206.005 151.964 205.616 151.382 204.937 150.994C200.666 148.179 196.006 147.014 190.959 147.208C187.756 147.305 187.367 147.111 186.688 151.188C186.591 151.479 186.591 151.867 186.591 152.159C186.591 154.391 186.591 156.624 186.591 158.953C186.591 158.953 186.591 158.953 186.688 158.953C186.688 161.186 186.688 163.516 186.688 165.942Z"
        fill="#C1C1C1" stroke="#231F20" stroke-width="0.5" stroke-miterlimit="10" />
    <path
        d="M219.692 109.934L206.102 115.078C205.908 115.078 205.714 115.078 205.422 115.175C203.966 115.369 203.19 116.34 203.481 117.796C204.549 123.329 205.617 128.959 206.976 134.395C207.364 135.948 208.237 137.404 209.208 138.666C210.47 140.316 212.023 141.869 213.479 143.325C215.809 145.655 217.556 148.276 218.43 151.382C218.527 151.673 218.624 152.061 218.818 152.644C220.08 151.091 220.468 149.538 220.662 147.887L221.439 140.316C221.536 139.442 221.73 138.666 221.827 137.792C222.506 132.065 222.604 126.241 222.215 120.514C222.021 117.408 221.73 114.302 221.439 111.196C221.342 109.739 220.953 109.448 219.692 109.934Z"
        fill="#C1C1C1" stroke="#231F20" stroke-width="0.5" stroke-miterlimit="10" />
    <path
        d="M204.452 166.816C205.908 166.233 207.461 165.845 208.723 164.972C212.411 162.448 214.741 158.759 216.391 154.585C217.168 152.644 216.876 150.605 215.615 148.858C213.576 145.752 210.955 143.228 208.14 140.802C207.849 140.51 207.461 140.413 206.781 140.122C206.878 140.802 206.976 141.19 207.073 141.481C208.237 145.849 208.723 150.217 208.432 154.682C208.14 158.953 206.878 162.836 203.578 165.942C203.384 166.136 203.287 166.331 202.899 166.816C203.675 166.816 204.161 166.913 204.452 166.816Z"
        fill="#C1C1C1" stroke="#231F20" stroke-width="0.5" stroke-miterlimit="10" />
    <path
        d="M186.688 120.126C186.688 122.456 186.688 124.785 186.688 127.115C186.688 127.988 187.173 128.571 188.047 128.765C188.532 128.862 189.115 128.959 189.697 128.959C194.648 129.444 199.307 130.706 203.578 133.23C203.869 133.424 204.16 133.521 204.84 133.91C204.84 133.133 204.937 132.648 204.84 132.162C203.966 128.086 202.996 124.106 202.025 120.126C201.637 118.379 200.569 116.923 198.919 116.146C196.783 115.175 194.551 114.302 192.318 113.331C191.444 112.943 190.765 113.234 190.28 113.914C189.115 115.564 188.047 117.311 186.979 119.058C186.688 119.349 186.688 119.835 186.688 120.126Z"
        fill="#C1C1C1" stroke="#231F20" stroke-width="0.5" stroke-miterlimit="10" />
    <path
        d="M169.021 200.79C170.866 202.343 172.807 203.896 175.234 204.575C175.525 204.673 175.913 204.478 176.204 204.478C176.107 204.187 176.107 203.799 176.01 203.605C175.04 201.663 173.875 199.722 173.001 197.684C169.118 189.142 166.206 180.405 166.206 170.893C166.206 169.34 165.624 168.175 164.168 167.495C160.285 165.554 157.664 162.351 155.529 158.662C155.141 158.08 154.849 157.497 154.558 156.915C154.461 156.915 154.267 156.915 154.17 156.915C153.976 157.4 153.684 157.983 153.587 158.468C153.005 161.38 152.326 164.195 151.937 167.107C151.355 171.184 151.355 175.261 153.005 179.241C156.402 187.783 161.935 194.869 169.021 200.79Z"
        fill="#C1C1C1" stroke="#231F20" stroke-width="0.5" stroke-miterlimit="10" />
    <path
        d="M168.342 166.039C165.43 163.418 164.071 160.021 163.586 156.235C162.906 151.188 163.489 146.334 164.751 141.481C164.848 141.093 164.848 140.704 164.945 140.316C164.848 140.219 164.751 140.219 164.654 140.122C164.265 140.413 163.683 140.607 163.392 140.996C161.062 143.422 158.635 145.752 156.5 148.373C154.753 150.411 154.558 152.935 155.723 155.362C156.597 157.206 157.665 159.147 158.926 160.798C160.771 163.321 163.003 165.457 166.012 166.525C166.789 166.816 167.76 167.204 168.73 166.622C168.536 166.331 168.439 166.136 168.342 166.039Z"
        fill="#C1C1C1" stroke="#231F20" stroke-width="0.5" stroke-miterlimit="10" />
    <path
        d="M172.128 165.651C175.525 166.428 178.922 167.398 182.223 168.272C183.873 168.757 185.038 167.884 185.038 166.136C185.135 161.962 185.329 157.691 185.329 153.517C185.329 151.867 184.941 150.12 184.552 148.47C184.358 147.596 183.679 147.111 182.805 147.111C180.573 147.111 178.34 147.014 176.107 147.305C172.807 147.693 169.798 148.858 167.08 150.702C166.303 151.285 165.818 151.867 166.012 152.935C166.401 156.721 167.468 160.409 169.507 163.71C169.992 164.777 170.866 165.36 172.128 165.651Z"
        fill="#C1C1C1" stroke="#231F20" stroke-width="0.5" stroke-miterlimit="10" />
    <path
        d="M152.423 110.031H152.326H152.229C150.772 109.448 150.481 110.031 150.287 112.166C149.608 118.573 149.316 124.979 149.705 131.386C149.802 133.91 150.287 137.404 150.578 140.219L151.258 147.208C151.258 147.305 151.258 147.305 151.258 147.402C151.258 149.149 151.646 150.897 152.908 152.45C153.102 152.256 153.199 152.159 153.199 152.061C153.296 151.673 153.393 151.382 153.587 150.994C154.267 148.664 155.335 146.626 156.985 144.878C158.441 143.422 159.8 141.869 161.256 140.413C163.488 138.084 165.042 135.366 165.527 132.162C165.624 131.386 165.818 130.706 165.915 129.93C166.692 125.95 167.565 122.067 168.342 118.087C168.73 116.243 167.857 115.37 166.012 115.175C165.915 115.175 165.915 115.175 165.818 115.175L152.423 110.031Z"
        fill="#C1C1C1" stroke="#231F20" stroke-width="0.5" stroke-miterlimit="10" />
    <path
        d="M184.358 172.737C184.164 171.184 183.387 170.213 181.931 169.825C181.252 169.631 180.572 169.243 179.893 169.145C177.078 168.466 174.166 167.592 171.351 167.107C169.215 166.719 167.954 167.981 168.051 169.922C168.439 176.911 169.604 183.706 171.545 190.404C173.098 195.645 175.04 200.693 178.437 204.964C180.281 207.293 182.708 208.167 185.523 208.944C185.62 208.07 185.62 207.391 185.62 206.711C185.62 199.043 185.62 191.471 185.426 183.803C185.232 180.114 184.649 176.426 184.358 172.737Z"
        fill="#C1C1C1" stroke="#231F20" stroke-width="0.5" stroke-miterlimit="10" />
    <path
        d="M194.648 203.314C198.142 198.072 200.083 192.151 201.442 186.035C202.607 180.891 203.481 175.649 203.772 170.31C203.869 167.884 202.898 166.719 200.375 167.01C196.589 167.495 193.095 168.66 189.6 169.922C188.435 170.31 187.756 171.184 187.562 172.349C187.27 174.484 186.785 176.62 186.688 178.852C186.397 184.774 186.203 196.713 186.203 196.713C186.203 200.305 186.203 203.896 186.203 207.488C186.203 208.847 186.397 208.944 187.659 208.555C190.668 207.682 192.997 205.935 194.648 203.314Z"
        fill="#C1C1C1" stroke="#231F20" stroke-width="0.5" stroke-miterlimit="10" />
    <path
        d="M195.91 203.411C195.716 203.702 195.716 204.09 195.618 204.478C196.007 204.478 196.395 204.576 196.783 204.478C197.948 203.993 199.113 203.508 200.084 202.828C207.558 197.489 213.285 190.695 217.362 182.541C218.721 179.823 219.983 176.911 220.177 173.805C220.468 168.466 219.594 163.127 218.138 157.983C218.041 157.594 217.75 157.206 217.459 156.429C217.071 157.206 216.779 157.691 216.585 158.08C214.644 161.671 212.12 164.874 208.529 166.816C206.393 167.981 205.617 169.34 205.617 171.669C205.617 176.426 204.646 181.085 203.384 185.647C201.54 191.86 199.016 197.781 195.91 203.411Z"
        fill="#C1C1C1" stroke="#231F20" stroke-width="0.5" stroke-miterlimit="10" />
    <path
        d="M124.128 154.378C124.128 155.154 124.322 156.028 124.419 156.998C124.613 156.707 124.71 156.61 124.807 156.513C126.166 154.28 127.331 151.854 128.884 149.718C132.281 145.156 134.708 140.206 136.455 134.867C137.426 131.858 138.494 128.848 139.367 125.742C141.212 119.627 142.376 113.415 142.862 107.105C143.056 104.581 141.6 103.319 139.173 104.193C132.572 106.523 126.166 106.62 121.313 117.103C119.274 121.568 118.789 123.898 118.498 128.848C118.303 131.372 119.08 135.837 121.313 138.555C124.322 142.147 124.03 149.524 124.128 154.378Z"
        fill="#C1C1C1" stroke="#231F20" stroke-width="0.5" stroke-miterlimit="10" />
    <path
        d="M229.35 107.129C229.835 113.439 231 119.651 232.844 125.767C233.718 128.873 234.785 131.882 235.756 134.891C237.503 140.23 240.027 145.18 243.327 149.743C244.881 151.878 246.045 154.305 247.404 156.537C247.501 156.634 247.598 156.731 247.793 157.023C247.89 155.955 248.084 155.178 248.084 154.402C248.181 149.548 247.793 142.171 250.802 138.483C252.937 135.765 253.714 131.397 253.617 128.776C253.326 123.922 252.937 121.593 250.802 117.03C245.948 106.644 239.542 106.547 232.941 104.12C230.611 103.344 229.155 104.606 229.35 107.129Z"
        fill="#C1C1C1" stroke="#231F20" stroke-width="0.5" stroke-miterlimit="10" />
    <path
        d="M180.108 213.192C177.972 211.445 172.439 208.921 170.401 207.076C165.062 202.223 162.344 200.67 158.364 194.555C157.491 193.196 156.617 191.74 155.743 190.284C155.646 190.284 155.549 190.284 155.355 190.381C155.452 191.06 155.452 191.74 155.549 192.516C156.617 199.117 158.364 205.62 160.403 211.93C165.062 226.587 168.848 241.536 172.342 256.484C172.925 259.008 173.41 261.532 173.992 264.153C174.284 263.862 174.381 263.57 174.478 263.279C174.963 260.561 176.516 255.125 176.904 252.408C178.943 242.895 179.04 241.342 180.108 233.479C181.078 225.714 181.175 224.355 181.175 219.89C181.272 215.813 181.272 214.163 180.108 213.192Z"
        fill="#C1C1C1" stroke="#231F20" stroke-width="0.5" stroke-miterlimit="10" />
    <path
        d="M199.521 256.484C202.919 241.536 206.704 226.587 211.461 211.93C213.499 205.523 215.246 199.117 216.314 192.516C216.411 191.837 216.508 191.157 216.508 190.381C216.411 190.381 216.314 190.381 216.12 190.284C215.246 191.74 214.373 193.099 213.499 194.555C209.519 200.67 206.899 202.223 201.463 207.076C199.424 208.921 193.891 211.445 191.756 213.192C190.591 214.163 190.688 215.813 190.688 219.89C190.688 224.258 190.882 225.617 191.756 233.479C192.727 241.439 192.824 242.992 194.959 252.408C195.347 255.125 196.901 260.561 197.386 263.279C197.483 263.57 197.58 263.862 197.871 264.153C198.454 261.532 198.939 259.008 199.521 256.484Z"
        fill="#C1C1C1" stroke="#231F20" stroke-width="0.5" stroke-miterlimit="10" />
    <path
        d="M183.73 88.9195C183.439 84.8426 181.304 81.7364 177.421 80.2804C173.344 78.7273 169.267 77.2712 165.19 76.0093C162.084 75.0386 158.104 78.436 157.036 81.154C154.901 86.6869 152.086 91.8315 149.271 96.9761C148.592 98.238 148.203 99.597 147.718 100.956C147.427 101.83 147.621 102.703 148.397 103.383C152.28 106.974 156.454 110.177 161.307 112.119C164.996 113.575 168.879 113.866 172.859 113.284C178.974 112.313 183.73 106.295 184.022 100.568C184.119 96.5879 184.022 92.8022 183.73 88.9195Z"
        fill="#C1C1C1" stroke="#231F20" stroke-width="0.5" stroke-miterlimit="10" />
    <path
        d="M198.582 113.187C202.562 113.866 206.445 113.478 210.133 112.022C215.084 110.08 219.258 106.974 223.043 103.286C223.723 102.606 224.014 101.733 223.723 100.859C223.335 99.4999 222.849 98.141 222.17 96.8791C219.258 91.7345 216.443 86.5898 214.404 81.0569C213.336 78.339 209.357 74.9416 206.25 75.9123C202.077 77.1742 198.097 78.6302 194.02 80.1833C190.04 81.6393 188.002 84.7455 187.71 88.8224C187.419 92.7052 187.225 96.4908 187.419 100.374C187.613 106.198 192.467 112.216 198.582 113.187Z"
        fill="#C1C1C1" stroke="#231F20" stroke-width="0.5" stroke-miterlimit="10" />
    <path
        d="M250.481 143.433C249.025 146.442 249.122 149.548 249.317 152.751C250.19 164.496 254.364 175.077 260.285 185.075C263.003 189.637 266.109 194.005 269.604 198.082C270.186 198.665 270.866 199.15 271.545 199.732C271.642 199.635 271.739 199.538 271.837 199.441C271.448 198.859 271.06 198.179 270.769 197.597C266.401 188.569 263.683 179.057 262.809 168.962C262.033 159.546 259.218 150.81 253.491 143.141C252.326 141.297 251.452 141.491 250.481 143.433Z"
        fill="#C1C1C1" stroke="#231F20" stroke-width="0.5" stroke-miterlimit="10" />
    <path
        d="M252.132 172.068C250.676 167.7 249.22 163.429 247.375 159.158C245.822 155.469 243.299 152.266 240.775 149.257C239.61 147.898 238.445 146.442 237.28 145.083C236.989 144.791 236.31 144.403 236.018 144.5C235.63 144.694 235.339 145.277 235.145 145.762C234.368 148.577 234.854 151.392 236.213 153.916C238.348 157.896 238.348 161.681 239.804 165.952C242.037 172.359 245.046 179.833 247.57 186.24C250.482 193.52 254.558 199.926 257.568 207.109C257.762 207.692 258.053 208.177 258.247 208.76C258.344 208.76 258.538 208.663 258.635 208.663C258.732 207.886 258.83 207.109 258.83 206.333C258.441 194.491 255.917 183.134 252.132 172.068Z"
        fill="#C1C1C1" stroke="#231F20" stroke-width="0.5" stroke-miterlimit="10" />
    <path
        d="M136.037 153.916C137.396 151.392 137.785 148.577 137.105 145.762C137.008 145.277 136.62 144.694 136.232 144.5C135.94 144.403 135.261 144.791 134.97 145.083C133.805 146.442 132.64 147.801 131.475 149.257C128.854 152.266 126.428 155.566 124.875 159.158C123.03 163.332 121.574 167.7 120.118 172.068C116.332 183.134 113.809 194.491 113.42 206.236C113.42 207.012 113.517 207.789 113.615 208.566C113.712 208.566 113.906 208.663 114.003 208.663C114.197 208.08 114.488 207.595 114.682 207.012C117.691 199.829 121.768 193.326 124.68 186.143C127.204 179.833 130.213 172.359 132.446 165.855C133.999 161.681 133.999 157.896 136.037 153.916Z"
        fill="#C1C1C1" stroke="#231F20" stroke-width="0.5" stroke-miterlimit="10" />
    <path
        d="M102.452 197.985C105.946 193.908 109.053 189.54 111.77 184.978C117.692 174.98 121.866 164.399 122.739 152.654C123.03 149.451 123.03 146.345 121.574 143.335C120.604 141.394 119.73 141.2 118.371 142.947C112.644 150.616 109.829 159.352 109.053 168.767C108.276 178.862 105.461 188.278 101.093 197.403C100.802 198.082 100.413 198.664 100.025 199.247C100.122 199.344 100.219 199.441 100.316 199.538C101.19 199.15 101.967 198.664 102.452 197.985Z"
        fill="#C1C1C1" stroke="#231F20" stroke-width="0.5" stroke-miterlimit="10" />
    <path
        d="M162.865 258.038C162.379 259.008 161.797 260.076 161.409 261.047C160.244 264.832 159.079 268.521 158.108 272.307C156.944 276.966 156.07 281.625 156.264 286.382C156.361 291.526 156.458 296.671 156.749 301.816C156.944 306.087 157.332 310.455 157.623 314.726C157.623 315.211 157.817 315.696 157.914 316.085C158.011 316.085 158.108 316.085 158.206 316.085C158.303 315.599 158.497 315.211 158.594 314.726C159.953 308.416 161.312 302.107 162.671 295.797C163.35 292.594 164.224 289.488 165 286.285C165.486 284.537 165.971 282.79 166.262 281.043C166.942 276.189 166.553 271.336 165.971 266.483C165.68 263.668 165 260.95 164.418 258.135C164.321 257.746 163.933 257.358 163.641 257.261C163.544 257.261 163.059 257.746 162.865 258.038Z"
        fill="#C1C1C1" stroke="#231F20" stroke-width="0.5" stroke-miterlimit="10" />
    <path
        d="M210.719 257.953C210.525 257.662 210.04 257.177 209.846 257.274C209.555 257.371 209.166 257.856 209.069 258.147C208.487 260.962 207.807 263.68 207.516 266.495C207.031 271.349 206.643 276.202 207.225 281.055C207.419 282.803 208.002 284.55 208.487 286.297C209.263 289.5 210.137 292.607 210.817 295.81C212.273 302.119 213.534 308.429 214.893 314.738C214.99 315.224 215.185 315.709 215.282 316.097C215.379 316.097 215.476 316.097 215.573 316.097C215.67 315.612 215.864 315.224 215.864 314.738C216.155 310.467 216.544 306.099 216.738 301.828C216.932 296.684 217.029 291.539 217.223 286.394C217.32 281.638 216.544 276.882 215.379 272.319C214.408 268.534 213.243 264.748 212.078 261.059C211.787 259.895 211.205 258.924 210.719 257.953Z"
        fill="#C1C1C1" stroke="#231F20" stroke-width="0.5" stroke-miterlimit="10" />
    <path
        d="M222.562 309.096C222.562 305.213 222.562 301.621 222.659 297.933C222.756 293.565 222.95 289.1 223.144 284.731C223.533 276.092 224.212 267.356 224.503 258.717C224.6 253.767 224.309 248.816 224.018 243.866C223.533 236.488 222.756 229.111 222.077 221.831C221.688 218.045 221.106 214.357 220.815 210.571C220.524 207.077 220.524 203.485 220.427 199.991C220.329 197.079 220.427 194.264 220.427 191.351C220.427 191.06 220.426 190.866 220.329 190.575C220.232 190.284 220.038 190.09 219.844 189.798C219.65 189.993 219.262 190.187 219.165 190.381C218.776 191.449 218.485 192.613 218.194 193.778C215.961 203 213.729 212.318 211.496 221.54C209.846 228.432 207.905 235.226 206.352 242.118C205.381 246.583 205.187 251.146 205.284 255.708C205.381 258.717 205.381 261.629 205.672 264.638C206.449 272.113 207.225 279.587 209.458 286.77C210.72 290.653 212.661 294.244 214.797 297.642C217.126 301.233 219.553 304.728 221.98 308.319C222.077 308.61 222.271 308.804 222.562 309.096Z"
        fill="#C1C1C1" stroke="#231F20" stroke-width="0.5" stroke-miterlimit="10" />
    <path
        d="M142.286 261.144C142.286 261.435 149.275 288.42 149.372 288.614C149.566 286.867 147.528 260.658 147.722 252.893C147.916 242.021 149.275 232.897 150.246 222.025C150.44 220.181 150.731 218.239 150.828 216.395C151.217 212.318 151.702 208.241 151.799 204.165C151.896 198.923 151.605 193.584 151.508 188.342C151.411 186.401 151.314 184.46 151.12 182.518C151.022 182.518 150.828 182.518 150.731 182.518C150.634 182.809 150.537 183.101 150.537 183.295C149.858 186.11 149.372 189.022 148.596 191.837C145.878 201.35 142.48 212.609 141.704 222.413C141.121 228.917 139.568 236.683 139.86 242.507C140.248 249.398 141.219 253.572 142.286 261.144Z"
        fill="#C1C1C1" stroke="#231F20" stroke-width="0.5" stroke-miterlimit="10" />
    <path
        d="M168.398 255.805C168.495 251.243 168.3 246.681 167.33 242.215C165.777 235.324 163.835 228.529 162.185 221.637C159.953 212.415 157.72 203.097 155.487 193.875C155.196 192.711 154.905 191.643 154.517 190.478C154.42 190.187 154.128 190.09 153.837 189.896C153.643 190.187 153.449 190.381 153.352 190.672C153.255 190.866 153.255 191.157 153.255 191.449C153.255 194.361 153.352 197.176 153.255 200.088C153.158 203.582 153.158 207.174 152.867 210.668C152.575 214.454 151.993 218.142 151.605 221.928C150.925 229.305 150.246 236.586 149.663 243.963C149.275 248.913 148.984 253.864 149.178 258.814C149.469 267.453 150.052 276.19 150.537 284.829C150.731 289.197 150.925 293.662 151.022 298.03C151.119 301.621 151.119 305.31 151.119 309.193C151.411 308.805 151.702 308.61 151.799 308.416C154.226 304.825 156.652 301.33 158.982 297.739C161.117 294.341 163.059 290.75 164.321 286.867C166.553 279.684 167.33 272.21 168.106 264.735C168.3 261.823 168.3 258.814 168.398 255.805Z"
        fill="#C1C1C1" stroke="#231F20" stroke-width="0.5" stroke-miterlimit="10" />
    <path
        d="M171.018 255.902C170.921 256.29 170.824 256.582 170.824 256.97C170.533 260.659 170.242 264.347 169.854 268.036C169.562 270.851 169.368 273.569 168.786 276.384C167.815 281.237 166.65 285.993 165.583 290.75C165.485 291.235 165.485 291.818 165.583 292.206C167.718 298.904 168.106 305.795 168.009 312.784C168.009 314.143 167.912 315.405 167.912 316.764C168.009 316.764 168.106 316.764 168.203 316.764C172.183 307.446 174.319 297.642 174.804 287.449C175.289 276.772 174.319 266.191 171.407 255.902C171.31 255.902 171.115 255.902 171.018 255.902Z"
        fill="#C1C1C1" stroke="#231F20" stroke-width="0.5" stroke-miterlimit="10" />
    <path
        d="M205.672 316.764C205.672 315.405 205.575 314.143 205.575 312.784C205.478 305.795 205.866 298.904 208.002 292.206C208.196 291.72 208.099 291.235 208.002 290.75C206.934 285.993 205.769 281.237 204.798 276.384C204.216 273.666 204.022 270.851 203.731 268.036C203.342 264.347 203.051 260.659 202.76 256.97C202.76 256.582 202.663 256.29 202.566 255.902C202.372 255.902 202.275 255.902 202.08 255.902C199.168 266.191 198.198 276.772 198.683 287.449C199.168 297.642 201.304 307.349 205.284 316.764C205.478 316.764 205.575 316.764 205.672 316.764Z"
        fill="#C1C1C1" stroke="#231F20" stroke-width="0.5" stroke-miterlimit="10" />
    <path
        d="M231.298 261.144C232.366 253.573 233.337 249.399 233.725 242.604C234.016 236.877 232.463 229.014 231.881 222.511C231.007 212.707 227.707 201.544 224.989 191.934C224.212 189.119 223.63 186.304 223.047 183.392C222.95 183.101 222.95 182.81 222.853 182.615C222.756 182.615 222.562 182.615 222.465 182.615C222.368 184.557 222.174 186.498 222.077 188.44C221.98 193.681 221.688 199.02 221.785 204.262C221.883 208.339 222.368 212.415 222.756 216.492C222.95 218.337 223.242 220.278 223.339 222.122C224.309 232.897 225.668 242.118 225.862 252.99C226.056 260.756 223.921 286.964 224.212 288.711C224.309 288.42 231.298 261.435 231.298 261.144Z"
        fill="#C1C1C1" stroke="#231F20" stroke-width="0.5" stroke-miterlimit="10" />
    <path
        d="M166.956 329.092C166.956 328.898 166.762 322.006 166.568 321.52C166.374 322.103 165.306 325.986 165.209 326.277C164.918 327.442 164.724 328.606 164.432 329.771C163.073 335.984 161.617 342.196 160.258 348.408C159.579 351.709 158.705 355.009 158.414 358.309C157.929 363.648 157.638 368.987 157.443 374.326C157.249 379.859 157.832 385.392 159.385 390.73C160.064 393.254 160.744 395.778 161.52 398.205C161.326 398.107 161.229 398.01 161.229 397.913C160.647 396.263 159.967 394.613 159.482 392.866C156.958 384.615 156.182 376.073 156.085 367.434C155.987 357.921 155.502 348.505 154.823 338.993C154.531 334.625 154.337 330.16 154.24 325.694C154.24 320.453 154.92 315.308 155.793 310.163C156.085 308.416 156.279 306.669 156.57 304.825C156.279 304.922 156.182 304.922 156.182 305.019C155.793 305.504 155.502 305.989 155.211 306.475C149.193 314.92 145.698 324.432 144.436 334.819C143.563 341.711 143.369 350.932 144.436 357.824C145.989 367.725 146.378 372.676 149.581 382.188C150.746 385.78 153.949 391.798 156.279 394.807C158.511 397.622 160.841 400.534 163.073 403.349C163.365 403.737 163.656 404.029 164.238 404.514C164.335 403.835 164.529 403.446 164.432 403.155C163.85 399.758 163.559 396.36 162.588 393.06C161.423 389.274 161.229 383.644 162.006 379.762C163.947 369.861 166.956 365.784 169.092 355.98C169.965 351.612 170.257 345.593 169.286 341.128C168.218 336.954 167.733 333.363 166.956 329.092Z"
        fill="#C1C1C1" stroke="#231F20" stroke-width="0.5" stroke-miterlimit="10" />
    <path
        d="M209.375 403.446C211.608 400.631 213.938 397.816 216.17 394.904C218.597 391.895 221.703 385.877 222.868 382.285C226.071 372.773 226.46 367.822 228.013 357.921C229.08 351.029 228.886 341.808 228.013 334.916C226.751 324.627 223.256 315.114 217.238 306.572C216.947 306.086 216.559 305.601 216.267 305.116C216.267 305.116 216.17 305.019 215.879 304.922C216.17 306.863 216.364 308.61 216.656 310.26C217.529 315.405 218.209 320.55 218.209 325.791C218.209 330.257 218.015 334.625 217.626 339.09C216.947 348.505 216.461 358.018 216.364 367.531C216.267 376.073 215.491 384.712 212.967 392.963C212.482 394.71 211.802 396.36 211.22 398.01C211.22 398.108 211.123 398.205 210.929 398.302C211.608 395.778 212.288 393.254 213.064 390.827C214.617 385.489 215.103 379.956 215.005 374.423C214.811 369.084 214.617 363.745 214.035 358.406C213.744 355.106 212.87 351.806 212.093 348.505C210.734 342.293 209.278 336.081 207.919 329.868C207.628 328.703 207.434 327.539 207.143 326.374C207.046 326.083 205.978 322.103 205.784 321.617C205.59 322.103 205.493 328.995 205.396 329.189C204.619 333.46 204.037 337.051 203.163 341.225C202.192 345.69 202.387 351.709 203.357 356.077C205.396 365.881 208.405 369.958 210.443 379.859C211.22 383.838 211.123 389.371 209.861 393.157C208.89 396.36 208.599 399.855 208.017 403.252C207.919 403.64 208.114 403.932 208.211 404.611C208.696 404.126 209.084 403.737 209.375 403.446Z"
        fill="#C1C1C1" stroke="#231F20" stroke-width="0.5" stroke-miterlimit="10" />
    <path
        d="M215.439 79.5182C216.701 85.2452 220.681 91.7488 223.69 96.8934C225.923 100.776 226.117 99.7084 229.805 101.359C231.747 102.232 236.989 103.106 238.93 103.979C240.58 104.756 242.91 105.824 244.463 106.794C244.754 106.989 245.628 107.765 245.919 108.056C246.016 107.765 246.113 107.571 246.113 107.377C245.919 101.262 246.404 94.3697 244.172 88.5455C242.91 85.3423 238.93 80.8771 236.309 78.8387C231.844 75.5384 228.447 74.7618 222.525 73.8882C221.846 73.7911 220.972 73.6941 220.487 74.0823C219.031 74.9559 217.672 75.9266 216.313 76.9944C215.536 77.6739 215.245 78.5475 215.439 79.5182Z"
        fill="#C1C1C1" stroke="#231F20" stroke-width="0.5" stroke-miterlimit="10" />
    <path
        d="M127.787 106.794C129.34 105.824 131.669 104.756 133.319 103.979C135.164 103.009 140.503 102.232 142.444 101.359C146.133 99.7084 146.327 100.776 148.559 96.8934C151.471 91.7488 155.451 85.2452 156.81 79.5182C157.004 78.5475 156.713 77.6739 156.034 77.0915C154.675 76.0237 153.316 75.053 151.86 74.1794C151.374 73.8882 150.501 73.8882 149.821 73.9853C143.997 74.8589 140.503 75.6354 136.037 78.9358C133.319 80.9742 129.34 85.4394 128.175 88.6426C125.942 94.4667 126.428 101.359 126.233 107.474C126.233 107.668 126.331 107.765 126.428 108.153C126.622 107.765 127.495 106.989 127.787 106.794Z"
        fill="#C1C1C1" stroke="#231F20" stroke-width="0.5" stroke-miterlimit="10" />
    <path
        d="M175.157 56.7173C174.186 56.4261 173.409 55.9408 172.147 55.3584L171.371 57.688C171.177 59.7265 170.983 61.7649 170.885 63.9004C170.885 64.4828 171.08 65.1623 171.371 65.7447C173.118 68.948 175.254 71.9571 177.874 74.578C179.233 75.9369 180.884 77.1988 182.534 78.2666C183.504 78.946 183.99 78.6548 183.99 77.49C183.99 76.034 184.087 74.578 183.893 73.1219C183.407 69.3363 182.048 65.7447 180.689 62.1532C179.622 59.5323 177.972 57.591 175.157 56.7173Z"
        fill="#C1C1C1" stroke="#231F20" stroke-width="0.5" stroke-miterlimit="10" />
    <path
        d="M186.902 77.5871C186.902 78.6549 187.29 78.9461 188.164 78.4608C189.329 77.7813 190.687 77.1018 191.561 76.1311C193.697 73.7044 195.735 71.2777 197.773 68.6568C199.23 66.7155 200.394 64.677 200.006 62.0562C199.715 60.5031 199.618 58.95 199.424 57.1057L198.453 55.5526C196.803 56.135 195.25 56.8145 193.794 57.591C193.017 58.0764 192.046 58.5617 191.658 59.2412C189.62 63.1239 187.97 67.2008 187.193 71.5689C186.902 73.6073 186.902 75.6458 186.902 77.5871Z"
        fill="#C1C1C1" stroke="#231F20" stroke-width="0.5" stroke-miterlimit="10" />
    <path
        d="M180.689 60.2119C182.534 64.4829 184.087 68.948 184.475 73.7044C184.475 74.0927 184.572 74.481 184.766 74.7722C184.863 75.0634 185.154 75.2575 185.349 75.4516C185.543 75.2575 185.834 75.0634 186.028 74.7722C186.222 74.2868 186.319 73.8015 186.319 73.3161C186.707 69.2393 187.969 65.3565 189.522 61.5708C189.814 60.8914 190.105 60.1148 190.396 59.4353H180.398C180.495 59.6295 180.592 59.9207 180.689 60.2119Z"
        fill="#C1C1C1" stroke="#231F20" stroke-width="0.5" stroke-miterlimit="10" />
    <path
        d="M200.298 65.7791C198.842 68.9824 196.512 71.5062 194.182 74.0299C193.018 75.3889 191.756 76.5537 190.494 77.9127C190.3 78.1068 190.3 78.398 190.203 78.6892C190.494 78.7863 190.785 78.9804 190.979 78.8834C191.659 78.7863 192.338 78.5922 193.018 78.398C196.027 77.6215 199.036 76.8449 202.045 76.0684C203.501 75.6801 204.86 75.2918 206.316 74.9036C206.316 74.9036 206.316 74.9036 206.413 74.9036C208.354 74.3211 211.558 75.6801 213.305 76.7479C214.276 74.3211 218.935 72.8651 218.935 72.8651L214.276 70.8267C213.208 70.3413 212.431 70.0501 211.558 69.6618C208.354 68.2058 205.248 66.7498 202.045 65.1967C201.365 65.0026 200.686 64.9055 200.298 65.7791Z"
        fill="#C1C1C1" stroke="#231F20" stroke-width="0.75" stroke-miterlimit="10" />
    <path
        d="M157.005 76.8449C158.752 75.7772 161.956 74.4182 163.897 75.0006C163.897 75.0006 163.897 75.0006 163.994 75.0006C165.45 75.3889 166.809 75.7772 168.265 76.1655C171.274 76.942 174.283 77.7185 177.293 78.4951C177.972 78.6892 178.651 78.8834 179.331 78.9804C179.622 78.9804 179.816 78.8834 180.108 78.7863C180.01 78.4951 180.01 78.2039 179.816 78.0098C178.651 76.7479 177.293 75.486 176.128 74.127C173.798 71.6032 171.371 69.0794 170.012 65.8762C169.624 65.0026 168.945 65.0996 168.265 65.4879C165.159 66.9439 161.956 68.497 158.752 69.9531C157.976 70.3413 157.102 70.6325 156.035 71.1179L151.472 72.9622C151.472 72.9622 156.132 74.4182 157.005 76.8449Z"
        fill="#C1C1C1" stroke="#231F20" stroke-width="0.5" stroke-miterlimit="10" />
    <rect x="282" y="80.8073" width="75" height="28" rx="5" fill="#D9D9D9" />
    <circle cx="288.5" cy="94.3073" r="3.5" fill="#373737" />
    <path
        d="M301.233 99.8073V89.6254H304.793C305.502 89.6254 306.087 89.7481 306.548 89.9933C307.008 90.2353 307.351 90.5617 307.577 90.9727C307.802 91.3804 307.915 91.8328 307.915 92.33C307.915 92.7675 307.837 93.1287 307.681 93.4138C307.529 93.6988 307.326 93.9242 307.075 94.0899C306.826 94.2556 306.556 94.3783 306.264 94.4578V94.5573C306.576 94.5771 306.889 94.6865 307.204 94.8854C307.519 95.0842 307.782 95.3693 307.994 95.7405C308.206 96.1117 308.312 96.5658 308.312 97.1027C308.312 97.6131 308.196 98.0722 307.964 98.4798C307.732 98.8875 307.366 99.2107 306.866 99.4493C306.365 99.6879 305.714 99.8073 304.912 99.8073H301.233ZM302.466 98.7135H304.912C305.717 98.7135 306.289 98.5577 306.627 98.2462C306.969 97.9313 307.139 97.5501 307.139 97.1027C307.139 96.758 307.051 96.4398 306.876 96.1482C306.7 95.8532 306.45 95.6179 306.125 95.4422C305.8 95.2632 305.416 95.1737 304.972 95.1737H302.466V98.7135ZM302.466 94.0999H304.753C305.124 94.0999 305.459 94.0269 305.757 93.8811C306.059 93.7353 306.297 93.5298 306.473 93.2646C306.652 92.9995 306.741 92.6879 306.741 92.33C306.741 91.8825 306.586 91.503 306.274 91.1915C305.963 90.8766 305.469 90.7192 304.793 90.7192H302.466V94.0999ZM310.179 99.8073V92.1709H311.353V99.8073H310.179ZM310.776 90.8982C310.547 90.8982 310.35 90.8203 310.184 90.6645C310.022 90.5087 309.941 90.3215 309.941 90.1027C309.941 89.884 310.022 89.6967 310.184 89.5409C310.35 89.3851 310.547 89.3073 310.776 89.3073C311.005 89.3073 311.2 89.3851 311.363 89.5409C311.528 89.6967 311.611 89.884 311.611 90.1027C311.611 90.3215 311.528 90.5087 311.363 90.6645C311.2 90.8203 311.005 90.8982 310.776 90.8982ZM316.604 99.9663C315.888 99.9663 315.271 99.7973 314.754 99.4592C314.237 99.1212 313.84 98.6555 313.561 98.0622C313.283 97.4689 313.144 96.7912 313.144 96.0288C313.144 95.2533 313.286 94.5689 313.571 93.9756C313.86 93.379 314.261 92.9133 314.774 92.5786C315.291 92.2405 315.895 92.0715 316.584 92.0715C317.121 92.0715 317.605 92.1709 318.036 92.3698C318.467 92.5686 318.82 92.847 319.095 93.205C319.37 93.5629 319.54 93.9805 319.607 94.4578H318.433C318.344 94.1098 318.145 93.8016 317.837 93.5331C317.532 93.2613 317.121 93.1254 316.604 93.1254C316.146 93.1254 315.745 93.2448 315.401 93.4834C315.059 93.7187 314.793 94.0518 314.6 94.4827C314.411 94.9102 314.317 95.4124 314.317 95.9891C314.317 96.579 314.41 97.0928 314.595 97.5303C314.784 97.9678 315.049 98.3075 315.391 98.5494C315.735 98.7914 316.14 98.9124 316.604 98.9124C316.909 98.9124 317.186 98.8593 317.434 98.7533C317.683 98.6472 317.893 98.4948 318.066 98.2959C318.238 98.097 318.36 97.8584 318.433 97.58H319.607C319.54 98.0307 319.376 98.4367 319.115 98.798C318.856 99.156 318.513 99.441 318.085 99.6531C317.661 99.8619 317.167 99.9663 316.604 99.9663ZM324.524 99.9663C323.788 99.9663 323.153 99.8039 322.619 99.4791C322.089 99.151 321.68 98.6936 321.392 98.107C321.106 97.517 320.964 96.8309 320.964 96.0487C320.964 95.2665 321.106 94.5771 321.392 93.9805C321.68 93.3806 322.081 92.9133 322.595 92.5786C323.112 92.2405 323.715 92.0715 324.404 92.0715C324.802 92.0715 325.195 92.1377 325.583 92.2703C325.97 92.4029 326.323 92.6183 326.642 92.9166C326.96 93.2116 327.213 93.6027 327.402 94.0899C327.591 94.5771 327.686 95.177 327.686 95.8896V96.3868H321.799V95.3726H326.492C326.492 94.9417 326.406 94.5573 326.234 94.2192C326.065 93.8811 325.823 93.6143 325.508 93.4188C325.196 93.2232 324.829 93.1254 324.404 93.1254C323.937 93.1254 323.533 93.2414 323.191 93.4734C322.853 93.7021 322.593 94.0004 322.411 94.3683C322.228 94.7362 322.137 95.1306 322.137 95.5516V96.2277C322.137 96.8044 322.237 97.2933 322.436 97.6943C322.638 98.0921 322.918 98.3953 323.276 98.6041C323.634 98.8096 324.05 98.9124 324.524 98.9124C324.832 98.9124 325.11 98.8693 325.359 98.7831C325.611 98.6936 325.828 98.561 326.01 98.3854C326.192 98.2064 326.333 97.9843 326.433 97.7192L327.566 98.0374C327.447 98.4218 327.246 98.7599 326.965 99.0516C326.683 99.3399 326.335 99.5653 325.921 99.7277C325.506 99.8868 325.041 99.9663 324.524 99.9663ZM329.47 102.671V92.1709H330.604V93.384H330.743C330.829 93.2514 330.949 93.0823 331.101 92.8769C331.257 92.668 331.479 92.4824 331.767 92.32C332.059 92.1543 332.453 92.0715 332.95 92.0715C333.593 92.0715 334.16 92.2322 334.651 92.5537C335.141 92.8752 335.524 93.3309 335.799 93.9209C336.074 94.5108 336.212 95.2069 336.212 96.009C336.212 96.8177 336.074 97.5187 335.799 98.1119C335.524 98.7019 335.143 99.1593 334.656 99.4841C334.169 99.8056 333.607 99.9663 332.97 99.9663C332.48 99.9663 332.087 99.8851 331.792 99.7227C331.497 99.557 331.27 99.3698 331.111 99.1609C330.952 98.9488 330.829 98.7732 330.743 98.634H330.644V102.671H329.47ZM330.624 95.9891C330.624 96.5658 330.708 97.0745 330.877 97.5153C331.046 97.9528 331.293 98.2959 331.618 98.5445C331.943 98.7897 332.341 98.9124 332.811 98.9124C333.302 98.9124 333.711 98.7831 334.039 98.5246C334.371 98.2627 334.619 97.9114 334.785 97.4706C334.954 97.0265 335.039 96.5326 335.039 95.9891C335.039 95.4521 334.956 94.9682 334.79 94.5374C334.628 94.1032 334.381 93.7601 334.049 93.5082C333.721 93.253 333.308 93.1254 332.811 93.1254C332.334 93.1254 331.933 93.2464 331.608 93.4884C331.283 93.727 331.038 94.0617 330.872 94.4926C330.707 94.9202 330.624 95.419 330.624 95.9891Z"
        fill="#4F4C4C" />
    <line x1="286.311" y1="97.199" x2="257.311" y2="120.199" stroke="#D9D9D9" />
    <rect x="236" y="28" width="75" height="28" rx="5" fill="#D9D9D9" />
    <circle cx="242.5" cy="41.5" r="3.5" fill="#373737" />
    <path
        d="M254.676 37.9119V36.8182H262.312V37.9119H259.111V47H257.878V37.9119H254.676ZM263.263 47V39.3636H264.397V40.517H264.476C264.616 40.1392 264.867 39.8326 265.232 39.5973C265.597 39.362 266.008 39.2443 266.465 39.2443C266.551 39.2443 266.659 39.246 266.788 39.2493C266.917 39.2526 267.015 39.2576 267.081 39.2642V40.4574C267.042 40.4474 266.951 40.4325 266.808 40.4126C266.669 40.3894 266.521 40.3778 266.366 40.3778C265.994 40.3778 265.663 40.4557 265.371 40.6115C265.083 40.764 264.854 40.9761 264.685 41.2479C264.519 41.5163 264.437 41.8229 264.437 42.1676V47H263.263ZM270.719 47.179C270.236 47.179 269.796 47.0878 269.402 46.9055C269.008 46.7199 268.694 46.4531 268.462 46.1051C268.23 45.7538 268.114 45.3295 268.114 44.8324C268.114 44.3949 268.201 44.0402 268.373 43.7685C268.545 43.4934 268.776 43.2779 269.064 43.1222C269.352 42.9664 269.67 42.8504 270.018 42.7741C270.37 42.6946 270.723 42.6316 271.077 42.5852C271.541 42.5256 271.918 42.4808 272.206 42.451C272.498 42.4179 272.71 42.3632 272.842 42.2869C272.978 42.2107 273.046 42.0781 273.046 41.8892V41.8494C273.046 41.3589 272.912 40.9777 272.643 40.706C272.378 40.4342 271.976 40.2983 271.435 40.2983C270.875 40.2983 270.436 40.4209 270.118 40.6662C269.8 40.9115 269.576 41.1733 269.447 41.4517L268.333 41.054C268.532 40.59 268.797 40.2287 269.129 39.9702C269.463 39.7083 269.828 39.526 270.222 39.4233C270.62 39.3172 271.011 39.2642 271.396 39.2642C271.641 39.2642 271.923 39.294 272.241 39.3537C272.562 39.41 272.872 39.5277 273.17 39.7067C273.472 39.8857 273.722 40.1558 273.921 40.517C274.12 40.8783 274.219 41.3622 274.219 41.9688V47H273.046V45.9659H272.987C272.907 46.1316 272.774 46.3089 272.589 46.4979C272.403 46.6868 272.156 46.8475 271.848 46.9801C271.54 47.1127 271.164 47.179 270.719 47.179ZM270.898 46.125C271.362 46.125 271.754 46.0339 272.072 45.8516C272.393 45.6693 272.635 45.4339 272.798 45.1456C272.963 44.8572 273.046 44.554 273.046 44.2358V43.1619C272.996 43.2216 272.887 43.2763 272.718 43.326C272.552 43.3724 272.36 43.4138 272.141 43.4503C271.926 43.4834 271.715 43.5133 271.51 43.5398C271.308 43.563 271.144 43.5829 271.018 43.5994C270.713 43.6392 270.428 43.7038 270.163 43.7933C269.901 43.8795 269.689 44.0104 269.526 44.1861C269.367 44.3584 269.288 44.5937 269.288 44.892C269.288 45.2997 269.438 45.608 269.74 45.8168C270.045 46.0223 270.431 46.125 270.898 46.125ZM276.361 49.8636V39.3636H277.494V40.5767H277.634C277.72 40.4441 277.839 40.2751 277.992 40.0696C278.147 39.8608 278.369 39.6752 278.658 39.5128C278.95 39.3471 279.344 39.2642 279.841 39.2642C280.484 39.2642 281.051 39.425 281.541 39.7464C282.032 40.0679 282.415 40.5237 282.69 41.1136C282.965 41.7036 283.102 42.3996 283.102 43.2017C283.102 44.0104 282.965 44.7114 282.69 45.3047C282.415 45.8946 282.034 46.352 281.546 46.6768C281.059 46.9983 280.497 47.1591 279.861 47.1591C279.37 47.1591 278.978 47.0779 278.683 46.9155C278.388 46.7498 278.161 46.5625 278.002 46.3537C277.843 46.1416 277.72 45.9659 277.634 45.8267H277.534V49.8636H276.361ZM277.514 43.1818C277.514 43.7585 277.599 44.2673 277.768 44.7081C277.937 45.1456 278.184 45.4886 278.509 45.7372C278.834 45.9825 279.231 46.1051 279.702 46.1051C280.192 46.1051 280.602 45.9759 280.93 45.7173C281.261 45.4555 281.51 45.1042 281.676 44.6634C281.845 44.2192 281.929 43.7254 281.929 43.1818C281.929 42.6449 281.846 42.161 281.681 41.7301C281.518 41.2959 281.271 40.9529 280.94 40.701C280.612 40.4458 280.199 40.3182 279.702 40.3182C279.225 40.3182 278.824 40.4392 278.499 40.6811C278.174 40.9197 277.929 41.2545 277.763 41.6854C277.597 42.1129 277.514 42.6117 277.514 43.1818ZM290.301 41.0739L289.247 41.3722C289.181 41.1965 289.083 41.0258 288.954 40.8601C288.828 40.6911 288.656 40.5518 288.437 40.4425C288.218 40.3331 287.938 40.2784 287.597 40.2784C287.129 40.2784 286.74 40.3861 286.428 40.6016C286.12 40.8137 285.966 41.0838 285.966 41.4119C285.966 41.7036 286.072 41.9339 286.284 42.103C286.496 42.272 286.828 42.4129 287.279 42.5256L288.412 42.804C289.095 42.9697 289.604 43.2232 289.938 43.5646C290.273 43.9027 290.441 44.3385 290.441 44.8722C290.441 45.3097 290.315 45.7008 290.063 46.0455C289.814 46.3902 289.466 46.6619 289.019 46.8608C288.571 47.0597 288.051 47.1591 287.458 47.1591C286.679 47.1591 286.034 46.9901 285.524 46.652C285.013 46.3139 284.69 45.8201 284.554 45.1705L285.668 44.892C285.774 45.303 285.974 45.6113 286.269 45.8168C286.568 46.0223 286.957 46.125 287.438 46.125C287.985 46.125 288.419 46.009 288.74 45.777C289.065 45.5417 289.227 45.2599 289.227 44.9318C289.227 44.6667 289.135 44.4446 288.949 44.2656C288.763 44.0833 288.478 43.9474 288.094 43.858L286.821 43.5597C286.122 43.3939 285.608 43.1371 285.28 42.7891C284.955 42.4377 284.793 41.9986 284.793 41.4716C284.793 41.0407 284.914 40.6596 285.156 40.3281C285.401 39.9967 285.734 39.7365 286.155 39.5476C286.579 39.3587 287.06 39.2642 287.597 39.2642C288.352 39.2642 288.946 39.4299 289.377 39.7614C289.811 40.0928 290.119 40.5303 290.301 41.0739Z"
        fill="#4F4C4C" />
    <line x1="240.311" y1="44.3917" x2="211.311" y2="67.3917" stroke="#D9D9D9" />
    <rect x="294" y="130.807" width="75" height="28" rx="5" fill="#D9D9D9" />
    <circle cx="300.5" cy="144.307" r="3.5" fill="#373737" />
    <path
        d="M313.057 148.807V140.08H318.29V141.017H314.114V143.966H317.898V144.904H314.114V148.807H313.057ZM322.142 148.944C321.551 148.944 321.033 148.803 320.587 148.522C320.143 148.24 319.797 147.847 319.547 147.341C319.3 146.836 319.176 146.245 319.176 145.569C319.176 144.887 319.3 144.292 319.547 143.783C319.797 143.275 320.143 142.88 320.587 142.598C321.033 142.317 321.551 142.177 322.142 142.177C322.733 142.177 323.25 142.317 323.693 142.598C324.139 142.88 324.486 143.275 324.733 143.783C324.983 144.292 325.108 144.887 325.108 145.569C325.108 146.245 324.983 146.836 324.733 147.341C324.486 147.847 324.139 148.24 323.693 148.522C323.25 148.803 322.733 148.944 322.142 148.944ZM322.142 148.04C322.591 148.04 322.96 147.925 323.25 147.695C323.54 147.465 323.754 147.162 323.893 146.787C324.033 146.412 324.102 146.006 324.102 145.569C324.102 145.131 324.033 144.723 323.893 144.346C323.754 143.968 323.54 143.662 323.25 143.429C322.96 143.196 322.591 143.08 322.142 143.08C321.693 143.08 321.324 143.196 321.034 143.429C320.744 143.662 320.53 143.968 320.391 144.346C320.251 144.723 320.182 145.131 320.182 145.569C320.182 146.006 320.251 146.412 320.391 146.787C320.53 147.162 320.744 147.465 321.034 147.695C321.324 147.925 321.693 148.04 322.142 148.04ZM326.643 148.807V142.262H327.615V143.25H327.683C327.802 142.927 328.018 142.664 328.331 142.462C328.643 142.26 328.995 142.16 329.387 142.16C329.461 142.16 329.554 142.161 329.664 142.164C329.775 142.167 329.859 142.171 329.916 142.177V143.199C329.882 143.191 329.804 143.178 329.681 143.161C329.562 143.141 329.436 143.131 329.302 143.131C328.984 143.131 328.7 143.198 328.45 143.331C328.203 143.462 328.007 143.644 327.862 143.877C327.72 144.107 327.649 144.37 327.649 144.665V148.807H326.643ZM333.653 148.944C333.022 148.944 332.478 148.804 332.021 148.526C331.566 148.245 331.216 147.853 330.968 147.35C330.724 146.844 330.602 146.256 330.602 145.586C330.602 144.915 330.724 144.324 330.968 143.813C331.216 143.299 331.559 142.898 332 142.611C332.443 142.321 332.96 142.177 333.551 142.177C333.892 142.177 334.228 142.233 334.561 142.347C334.893 142.461 335.196 142.645 335.468 142.901C335.741 143.154 335.958 143.489 336.12 143.907C336.282 144.324 336.363 144.839 336.363 145.449V145.875H331.318V145.006H335.341C335.341 144.637 335.267 144.307 335.119 144.017C334.974 143.728 334.767 143.499 334.497 143.331C334.23 143.164 333.914 143.08 333.551 143.08C333.15 143.08 332.804 143.179 332.511 143.378C332.221 143.574 331.998 143.83 331.842 144.145C331.686 144.461 331.608 144.799 331.608 145.16V145.739C331.608 146.233 331.693 146.652 331.863 146.996C332.037 147.337 332.277 147.597 332.583 147.776C332.89 147.952 333.247 148.04 333.653 148.04C333.917 148.04 334.156 148.003 334.369 147.929C334.585 147.853 334.771 147.739 334.927 147.589C335.083 147.435 335.204 147.245 335.289 147.017L336.261 147.29C336.159 147.62 335.987 147.91 335.745 148.16C335.504 148.407 335.206 148.6 334.85 148.739C334.495 148.875 334.096 148.944 333.653 148.944ZM339.819 148.961C339.404 148.961 339.028 148.883 338.69 148.726C338.352 148.567 338.083 148.339 337.885 148.04C337.686 147.739 337.586 147.375 337.586 146.949C337.586 146.574 337.66 146.27 337.808 146.037C337.956 145.802 338.153 145.617 338.4 145.483C338.647 145.35 338.92 145.25 339.218 145.185C339.52 145.117 339.822 145.063 340.126 145.023C340.524 144.972 340.846 144.934 341.093 144.908C341.343 144.88 341.525 144.833 341.639 144.767C341.755 144.702 341.814 144.589 341.814 144.427V144.392C341.814 143.972 341.699 143.645 341.468 143.412C341.241 143.179 340.896 143.063 340.433 143.063C339.953 143.063 339.576 143.168 339.304 143.378C339.031 143.589 338.839 143.813 338.728 144.052L337.774 143.711C337.944 143.313 338.172 143.003 338.456 142.782C338.743 142.557 339.055 142.401 339.393 142.313C339.734 142.222 340.069 142.177 340.399 142.177C340.609 142.177 340.85 142.202 341.123 142.253C341.399 142.302 341.664 142.402 341.92 142.556C342.179 142.709 342.393 142.941 342.564 143.25C342.734 143.56 342.819 143.975 342.819 144.495V148.807H341.814V147.921H341.762C341.694 148.063 341.581 148.215 341.422 148.377C341.262 148.539 341.051 148.677 340.787 148.79C340.522 148.904 340.2 148.961 339.819 148.961ZM339.973 148.057C340.37 148.057 340.706 147.979 340.978 147.823C341.254 147.667 341.461 147.465 341.6 147.218C341.743 146.971 341.814 146.711 341.814 146.438V145.517C341.771 145.569 341.677 145.615 341.532 145.658C341.39 145.698 341.225 145.733 341.038 145.765C340.853 145.793 340.673 145.819 340.497 145.841C340.324 145.861 340.183 145.878 340.075 145.892C339.814 145.927 339.569 145.982 339.342 146.059C339.118 146.133 338.936 146.245 338.797 146.395C338.66 146.543 338.592 146.745 338.592 147C338.592 147.35 338.721 147.614 338.98 147.793C339.241 147.969 339.572 148.057 339.973 148.057ZM344.655 148.807V142.262H345.626V143.25H345.695C345.814 142.927 346.03 142.664 346.342 142.462C346.655 142.26 347.007 142.16 347.399 142.16C347.473 142.16 347.565 142.161 347.676 142.164C347.787 142.167 347.871 142.171 347.928 142.177V143.199C347.893 143.191 347.815 143.178 347.693 143.161C347.574 143.141 347.447 143.131 347.314 143.131C346.996 143.131 346.712 143.198 346.462 143.331C346.214 143.462 346.018 143.644 345.874 143.877C345.732 144.107 345.661 144.37 345.661 144.665V148.807H344.655ZM349.12 148.807V142.262H350.091V143.285H350.176C350.313 142.935 350.533 142.664 350.837 142.471C351.141 142.275 351.506 142.177 351.932 142.177C352.364 142.177 352.723 142.275 353.01 142.471C353.3 142.664 353.526 142.935 353.688 143.285H353.756C353.924 142.946 354.175 142.678 354.51 142.479C354.846 142.277 355.248 142.177 355.716 142.177C356.301 142.177 356.78 142.36 357.152 142.726C357.525 143.09 357.711 143.657 357.711 144.427V148.807H356.705V144.427C356.705 143.944 356.573 143.598 356.309 143.391C356.044 143.184 355.733 143.08 355.375 143.08C354.915 143.08 354.559 143.219 354.306 143.498C354.053 143.773 353.926 144.123 353.926 144.546V148.807H352.904V144.324C352.904 143.952 352.783 143.652 352.542 143.425C352.3 143.195 351.989 143.08 351.608 143.08C351.347 143.08 351.103 143.15 350.875 143.289C350.651 143.428 350.469 143.621 350.33 143.868C350.194 144.113 350.125 144.395 350.125 144.716V148.807H349.12ZM364.186 143.728L363.282 143.983C363.225 143.833 363.142 143.687 363.031 143.544C362.923 143.4 362.775 143.28 362.588 143.187C362.4 143.093 362.16 143.046 361.868 143.046C361.467 143.046 361.133 143.138 360.866 143.323C360.602 143.505 360.47 143.736 360.47 144.017C360.47 144.267 360.561 144.465 360.743 144.61C360.924 144.755 361.208 144.875 361.595 144.972L362.566 145.211C363.152 145.353 363.588 145.57 363.875 145.863C364.162 146.152 364.305 146.526 364.305 146.983C364.305 147.358 364.197 147.694 363.981 147.989C363.768 148.285 363.47 148.517 363.086 148.688C362.703 148.858 362.257 148.944 361.748 148.944C361.081 148.944 360.528 148.799 360.091 148.509C359.653 148.219 359.376 147.796 359.26 147.239L360.214 147C360.305 147.353 360.477 147.617 360.73 147.793C360.985 147.969 361.319 148.057 361.731 148.057C362.2 148.057 362.572 147.958 362.848 147.759C363.126 147.557 363.265 147.316 363.265 147.035C363.265 146.807 363.186 146.617 363.027 146.464C362.868 146.307 362.623 146.191 362.294 146.114L361.203 145.858C360.603 145.716 360.163 145.496 359.882 145.198C359.603 144.897 359.464 144.52 359.464 144.069C359.464 143.699 359.568 143.373 359.775 143.089C359.985 142.804 360.271 142.581 360.632 142.419C360.995 142.258 361.407 142.177 361.868 142.177C362.515 142.177 363.024 142.319 363.393 142.603C363.765 142.887 364.029 143.262 364.186 143.728Z"
        fill="#4F4C4C" />
    <line x1="298.311" y1="147.199" x2="269.311" y2="170.199" stroke="#D9D9D9" />
    <rect width="82" height="28" rx="5" transform="matrix(1 0 0 -1 49 278)" fill="#D9D9D9" />
    <circle cx="3.5" cy="3.5" r="3.5" transform="matrix(1 0 0 -1 119 268)" fill="#373737" />
    <path
        d="M57.4148 269L56.3068 269L59.5114 260.273L60.6023 260.273L63.8068 269L62.6989 269L60.0909 261.653L60.0227 261.653L57.4148 269ZM57.8239 265.591L62.2898 265.591L62.2898 266.528L57.8239 266.528L57.8239 265.591ZM67.5014 269.136C66.956 269.136 66.4744 268.999 66.0568 268.723C65.6392 268.445 65.3125 268.053 65.0767 267.547C64.8409 267.038 64.723 266.438 64.723 265.744C64.723 265.057 64.8409 264.46 65.0767 263.955C65.3125 263.449 65.6406 263.058 66.0611 262.783C66.4815 262.507 66.9673 262.369 67.5185 262.369C67.9446 262.369 68.2812 262.44 68.5284 262.582C68.7784 262.722 68.9687 262.881 69.0994 263.06C69.233 263.236 69.3366 263.381 69.4105 263.494L69.4957 263.494L69.4957 260.273L70.5014 260.273L70.5014 269L69.5298 269L69.5298 267.994L69.4105 267.994C69.3366 268.114 69.2315 268.264 69.0952 268.446C68.9588 268.625 68.7642 268.786 68.5114 268.928C68.2585 269.067 67.9219 269.136 67.5014 269.136ZM67.6378 268.233C68.0412 268.233 68.3821 268.128 68.6605 267.918C68.9389 267.705 69.1506 267.411 69.2955 267.036C69.4403 266.658 69.5128 266.222 69.5128 265.727C69.5128 265.239 69.4418 264.811 69.2997 264.445C69.1577 264.075 68.9474 263.788 68.669 263.584C68.3906 263.376 68.0469 263.273 67.6378 263.273C67.2116 263.273 66.8565 263.382 66.5724 263.601C66.2912 263.817 66.0795 264.111 65.9375 264.483C65.7983 264.852 65.7287 265.267 65.7287 265.727C65.7287 266.193 65.7997 266.617 65.9418 266.997C66.0866 267.375 66.2997 267.676 66.581 267.901C66.8651 268.122 67.2173 268.233 67.6378 268.233ZM74.9545 269.136C74.4091 269.136 73.9276 268.999 73.5099 268.723C73.0923 268.445 72.7656 268.053 72.5298 267.547C72.294 267.038 72.1761 266.438 72.1761 265.744C72.1761 265.057 72.294 264.46 72.5298 263.955C72.7656 263.449 73.0937 263.058 73.5142 262.783C73.9347 262.507 74.4205 262.369 74.9716 262.369C75.3977 262.369 75.7344 262.44 75.9815 262.582C76.2315 262.722 76.4219 262.881 76.5526 263.06C76.6861 263.236 76.7898 263.381 76.8636 263.494L76.9489 263.494L76.9489 260.273L77.9545 260.273L77.9545 269L76.983 269L76.983 267.994L76.8636 267.994C76.7898 268.114 76.6847 268.264 76.5483 268.446C76.4119 268.625 76.2173 268.786 75.9645 268.928C75.7116 269.067 75.375 269.136 74.9545 269.136ZM75.0909 268.233C75.4943 268.233 75.8352 268.128 76.1136 267.918C76.392 267.705 76.6037 267.411 76.7486 267.036C76.8935 266.658 76.9659 266.222 76.9659 265.727C76.9659 265.239 76.8949 264.811 76.7528 264.445C76.6108 264.075 76.4006 263.788 76.1222 263.584C75.8437 263.376 75.5 263.273 75.0909 263.273C74.6648 263.273 74.3097 263.382 74.0256 263.601C73.7443 263.817 73.5327 264.111 73.3906 264.483C73.2514 264.852 73.1818 265.267 73.1818 265.727C73.1818 266.193 73.2528 266.617 73.3949 266.997C73.5398 267.375 73.7528 267.676 74.0341 267.901C74.3182 268.122 74.6705 268.233 75.0909 268.233ZM84.0611 266.324L84.0611 262.455L85.0668 262.455L85.0668 269L84.0611 269L84.0611 267.892L83.9929 267.892C83.8395 268.224 83.6008 268.507 83.277 268.74C82.9531 268.97 82.544 269.085 82.0497 269.085C81.6406 269.085 81.277 268.996 80.9588 268.817C80.6406 268.635 80.3906 268.362 80.2088 267.999C80.027 267.632 79.9361 267.17 79.9361 266.614L79.9361 262.455L80.9418 262.455L80.9418 266.545C80.9418 267.023 81.0753 267.403 81.3423 267.688C81.6122 267.972 81.956 268.114 82.3736 268.114C82.6236 268.114 82.8778 268.05 83.1364 267.922C83.3977 267.794 83.6165 267.598 83.7926 267.334C83.9716 267.07 84.0611 266.733 84.0611 266.324ZM89.5678 269.136C88.9542 269.136 88.4258 268.992 87.9826 268.702C87.5394 268.412 87.1985 268.013 86.9599 267.504C86.7212 266.996 86.6019 266.415 86.6019 265.761C86.6019 265.097 86.7241 264.51 86.9684 264.001C87.2156 263.49 87.5593 263.091 87.9996 262.804C88.4428 262.514 88.9599 262.369 89.5508 262.369C90.011 262.369 90.4258 262.455 90.7951 262.625C91.1644 262.795 91.467 263.034 91.7028 263.341C91.9386 263.648 92.0849 264.006 92.1417 264.415L91.136 264.415C91.0593 264.117 90.8888 263.852 90.6246 263.622C90.3633 263.389 90.011 263.273 89.5678 263.273C89.1758 263.273 88.832 263.375 88.5366 263.58C88.244 263.781 88.0153 264.067 87.8505 264.436C87.6886 264.803 87.6076 265.233 87.6076 265.727C87.6076 266.233 87.6871 266.673 87.8462 267.048C88.0082 267.423 88.2354 267.715 88.5281 267.922C88.8235 268.129 89.1701 268.233 89.5678 268.233C89.8292 268.233 90.0664 268.188 90.2795 268.097C90.4925 268.006 90.6729 267.875 90.8207 267.705C90.9684 267.534 91.0735 267.33 91.136 267.091L92.1417 267.091C92.0849 267.477 91.9442 267.825 91.7198 268.135C91.4982 268.442 91.2042 268.686 90.8377 268.868C90.4741 269.047 90.0508 269.136 89.5678 269.136ZM96.4584 262.455L96.4584 263.307L93.0664 263.307L93.0664 262.455L96.4584 262.455ZM94.055 260.886L95.0607 260.886L95.0607 267.125C95.0607 267.409 95.1019 267.622 95.1843 267.764C95.2695 267.903 95.3775 267.997 95.5082 268.045C95.6417 268.091 95.7823 268.114 95.93 268.114C96.0408 268.114 96.1317 268.108 96.2028 268.097C96.2738 268.082 96.3306 268.071 96.3732 268.063L96.5778 268.966C96.5096 268.992 96.4144 269.017 96.2923 269.043C96.1701 269.071 96.0153 269.085 95.8278 269.085C95.5437 269.085 95.2653 269.024 94.9925 268.902C94.7227 268.78 94.4982 268.594 94.3192 268.344C94.1431 268.094 94.055 267.778 94.055 267.398L94.055 260.886ZM100.56 269.136C99.9691 269.136 99.4506 268.996 99.0046 268.715C98.5614 268.433 98.2148 268.04 97.9648 267.534C97.7177 267.028 97.5941 266.438 97.5941 265.761C97.5941 265.08 97.7177 264.484 97.9648 263.976C98.2148 263.467 98.5614 263.072 99.0046 262.791C99.4506 262.51 99.9691 262.369 100.56 262.369C101.151 262.369 101.668 262.51 102.111 262.791C102.557 263.072 102.904 263.467 103.151 263.976C103.401 264.484 103.526 265.08 103.526 265.761C103.526 266.438 103.401 267.028 103.151 267.534C102.904 268.04 102.557 268.433 102.111 268.715C101.668 268.996 101.151 269.136 100.56 269.136ZM100.56 268.233C101.009 268.233 101.378 268.118 101.668 267.888C101.958 267.658 102.172 267.355 102.311 266.98C102.451 266.605 102.52 266.199 102.52 265.761C102.52 265.324 102.451 264.916 102.311 264.538C102.172 264.161 101.958 263.855 101.668 263.622C101.378 263.389 101.009 263.273 100.56 263.273C100.111 263.273 99.7418 263.389 99.4521 263.622C99.1623 263.855 98.9478 264.161 98.8086 264.538C98.6694 264.916 98.5998 265.324 98.5998 265.761C98.5998 266.199 98.6694 266.605 98.8086 266.98C98.9478 267.355 99.1623 267.658 99.4521 267.888C99.7418 268.118 100.111 268.233 100.56 268.233ZM105.061 269L105.061 262.455L106.033 262.455L106.033 263.443L106.101 263.443C106.22 263.119 106.436 262.857 106.749 262.655C107.061 262.453 107.413 262.352 107.805 262.352C107.879 262.352 107.972 262.354 108.082 262.357C108.193 262.359 108.277 262.364 108.334 262.369L108.334 263.392C108.3 263.384 108.222 263.371 108.099 263.354C107.98 263.334 107.854 263.324 107.72 263.324C107.402 263.324 107.118 263.391 106.868 263.524C106.621 263.655 106.425 263.837 106.28 264.07C106.138 264.3 106.067 264.563 106.067 264.858L106.067 269L105.061 269ZM114.162 263.92L113.259 264.176C113.202 264.026 113.118 263.879 113.007 263.737C112.9 263.592 112.752 263.473 112.564 263.379C112.377 263.286 112.137 263.239 111.844 263.239C111.444 263.239 111.11 263.331 110.843 263.516C110.578 263.697 110.446 263.929 110.446 264.21C110.446 264.46 110.537 264.658 110.719 264.803C110.901 264.947 111.185 265.068 111.571 265.165L112.543 265.403C113.128 265.545 113.564 265.763 113.851 266.055C114.138 266.345 114.282 266.719 114.282 267.176C114.282 267.551 114.174 267.886 113.958 268.182C113.745 268.477 113.446 268.71 113.063 268.881C112.679 269.051 112.233 269.136 111.725 269.136C111.057 269.136 110.505 268.992 110.067 268.702C109.63 268.412 109.353 267.989 109.236 267.432L110.191 267.193C110.282 267.545 110.453 267.81 110.706 267.986C110.962 268.162 111.296 268.25 111.708 268.25C112.176 268.25 112.549 268.151 112.824 267.952C113.103 267.75 113.242 267.509 113.242 267.227C113.242 267 113.162 266.81 113.003 266.656C112.844 266.5 112.6 266.384 112.27 266.307L111.179 266.051C110.58 265.909 110.14 265.689 109.858 265.391C109.58 265.09 109.441 264.713 109.441 264.261C109.441 263.892 109.544 263.565 109.752 263.281C109.962 262.997 110.248 262.774 110.608 262.612C110.972 262.45 111.384 262.369 111.844 262.369C112.492 262.369 113 262.511 113.37 262.795C113.742 263.08 114.006 263.455 114.162 263.92Z"
        fill="#4F4C4C" />
    <line x1="170.321" y1="229.383" x2="127.321" y2="265.383" stroke="#D9D9D9" />
    <line x1="271.626" y1="265.445" x2="228.678" y2="229.383" stroke="#D9D9D9" />
    <g filter="url(#filter0_d_13_410)">
        <rect x="264" y="250" width="75" height="28" rx="5" fill="#D9D9D9" />
        <circle cx="270.5" cy="263.5" r="3.5" fill="#373737" />
        <path
            d="M286.227 265.273H287.386L288.358 266.551L288.614 266.892L290.062 268.818H288.903L287.949 267.54L287.71 267.216L286.227 265.273ZM290.42 263.636C290.42 264.557 290.254 265.352 289.922 266.023C289.589 266.693 289.134 267.21 288.554 267.574C287.974 267.938 287.313 268.119 286.568 268.119C285.824 268.119 285.162 267.938 284.582 267.574C284.003 267.21 283.547 266.693 283.214 266.023C282.882 265.352 282.716 264.557 282.716 263.636C282.716 262.716 282.882 261.92 283.214 261.25C283.547 260.58 284.003 260.062 284.582 259.699C285.162 259.335 285.824 259.153 286.568 259.153C287.313 259.153 287.974 259.335 288.554 259.699C289.134 260.062 289.589 260.58 289.922 261.25C290.254 261.92 290.42 262.716 290.42 263.636ZM289.398 263.636C289.398 262.881 289.271 262.243 289.018 261.723C288.768 261.203 288.429 260.81 288 260.543C287.574 260.276 287.097 260.142 286.568 260.142C286.04 260.142 285.561 260.276 285.132 260.543C284.706 260.81 284.366 261.203 284.114 261.723C283.864 262.243 283.739 262.881 283.739 263.636C283.739 264.392 283.864 265.03 284.114 265.55C284.366 266.07 284.706 266.463 285.132 266.73C285.561 266.997 286.04 267.131 286.568 267.131C287.097 267.131 287.574 266.997 288 266.73C288.429 266.463 288.768 266.07 289.018 265.55C289.271 265.03 289.398 264.392 289.398 263.636ZM296.186 265.324V261.455H297.192V268H296.186V266.892H296.118C295.964 267.224 295.726 267.507 295.402 267.74C295.078 267.97 294.669 268.085 294.175 268.085C293.766 268.085 293.402 267.996 293.084 267.817C292.766 267.635 292.516 267.362 292.334 266.999C292.152 266.632 292.061 266.17 292.061 265.614V261.455H293.067V265.545C293.067 266.023 293.2 266.403 293.467 266.688C293.737 266.972 294.081 267.114 294.499 267.114C294.749 267.114 295.003 267.05 295.261 266.922C295.523 266.794 295.741 266.598 295.918 266.334C296.097 266.07 296.186 265.733 296.186 265.324ZM300.96 268.153C300.545 268.153 300.169 268.075 299.831 267.919C299.493 267.76 299.224 267.531 299.025 267.233C298.826 266.932 298.727 266.568 298.727 266.142C298.727 265.767 298.801 265.463 298.949 265.23C299.096 264.994 299.294 264.81 299.541 264.676C299.788 264.543 300.061 264.443 300.359 264.378C300.66 264.31 300.963 264.256 301.267 264.216C301.664 264.165 301.987 264.126 302.234 264.101C302.484 264.072 302.666 264.026 302.779 263.96C302.896 263.895 302.954 263.781 302.954 263.619V263.585C302.954 263.165 302.839 262.838 302.609 262.605C302.382 262.372 302.037 262.256 301.574 262.256C301.093 262.256 300.717 262.361 300.444 262.571C300.172 262.781 299.98 263.006 299.869 263.244L298.914 262.903C299.085 262.506 299.312 262.196 299.596 261.974C299.883 261.75 300.196 261.594 300.534 261.506C300.875 261.415 301.21 261.369 301.539 261.369C301.75 261.369 301.991 261.395 302.264 261.446C302.539 261.494 302.805 261.595 303.061 261.749C303.319 261.902 303.534 262.134 303.704 262.443C303.875 262.753 303.96 263.168 303.96 263.688V268H302.954V267.114H302.903C302.835 267.256 302.721 267.408 302.562 267.57C302.403 267.732 302.191 267.869 301.927 267.983C301.663 268.097 301.341 268.153 300.96 268.153ZM301.113 267.25C301.511 267.25 301.846 267.172 302.119 267.016C302.395 266.859 302.602 266.658 302.741 266.411C302.883 266.163 302.954 265.903 302.954 265.631V264.71C302.912 264.761 302.818 264.808 302.673 264.851C302.531 264.891 302.366 264.926 302.179 264.957C301.994 264.986 301.814 265.011 301.637 265.034C301.464 265.054 301.324 265.071 301.216 265.085C300.954 265.119 300.71 265.175 300.483 265.251C300.258 265.325 300.076 265.437 299.937 265.588C299.801 265.736 299.733 265.937 299.733 266.193C299.733 266.543 299.862 266.807 300.12 266.986C300.382 267.162 300.713 267.25 301.113 267.25ZM308.267 268.136C307.722 268.136 307.24 267.999 306.822 267.723C306.405 267.445 306.078 267.053 305.842 266.547C305.607 266.038 305.489 265.438 305.489 264.744C305.489 264.057 305.607 263.46 305.842 262.955C306.078 262.449 306.406 262.058 306.827 261.783C307.247 261.507 307.733 261.369 308.284 261.369C308.71 261.369 309.047 261.44 309.294 261.582C309.544 261.722 309.734 261.881 309.865 262.06C309.999 262.236 310.102 262.381 310.176 262.494H310.261V259.273H311.267V268H310.295V266.994H310.176C310.102 267.114 309.997 267.264 309.861 267.446C309.724 267.625 309.53 267.786 309.277 267.928C309.024 268.067 308.688 268.136 308.267 268.136ZM308.403 267.233C308.807 267.233 309.148 267.128 309.426 266.918C309.705 266.705 309.916 266.411 310.061 266.036C310.206 265.658 310.278 265.222 310.278 264.727C310.278 264.239 310.207 263.811 310.065 263.445C309.923 263.075 309.713 262.788 309.435 262.584C309.156 262.376 308.813 262.273 308.403 262.273C307.977 262.273 307.622 262.382 307.338 262.601C307.057 262.817 306.845 263.111 306.703 263.483C306.564 263.852 306.494 264.267 306.494 264.727C306.494 265.193 306.565 265.616 306.707 265.997C306.852 266.375 307.065 266.676 307.347 266.901C307.631 267.122 307.983 267.233 308.403 267.233ZM317.885 262.92L316.982 263.176C316.925 263.026 316.841 262.879 316.73 262.737C316.622 262.592 316.474 262.473 316.287 262.379C316.099 262.286 315.859 262.239 315.567 262.239C315.166 262.239 314.832 262.331 314.565 262.516C314.301 262.697 314.169 262.929 314.169 263.21C314.169 263.46 314.26 263.658 314.442 263.803C314.624 263.947 314.908 264.068 315.294 264.165L316.266 264.403C316.851 264.545 317.287 264.763 317.574 265.055C317.861 265.345 318.004 265.719 318.004 266.176C318.004 266.551 317.896 266.886 317.68 267.182C317.467 267.477 317.169 267.71 316.786 267.881C316.402 268.051 315.956 268.136 315.447 268.136C314.78 268.136 314.227 267.991 313.79 267.702C313.352 267.412 313.075 266.989 312.959 266.432L313.913 266.193C314.004 266.545 314.176 266.81 314.429 266.986C314.685 267.162 315.018 267.25 315.43 267.25C315.899 267.25 316.271 267.151 316.547 266.952C316.825 266.75 316.964 266.509 316.964 266.227C316.964 266 316.885 265.81 316.726 265.656C316.567 265.5 316.322 265.384 315.993 265.307L314.902 265.051C314.303 264.909 313.862 264.689 313.581 264.391C313.303 264.089 313.163 263.713 313.163 263.261C313.163 262.892 313.267 262.565 313.474 262.281C313.685 261.997 313.97 261.774 314.331 261.612C314.695 261.45 315.107 261.369 315.567 261.369C316.214 261.369 316.723 261.511 317.092 261.795C317.464 262.08 317.729 262.455 317.885 262.92Z"
            fill="#4F4C4C" />
    </g>
    <g filter="url(#filter1_d_13_410)">
        <rect x="254" y="314" width="75" height="28" rx="5" fill="#D9D9D9" />
        <circle cx="260.5" cy="327.5" r="3.5" fill="#373737" />
        <path
            d="M272.58 324.21V323.273H279.125V324.21H276.381V332H275.324V324.21H272.58ZM281.353 332L279.358 325.455H280.415L281.83 330.466H281.898L283.296 325.455H284.37L285.75 330.449H285.819L287.233 325.455H288.29L286.296 332H285.307L283.875 326.972H283.773L282.341 332H281.353ZM289.62 332V325.455H290.625V332H289.62ZM290.131 324.364C289.935 324.364 289.766 324.297 289.624 324.163C289.485 324.03 289.415 323.869 289.415 323.682C289.415 323.494 289.485 323.334 289.624 323.2C289.766 323.067 289.935 323 290.131 323C290.327 323 290.495 323.067 290.634 323.2C290.776 323.334 290.847 323.494 290.847 323.682C290.847 323.869 290.776 324.03 290.634 324.163C290.495 324.297 290.327 324.364 290.131 324.364ZM293.473 328.062V332H292.467V325.455H293.439V326.477H293.524C293.678 326.145 293.911 325.878 294.223 325.676C294.536 325.472 294.939 325.369 295.433 325.369C295.876 325.369 296.264 325.46 296.597 325.642C296.929 325.821 297.188 326.094 297.372 326.46C297.557 326.824 297.649 327.284 297.649 327.841V332H296.643V327.909C296.643 327.395 296.51 326.994 296.243 326.707C295.976 326.418 295.609 326.273 295.143 326.273C294.822 326.273 294.536 326.342 294.283 326.482C294.033 326.621 293.835 326.824 293.69 327.091C293.545 327.358 293.473 327.682 293.473 328.062ZM304.123 326.92L303.22 327.176C303.163 327.026 303.079 326.879 302.968 326.737C302.86 326.592 302.713 326.473 302.525 326.379C302.338 326.286 302.098 326.239 301.805 326.239C301.404 326.239 301.071 326.331 300.804 326.516C300.539 326.697 300.407 326.929 300.407 327.21C300.407 327.46 300.498 327.658 300.68 327.803C300.862 327.947 301.146 328.068 301.532 328.165L302.504 328.403C303.089 328.545 303.525 328.763 303.812 329.055C304.099 329.345 304.243 329.719 304.243 330.176C304.243 330.551 304.135 330.886 303.919 331.182C303.706 331.477 303.407 331.71 303.024 331.881C302.64 332.051 302.194 332.136 301.686 332.136C301.018 332.136 300.466 331.991 300.028 331.702C299.591 331.412 299.314 330.989 299.197 330.432L300.152 330.193C300.243 330.545 300.414 330.81 300.667 330.986C300.923 331.162 301.257 331.25 301.669 331.25C302.137 331.25 302.51 331.151 302.785 330.952C303.064 330.75 303.203 330.509 303.203 330.227C303.203 330 303.123 329.81 302.964 329.656C302.805 329.5 302.561 329.384 302.231 329.307L301.14 329.051C300.541 328.909 300.1 328.689 299.819 328.391C299.541 328.089 299.402 327.713 299.402 327.261C299.402 326.892 299.505 326.565 299.713 326.281C299.923 325.997 300.208 325.774 300.569 325.612C300.933 325.45 301.345 325.369 301.805 325.369C302.453 325.369 302.961 325.511 303.331 325.795C303.703 326.08 303.967 326.455 304.123 326.92Z"
            fill="#4F4C4C" />
        <line x1="258.311" y1="330.392" x2="229.311" y2="353.392" stroke="#D9D9D9" />
    </g>
    <rect x="25" y="51.8073" width="75" height="28" rx="5" fill="#D9D9D9" />
    <circle cx="91.5" cy="65.3073" r="3.5" fill="#373737" />
    <path
        d="M34.8295 63.2618C34.7784 62.83 34.571 62.4948 34.2074 62.2561C33.8438 62.0175 33.3977 61.8982 32.8693 61.8982C32.483 61.8982 32.1449 61.9607 31.8551 62.0857C31.5682 62.2107 31.3438 62.3825 31.1818 62.6013C31.0227 62.82 30.9432 63.0686 30.9432 63.347C30.9432 63.58 30.9986 63.7803 31.1094 63.9479C31.223 64.1126 31.3679 64.2504 31.544 64.3612C31.7202 64.4692 31.9048 64.5587 32.098 64.6297C32.2912 64.6979 32.4688 64.7533 32.6307 64.7959L33.517 65.0345C33.7443 65.0942 33.9972 65.1766 34.2756 65.2817C34.5568 65.3868 34.8253 65.5303 35.081 65.7121C35.3395 65.8911 35.5526 66.1212 35.7202 66.4024C35.8878 66.6837 35.9716 67.0288 35.9716 67.4379C35.9716 67.9095 35.848 68.3357 35.6009 68.7163C35.3565 69.097 34.9986 69.3996 34.527 69.624C34.0582 69.8484 33.4886 69.9607 32.8182 69.9607C32.1932 69.9607 31.652 69.8598 31.1946 69.6581C30.7401 69.4564 30.3821 69.1751 30.1207 68.8144C29.8622 68.4536 29.7159 68.0345 29.6818 67.5573H30.7727C30.8011 67.8868 30.9119 68.1595 31.1051 68.3754C31.3011 68.5885 31.5483 68.7476 31.8466 68.8527C32.1477 68.955 32.4716 69.0061 32.8182 69.0061C33.2216 69.0061 33.5838 68.9408 33.9048 68.8101C34.2259 68.6766 34.4801 68.4919 34.6676 68.2561C34.8551 68.0175 34.9489 67.7391 34.9489 67.4209C34.9489 67.1311 34.8679 66.8953 34.706 66.7135C34.544 66.5317 34.331 66.384 34.0668 66.2703C33.8026 66.1567 33.517 66.0573 33.2102 65.972L32.1364 65.6652C31.4545 65.4692 30.9148 65.1894 30.517 64.8257C30.1193 64.4621 29.9205 63.9862 29.9205 63.3982C29.9205 62.9095 30.0526 62.4834 30.3168 62.1198C30.5838 61.7533 30.9418 61.4692 31.3906 61.2675C31.8423 61.0629 32.3466 60.9607 32.9034 60.9607C33.4659 60.9607 33.9659 61.0615 34.4034 61.2632C34.8409 61.4621 35.1875 61.7348 35.4432 62.0814C35.7017 62.428 35.8381 62.8215 35.8523 63.2618H34.8295ZM38.5785 65.8698V69.8073H37.5728V61.08H38.5785V64.2845H38.6637C38.8171 63.9465 39.0472 63.678 39.354 63.4791C39.6637 63.2774 40.0756 63.1766 40.5898 63.1766C41.0359 63.1766 41.4265 63.2661 41.7617 63.445C42.0969 63.6212 42.3569 63.8925 42.5415 64.259C42.729 64.6226 42.8228 65.0857 42.8228 65.6482V69.8073H41.8171V65.7163C41.8171 65.1965 41.6822 64.7945 41.4123 64.5104C41.1452 64.2234 40.7745 64.08 40.3001 64.08C39.9705 64.08 39.6751 64.1496 39.4137 64.2888C39.1552 64.428 38.9506 64.6311 38.8001 64.8982C38.6523 65.1652 38.5785 65.4891 38.5785 65.8698ZM47.3217 69.9436C46.7308 69.9436 46.2124 69.803 45.7663 69.5217C45.3232 69.2405 44.9766 68.847 44.7266 68.3413C44.4794 67.8357 44.3558 67.2448 44.3558 66.5686C44.3558 65.8868 44.4794 65.2916 44.7266 64.7831C44.9766 64.2746 45.3232 63.8797 45.7663 63.5984C46.2124 63.3172 46.7308 63.1766 47.3217 63.1766C47.9126 63.1766 48.4297 63.3172 48.8729 63.5984C49.3189 63.8797 49.6655 64.2746 49.9126 64.7831C50.1626 65.2916 50.2876 65.8868 50.2876 66.5686C50.2876 67.2448 50.1626 67.8357 49.9126 68.3413C49.6655 68.847 49.3189 69.2405 48.8729 69.5217C48.4297 69.803 47.9126 69.9436 47.3217 69.9436ZM47.3217 69.0402C47.7706 69.0402 48.1399 68.9251 48.4297 68.695C48.7195 68.4649 48.9339 68.1624 49.0732 67.7874C49.2124 67.4124 49.282 67.0061 49.282 66.5686C49.282 66.1311 49.2124 65.7234 49.0732 65.3456C48.9339 64.9678 48.7195 64.6624 48.4297 64.4294C48.1399 64.1965 47.7706 64.08 47.3217 64.08C46.8729 64.08 46.5036 64.1965 46.2138 64.4294C45.924 64.6624 45.7095 64.9678 45.5703 65.3456C45.4311 65.7234 45.3615 66.1311 45.3615 66.5686C45.3615 67.0061 45.4311 67.4124 45.5703 67.7874C45.7095 68.1624 45.924 68.4649 46.2138 68.695C46.5036 68.9251 46.8729 69.0402 47.3217 69.0402ZM55.9478 67.1311V63.2618H56.9535V69.8073H55.9478V68.6993H55.8796C55.7262 69.0317 55.4876 69.3144 55.1637 69.5473C54.8398 69.7774 54.4308 69.8925 53.9364 69.8925C53.5273 69.8925 53.1637 69.803 52.8455 69.624C52.5273 69.4422 52.2773 69.1695 52.0955 68.8058C51.9137 68.4394 51.8228 67.9777 51.8228 67.4209V63.2618H52.8285V67.3527C52.8285 67.83 52.962 68.2107 53.229 68.4948C53.4989 68.7788 53.8427 68.9209 54.2603 68.9209C54.5103 68.9209 54.7646 68.857 55.0231 68.7291C55.2844 68.6013 55.5032 68.4053 55.6793 68.1411C55.8583 67.8769 55.9478 67.5402 55.9478 67.1311ZM59.8011 61.08V69.8073H58.7955V61.08H59.8011ZM64.1147 69.9436C63.5692 69.9436 63.0877 69.8058 62.6701 69.5303C62.2525 69.2519 61.9258 68.8598 61.69 68.3541C61.4542 67.8456 61.3363 67.2448 61.3363 66.5516C61.3363 65.8641 61.4542 65.2675 61.69 64.7618C61.9258 64.2561 62.2539 63.8655 62.6744 63.5899C63.0948 63.3144 63.5806 63.1766 64.1317 63.1766C64.5579 63.1766 64.8945 63.2476 65.1417 63.3896C65.3917 63.5288 65.582 63.6879 65.7127 63.8669C65.8462 64.043 65.9499 64.1879 66.0238 64.3016H66.109V61.08H67.1147V69.8073H66.1431V68.8016H66.0238C65.9499 68.9209 65.8448 69.0715 65.7085 69.2533C65.5721 69.4323 65.3775 69.5928 65.1246 69.7348C64.8718 69.874 64.5352 69.9436 64.1147 69.9436ZM64.2511 69.0402C64.6545 69.0402 64.9954 68.9351 65.2738 68.7249C65.5522 68.5118 65.7638 68.2178 65.9087 67.8428C66.0536 67.4649 66.1261 67.0288 66.1261 66.5345C66.1261 66.0459 66.055 65.6183 65.913 65.2519C65.771 64.8825 65.5607 64.5956 65.2823 64.3911C65.0039 64.1837 64.6602 64.08 64.2511 64.08C63.8249 64.08 63.4698 64.1894 63.1857 64.4081C62.9045 64.624 62.6928 64.918 62.5508 65.2902C62.4116 65.6595 62.342 66.0743 62.342 66.5345C62.342 67.0004 62.413 67.4237 62.555 67.8044C62.6999 68.1823 62.913 68.4834 63.1942 68.7078C63.4783 68.9294 63.8306 69.0402 64.2511 69.0402ZM71.8406 69.9436C71.2099 69.9436 70.6658 69.8044 70.2085 69.526C69.7539 69.2448 69.4031 68.8527 69.1559 68.3499C68.9116 67.8442 68.7894 67.2561 68.7894 66.5857C68.7894 65.9152 68.9116 65.3243 69.1559 64.8129C69.4031 64.2987 69.7468 63.8982 70.1871 63.6112C70.6303 63.3215 71.1474 63.1766 71.7383 63.1766C72.0792 63.1766 72.4158 63.2334 72.7482 63.347C73.0806 63.4607 73.3832 63.6453 73.6559 63.901C73.9286 64.1538 74.146 64.4891 74.3079 64.9067C74.4698 65.3243 74.5508 65.8385 74.5508 66.4493V66.8754H69.5053V66.0061H73.5281C73.5281 65.6368 73.4542 65.3073 73.3065 65.0175C73.1616 64.7277 72.9542 64.499 72.6843 64.3314C72.4173 64.1638 72.1019 64.08 71.7383 64.08C71.3377 64.08 70.9911 64.1794 70.6985 64.3783C70.4087 64.5743 70.1857 64.83 70.0295 65.1453C69.8732 65.4607 69.7951 65.7987 69.7951 66.1595V66.7391C69.7951 67.2334 69.8803 67.6524 70.0508 67.9962C70.2241 68.3371 70.4641 68.597 70.771 68.776C71.0778 68.9521 71.4343 69.0402 71.8406 69.0402C72.1048 69.0402 72.3434 69.0033 72.5565 68.9294C72.7724 68.8527 72.9585 68.7391 73.1147 68.5885C73.271 68.4351 73.3917 68.2448 73.4769 68.0175L74.4485 68.2902C74.3462 68.6198 74.1744 68.9095 73.9329 69.1595C73.6914 69.4067 73.3931 69.5999 73.038 69.7391C72.6829 69.8754 72.2837 69.9436 71.8406 69.9436ZM76.0806 69.8073V63.2618H77.0522V64.2504H77.1204C77.2397 63.9266 77.4556 63.6638 77.7681 63.4621C78.0806 63.2604 78.4329 63.1595 78.8249 63.1595C78.8988 63.1595 78.9911 63.1609 79.1019 63.1638C79.2127 63.1666 79.2965 63.1709 79.3533 63.1766V64.1993C79.3192 64.1908 79.2411 64.178 79.119 64.1609C78.9996 64.1411 78.8732 64.1311 78.7397 64.1311C78.4215 64.1311 78.1374 64.1979 77.8874 64.3314C77.6403 64.4621 77.4442 64.6439 77.2994 64.8769C77.1573 65.107 77.0863 65.3698 77.0863 65.6652V69.8073H76.0806Z"
        fill="#4F4C4C" />
    <line x1="127.805" y1="83.747" x2="95.75" y2="65.2402" stroke="#D9D9D9" />
    <defs>
        <filter id="filter0_d_13_410" x="235" y="250" width="108" height="47"
            filterUnits="userSpaceOnUse" color-interpolation-filters="sRGB">
            <feFlood flood-opacity="0" result="BackgroundImageFix" />
            <feColorMatrix in="SourceAlpha" type="matrix"
                values="0 0 0 0 0 0 0 0 0 0 0 0 0 0 0 0 0 0 127 0" result="hardAlpha" />
            <feOffset dy="4" />
            <feGaussianBlur stdDeviation="2" />
            <feComposite in2="hardAlpha" operator="out" />
            <feColorMatrix type="matrix" values="0 0 0 0 0 0 0 0 0 0 0 0 0 0 0 0 0 0 0.25 0" />
            <feBlend mode="normal" in2="BackgroundImageFix" result="effect1_dropShadow_13_410" />
            <feBlend mode="normal" in="SourceGraphic" in2="effect1_dropShadow_13_410" result="shape" />
        </filter>
        <filter id="filter1_d_13_410" x="225" y="314" width="108" height="47.7835"
            filterUnits="userSpaceOnUse" color-interpolation-filters="sRGB">
            <feFlood flood-opacity="0" result="BackgroundImageFix" />
            <feColorMatrix in="SourceAlpha" type="matrix"
                values="0 0 0 0 0 0 0 0 0 0 0 0 0 0 0 0 0 0 127 0" result="hardAlpha" />
            <feOffset dy="4" />
            <feGaussianBlur stdDeviation="2" />
            <feComposite in2="hardAlpha" operator="out" />
            <feColorMatrix type="matrix" values="0 0 0 0 0 0 0 0 0 0 0 0 0 0 0 0 0 0 0.25 0" />
            <feBlend mode="normal" in2="BackgroundImageFix" result="effect1_dropShadow_13_410" />
            <feBlend mode="normal" in="SourceGraphic" in2="effect1_dropShadow_13_410" result="shape" />
        </filter>
    </defs>
</svg>