<svg width="140" height="279" viewBox="0 0 140 279" fill="none" xmlns="http://www.w3.org/2000/svg">
    <path
        d="M98.7665 277.938C96.2434 277.938 93.9664 277.077 91.6894 275.231C91.5048 275.108 91.3202 274.923 91.1355 274.8C90.274 274.061 89.597 273.508 88.6739 273.138C88.4278 273.077 88.1816 272.954 87.9354 272.892C86.4585 272.4 84.243 271.6 83.6276 269.2L82.7661 265.63V265.569C82.7045 265.323 82.5815 265.015 82.5815 264.646C82.4584 263.169 82.3353 261.753 82.2738 260.276L82.2122 259.169C82.2122 258.861 82.2122 258.615 82.2122 258.369L81.9045 256.399C81.9045 256.276 81.843 256.215 81.843 256.153C81.7814 255.846 81.6584 255.476 81.7814 254.922C81.9045 254.307 81.9661 253.753 82.0276 253.138C82.2738 251.538 82.4584 249.938 83.0122 248.338C83.6276 246.307 83.7507 243.107 83.3199 240.83C82.7045 237.814 81.9661 235.66 81.166 233.445C80.366 231.23 79.566 228.953 78.8891 225.752C78.2121 222.491 78.1506 218.429 78.766 215.537C79.1352 213.814 79.3814 212.275 79.6891 210.614C79.8122 209.752 79.9968 208.952 80.1199 208.029C80.1199 207.844 80.1199 207.537 80.1199 207.106C80.2429 203.475 80.3045 203.106 80.4276 202.736H80.366L79.8122 201.444C77.289 195.475 75.8121 189.013 75.5044 182.244C75.2582 177.628 75.5044 173.197 76.1813 168.889L76.1198 168.828C75.6274 168.397 75.3197 167.843 75.1967 167.228C75.0736 166.489 74.7659 165.32 74.5197 164.212C74.1505 162.797 73.8428 161.382 73.6582 160.397C72.4889 154.92 72.3043 153.566 71.812 149.566L71.6273 148.274L71.5658 147.597C71.0735 143.227 70.9504 142.181 70.9504 139.412V139.104C70.9504 137.935 71.0735 136.766 71.3812 135.35C71.3812 135.35 69.0427 135.412 68.4272 135.412C68.7349 136.396 68.7349 137.566 68.7349 139.166V139.473C68.7349 142.243 68.6119 143.289 68.1195 147.658L68.058 148.274L67.8734 149.566C67.3811 153.566 67.1964 154.92 66.0272 160.397C65.9041 161.443 65.5349 162.859 65.1656 164.212C64.9195 165.32 64.6118 166.489 64.4887 167.228C64.3656 167.905 64.0579 168.397 63.5656 168.828L63.504 168.889C64.181 173.197 64.3656 177.628 64.181 182.244C63.8733 189.013 62.3963 195.475 59.8732 201.444L59.3193 202.736H59.1962C59.3809 203.106 59.3809 203.475 59.5039 207.106C59.5039 207.537 59.5039 207.844 59.5039 208.029C59.6886 208.952 59.8116 209.752 59.9347 210.614C60.2424 212.275 60.4886 213.814 60.8578 215.537C61.4732 218.429 61.4117 222.429 60.7347 225.752C60.0578 228.953 59.2578 231.23 58.4578 233.445C57.6577 235.66 56.9193 237.814 56.3039 240.83C55.8115 243.168 55.9346 246.307 56.6116 248.338C57.1039 249.938 57.35 251.599 57.5962 253.138C57.6577 253.753 57.7808 254.307 57.8424 254.922C57.9039 255.415 57.8424 255.846 57.7808 256.153C57.7808 256.215 57.7193 256.338 57.7193 256.399L57.4116 258.43C57.4116 258.676 57.4116 258.984 57.4116 259.23L57.35 260.338C57.227 261.815 57.1654 263.23 57.0423 264.707C57.0423 265.077 56.9193 265.384 56.8577 265.63V265.692L55.9962 269.261C55.3808 271.723 53.1653 272.461 51.6883 272.954C51.4422 273.015 51.196 273.138 50.9499 273.2C50.0268 273.569 49.3498 274.123 48.4883 274.861C48.3036 274.985 48.119 275.169 47.9344 275.292C45.719 277.077 43.3804 278 40.8573 278C38.088 278 35.3802 276.892 32.6725 275.723C31.8109 275.354 31.257 274.677 31.0724 273.815C30.7032 272.277 31.7494 270.677 32.5494 269.631C33.9648 267.846 36.1187 265.938 36.7341 265.569C39.3188 263.969 40.9804 262.492 42.9497 259.846L43.0112 259.784L44.5497 258.184L45.5959 251.784C45.6574 250.799 45.7805 249.815 45.9036 248.892L45.9651 248.215C46.0267 247.722 46.2728 247.168 46.7036 246.799C45.9036 245.261 45.1651 243.661 44.7959 242.491C43.0727 237.26 42.5804 234.245 41.9035 229.63C41.7804 228.768 41.5958 227.783 41.4727 226.737C40.6727 221.875 40.9804 215.721 41.4727 211.598C42.0266 206.86 43.3189 202.367 45.3497 198.306V195.844C45.3497 195.044 45.3497 194.306 45.3497 193.567C45.3497 191.905 45.3497 190.367 45.2882 188.828C45.2266 186.982 45.1651 185.136 45.1036 183.351L39.8111 165.751C39.6265 164.459 39.4419 163.289 39.2573 162.243C38.7649 159.351 38.4572 157.074 38.2726 153.812C38.1495 151.227 38.5188 148.212 38.9496 145.258C39.1342 143.72 39.3803 142.243 39.4419 140.827C39.9342 134.796 41.9035 128.15 43.5651 122.242L43.8728 121.134C44.1805 119.965 44.7959 118.488 45.1036 117.503C45.2882 116.95 46.519 113.873 46.519 113.873C46.0267 111.842 45.9036 109.626 46.2728 106.98C46.4574 105.503 46.7651 104.088 47.0728 102.672C47.1959 102.242 47.2575 101.811 47.319 101.38C47.3805 100.949 47.5652 100.642 47.6882 100.334C47.7498 100.272 47.7498 100.149 47.8113 100.088L47.8729 99.903L47.319 99.2261C46.3344 98.0568 45.842 96.5799 45.842 94.8567V94.7952L45.4113 90.3028C45.3497 89.7489 45.2882 89.1951 45.2266 88.5797C45.1036 87.2258 44.9189 85.8719 44.8574 84.7642C44.7959 84.0872 44.7959 83.4718 44.7959 82.7949C44.3035 84.2103 43.6881 85.5642 42.7035 87.595C42.3958 88.2104 41.8419 89.1335 41.165 90.1797C41.0419 90.4258 40.8573 90.6105 40.7958 90.7951C40.6727 91.0413 40.4881 91.2874 40.3034 91.472C40.4265 91.7182 40.4881 91.9644 40.5496 92.0874C41.1035 94.2413 40.8573 96.5183 39.7496 98.6107C39.0726 99.903 38.7649 101.195 38.4572 102.672C38.2111 103.719 37.9649 104.826 37.5957 105.995C36.2418 109.996 34.3956 114.55 32.6109 118.919C31.6263 121.319 30.457 123.596 29.3493 125.75C28.3031 127.842 27.1954 129.935 26.2723 132.15C26.1492 132.396 26.0261 132.642 25.9646 132.889L25.2261 134.612H25.1646C26.2108 137.935 25.78 140.519 23.5645 143.289L20.7952 146.981C19.8721 148.766 18.826 150.797 17.2875 152.52C17.1028 152.766 16.6105 153.32 15.749 153.443C15.5028 153.443 15.2566 153.504 15.072 153.504C14.8874 153.504 14.7028 153.504 14.5182 153.443C14.3951 153.689 14.272 153.997 14.1489 154.243C13.5335 155.474 12.3642 156.151 10.8873 156.151C10.2103 156.151 9.59494 155.966 9.10262 155.597L8.67184 155.966H7.9949C6.82564 155.966 5.841 155.412 5.28714 154.551C4.79482 153.751 4.73328 152.827 4.97944 151.966C4.11788 151.351 3.56402 150.489 3.50248 149.504C3.3794 147.966 4.17942 146.797 4.79482 145.935C4.97944 145.689 5.16406 145.443 5.2256 145.258C5.96408 143.904 6.7641 142.489 7.50258 141.196C7.13334 141.258 5.10252 141.75 5.10252 141.75L4.73328 141.689C3.0717 141.443 1.90244 140.643 1.2255 139.35C0.794715 138.489 1.10242 137.566 1.16396 137.319C1.41012 136.581 1.96398 136.212 2.33322 136.089L3.01016 135.781C3.6871 135.473 4.42558 135.165 5.10252 134.858L6.39486 133.258L7.62566 132.027C8.79492 130.858 10.0257 129.627 11.3181 128.458C11.8719 127.904 12.5489 127.473 13.2874 127.165C13.2874 127.165 14.272 124.765 14.3335 124.581C17.1028 118.796 18.7029 113.073 19.1952 107.103C19.6875 100.457 21.8414 94.6106 25.4723 89.7489C25.6569 89.5028 26.0261 89.0104 26.58 88.6412C25.4723 86.6104 25.0415 84.0872 25.103 82.3026C25.2877 78.9794 25.5954 77.2563 27.0723 74.1793C27.9339 72.2715 28.9185 70.8561 29.9647 69.7484C29.9647 69.6253 29.9032 69.4407 29.9032 69.2561C29.9032 68.456 29.9647 67.5945 29.9647 66.7329C30.0262 63.3482 30.0262 59.902 31.2571 56.7019C32.1802 54.3634 34.8879 51.2248 36.9187 49.7479C40.1188 47.3478 42.642 46.7939 46.519 46.2401C46.7036 46.2401 46.8267 46.1785 46.9498 46.1785L50.5191 44.5785L51.196 44.3323C51.5653 44.1477 51.873 44.0246 52.2422 43.9016C54.273 42.9785 56.2423 42.0554 58.2116 41.0707C58.3962 41.0092 58.5808 40.8861 58.7655 40.8246C58.827 39.8399 58.8885 38.8553 59.0116 37.8706L59.1347 36.7629L59.627 35.409C58.7039 34.7321 58.1501 33.6859 58.0885 32.4551C57.9654 31.1628 57.8424 29.8089 57.7193 28.5781C57.1654 28.5165 56.6731 28.2704 56.3039 27.9011C55.8115 27.4088 55.5038 26.855 55.2577 26.3626C54.5192 24.7626 53.9653 23.5318 53.4115 22.3625C53.0422 21.501 53.1038 20.4548 53.7192 19.4702C54.273 18.5471 55.0115 17.8701 55.8731 17.6239L56.0577 17.5009C56.0577 16.947 56.0577 16.3931 56.1192 15.7777C56.2423 13.3777 56.7346 11.1622 57.5962 9.13142C59.0116 5.80825 62.704 2.60817 66.1503 1.68507C67.3811 1.37737 68.6119 1.19275 69.8427 1.19275C75.4428 1.19275 80.3045 4.39283 82.4584 9.62374C83.1353 11.1622 83.3815 12.9469 83.5661 14.1162C83.6276 14.4239 83.6276 14.7931 83.5661 15.8393C83.5661 16.2701 83.5661 16.8855 83.5661 17.3778L84.3046 17.8701C86.5816 19.4086 87.0739 21.0702 85.8431 23.5933C85.7816 23.7164 85.72 23.901 85.5969 24.1472C84.9815 25.8088 83.9969 28.2704 82.0891 28.6396C81.9661 29.7473 81.9045 30.8551 81.843 31.9628C81.7814 33.4397 81.166 34.7321 80.1814 35.5321L80.6122 36.2091L80.6737 36.6398C80.7353 37.0091 80.7353 37.3783 80.7968 37.686C80.8583 38.363 80.9199 39.0399 81.043 39.6553C81.1045 40.1476 81.1045 40.5784 81.1045 41.0707C81.166 41.0707 81.2276 41.1323 81.2891 41.1323C83.2584 42.0554 85.2892 43.04 87.2585 43.9631C87.5662 44.0862 87.9355 44.2708 88.3047 44.3939L88.9201 44.64L92.4894 46.1785C92.7356 46.1785 92.9817 46.1785 93.2894 46.2401C97.1049 46.8555 99.6896 47.3478 102.89 49.7479C104.921 51.2248 107.628 54.3634 108.49 56.7019C109.721 59.902 109.782 63.4098 109.782 66.7329C109.782 67.5945 109.782 68.3945 109.844 69.2561C109.844 69.4407 109.844 69.6253 109.782 69.7484C110.828 70.8561 111.813 72.2715 112.675 74.1793C114.09 77.2563 114.398 78.9794 114.644 82.3026C114.767 84.0872 114.336 86.6719 113.167 88.6412C113.721 89.0104 114.152 89.5028 114.275 89.7489C117.905 94.6106 119.998 100.457 120.552 107.103C121.044 113.073 122.583 118.796 125.413 124.581C125.536 124.765 125.66 125.011 125.783 125.258C125.844 125.381 125.967 125.504 126.029 125.627L126.767 126.919L126.521 127.165C127.26 127.473 127.936 127.904 128.49 128.458C129.721 129.627 130.952 130.858 132.183 132.027L133.414 133.258L134.706 134.858C135.383 135.165 136.121 135.473 136.798 135.781L137.414 136.089C137.783 136.273 138.275 136.581 138.583 137.319C138.706 137.566 138.952 138.489 138.521 139.35C137.844 140.643 136.675 141.443 135.014 141.689L134.644 141.75C134.644 141.75 132.614 141.319 132.244 141.196C132.983 142.55 133.783 143.904 134.521 145.258C134.644 145.443 134.829 145.689 134.952 145.935C135.506 146.797 136.306 147.966 136.244 149.504C136.183 150.489 135.691 151.351 134.767 151.966C135.075 152.827 134.952 153.812 134.46 154.551C133.906 155.474 132.921 155.966 131.752 155.966H131.013L130.583 155.597C130.09 155.966 129.475 156.151 128.798 156.151C127.383 156.151 126.152 155.474 125.536 154.243C125.413 153.997 125.29 153.689 125.167 153.443C124.983 153.443 124.798 153.504 124.613 153.504C124.367 153.504 124.121 153.504 123.936 153.443C123.075 153.32 122.583 152.766 122.398 152.581C120.859 150.797 119.813 148.766 118.89 146.981L116.121 143.289C113.967 140.581 113.475 137.996 114.582 134.673H114.521L113.782 132.95C113.659 132.704 113.536 132.458 113.475 132.212C112.551 129.996 111.444 127.904 110.398 125.811C109.29 123.596 108.121 121.381 107.136 118.98C105.351 114.611 103.505 109.996 102.151 106.057C101.72 104.888 101.536 103.78 101.29 102.734C100.982 101.257 100.674 99.9646 99.9973 98.6722C98.8896 96.5799 98.6434 94.3029 99.1973 92.149C99.2588 92.0259 99.3204 91.7797 99.4434 91.5336C99.2588 91.2874 99.0742 91.0413 98.9511 90.8566C98.828 90.672 98.705 90.4874 98.5819 90.2412C97.9049 89.1951 97.3511 88.272 97.0434 87.6566C96.1203 85.7488 95.5049 84.3949 95.0741 83.1026C95.0126 85.1334 94.8895 87.0411 94.6433 89.0104C94.5818 89.3797 94.5202 89.8104 94.4587 90.1797L94.3972 90.6105L93.9664 95.3491C93.8433 96.8876 93.351 98.1799 92.4279 99.3492L91.874 100.026C91.874 100.088 91.9356 100.088 91.9356 100.149C92.0586 100.395 92.1817 100.703 92.3048 101.072C93.4125 105.134 93.8433 108.519 93.6587 111.719C93.5971 112.457 93.4741 113.196 93.2894 113.934C93.2894 113.934 94.4587 116.765 94.951 117.934C95.4433 119.104 95.751 120.027 96.1203 121.134L96.428 122.242C98.0896 128.15 100.059 134.796 100.551 140.827C100.674 142.243 100.859 143.72 101.043 145.258C101.413 148.212 101.844 151.227 101.72 153.812C101.536 157.074 101.167 159.351 100.736 162.243C100.551 163.289 100.059 164.889 99.8742 166.243L94.8895 183.413C94.8279 185.259 94.7664 187.105 94.7049 188.89C94.6433 190.428 94.6433 192.029 94.6433 193.629C94.6433 194.367 94.6433 195.106 94.6433 195.906V198.367C96.6126 202.429 97.9665 206.921 98.5203 211.66C99.0127 215.783 99.2588 221.937 98.5203 226.799C98.3357 227.845 98.2126 228.768 98.0896 229.691C97.4126 234.307 96.9203 237.384 95.1972 242.553C94.8279 243.722 94.0895 245.261 93.2894 246.861C93.7202 247.292 93.9664 247.784 94.0279 248.276L94.0895 248.953C94.2125 249.876 94.3356 250.861 94.3972 251.845L95.4433 258.246L96.9818 259.846L97.0434 259.907C99.0742 262.553 100.674 264.03 103.259 265.63C103.874 266 106.028 267.907 107.444 269.692C108.244 270.738 109.351 272.277 108.921 273.877C108.736 274.738 108.121 275.354 107.321 275.723C104.244 276.831 101.536 277.938 98.7665 277.938Z"
        fill="white" stroke="#452F2C" stroke-width="1.0172" stroke-miterlimit="10" />
    <path
        d="M69.5349 56.8249C69.658 56.7019 69.7195 56.6403 69.7195 56.5788C70.0888 55.1018 70.7042 53.7479 71.8119 52.5787C71.935 52.4556 71.935 52.1479 71.935 51.9633C71.7503 51.9633 71.5042 51.8402 71.3196 51.9017C70.2118 52.271 69.1657 52.271 68.0579 51.9633C67.8118 51.9017 67.5041 51.9633 67.1964 51.9633C67.3195 52.2094 67.3195 52.5171 67.5041 52.7633C68.3041 53.7479 68.858 54.8557 69.2272 56.0865C69.3503 56.3326 69.4118 56.5172 69.5349 56.8249Z"
        fill="#C1C1C1" stroke="#231F20" stroke-width="0.5" stroke-miterlimit="10" />
    <path
        d="M38.088 90.5489C38.4573 90.4873 38.8265 89.995 39.0111 89.7488C39.4419 89.0719 40.4881 87.4719 40.7958 86.7334C42.5189 83.1025 43.0728 81.9332 43.7497 78.2408C43.8113 77.8101 43.9959 75.1023 43.9343 74.6715C43.8728 74.4254 43.9343 73.0099 43.8728 72.7022C43.6882 70.9176 43.3189 68.3329 43.1959 68.5791C42.8882 69.9945 41.6574 76.4562 41.4112 77.1947C40.4881 80.4563 39.565 83.7179 38.7034 86.9795C38.4573 87.9026 38.2111 88.8873 37.9649 89.8104C38.1496 89.8719 38.0265 90.5489 38.088 90.5489Z"
        fill="#C1C1C1" stroke="#231F20" stroke-width="0.5" stroke-miterlimit="10" />
    <path
        d="M70.1506 74.5485C70.7045 73.81 71.1968 73.0715 71.7507 72.2715C71.9353 72.0254 72.0584 71.7177 72.1814 71.41C72.1199 71.2253 72.1199 71.0407 71.9968 70.8561C71.3814 69.933 70.8276 69.0099 70.1506 68.1483C69.6583 67.5329 69.3506 67.5329 68.9198 68.1483C68.3044 69.0099 67.689 69.933 67.1351 70.8561C67.0121 71.0407 67.0121 71.41 67.1351 71.6561C67.7505 72.6408 68.366 73.5639 69.0429 74.487C69.3506 75.0408 69.7814 74.9793 70.1506 74.5485Z"
        fill="#C1C1C1" stroke="#231F20" stroke-width="0.5" stroke-miterlimit="10" />
    <path
        d="M136.184 137.566C135.137 137.135 134.091 136.643 132.983 136.212L131.445 134.366C129.845 132.766 128.306 131.166 126.706 129.689C125.906 128.95 124.86 128.519 123.814 128.335L122.152 126.735C119.691 123.227 117.291 119.781 114.706 116.15C114.706 116.581 114.645 116.888 114.706 117.134C114.768 117.442 114.829 117.811 114.891 118.119L115.752 122.55C115.814 122.919 115.814 123.35 115.875 123.719C116.121 126.427 116.429 129.135 116.552 131.842C116.614 132.827 116.429 133.873 116.06 134.796C115.075 137.566 115.321 139.597 117.229 141.997L120.06 145.812C120.983 147.72 122.029 149.566 123.383 151.166C123.445 151.289 123.568 151.412 123.691 151.412C123.999 151.474 124.306 151.474 124.614 151.412C124.737 151.351 124.737 150.858 124.614 150.674C124.06 149.566 123.445 148.458 122.952 147.351C122.891 147.166 122.829 147.043 122.706 146.92L123.322 146.304C124.122 147.781 124.86 149.32 125.599 150.797C126.029 151.597 126.399 152.458 126.768 153.258C127.076 153.874 127.629 154.182 128.368 154.182C129.106 154.182 129.414 153.751 129.045 153.012C128.491 151.781 127.937 150.551 127.383 149.381C126.522 147.72 125.66 146.12 124.737 144.52L125.168 143.781C126.399 146.058 127.629 148.335 128.86 150.674C129.291 151.474 129.66 152.397 130.214 153.135C130.522 153.566 131.014 153.812 131.26 153.997C132.368 153.997 132.86 153.074 132.43 152.212C131.691 150.674 130.953 149.135 130.153 147.658C128.983 145.566 127.753 143.474 126.583 141.381L126.953 140.95C127.445 141.812 127.937 142.735 128.43 143.597C129.537 145.504 130.706 147.351 131.814 149.197C131.937 149.443 132.122 149.689 132.368 149.874C132.614 150.058 133.107 150.428 133.23 150.305C133.537 150.12 133.907 149.751 133.907 149.258C133.968 148.028 132.922 147.043 132.368 145.997C131.199 143.843 129.968 141.75 128.799 139.658C128.737 139.535 128.676 139.473 128.614 139.35C128.553 139.289 128.553 139.227 128.491 139.166L129.783 138.673C131.26 139.043 132.737 139.35 134.153 139.658C135.076 139.535 135.814 139.166 136.245 138.304C136.43 138.12 136.368 137.627 136.184 137.566Z"
        fill="#C1C1C1" stroke="#231F20" stroke-width="0.5" stroke-miterlimit="10" />
    <path
        d="M101.905 267.169C99.0129 265.384 97.2283 263.661 95.1359 260.954L93.2897 259.046L92.1204 251.969C92.0589 250.799 91.8743 249.63 91.7512 248.461C91.7512 248.338 91.5666 248.092 91.4435 248.03C91.3204 248.03 91.0743 248.153 91.0127 248.276C89.7204 251.169 87.3819 253.261 85.351 255.538C84.4279 256.584 83.9356 257.63 84.0587 259.046C84.1818 260.83 84.3049 262.677 84.4279 264.461C84.4279 264.708 84.551 264.954 84.6126 265.2V265.323C84.6126 265.323 85.4126 268.523 85.4741 268.708C85.9049 270.431 87.9357 270.8 89.3511 271.415C90.7666 271.969 91.6897 272.831 92.8589 273.815C97.4129 277.508 101.351 276.092 106.152 273.939C107.259 273.446 106.644 272.092 105.536 270.8C104.244 269.077 102.213 267.354 101.905 267.169Z"
        fill="#C1C1C1" stroke="#231F20" stroke-width="0.5" stroke-miterlimit="10" />
    <path
        d="M56.6735 25.3778C56.8581 25.747 57.0427 26.1162 57.2889 26.3624C57.4735 26.547 57.8427 26.6086 58.0889 26.547H59.1351C59.3197 28.3932 59.5043 30.2394 59.6274 32.0856C59.6889 32.9472 60.0582 33.5626 60.7966 33.9318C63.2582 35.2242 66.0891 37.1319 68.9815 37.1319C72.1816 37.1319 75.3816 35.5934 78.1509 34.1165C79.1356 33.5626 79.6279 32.701 79.6895 31.5318C79.751 29.8702 79.9356 28.2086 80.1202 26.547L81.1664 26.4239C82.4588 26.8547 83.5049 23.2854 83.8742 22.4854C84.6742 20.8238 84.4896 20.1469 82.9511 19.1007L81.5357 18.116C81.351 17.993 81.4741 14.4852 81.4126 13.9929C81.2279 12.7005 80.9818 11.2235 80.4279 9.99275C78.0279 4.3926 72.12 1.56176 66.3353 3.1618C63.4429 3.96182 60.1812 6.73112 59.012 9.56196C58.212 11.4697 57.7812 13.5005 57.7196 15.5314C57.6581 16.4545 57.6581 17.3776 57.7196 18.3007L56.2427 19.1007C55.4427 19.2238 54.5196 20.5776 54.8273 21.3161C55.4427 22.7931 56.0581 24.0854 56.6735 25.3778Z"
        fill="#C1C1C1" stroke="#231F20" stroke-width="0.5" stroke-miterlimit="10" />
    <path
        d="M101.044 90.549C101.167 90.549 100.983 89.8721 101.044 89.8106C100.798 88.8875 100.613 87.9028 100.306 86.9797C99.3827 83.7181 98.5211 80.4565 97.598 77.1948C97.4134 76.4564 96.1826 69.9947 95.8134 68.5792C95.6903 68.3331 95.321 70.9178 95.1364 72.7024C95.0749 73.0101 95.1364 74.364 95.0749 74.6717C95.0133 75.1025 95.198 77.8102 95.2595 78.241C95.9364 81.8719 96.4903 83.1027 98.2134 86.7336C98.5827 87.472 99.6289 89.0721 99.9981 89.749C100.306 89.9952 100.675 90.4875 101.044 90.549Z"
        fill="#C1C1C1" stroke="#231F20" stroke-width="0.75" stroke-miterlimit="10" />
    <path
        d="M22.5798 131.842C22.7028 129.135 23.0105 126.427 23.2567 123.719C23.3182 123.35 23.3182 122.919 23.3798 122.55L24.2413 118.119C24.3029 117.811 24.3644 117.442 24.426 117.134C24.4875 116.888 24.426 116.58 24.426 116.15C21.9028 119.78 19.4412 123.288 16.9796 126.734L15.318 128.335C14.2103 128.458 13.2257 128.888 12.4256 129.688C10.8256 131.227 9.22557 132.827 7.68706 134.365L6.14856 136.212C5.10238 136.642 4.0562 137.135 2.94848 137.566C2.8254 137.627 2.70232 138.119 2.8254 138.304C3.25618 139.104 3.99466 139.473 4.91776 139.658C6.39472 139.35 7.87168 139.042 9.28711 138.673L10.5794 139.166C10.5179 139.227 10.5179 139.289 10.4564 139.35C10.3948 139.473 10.3333 139.535 10.2717 139.658C9.10249 141.75 7.87168 143.904 6.70242 145.997C6.14856 147.043 5.10238 147.966 5.16392 149.258C5.16392 149.75 5.53316 150.058 5.84086 150.304C5.96394 150.366 6.45626 150.058 6.70242 149.874C6.94858 149.689 7.07166 149.443 7.25628 149.197C8.364 147.35 9.53327 145.443 10.641 143.596C11.1333 142.735 11.6872 141.873 12.1179 140.95L12.4872 141.381C11.2564 143.473 10.0871 145.566 8.91787 147.658C8.11784 149.135 7.37936 150.674 6.64088 152.212C6.2101 153.074 6.70242 153.997 7.81014 153.997C8.0563 153.812 8.54862 153.566 8.85632 153.135C9.41019 152.335 9.77943 151.474 10.2102 150.674C11.441 148.397 12.6718 146.058 13.9026 143.781L14.3334 144.52C13.4103 146.12 12.5487 147.781 11.6872 149.381C11.0718 150.55 10.5179 151.781 10.0256 153.012C9.71789 153.751 9.96405 154.181 10.7025 154.181C11.3795 154.181 11.9949 153.935 12.3026 153.258C12.7333 152.458 13.1026 151.597 13.4718 150.797C14.2103 149.32 14.9488 147.781 15.7488 146.304L16.3642 146.92C16.3027 147.043 16.1796 147.227 16.1181 147.35C15.6257 148.458 15.0103 149.566 14.4565 150.674C14.3334 150.858 14.3949 151.351 14.4565 151.412C14.7026 151.535 15.0719 151.474 15.3796 151.412C15.5027 151.412 15.6257 151.227 15.6873 151.166C17.1027 149.566 18.0873 147.658 19.0104 145.812L21.8413 141.996C23.749 139.596 23.9952 137.566 23.0105 134.796C22.7028 133.873 22.5182 132.827 22.5798 131.842Z"
        fill="#C1C1C1" stroke="#231F20" stroke-width="0.5" stroke-miterlimit="10" />
    <path
        d="M48.3658 248.338C48.3042 248.215 48.0581 248.03 47.935 248.092C47.8119 248.153 47.6273 248.338 47.6273 248.522C47.5042 249.692 47.3196 250.861 47.258 252.03L46.0888 259.046L44.2426 260.954C42.2117 263.661 40.4271 265.384 37.4732 267.169C37.1655 267.354 35.1346 269.077 33.7808 270.8C32.7346 272.154 32.1192 273.446 33.1654 273.939C38.027 276.092 41.9656 277.446 46.458 273.815C47.6273 272.892 48.5504 271.969 49.9658 271.415C51.3812 270.862 53.412 270.492 53.8428 268.708C53.9044 268.523 54.7044 265.323 54.7044 265.323V265.2C54.7659 264.954 54.8275 264.708 54.889 264.461C55.0121 262.677 55.1352 260.83 55.2582 259.046C55.3813 257.692 54.889 256.584 53.9659 255.538C51.9966 253.323 49.6581 251.23 48.3658 248.338Z"
        fill="#C1C1C1" stroke="#231F20" stroke-width="0.5" stroke-miterlimit="10" />
    <path
        d="M68.9894 76.1015C68.3124 74.9322 67.5739 73.8245 66.8355 72.7168C66.5893 72.286 66.1585 72.2245 65.6662 72.4091C64.6816 72.7783 63.6354 73.1476 62.6507 73.5168C60.8661 74.2553 59.6353 75.4861 59.2045 77.5169C58.7737 79.6708 58.2199 81.8247 57.7275 83.9786C57.666 84.4094 57.7275 84.8402 57.7275 85.3325C57.9122 85.3325 57.9737 85.3325 58.0352 85.271C58.2199 85.2094 58.3429 85.0863 58.5276 85.0248C60.5584 83.8555 62.6507 83.0555 64.9893 82.6863C66.0354 82.5016 67.0816 82.3786 68.1278 82.194C68.9894 82.0093 69.174 81.7632 69.174 80.8401C69.174 79.6093 69.174 78.3785 69.174 77.0861C69.1125 76.7784 69.1124 76.4092 68.9894 76.1015Z"
        fill="#C1C1C1" stroke="#231F20" stroke-width="0.5" stroke-miterlimit="10" />
    <path
        d="M68.9894 84.7171C68.8663 84.1633 68.5586 83.8556 67.9432 83.794C64.5585 83.3632 61.6046 84.471 58.9583 86.5018C58.466 86.871 57.9737 87.4864 57.7275 88.0403C57.0506 90.0711 56.6814 92.225 56.8044 94.3789C56.8044 94.5635 56.9275 94.8097 56.9891 94.9943C57.1737 94.9328 57.4198 94.8712 57.6045 94.7482C59.0199 93.7635 60.5584 93.0866 62.343 92.902C63.5123 92.7789 64.62 92.7789 65.7893 92.6558C65.7893 92.6558 65.7893 92.6558 65.7893 92.7173C66.5893 92.7173 67.4509 92.7173 68.2509 92.7173C68.6817 92.7173 68.9894 92.5327 69.0509 92.0404C69.2971 89.5788 69.4202 87.1172 68.9894 84.7171Z"
        fill="#C1C1C1" stroke="#231F20" stroke-width="0.5" stroke-miterlimit="10" />
    <path
        d="M70.097 91.5481C70.097 92.5327 70.2816 92.6558 71.2663 92.7173C72.4971 92.7789 73.7279 92.7789 74.9587 92.7173C77.3588 92.7173 79.5127 93.3943 81.5435 94.6866C81.7281 94.8097 82.0358 94.8712 82.282 94.9328C82.3435 94.6866 82.5281 94.3789 82.4666 94.1327C82.2204 92.225 82.0358 90.3173 81.7281 88.4095C81.6666 87.9172 81.2358 87.3633 80.8665 86.9326C78.6511 84.7787 75.9433 83.794 72.8663 83.6094C72.4971 83.6094 72.0663 83.6094 71.6971 83.6709C70.5893 83.794 70.3432 84.0402 70.1586 85.0864C70.097 85.271 70.097 85.5171 70.097 85.7018C70.0355 87.671 70.0355 89.5788 70.097 91.5481Z"
        fill="#C1C1C1" stroke="#231F20" stroke-width="0.5" stroke-miterlimit="10" />
    <path
        d="M70.0971 105.764C70.0971 107.056 70.8356 107.548 72.0664 107.241C74.0972 106.687 76.128 106.133 78.1588 105.641C79.0204 105.456 79.6358 105.087 80.0666 104.348C81.3589 102.195 82.0359 99.9175 82.282 97.4559C82.3436 96.9021 82.0974 96.5328 81.6666 96.2867C78.9589 94.502 76.0049 93.7635 72.8048 93.8866C70.774 93.9481 70.5279 93.825 70.0971 96.4097C70.0355 96.5944 70.0355 96.8405 70.0355 97.0251C70.0355 98.4406 70.0355 99.856 70.0355 101.333C70.0355 101.333 70.0355 101.333 70.0971 101.333C70.0971 102.748 70.0971 104.225 70.0971 105.764Z"
        fill="#C1C1C1" stroke="#231F20" stroke-width="0.5" stroke-miterlimit="10" />
    <path
        d="M91.0209 70.2552L82.4053 73.5168C82.2822 73.5168 82.1591 73.5168 81.9745 73.5783C81.0514 73.7014 80.5591 74.3168 80.7437 75.2399C81.4206 78.7477 82.0976 82.317 82.9591 85.7633C83.2053 86.7479 83.7592 87.671 84.3746 88.471C85.1746 89.5172 86.1592 90.5019 87.0823 91.425C88.5593 92.9019 89.667 94.5635 90.2209 96.5328C90.2824 96.7174 90.344 96.9636 90.467 97.3328C91.2671 96.3482 91.5132 95.3635 91.6363 94.3173L92.1286 89.5172C92.1902 88.9633 92.3132 88.471 92.3748 87.9172C92.8056 84.2863 92.8671 80.5939 92.6209 76.963C92.4979 74.9937 92.3132 73.0245 92.1286 71.0552C92.0671 70.1321 91.8209 69.9475 91.0209 70.2552Z"
        fill="#C1C1C1" stroke="#231F20" stroke-width="0.5" stroke-miterlimit="10" />
    <path
        d="M81.3591 106.318C82.2822 105.948 83.2668 105.702 84.0669 105.148C86.4054 103.548 87.8823 101.21 88.9285 98.5636C89.4208 97.3328 89.2362 96.0405 88.4362 94.9328C87.1439 92.9635 85.4823 91.3634 83.6976 89.8249C83.513 89.6403 83.2668 89.5788 82.8361 89.3942C82.8976 89.8249 82.9591 90.0711 83.0207 90.2557C83.7592 93.025 84.0669 95.7943 83.8822 98.6252C83.6976 101.333 82.8976 103.795 80.8052 105.764C80.6821 105.887 80.6206 106.01 80.3745 106.318C80.8668 106.318 81.1745 106.379 81.3591 106.318Z"
        fill="#C1C1C1" stroke="#231F20" stroke-width="0.5" stroke-miterlimit="10" />
    <path
        d="M70.0971 76.7169C70.0971 78.1939 70.0971 79.6708 70.0971 81.1478C70.0971 81.7017 70.4048 82.0709 70.9587 82.194C71.2664 82.2555 71.6356 82.3171 72.0049 82.3171C75.1434 82.6248 78.0973 83.4248 80.8051 85.0248C80.9897 85.1479 81.1744 85.2094 81.6051 85.4556C81.6051 84.9633 81.6667 84.6556 81.6051 84.3479C81.0513 81.7632 80.4359 79.2401 79.8205 76.7169C79.5743 75.6092 78.8974 74.6861 77.8512 74.1938C76.4973 73.5784 75.0819 73.0245 73.6665 72.4091C73.1126 72.1629 72.6818 72.3476 72.3741 72.7783C71.6356 73.8245 70.9587 74.9322 70.2818 76.04C70.0971 76.2246 70.0971 76.5323 70.0971 76.7169Z"
        fill="#C1C1C1" stroke="#231F20" stroke-width="0.5" stroke-miterlimit="10" />
    <path
        d="M58.8967 127.857C60.066 128.841 61.2968 129.826 62.8353 130.257C63.0199 130.318 63.2661 130.195 63.4507 130.195C63.3892 130.011 63.3892 129.764 63.3276 129.641C62.7122 128.411 61.9737 127.18 61.4199 125.887C58.9583 120.472 57.1121 114.933 57.1121 108.902C57.1121 107.918 56.7428 107.179 55.8197 106.748C53.3581 105.518 51.6966 103.487 50.3427 101.148C50.0965 100.779 49.9119 100.41 49.7273 100.041C49.6657 100.041 49.5427 100.041 49.4811 100.041C49.358 100.348 49.1734 100.717 49.1119 101.025C48.7426 102.871 48.3118 104.656 48.0657 106.502C47.6964 109.087 47.6965 111.672 48.7426 114.195C50.8965 119.61 54.4043 124.103 58.8967 127.857Z"
        fill="#C1C1C1" stroke="#231F20" stroke-width="0.5" stroke-miterlimit="10" />
    <path
        d="M58.4661 105.825C56.6199 104.164 55.7584 102.01 55.4507 99.6098C55.0199 96.4097 55.3891 93.3327 56.1892 90.2557C56.2507 90.0096 56.2507 89.7634 56.3122 89.5172C56.2507 89.4557 56.1892 89.4557 56.1276 89.3942C55.8815 89.5788 55.5122 89.7019 55.3276 89.948C53.8506 91.4865 52.3121 92.9635 50.9583 94.6251C49.8505 95.9174 49.7275 97.5175 50.4659 99.056C51.0198 100.225 51.6967 101.456 52.4968 102.502C53.666 104.102 55.0814 105.456 56.9892 106.133C57.4815 106.318 58.0969 106.564 58.7123 106.195C58.5892 106.01 58.5277 105.887 58.4661 105.825Z"
        fill="#C1C1C1" stroke="#231F20" stroke-width="0.5" stroke-miterlimit="10" />
    <path
        d="M60.866 105.579C63.02 106.072 65.1739 106.687 67.2662 107.241C68.3124 107.548 69.0509 106.995 69.0509 105.887C69.1124 103.241 69.2355 100.533 69.2355 97.8867C69.2355 96.8405 68.9893 95.7328 68.7432 94.6866C68.6201 94.1327 68.1893 93.825 67.6355 93.825C66.22 93.825 64.8046 93.7635 63.3892 93.9481C61.2968 94.1943 59.3891 94.9328 57.666 96.102C57.1736 96.4713 56.8659 96.8405 56.989 97.5174C57.2352 99.9175 57.9121 102.256 59.2045 104.348C59.5122 105.025 60.066 105.395 60.866 105.579Z"
        fill="#C1C1C1" stroke="#231F20" stroke-width="0.5" stroke-miterlimit="10" />
    <path
        d="M48.3734 70.3167H48.3119H48.2503C47.3272 69.9475 47.1426 70.3167 47.0195 71.6706C46.5888 75.7323 46.4041 79.7939 46.6503 83.8556C46.7118 85.4556 47.0195 87.671 47.2042 89.4557L47.6349 93.8866C47.6349 93.9481 47.6349 93.9481 47.6349 94.0097C47.6349 95.1174 47.8811 96.2251 48.6811 97.2098C48.8042 97.0867 48.8657 97.0251 48.8657 96.9636C48.9273 96.7174 48.9888 96.5328 49.1119 96.2867C49.5427 94.8097 50.2196 93.5174 51.2658 92.4096C52.1889 91.4865 53.0505 90.5019 53.9736 89.5788C55.389 88.1018 56.3736 86.3787 56.6813 84.3479C56.7429 83.8556 56.8659 83.4248 56.9275 82.9325C57.4198 80.4093 57.9737 77.9477 58.466 75.4246C58.7121 74.2553 58.1583 73.7015 56.989 73.5784C56.9275 73.5784 56.9275 73.5784 56.8659 73.5784L48.3734 70.3167Z"
        fill="#C1C1C1" stroke="#231F20" stroke-width="0.5" stroke-miterlimit="10" />
    <path
        d="M68.6201 110.072C68.497 109.087 68.0047 108.472 67.0816 108.225C66.6508 108.102 66.22 107.856 65.7892 107.795C64.0046 107.364 62.1584 106.81 60.3737 106.502C59.0198 106.256 58.2198 107.056 58.2813 108.287C58.5275 112.718 59.266 117.026 60.4968 121.272C61.4814 124.595 62.7122 127.795 64.8661 130.503C66.0354 131.98 67.5739 132.534 69.3585 133.026C69.4201 132.472 69.4201 132.041 69.4201 131.611C69.4201 126.749 69.4201 121.949 69.297 117.087C69.1739 114.749 68.8047 112.41 68.6201 110.072Z"
        fill="#C1C1C1" stroke="#231F20" stroke-width="0.5" stroke-miterlimit="10" />
    <path
        d="M75.1434 129.457C77.3589 126.134 78.5897 122.38 79.4512 118.503C80.1897 115.241 80.7436 111.918 80.9282 108.533C80.9897 106.995 80.3743 106.256 78.7743 106.441C76.3742 106.748 74.1588 107.487 71.9433 108.287C71.2049 108.533 70.7741 109.087 70.651 109.825C70.4664 111.179 70.1587 112.533 70.0971 113.949C69.9125 117.703 69.7894 125.272 69.7894 125.272C69.7894 127.549 69.7894 129.826 69.7894 132.103C69.7894 132.965 69.9125 133.026 70.7125 132.78C72.6203 132.226 74.0972 131.118 75.1434 129.457Z"
        fill="#C1C1C1" stroke="#231F20" stroke-width="0.5" stroke-miterlimit="10" />
    <path
        d="M75.9436 129.518C75.8205 129.703 75.8205 129.949 75.7589 130.195C76.0051 130.195 76.2513 130.257 76.4974 130.195C77.2359 129.888 77.9744 129.58 78.5898 129.149C83.3284 125.764 86.9592 121.457 89.5439 116.287C90.4055 114.564 91.2055 112.718 91.3286 110.749C91.5132 107.364 90.9593 103.979 90.0362 100.717C89.9747 100.471 89.7901 100.225 89.6055 99.7329C89.3593 100.225 89.1747 100.533 89.0516 100.779C87.8208 103.056 86.2208 105.087 83.9438 106.318C82.5899 107.056 82.0976 107.918 82.0976 109.395C82.0976 112.41 81.4822 115.364 80.6822 118.256C79.5129 122.195 77.9129 125.949 75.9436 129.518Z"
        fill="#C1C1C1" stroke="#231F20" stroke-width="0.5" stroke-miterlimit="10" />
    <path
        d="M30.4351 98.4319C30.4351 98.9242 30.5582 99.4781 30.6198 100.094C30.7428 99.9089 30.8044 99.8473 30.8659 99.7858C31.7275 98.3704 32.466 96.8319 33.4506 95.478C35.6045 92.5856 37.143 89.4471 38.2507 86.0624C38.8661 84.1546 39.5431 82.2469 40.0969 80.2776C41.2662 76.4006 42.0047 72.462 42.3124 68.4619C42.4355 66.8619 41.5124 66.0618 39.9739 66.6157C35.7891 68.0927 31.7275 68.1542 28.6505 74.8005C27.3581 77.6314 27.0504 79.1083 26.8658 82.2469C26.7427 83.8469 27.2351 86.6778 28.6505 88.4009C30.5582 90.6779 30.3736 95.3549 30.4351 98.4319Z"
        fill="#C1C1C1" stroke="#231F20" stroke-width="0.5" stroke-miterlimit="10" />
    <path
        d="M97.1444 68.4773C97.4521 72.4774 98.1906 76.416 99.3599 80.293C99.9137 82.2623 100.591 84.17 101.206 86.0778C102.314 89.4625 103.914 92.601 106.006 95.4934C106.991 96.8473 107.729 98.3858 108.591 99.8012C108.652 99.8627 108.714 99.9243 108.837 100.109C108.899 99.432 109.022 98.9396 109.022 98.4473C109.083 95.3703 108.837 90.6933 110.745 88.3547C112.099 86.6316 112.591 83.8623 112.529 82.2007C112.345 79.1237 112.099 77.6468 110.745 74.7544C107.668 68.1696 103.606 68.1081 99.4214 66.5696C97.9444 66.0772 97.0213 66.8773 97.1444 68.4773Z"
        fill="#C1C1C1" stroke="#231F20" stroke-width="0.5" stroke-miterlimit="10" />
    <path
        d="M65.9261 135.719C64.5722 134.612 61.0645 133.011 59.7721 131.842C56.3874 128.765 54.6643 127.781 52.1411 123.904C51.5873 123.042 51.0334 122.119 50.4796 121.196C50.418 121.196 50.3565 121.196 50.2334 121.257C50.2949 121.688 50.2949 122.119 50.3565 122.611C51.0334 126.796 52.1411 130.919 53.4335 134.919C56.3874 144.212 58.7875 153.689 61.0029 163.166C61.3722 164.766 61.6798 166.366 62.0491 168.028C62.2337 167.843 62.2952 167.659 62.3568 167.474C62.6645 165.751 63.6491 162.305 63.8953 160.581C65.1876 154.551 65.2492 153.566 65.9261 148.581C66.5415 143.658 66.6031 142.796 66.6031 139.966C66.6646 137.381 66.6646 136.335 65.9261 135.719Z"
        fill="#C1C1C1" stroke="#231F20" stroke-width="0.5" stroke-miterlimit="10" />
    <path
        d="M78.2341 163.166C80.388 153.689 82.7881 144.212 85.8036 134.919C87.0959 130.858 88.2036 126.796 88.8806 122.611C88.9421 122.18 89.0036 121.75 89.0036 121.257C88.9421 121.257 88.8806 121.257 88.7575 121.196C88.2036 122.119 87.6498 122.98 87.0959 123.904C84.5727 127.781 82.9112 128.765 79.4649 131.842C78.1726 133.011 74.6648 134.612 73.3109 135.719C72.5724 136.335 72.634 137.381 72.634 139.966C72.634 142.735 72.7571 143.596 73.3109 148.581C73.9263 153.627 73.9879 154.612 75.3417 160.581C75.5879 162.305 76.5725 165.751 76.8802 167.474C76.9418 167.659 77.0033 167.843 77.1879 168.028C77.5572 166.366 77.8649 164.766 78.2341 163.166Z"
        fill="#C1C1C1" stroke="#231F20" stroke-width="0.5" stroke-miterlimit="10" />
    <path
        d="M68.2225 56.9324C68.0379 54.3477 66.684 52.3784 64.2224 51.4553C61.6377 50.4707 59.053 49.5476 56.4683 48.7476C54.4991 48.1322 51.9759 50.2861 51.299 52.0092C49.9451 55.517 48.1604 58.7786 46.3758 62.0402C45.945 62.8402 45.6988 63.7018 45.3911 64.5634C45.2065 65.1172 45.3296 65.6711 45.8219 66.1019C48.2835 68.3789 50.9297 70.4097 54.0067 71.6405C56.3453 72.5636 58.8069 72.7482 61.33 72.379C65.207 71.7636 68.2225 67.9481 68.4071 64.3172C68.4687 61.7941 68.4071 59.394 68.2225 56.9324Z"
        fill="#C1C1C1" stroke="#231F20" stroke-width="0.5" stroke-miterlimit="10" />
    <path
        d="M77.6383 72.3174C80.1614 72.7482 82.623 72.502 84.9616 71.5789C88.1001 70.3481 90.7463 68.3789 93.1464 66.0403C93.5772 65.6096 93.7618 65.0557 93.5772 64.5018C93.331 63.6403 93.0233 62.7787 92.5925 61.9787C90.7463 58.7171 88.9617 55.4555 87.6693 51.9477C86.9924 50.2245 84.4692 48.0706 82.5 48.686C79.8537 49.4861 77.3306 50.4092 74.7459 51.3938C72.2228 52.3169 70.9304 54.2862 70.7458 56.8709C70.5612 59.3325 70.4381 61.7325 70.5612 64.1941C70.6843 67.8865 73.7613 71.702 77.6383 72.3174Z"
        fill="#C1C1C1" stroke="#231F20" stroke-width="0.5" stroke-miterlimit="10" />
    <path
        d="M110.542 91.4929C109.619 93.4007 109.68 95.3699 109.803 97.4008C110.357 104.847 113.003 111.555 116.757 117.894C118.48 120.786 120.45 123.555 122.665 126.14C123.034 126.509 123.465 126.817 123.896 127.186C123.957 127.125 124.019 127.063 124.08 127.002C123.834 126.632 123.588 126.202 123.403 125.832C120.634 120.109 118.911 114.078 118.357 107.678C117.865 101.709 116.08 96.17 112.449 91.3083C111.711 90.139 111.157 90.2621 110.542 91.4929Z"
        fill="#C1C1C1" stroke="#231F20" stroke-width="0.5" stroke-miterlimit="10" />
    <path
        d="M111.588 109.647C110.665 106.878 109.742 104.17 108.572 101.462C107.588 99.1238 105.988 97.093 104.388 95.1853C103.649 94.3237 102.911 93.4006 102.172 92.539C101.988 92.3544 101.557 92.1083 101.372 92.1698C101.126 92.2929 100.941 92.6621 100.818 92.9698C100.326 94.7545 100.634 96.5392 101.495 98.1392C102.849 100.662 102.849 103.062 103.772 105.77C105.188 109.832 107.095 114.57 108.695 118.632C110.542 123.248 113.126 127.309 115.034 131.863C115.157 132.232 115.342 132.54 115.465 132.909C115.526 132.909 115.65 132.848 115.711 132.848C115.773 132.355 115.834 131.863 115.834 131.371C115.588 123.863 113.988 116.663 111.588 109.647Z"
        fill="#C1C1C1" stroke="#231F20" stroke-width="0.5" stroke-miterlimit="10" />
    <path
        d="M37.9857 98.1392C38.8473 96.5392 39.0934 94.7545 38.6627 92.9698C38.6011 92.6621 38.355 92.2929 38.1088 92.1698C37.9242 92.1083 37.4934 92.3544 37.3088 92.539C36.5703 93.4006 35.8318 94.2622 35.0933 95.1853C33.4318 97.093 31.8932 99.1854 30.9086 101.462C29.7393 104.109 28.8162 106.878 27.8931 109.647C25.4931 116.663 23.893 123.863 23.6469 131.309C23.6469 131.802 23.7084 132.294 23.77 132.786C23.8315 132.786 23.9546 132.848 24.0161 132.848C24.1392 132.479 24.3238 132.171 24.4469 131.802C26.3546 127.248 28.9393 123.124 30.7855 118.571C32.3856 114.57 34.2933 109.832 35.7087 105.709C36.6934 103.062 36.6934 100.662 37.9857 98.1392Z"
        fill="#C1C1C1" stroke="#231F20" stroke-width="0.5" stroke-miterlimit="10" />
    <path
        d="M16.693 126.078C18.9084 123.494 20.8777 120.724 22.6008 117.832C26.3548 111.493 29.001 104.786 29.5548 97.3392C29.7395 95.3083 29.7395 93.3391 28.8164 91.4313C28.201 90.2005 27.6471 90.0774 26.7855 91.1851C23.1547 96.0468 21.37 101.585 20.8777 107.555C20.3854 113.955 18.6007 119.924 15.8314 125.709C15.6468 126.14 15.4006 126.509 15.1545 126.878C15.216 126.94 15.2775 127.001 15.3391 127.063C15.8929 126.817 16.3853 126.509 16.693 126.078Z"
        fill="#C1C1C1" stroke="#231F20" stroke-width="0.5" stroke-miterlimit="10" />
    <path
        d="M54.9935 164.151C54.6858 164.766 54.3166 165.443 54.0704 166.059C53.332 168.459 52.5935 170.797 51.9781 173.197C51.2396 176.151 50.6857 179.105 50.8088 182.121C50.8704 185.382 50.9319 188.644 51.1165 191.905C51.2396 194.613 51.4858 197.383 51.6704 200.09C51.6704 200.398 51.7935 200.706 51.855 200.952C51.9165 200.952 51.9781 200.952 52.0396 200.952C52.1012 200.644 52.2242 200.398 52.2858 200.09C53.1473 196.09 54.0089 192.09 54.8705 188.09C55.3013 186.059 55.8551 184.09 56.3474 182.059C56.6551 180.951 56.9628 179.844 57.1475 178.736C57.5782 175.659 57.3321 172.582 56.9628 169.505C56.7782 167.72 56.3474 165.997 55.9782 164.212C55.9167 163.966 55.6705 163.72 55.4859 163.659C55.4243 163.659 55.1166 163.966 54.9935 164.151Z"
        fill="#C1C1C1" stroke="#231F20" stroke-width="0.5" stroke-miterlimit="10" />
    <path
        d="M85.3327 164.097C85.2096 163.913 84.9019 163.605 84.7789 163.667C84.5942 163.728 84.3481 164.036 84.2865 164.22C83.9173 166.005 83.4865 167.728 83.3019 169.513C82.9942 172.59 82.748 175.667 83.1173 178.744C83.2404 179.852 83.6096 180.959 83.9173 182.067C84.4096 184.098 84.9635 186.067 85.3943 188.098C86.3174 192.098 87.1174 196.098 87.9789 200.098C88.0405 200.406 88.1636 200.714 88.2251 200.96C88.2866 200.96 88.3482 200.96 88.4097 200.96C88.4713 200.652 88.5943 200.406 88.5943 200.098C88.779 197.391 89.0251 194.621 89.1482 191.913C89.2713 188.652 89.3328 185.39 89.4559 182.129C89.5174 179.113 89.0251 176.098 88.2866 173.205C87.6712 170.805 86.9328 168.405 86.1943 166.067C86.0097 165.328 85.6404 164.713 85.3327 164.097Z"
        fill="#C1C1C1" stroke="#231F20" stroke-width="0.5" stroke-miterlimit="10" />
    <path
        d="M92.8407 196.521C92.8407 194.059 92.8407 191.782 92.9023 189.444C92.9638 186.675 93.0869 183.844 93.21 181.074C93.4561 175.597 93.8869 170.059 94.0715 164.582C94.1331 161.443 93.9484 158.305 93.7638 155.166C93.4561 150.489 92.9638 145.812 92.533 141.196C92.2869 138.796 91.9176 136.458 91.733 134.058C91.5484 131.842 91.5484 129.565 91.4868 127.35C91.4253 125.504 91.4868 123.719 91.4868 121.873C91.4868 121.688 91.4868 121.565 91.4253 121.381C91.3638 121.196 91.2407 121.073 91.1176 120.888C90.9945 121.011 90.7484 121.134 90.6868 121.257C90.4407 121.934 90.256 122.673 90.0714 123.411C88.656 129.258 87.2406 135.166 85.8252 141.012C84.779 145.381 83.5482 149.689 82.5635 154.058C81.9481 156.889 81.825 159.782 81.8866 162.674C81.9481 164.582 81.9481 166.428 82.1328 168.336C82.6251 173.074 83.1174 177.813 84.5328 182.367C85.3328 184.828 86.5636 187.105 87.9175 189.259C89.3945 191.536 90.933 193.752 92.4715 196.029C92.533 196.213 92.6561 196.336 92.8407 196.521Z"
        fill="#C1C1C1" stroke="#231F20" stroke-width="0.5" stroke-miterlimit="10" />
    <path
        d="M41.9471 166.12C41.9471 166.305 46.378 183.413 46.4395 183.536C46.5626 182.428 45.2702 165.812 45.3933 160.889C45.5164 153.997 46.3779 148.212 46.9933 141.32C47.1164 140.15 47.3011 138.919 47.3626 137.75C47.6088 135.166 47.9165 132.581 47.978 129.996C48.0395 126.673 47.8549 123.288 47.7934 119.965C47.7318 118.734 47.6703 117.504 47.5472 116.273C47.4857 116.273 47.3626 116.273 47.301 116.273C47.2395 116.457 47.178 116.642 47.178 116.765C46.7472 118.55 46.4395 120.396 45.9472 122.181C44.224 128.211 42.0701 135.35 41.5778 141.566C41.2086 145.689 40.2239 150.612 40.4086 154.304C40.6547 158.674 41.2701 161.32 41.9471 166.12Z"
        fill="#C1C1C1" stroke="#231F20" stroke-width="0.5" stroke-miterlimit="10" />
    <path
        d="M58.5012 162.736C58.5628 159.843 58.4397 156.951 57.8243 154.12C56.8396 149.751 55.6088 145.443 54.5627 141.073C53.1472 135.227 51.7318 129.319 50.3164 123.473C50.1318 122.734 49.9472 122.058 49.701 121.319C49.6395 121.134 49.4548 121.073 49.2702 120.95C49.1471 121.134 49.0241 121.258 48.9625 121.442C48.901 121.565 48.901 121.75 48.901 121.934C48.901 123.781 48.9625 125.565 48.901 127.412C48.8394 129.627 48.8394 131.904 48.6548 134.119C48.4702 136.519 48.1009 138.858 47.8548 141.258C47.424 145.935 46.9932 150.551 46.624 155.228C46.3778 158.366 46.1932 161.505 46.3163 164.643C46.5009 170.12 46.8701 175.659 47.1778 181.136C47.3009 183.905 47.424 186.736 47.4855 189.505C47.5471 191.782 47.5471 194.121 47.5471 196.583C47.7317 196.336 47.9163 196.213 47.9779 196.09C49.5164 193.813 51.0549 191.598 52.5318 189.321C53.8857 187.167 55.1165 184.89 55.9165 182.428C57.332 177.874 57.8243 173.136 58.3166 168.397C58.4397 166.551 58.4397 164.643 58.5012 162.736Z"
        fill="#C1C1C1" stroke="#231F20" stroke-width="0.5" stroke-miterlimit="10" />
    <path
        d="M60.1628 162.797C60.1013 163.043 60.0397 163.228 60.0397 163.474C59.8551 165.813 59.6705 168.151 59.4243 170.49C59.2397 172.274 59.1166 173.997 58.7474 175.782C58.132 178.859 57.3935 181.874 56.7166 184.89C56.655 185.198 56.655 185.567 56.7166 185.813C58.0704 190.059 58.3166 194.429 58.2551 198.86C58.2551 199.721 58.1935 200.521 58.1935 201.383C58.2551 201.383 58.3166 201.383 58.3781 201.383C60.9013 195.475 62.2552 189.259 62.5629 182.798C62.8706 176.028 62.2552 169.32 60.409 162.797C60.3474 162.797 60.2243 162.797 60.1628 162.797Z"
        fill="#C1C1C1" stroke="#231F20" stroke-width="0.5" stroke-miterlimit="10" />
    <path
        d="M82.1326 201.383C82.1326 200.521 82.0711 199.721 82.0711 198.86C82.0096 194.429 82.2557 190.059 83.6096 185.813C83.7327 185.505 83.6711 185.198 83.6096 184.89C82.9327 181.874 82.1942 178.859 81.5788 175.782C81.2095 174.059 81.0865 172.274 80.9018 170.49C80.6557 168.151 80.4711 165.813 80.2864 163.474C80.2864 163.228 80.2249 163.043 80.1634 162.797C80.0403 162.797 79.9787 162.797 79.8557 162.797C78.0095 169.32 77.394 176.028 77.7017 182.798C78.0094 189.259 79.3633 195.413 81.8865 201.383C82.0095 201.383 82.0711 201.383 82.1326 201.383Z"
        fill="#C1C1C1" stroke="#231F20" stroke-width="0.5" stroke-miterlimit="10" />
    <path
        d="M98.3793 166.12C99.0563 161.32 99.6717 158.674 99.9178 154.366C100.102 150.735 99.1178 145.75 98.7486 141.627C98.1947 135.412 96.1023 128.335 94.3792 122.242C93.8869 120.457 93.5177 118.673 93.1484 116.827C93.0869 116.642 93.0869 116.457 93.0253 116.334C92.9638 116.334 92.8407 116.334 92.7792 116.334C92.7176 117.565 92.5946 118.796 92.533 120.027C92.4715 123.35 92.2869 126.735 92.3484 130.058C92.4099 132.642 92.7176 135.227 92.9638 137.812C93.0869 138.981 93.2715 140.212 93.333 141.381C93.9484 148.212 94.81 154.058 94.9331 160.951C95.0562 165.874 93.7023 182.49 93.8869 183.598C93.9484 183.413 98.3793 166.305 98.3793 166.12Z"
        fill="#C1C1C1" stroke="#231F20" stroke-width="0.5" stroke-miterlimit="10" />
    <path
        d="M57.5876 209.198C57.5876 209.075 57.4646 204.706 57.3415 204.398C57.2184 204.767 56.5415 207.229 56.4799 207.413C56.2953 208.152 56.1722 208.89 55.9876 209.629C55.126 213.567 54.2029 217.506 53.3414 221.444C52.9106 223.537 52.3567 225.629 52.1721 227.722C51.8644 231.106 51.6798 234.491 51.5567 237.876C51.4336 241.383 51.8029 244.891 52.7875 248.276C53.2183 249.876 53.6491 251.476 54.1414 253.015C54.0183 252.953 53.9568 252.891 53.9568 252.83C53.5875 251.784 53.1568 250.738 52.8491 249.63C51.249 244.399 50.7567 238.983 50.6952 233.506C50.6336 227.475 50.3259 221.506 49.8951 215.475C49.7105 212.706 49.5874 209.875 49.5259 207.044C49.5259 203.721 49.9567 200.459 50.5105 197.198C50.6952 196.09 50.8182 194.982 51.0029 193.813C50.8182 193.875 50.7567 193.875 50.7567 193.936C50.5105 194.244 50.3259 194.551 50.1413 194.859C46.3258 200.213 44.1104 206.244 43.3104 212.829C42.7565 217.198 42.6334 223.045 43.3104 227.414C44.295 233.691 44.5412 236.829 46.572 242.86C47.3105 245.137 49.3413 248.953 50.8182 250.861C52.2337 252.645 53.7106 254.492 55.126 256.276C55.3107 256.522 55.4953 256.707 55.8645 257.015C55.9261 256.584 56.0491 256.338 55.9876 256.153C55.6184 253.999 55.4337 251.845 54.8183 249.753C54.0799 247.353 53.9568 243.784 54.4491 241.322C55.6799 235.045 57.5876 232.46 58.9415 226.245C59.4954 223.475 59.68 219.66 59.0646 216.829C58.3877 214.183 58.08 211.906 57.5876 209.198Z"
        fill="#C1C1C1" stroke="#231F20" stroke-width="0.5" stroke-miterlimit="10" />
    <path
        d="M84.4808 256.338C85.8963 254.553 87.37Ë32 252.768 88.7887 250.922C90.3272 249.014 92.2964 245.199 93.0349 242.922C95.0657 236.891 95.3119 233.752 96.2965 227.475C96.9735 223.106 96.8504 217.26 96.2965 212.89C95.4965 206.367 93.2811 200.336 89.4656 194.921C89.281 194.613 89.0348 194.305 88.8502 193.998C88.8502 193.998 88.7887 193.936 88.604 193.875C88.7887 195.105 88.9117 196.213 89.0964 197.259C89.6502 200.521 90.081 203.782 90.081 207.106C90.081 209.936 89.9579 212.706 89.7118 215.537C89.281 221.506 88.9733 227.537 88.9117 233.568C88.8502 238.983 88.3579 244.46 86.7578 249.691C86.4501 250.799 86.0193 251.845 85.6501 252.891C85.6501 252.953 85.5886 253.015 85.4655 253.076C85.8963 251.476 86.3271 249.876 86.8194 248.337C87.804 244.953 88.1117 241.445 88.0502 237.937C87.9271 234.553 87.804 231.168 87.4348 227.783C87.2502 225.691 86.6963 223.598 86.204 221.506C85.3424 217.567 84.4193 213.629 83.5577 209.69C83.3731 208.952 83.25 208.213 83.0654 207.475C83.0039 207.29 82.3269 204.767 82.2039 204.459C82.0808 204.767 82.0192 209.136 81.9577 209.26C81.4654 211.967 81.0961 214.244 80.5423 216.891C79.9269 219.721 80.05 223.537 80.6654 226.306C81.9577 232.522 83.8654 235.106 85.1578 241.383C85.6501 243.907 85.5886 247.414 84.7886 249.814C84.1731 251.845 83.9885 254.061 83.6193 256.215C83.5577 256.461 83.6808 256.645 83.7424 257.076C84.0501 256.768 84.2962 256.522 84.4808 256.338Z"
        fill="#C1C1C1" stroke="#231F20" stroke-width="0.5" stroke-miterlimit="10" />
    <path
        d="M88.3248 50.972C89.1248 54.6029 91.6479 58.7261 93.5557 61.9877C94.9711 64.4493 95.0942 63.7724 97.4327 64.8185C98.6635 65.3724 101.987 65.9263 103.217 66.4801C104.264 66.9724 105.741 67.6494 106.725 68.2648C106.91 68.3879 107.464 68.8802 107.648 69.0648C107.71 68.8802 107.771 68.7571 107.771 68.634C107.648 64.757 107.956 60.3877 106.541 56.6953C105.741 54.6644 103.217 51.8336 101.556 50.5412C98.725 48.4489 96.5711 47.9566 92.8172 47.4027C92.3864 47.3412 91.8325 47.2796 91.5248 47.5258C90.6017 48.0796 89.7402 48.695 88.8786 49.372C88.3863 49.8028 88.2017 50.3566 88.3248 50.972Z"
        fill="#C1C1C1" stroke="#231F20" stroke-width="0.5" stroke-miterlimit="10" />
    <path
        d="M32.7542 68.2648C33.7388 67.6494 35.2158 66.9724 36.262 66.4801C37.4312 65.8647 40.8159 65.3724 42.0467 64.8185C44.3852 63.7724 44.5083 64.4493 45.9237 61.9877C47.7699 58.7261 50.2931 54.6029 51.1547 50.972C51.2777 50.3566 51.0931 49.8028 50.6623 49.4335C49.8008 48.7566 48.9392 48.1412 48.0161 47.5873C47.7084 47.4027 47.1545 47.4027 46.7238 47.4642C43.0314 48.0181 40.8159 48.5104 37.9851 50.6028C36.262 51.8951 33.7388 54.726 33.0003 56.7568C31.5849 60.4492 31.8926 64.8185 31.7695 68.6956C31.7695 68.8186 31.8311 68.8802 31.8926 69.1263C32.0157 68.8802 32.5696 68.3879 32.7542 68.2648Z"
        fill="#C1C1C1" stroke="#231F20" stroke-width="0.5" stroke-miterlimit="10" />
    <path
        d="M62.7867 36.5167C62.1713 36.3321 61.6789 36.0244 60.8789 35.6552L60.3866 37.1321C60.2635 38.4245 60.1404 39.7168 60.0789 41.0707C60.0789 41.44 60.202 41.8707 60.3866 42.24C61.4943 44.2708 62.8482 46.1785 64.5098 47.8401C65.3714 48.7017 66.4175 49.5017 67.4637 50.1786C68.0791 50.6094 68.3868 50.4248 68.3868 49.6863C68.3868 48.7632 68.4484 47.8401 68.3253 46.917C68.0176 44.517 67.156 42.24 66.2945 39.963C65.6175 38.3014 64.5713 37.0706 62.7867 36.5167Z"
        fill="#C1C1C1" stroke="#231F20" stroke-width="0.5" stroke-miterlimit="10" />
    <path
        d="M70.233 49.7479C70.233 50.4248 70.4792 50.6095 71.033 50.3018C71.7715 49.871 72.6331 49.4402 73.1869 48.8248C74.5408 47.2863 75.8332 45.7478 77.1255 44.0862C78.0486 42.8554 78.7871 41.5631 78.5409 39.9015C78.3563 38.9168 78.2948 37.9322 78.1717 36.7629L77.5563 35.7783C76.5101 36.1475 75.5255 36.5783 74.6024 37.0706C74.11 37.3783 73.4946 37.686 73.2485 38.1168C71.9561 40.5784 70.91 43.1631 70.4176 45.9324C70.233 47.2248 70.233 48.5171 70.233 49.7479Z"
        fill="#C1C1C1" stroke="#231F20" stroke-width="0.5" stroke-miterlimit="10" />
    <path
        d="M66.2943 38.7322C67.4636 41.44 68.4482 44.2708 68.6944 47.2863C68.6944 47.5325 68.7559 47.7786 68.879 47.9632C68.9406 48.1479 69.1252 48.2709 69.2483 48.394C69.3713 48.2709 69.556 48.1479 69.679 47.9632C69.8021 47.6555 69.8637 47.3478 69.8637 47.0401C70.1098 44.4555 70.9098 41.9939 71.8945 39.5938C72.0791 39.163 72.2637 38.6707 72.4483 38.2399H66.1097C66.1713 38.363 66.2328 38.5476 66.2943 38.7322Z"
        fill="#C1C1C1" stroke="#231F20" stroke-width="0.5" stroke-miterlimit="10" />
    <path
        d="M78.7259 42.2618C77.8028 44.2926 76.3258 45.8926 74.8489 47.4927C74.1104 48.3542 73.3104 49.0927 72.5103 49.9543C72.3873 50.0774 72.3873 50.262 72.3257 50.4466C72.5103 50.5081 72.695 50.6312 72.818 50.5697C73.2488 50.5081 73.6796 50.3851 74.1104 50.262C76.0181 49.7697 77.9259 49.2773 79.8336 48.785C80.7567 48.5389 81.6183 48.2927 82.5414 48.0465C82.5414 48.0465 82.5414 48.0465 82.6029 48.0465C83.8337 47.6773 85.8645 48.5389 86.9722 49.2158C87.5876 47.6773 90.5416 46.7542 90.5416 46.7542L87.5876 45.4619C86.9107 45.1542 86.4184 44.9695 85.8645 44.7234C83.8337 43.8003 81.8644 42.8772 79.8336 41.8925C79.4028 41.7694 78.972 41.7079 78.7259 42.2618Z"
        fill="#C1C1C1" stroke="#231F20" stroke-width="0.75" stroke-miterlimit="10" />
    <path
        d="M51.2791 49.2773C52.3868 48.6004 54.4176 47.7388 55.6484 48.1081C55.6484 48.1081 55.6484 48.1081 55.71 48.1081C56.6331 48.3542 57.4946 48.6004 58.4177 48.8466C60.3255 49.3389 62.2332 49.8312 64.141 50.3235C64.5717 50.4466 65.0025 50.5697 65.4333 50.6312C65.6179 50.6312 65.741 50.5697 65.9256 50.5081C65.8641 50.3235 65.8641 50.1389 65.741 50.0158C65.0025 49.2158 64.1409 48.4158 63.4025 47.5542C61.9255 45.9542 60.387 44.3541 59.5254 42.3233C59.2793 41.7694 58.8485 41.831 58.4177 42.0772C56.4484 43.0003 54.4176 43.9849 52.3868 44.908C51.8945 45.1542 51.3406 45.3388 50.6637 45.6465L47.7713 46.8157C47.7713 46.8157 50.7252 47.7388 51.2791 49.2773Z"
        fill="#C1C1C1" stroke="#231F20" stroke-width="0.5" stroke-miterlimit="10" />
</svg>