<svg width="153" height="285" viewBox="0 0 153 285" fill="none" xmlns="http://www.w3.org/2000/svg">
    <g clip-path="url(#clip0_4_5)">
        <path
            d="M94.6751 284.873C93.0286 284.873 91.6354 284.62 90.5588 284.114L89.9255 283.798L89.6089 283.165C87.709 279.053 87.9623 276.206 88.3423 272.727C88.1523 271.209 87.899 269.437 87.709 267.666V267.603C87.519 266.148 87.3924 264.629 87.519 262.984L88.279 258.366C88.279 258.24 88.3423 258.113 88.3423 257.987C88.4056 257.734 88.469 257.417 88.5323 257.101C88.6589 256.721 88.7856 256.405 88.9123 256.026C89.0389 255.583 89.1656 255.203 89.2922 254.76C89.6722 253.368 89.7988 250.901 89.4189 249.32C89.0389 247.612 88.7856 246.156 88.5323 244.765C88.2157 243.183 87.9623 241.665 87.519 239.83L86.6325 235.845C86.4425 235.528 86.2525 235.339 86.1892 235.149C84.9859 233.061 84.2893 231.1 84.0993 229.139C83.7194 225.659 84.0993 222.243 85.1759 218.7C85.4292 217.878 85.6825 217.119 85.8725 216.423C86.4425 214.778 86.8224 213.576 87.0124 211.994L84.8593 209.274C82.7061 204.34 81.9462 201.113 81.0596 197.381C80.8063 196.305 80.553 195.23 80.2363 194.028C78.9065 188.967 77.9565 183.526 77.7666 180.11C77.5766 177.01 77.5132 173.277 77.3866 169.671C77.2599 165.939 77.1966 162.08 77.0066 158.917C76.9433 158.347 77.1333 155.88 77.5132 150.313C77.6399 148.478 77.7666 146.391 77.7666 146.074V144.05C77.7666 143.86 77.7666 143.607 77.7666 143.417C77.8299 142.848 78.0832 142.342 78.3998 141.899C77.7032 141.203 77.1333 140.444 76.6267 139.685C76.12 140.444 75.4868 141.203 74.8535 141.899C75.2334 142.279 75.4234 142.848 75.4868 143.417C75.4868 143.67 75.4868 143.86 75.4868 144.05V146.074C75.4868 146.327 75.6134 148.415 75.7401 150.25C76.12 155.817 76.31 158.284 76.2467 158.854C76.0567 162.017 75.93 165.876 75.8667 169.608C75.7401 173.214 75.6767 176.947 75.4868 180.047C75.2968 183.463 74.3469 188.903 73.017 193.964C72.7003 195.166 72.447 196.242 72.1937 197.317C71.3071 201.05 70.4839 204.213 68.394 209.211L66.2409 211.931C66.4309 213.513 66.8108 214.651 67.3808 216.36C67.6341 217.055 67.8241 217.751 68.0774 218.637C69.154 222.18 69.5339 225.596 69.154 229.075C68.964 231.037 68.2674 233.061 67.0642 235.085C67.0008 235.275 66.8108 235.465 66.6209 235.781L65.7343 239.767C65.3543 241.602 65.0377 243.12 64.721 244.701C64.4677 246.093 64.2144 247.548 63.8344 249.256C63.5178 250.775 63.5811 253.242 63.9611 254.697C64.0877 255.14 64.2144 255.519 64.3411 255.962C64.4677 256.342 64.5944 256.658 64.721 257.038C64.8477 257.354 64.8477 257.607 64.911 257.923C64.911 258.05 64.9743 258.176 64.9743 258.303L65.7343 262.921C65.9243 264.566 65.7343 266.148 65.5443 267.539V267.603C65.3543 269.374 65.101 271.145 64.911 272.664C65.3543 276.206 65.6076 278.99 63.6445 283.102L63.3278 283.735L62.6945 284.051C61.618 284.557 60.2247 284.81 58.5782 284.81C56.3618 284.81 52.6254 284.241 51.1689 282.659C50.7889 282.216 50.4723 281.774 50.1556 281.394C49.839 281.014 49.5857 280.635 49.3324 280.319C48.5724 279.559 47.4325 279.243 46.1026 278.863C44.3295 278.357 42.3663 277.851 40.7831 276.08C39.1366 274.245 38.6933 271.905 39.5166 269.754C40.4031 267.476 42.6829 265.515 45.1527 264.882C45.7227 264.756 46.5459 264.693 47.6858 264.693C49.0791 264.693 50.6623 264.819 51.8022 264.882L51.7388 264.44C51.7388 264.376 51.7388 264.313 51.7388 264.313C51.6755 264.06 51.6755 263.68 51.6755 263.301C51.7388 262.984 51.7388 262.605 51.8022 262.289C51.9288 261.213 52.0555 260.074 52.2454 258.936C52.6254 256.911 52.5621 254.697 51.9288 252.103C50.5989 246.473 49.269 240.653 47.4325 235.022C47.3692 234.706 47.2425 234.453 47.1159 234.137C46.4826 232.302 45.786 230.151 45.786 227.873V226.925C45.5327 226.292 45.4694 225.659 45.406 225.153C45.2794 223.888 45.2794 220.978 45.406 219.396C45.596 217.562 46.166 215.727 46.7359 213.892C46.9259 213.323 47.1159 212.754 47.2425 212.121C48.3191 208.452 49.1424 206.68 50.3456 204.276C50.4089 204.087 50.5356 203.897 50.5989 203.707L50.5356 203.454C50.4723 203.327 50.4089 203.138 50.3456 203.011C50.1556 202.568 49.9023 201.999 49.839 201.303L49.7757 200.987C49.5857 199.595 49.3957 198.203 49.459 196.748C49.5223 195.356 49.5857 194.028 49.7123 192.699C49.839 191.181 49.9023 189.726 49.9656 188.271V188.081L48.7624 181.375L48.6991 181.059C48.5724 180.616 48.5091 180.11 48.4458 179.604C48.1925 178.022 47.9392 176.377 47.6858 174.796C47.0526 170.873 46.4193 166.761 46.0393 162.713C45.596 158.221 45.4694 153.666 45.3427 149.301V148.731C45.2794 146.074 45.3427 143.164 45.596 139.558C45.786 136.964 46.166 134.371 46.4826 132.156C46.7359 130.701 47.4959 129.689 48.6358 129.246C48.5724 128.677 48.3824 125.198 48.3824 125.198L48.3191 125.071C48.1925 124.755 48.0025 124.185 48.1291 123.426L48.3191 122.604C48.6991 120.643 49.0791 118.618 49.5857 116.657C49.9656 115.075 50.4723 113.431 51.2955 111.912C50.7889 111.28 50.4723 110.457 50.6623 109.635C51.1689 107.231 51.6122 105.08 52.1188 103.055C52.3088 102.17 53.0054 101.474 53.8286 101.221C53.2587 99.9556 52.8154 98.7536 52.3721 97.6149C51.3589 94.6415 50.9156 91.6681 50.4723 88.6948C50.3456 87.9989 50.219 84.899 50.219 84.899C50.219 84.899 48.8891 87.7458 48.5091 88.505C47.4959 90.4029 46.356 92.4273 45.2161 94.3252C44.8361 95.0211 44.2661 95.5905 43.6962 96.0966C43.8228 96.4761 43.9495 96.8557 43.9495 97.2353C43.9495 97.4251 43.9495 97.6781 43.9495 97.9312C43.9495 98.7536 43.9495 99.7026 43.6329 100.652C43.2529 101.727 42.8096 102.739 42.303 103.688C42.1763 104.004 41.9863 104.321 41.8597 104.574C41.6697 104.89 41.4797 105.27 41.2897 105.586C41.0364 106.029 40.7831 106.472 40.6565 106.851C39.1366 111.469 37.1734 116.214 34.8303 120.769C33.3104 123.679 31.7906 126.653 30.2707 129.563C29.3208 131.334 28.3709 133.105 27.4843 134.877C27.041 135.699 26.4077 136.142 25.9011 136.269C25.9011 137.534 25.9011 138.799 25.8377 140.001V141.14C26.0277 142.911 25.3945 144.493 24.8878 145.758C24.8245 145.948 24.6978 146.201 24.6345 146.391C24.1279 147.719 23.4946 149.111 22.5447 150.376C22.4814 150.503 22.418 150.629 22.3547 150.756L21.8481 151.642C21.3415 152.59 20.8348 153.539 20.3282 154.488C19.6949 155.627 19.0617 156.513 18.4284 157.335C17.7951 158.094 16.7819 158.411 16.0219 158.411C15.832 158.411 15.642 158.411 15.5153 158.347C14.6921 159.929 13.4888 160.815 11.969 160.878C11.9056 160.878 11.8423 160.878 11.779 160.878C11.019 160.878 10.4491 160.625 10.0691 160.372C10.0058 160.372 10.0058 160.435 9.94247 160.435C9.5625 160.688 9.05588 160.815 8.48593 160.815C8.10596 160.815 7.15604 160.751 6.39611 160.055C5.63618 159.36 5.50952 158.347 5.38286 157.778C5.31954 157.335 5.38286 156.956 5.44619 156.639C4.87624 156.26 4.36962 155.311 4.30629 155.247L4.05298 153.413C4.11631 153.16 4.24296 152.907 4.30629 152.717C4.49627 152.148 4.68626 151.578 4.93957 151.009C5.63618 149.68 6.33278 148.352 7.02939 147.023L7.34603 146.391C6.77608 146.517 5.25621 146.834 5.25621 146.834C4.93957 146.897 4.5596 146.96 4.24296 146.96C2.84975 146.96 1.5832 146.327 0.759934 145.189C0.506622 144.872 -0.189984 143.987 0.126655 142.785C0.443295 141.646 1.45654 141.203 1.83651 141.013C3.60969 140.254 5.25621 139.495 6.20613 138.166C6.58609 137.66 6.96606 137.218 7.2827 136.775L7.59934 136.395C8.80257 134.877 10.5757 133.042 13.1722 131.967C13.4888 131.84 13.7421 131.777 13.9954 131.714C14.0588 131.461 14.1221 131.208 14.1854 130.954C14.5654 129.942 14.9454 128.993 15.262 127.981C16.2752 125.198 17.3518 122.351 18.3017 119.504C18.6817 118.428 18.9983 117.29 19.315 116.088C19.505 115.392 20.3916 113.114 20.5815 112.861L22.0381 110.837L22.5447 106.219C22.6714 100.398 25.3945 95.7802 28.7508 90.7192L29.8274 89.8335C29.8907 87.0499 30.3973 84.5827 31.4106 82.3052C31.5372 82.0522 31.6639 81.7991 31.7906 81.6093C31.6639 81.3563 31.5373 81.1032 31.4739 80.7869C31.3473 80.2808 31.1573 79.5849 31.2839 78.889C31.3473 78.5727 31.4106 78.2564 31.4106 77.9401C31.6006 76.8013 31.7272 75.5361 32.1705 74.3341C32.6138 72.879 33.2471 71.5505 33.8171 70.222C33.9437 69.8424 34.1337 69.5261 34.2603 69.1465C34.5137 68.5139 34.8936 68.1343 35.2736 67.818C35.2736 67.6282 35.2736 67.4384 35.2736 67.2486C35.3369 66.8058 35.3369 66.3629 35.4002 65.9834C35.5269 64.9711 35.5902 63.9589 35.7802 62.9467C36.4768 59.0244 37.8067 56.1776 39.8965 53.9001C42.6196 50.99 46.1026 48.9023 50.4723 47.384C50.9789 47.1942 52.4354 46.8779 52.4354 46.8779L53.9553 46.4983C54.6519 46.3085 55.2852 46.182 55.9818 45.9922C56.6784 45.8024 57.375 45.6127 58.0716 45.4229L61.1113 43.778C61.238 43.7148 61.3646 43.6515 61.4913 43.5882L62.5045 42.9556C63.3911 42.4495 64.2777 41.8801 65.101 41.374C65.6076 41.0577 66.1776 40.4883 66.3675 38.97C66.4309 38.0843 66.5575 37.1987 66.6209 36.2497C65.7976 35.7436 64.721 34.8579 64.531 33.2131C64.4677 32.5805 64.4044 32.0111 64.3411 31.3785C64.2777 30.6826 64.2144 29.9867 64.1511 29.2908L64.0877 28.7214C63.4545 28.5949 62.7579 28.2786 62.3146 27.6459C61.8713 27.0133 61.5546 26.3174 61.238 25.7481L61.1747 25.6215C60.668 24.6093 60.2248 23.5971 59.7815 22.5216L59.7181 22.3319C59.2748 21.3196 59.4015 19.9911 60.1614 18.8524C60.7314 17.9034 61.5546 17.3341 62.4412 17.1443C62.4412 16.5749 62.4412 16.0055 62.4412 15.4362C62.6312 10.5017 64.2144 6.64262 67.2541 3.79578C69.344 1.83463 72.0037 0.63263 75.0435 0.253052C75.6134 0.189789 76.1834 0.126526 76.7533 0.126526C83.4027 0.126526 89.0389 4.74473 90.4954 11.3873C90.8754 13.222 91.0654 15.1199 91.0021 17.2075L91.1287 17.2708C92.7119 17.7137 94.1685 19.6748 94.1051 21.1299V21.4462L94.0418 21.6992C93.9785 21.889 93.9152 22.1421 93.7885 22.3951C93.0919 23.8502 92.3953 25.3685 91.6987 26.8235C91.572 27.1398 91.2554 27.7725 90.6221 28.1521C90.2421 28.3418 89.8622 28.4684 89.6089 28.5949C89.5455 28.5949 89.4822 28.6582 89.4822 28.6582L89.3556 29.7336C89.2922 30.2397 89.2289 30.7458 89.1656 31.2519C89.1022 32.0111 88.9756 32.8335 88.8489 33.5927C88.5956 35.111 87.4557 35.9334 86.6325 36.3762C86.6958 37.0721 86.7591 37.768 86.7591 38.4639C86.8224 39.7925 87.3291 40.6781 88.3423 41.3108C89.2289 41.8801 90.1155 42.3862 91.0021 42.8923C91.382 43.1454 91.8253 43.3984 92.2053 43.5882L94.9284 45.2331C95.8783 45.4861 96.8282 45.7392 97.7148 45.9922C98.2214 46.1188 98.7914 46.3085 99.298 46.4351L100.881 46.8779C100.881 46.8779 101.894 47.131 102.338 47.2575C106.707 48.7125 110.19 50.8635 112.913 53.7736C115.003 56.0511 116.333 58.8979 117.03 62.8202C117.22 63.8324 117.283 64.8446 117.41 65.8568C117.473 66.2997 117.6 67.5649 117.536 67.7547C117.916 68.0078 118.233 68.4506 118.55 69.0832C118.676 69.4628 118.866 69.7791 118.993 70.1587C119.563 71.4872 120.196 72.8158 120.639 74.2708C121.019 75.4728 121.209 76.6748 121.399 77.8768C121.463 78.1931 121.463 78.5094 121.526 78.8257C121.653 79.5216 121.526 80.2175 121.336 80.7236C121.273 81.04 121.146 81.293 121.019 81.5461C121.146 81.7358 121.273 81.9889 121.399 82.242C122.413 84.5194 122.919 86.9867 122.983 89.7703L124.059 90.6559C127.352 95.717 130.139 100.335 130.265 106.155V107.357L130.709 110.837C130.709 110.837 133.242 115.392 133.432 116.088C133.748 117.29 134.065 118.428 134.445 119.504C135.458 122.351 136.471 125.198 137.485 127.981C137.865 128.993 138.245 129.942 138.561 130.954C138.625 131.208 138.751 131.461 138.751 131.714C139.005 131.777 139.258 131.84 139.575 131.967C142.234 133.042 143.944 134.94 145.147 136.395L145.464 136.838C145.844 137.281 146.224 137.724 146.541 138.23C147.554 139.622 149.2 140.317 150.91 141.077C151.29 141.266 152.303 141.709 152.62 142.848C152.937 143.987 152.24 144.936 151.987 145.252C151.1 146.391 149.897 147.023 148.504 147.023C148.187 147.023 147.807 146.96 147.49 146.897L147.174 146.834C146.604 146.707 146.034 146.58 145.401 146.454L145.781 147.15C146.477 148.415 147.174 149.744 147.87 151.072C148.187 151.642 148.377 152.211 148.567 152.78C148.63 153.033 148.694 153.223 148.82 153.476C148.82 153.476 148.504 155.374 148.504 155.437C148.314 155.754 147.997 156.323 147.49 156.703C147.554 157.019 147.617 157.398 147.554 157.778C147.427 158.411 147.3 159.36 146.541 160.055C145.844 160.751 144.831 160.815 144.451 160.815C143.944 160.815 143.438 160.688 142.994 160.435C142.931 160.435 142.931 160.372 142.868 160.372C142.488 160.625 141.918 160.878 141.158 160.878C141.094 160.878 141.031 160.878 140.968 160.878C139.385 160.815 138.181 159.929 137.421 158.347C137.231 158.347 137.105 158.411 136.915 158.411C136.155 158.411 135.142 158.158 134.508 157.335C133.875 156.513 133.242 155.564 132.608 154.488C132.038 153.539 131.532 152.59 131.025 151.642L130.582 150.756C130.519 150.629 130.455 150.503 130.392 150.376C129.442 149.111 128.809 147.719 128.302 146.391C128.239 146.201 128.112 145.948 128.049 145.758C127.542 144.493 126.909 142.911 127.099 141.14V140.064C127.099 138.799 127.036 137.534 127.036 136.269C126.529 136.079 125.896 135.699 125.452 134.877C124.502 133.105 123.553 131.271 122.666 129.499C121.146 126.653 119.626 123.679 118.106 120.769C115.763 116.151 113.8 111.469 112.28 106.851C112.154 106.472 111.9 106.029 111.647 105.586C111.457 105.27 111.267 104.89 111.077 104.574C110.95 104.257 110.76 103.941 110.634 103.688C110.127 102.739 109.62 101.79 109.304 100.652C108.987 99.7026 108.987 98.7536 108.987 97.9312C108.987 97.6781 108.987 97.4883 108.987 97.2353C108.987 96.8557 109.05 96.4761 109.24 96.0966C108.671 95.5905 108.101 95.0211 107.721 94.3252C106.517 92.364 105.441 90.4029 104.428 88.505C104.048 87.8091 103.224 86.2908 103.224 86.2275C103.224 86.2275 103.034 87.8724 102.971 88.3785C102.274 93.6926 101.198 97.6781 99.5513 101.221C100.311 101.474 100.945 102.107 101.135 102.992C101.641 105.08 102.084 107.231 102.591 109.572C102.781 110.331 102.464 111.216 101.958 111.849C102.781 113.367 103.224 115.012 103.668 116.594C104.174 118.555 104.554 120.579 104.934 122.541L105.124 123.363C105.251 124.059 105.061 124.691 104.934 125.008L104.871 125.134C104.871 125.134 104.681 128.677 104.618 129.183C105.757 129.626 106.517 130.638 106.771 132.093C107.087 134.307 107.467 136.901 107.657 139.495C107.911 143.101 107.974 146.011 107.911 148.668V149.238C107.784 153.666 107.721 158.221 107.214 162.649C106.771 166.698 106.137 170.747 105.567 174.733C105.314 176.314 105.061 177.959 104.808 179.54C104.744 180.047 104.618 180.553 104.554 180.996L104.491 181.312L103.288 188.081V188.271C103.288 189.726 103.414 191.181 103.541 192.699C103.604 194.028 103.731 195.42 103.794 196.748C103.858 198.203 103.668 199.595 103.478 200.987L103.414 201.303C103.351 201.936 103.098 202.568 102.908 203.011C102.844 203.138 102.781 203.327 102.718 203.454L102.591 203.707C102.654 203.897 102.781 204.087 102.844 204.276C104.048 206.744 104.934 208.452 105.947 212.121C106.137 212.69 106.327 213.323 106.454 213.892C107.024 215.664 107.594 217.498 107.784 219.396C107.974 220.915 107.911 223.888 107.784 225.153C107.721 225.659 107.657 226.292 107.404 226.925V227.873C107.404 230.151 106.707 232.239 106.074 234.137C105.947 234.453 105.884 234.706 105.757 235.022C103.921 240.589 102.591 246.473 101.261 252.103C100.628 254.697 100.565 256.911 100.945 258.936C101.135 260.074 101.261 261.213 101.388 262.289C101.451 262.605 101.451 262.984 101.514 263.301C101.578 263.744 101.514 264.123 101.451 264.313C101.451 264.376 101.451 264.44 101.451 264.44L101.388 264.882C102.528 264.819 104.111 264.693 105.504 264.693C106.644 264.693 107.404 264.756 108.037 264.882C110.507 265.515 112.787 267.413 113.673 269.754C114.497 271.905 114.053 274.245 112.407 276.08C110.824 277.851 108.861 278.421 107.087 278.863C105.757 279.243 104.618 279.559 103.858 280.319C103.604 280.572 103.288 280.951 103.034 281.394C102.718 281.837 102.401 282.28 102.021 282.659C100.691 284.241 96.8916 284.873 94.6751 284.873Z"
            fill="white" stroke="#231F20" stroke-width="0.5" stroke-miterlimit="10" />
        <path
            d="M37.9969 68.1973C38.7568 68.2606 39.5167 68.3871 39.8967 68.3871C43.633 68.4504 46.6094 67.3116 49.0792 65.0974C51.0424 63.3261 52.7522 61.3016 54.7154 59.5303C55.7287 58.5813 56.8686 57.8854 58.0085 57.063C58.4517 56.7467 58.6417 56.4304 58.6417 55.861C58.4517 53.0142 55.7286 49.6612 53.0056 49.0286C52.4989 48.9021 51.8023 48.9021 51.2957 49.0919C47.5594 50.3571 44.203 52.1918 41.5432 55.1019C39.4534 57.3793 38.4402 60.1629 37.9335 63.1363C37.6802 64.5281 37.6169 65.9198 37.4269 67.3116C37.3636 67.881 37.5536 68.1341 37.9969 68.1973Z"
            fill="#C1C1C1" stroke="#231F20" stroke-width="0.5" stroke-miterlimit="10" />
        <path
            d="M63.0112 24.7991C63.2645 25.3685 63.5811 26.0011 63.9611 26.5072C64.1511 26.7603 64.5944 26.8235 64.8477 26.8235H65.8609C65.9876 27.5827 66.0509 28.2786 66.1142 29.0377C66.3042 30.3663 66.3675 31.6315 66.5575 32.96C66.6842 33.909 67.3175 34.3518 68.2041 34.7947C68.2674 34.4784 68.3307 34.2253 68.3307 34.0355C68.584 32.6437 68.7107 31.1887 69.0273 29.7969C69.4706 27.899 70.1039 26.0644 71.7504 24.8624C74.5368 22.7747 77.5766 22.6482 80.6796 24.1665C82.3262 24.9256 83.2128 26.3174 83.7827 27.8357C84.2893 29.2908 84.606 30.8091 84.9226 32.3274C85.1126 33.0866 85.1126 33.909 85.2392 34.8579C85.9992 34.4151 86.6325 34.0355 86.8224 33.2131C87.0757 31.9478 87.1391 30.6826 87.2657 29.4173C87.3924 28.5316 87.519 27.6459 87.6457 26.7603H88.5956C88.9122 26.6337 89.2922 26.5072 89.5455 26.3807C89.6722 26.3174 89.7355 26.0644 89.8622 25.8746C90.5588 24.4195 91.2554 22.9645 91.952 21.4462C92.0153 21.2564 92.0786 21.0666 92.142 20.9401C92.142 20.3074 91.1287 19.0422 90.5588 19.0422L88.9756 18.4095C89.1656 16.1953 89.1022 13.9811 88.5956 11.7037C87.2657 5.50388 81.5029 1.32852 75.2968 2.15094C72.7637 2.46726 70.4839 3.4162 68.584 5.18757C65.6076 7.97114 64.531 11.5771 64.3411 15.4994C64.2777 16.5749 64.3411 17.5871 64.4677 18.6626L62.9478 19.1054C61.9979 19.1054 61.1113 20.687 61.4913 21.5094C62.0613 22.6482 62.5679 23.7236 63.0112 24.7991Z"
            fill="#C1C1C1" stroke="#231F20" stroke-width="0.5" stroke-miterlimit="10" />
        <path
            d="M94.3584 55.9878C94.2951 56.4939 94.5484 56.8735 94.9917 57.1898C96.1316 57.9489 97.2715 58.7081 98.2848 59.657C100.185 61.4284 101.958 63.4528 103.921 65.2242C106.391 67.4384 109.367 68.5771 113.103 68.5139C113.483 68.4506 114.243 68.3873 115.003 68.3241C115.447 68.2608 115.7 68.0078 115.637 67.5649C115.447 66.1731 115.383 64.7181 115.13 63.3896C114.623 60.4162 113.61 57.6326 111.52 55.3552C108.797 52.5083 105.441 50.6104 101.768 49.3452C101.261 49.1554 100.628 49.1554 100.058 49.2819C97.2715 49.788 94.5484 53.141 94.3584 55.9878Z"
            fill="#C1C1C1" stroke="#231F20" stroke-width="0.5" stroke-miterlimit="10" />
        <path
            d="M62.1875 108.433C62.1241 108.306 61.9975 108.243 61.8708 108.18C61.6808 108.053 61.5542 107.99 61.3642 107.863C61.1742 107.737 60.9842 107.8 60.6043 107.737C57.8812 107.927 55.6014 109.192 53.8915 111.469C52.625 113.114 51.9917 115.139 51.4851 117.163C50.9151 119.377 50.5351 121.591 50.0918 123.806C50.0285 124.059 50.2185 124.375 50.2818 124.691C50.5985 124.565 50.9784 124.565 51.1051 124.312C51.675 123.553 52.3083 122.73 52.7516 121.908C52.8783 121.591 53.0683 121.338 53.1949 121.085L55.6647 118.618L57.0579 117.732C57.5645 117.479 58.0078 117.226 58.5144 117.036C60.4143 116.404 62.4408 115.961 64.4039 115.455C65.2272 115.265 65.4172 115.139 65.2272 114.316C64.8472 113.051 64.4039 111.786 63.9606 110.52C63.834 110.141 63.644 109.951 63.454 109.824V109.761L62.1875 108.433Z"
            fill="#C1C1C1" stroke="#231F20" stroke-width="0.5" stroke-miterlimit="10" />
        <path
            d="M84.9863 46.6883C82.9598 46.8781 81.1233 47.5107 80.0467 49.4719C78.8435 51.6861 77.9569 54.0901 77.7036 56.6206C77.2603 60.4164 77.1969 64.2121 77.1336 68.0079C77.0703 73.4486 77.1336 78.9524 77.1336 84.3931C77.1336 85.2787 77.1969 86.1644 77.2603 86.9868C78.0835 82.4952 80.7433 78.9524 83.3397 75.473C84.9863 73.2588 86.5695 71.1078 88.1527 68.8304C89.7992 66.4896 91.2557 64.0224 91.9523 61.2388C92.4589 59.0878 92.9022 56.8736 93.4722 54.7227C94.0421 52.5717 94.9921 50.6106 97.0185 49.4086C97.5252 49.0923 98.0951 48.9025 98.6651 48.5862C98.6651 48.5229 98.6651 48.4597 98.6651 48.3964C96.9552 47.8903 95.2454 47.3842 93.4722 46.9413C90.7491 46.3087 87.8993 46.4352 84.9863 46.6883Z"
            fill="#C1C1C1" stroke="#231F20" stroke-width="0.5" stroke-miterlimit="10" />
        <path
            d="M110.19 69.0201C109.367 68.8303 108.607 68.6405 107.53 68.4507C107.72 69.0201 107.784 69.3364 107.974 69.6527C108.86 71.424 109.873 73.1322 110.633 74.9668C111.773 77.5606 113.99 79.3952 116.459 81.1033C117.853 82.0522 119.119 81.6727 119.499 80.2176C119.626 79.9013 119.689 79.5217 119.626 79.2054C119.373 77.7504 119.246 76.3586 118.803 74.9668C118.233 73.2587 117.473 71.6138 116.776 69.969C116.586 69.5262 116.27 69.1466 115.51 69.2731C113.673 69.6527 111.9 69.3996 110.19 69.0201Z"
            fill="#C1C1C1" stroke="#231F20" stroke-width="0.5" stroke-miterlimit="10" />
        <path
            d="M55.6018 139.938C55.5385 137.597 55.2219 135.256 53.7653 133.169C53.132 132.22 52.2454 131.397 51.0422 131.018C49.5857 130.575 48.6991 130.955 48.5091 132.283C48.1291 134.687 47.8125 137.091 47.6225 139.495C47.4325 142.468 47.3059 145.505 47.3692 148.542C47.4959 153.16 47.5592 157.778 48.0658 162.396C48.6358 168.027 49.649 173.594 50.4723 179.224C50.5356 179.794 50.7256 180.363 50.7889 180.932L52.0555 187.891C52.0555 188.018 52.0555 188.144 52.0555 188.271C51.9921 191.118 51.6755 193.964 51.6122 196.811C51.5488 198.203 51.8021 199.658 51.9921 201.05C52.0555 201.683 52.3721 202.252 52.5621 202.821C52.6254 202.821 52.7521 202.821 52.8154 202.821C52.8787 202.695 52.942 202.568 53.0054 202.442C54.0819 199.974 55.0319 197.507 56.2984 195.103C58.7049 190.485 59.9081 185.614 60.1614 180.489C60.3514 176.441 60.4781 172.455 60.668 168.406C60.7314 167.204 60.9847 165.939 61.048 164.737C61.3013 161.637 61.5546 158.537 61.618 155.437C61.6813 153.666 61.5546 151.895 61.3646 150.123C61.3013 149.174 60.9214 148.921 59.9081 149.238C59.2748 149.427 58.6416 149.617 58.0083 149.87C56.9317 150.25 54.3353 150.882 54.2719 149.301C55.0319 146.264 55.6651 143.164 55.6018 139.938Z"
            fill="#C1C1C1" stroke="#231F20" stroke-width="0.5" stroke-miterlimit="10" />
        <path
            d="M56.3621 198.52C56.1088 198.52 55.7922 198.836 55.6022 199.152C54.8422 200.544 53.7023 202.062 53.0057 203.454C51.3592 206.87 50.4093 208.452 49.2061 212.69C48.5095 215.094 47.6862 217.372 47.4329 219.586C47.3062 220.978 47.3062 223.825 47.4329 224.9C47.6862 227.557 49.5227 228.949 52.0558 229.645C53.9556 230.151 55.2855 229.392 55.4122 227.494C55.6022 225.28 55.5388 223.002 55.7288 220.788C56.1088 217.119 56.4888 213.386 56.9954 209.717C57.3753 207.123 57.882 204.53 57.882 201.809C57.882 200.797 57.6287 199.911 57.122 199.026C56.9321 198.899 56.6154 198.52 56.3621 198.52Z"
            fill="#C1C1C1" stroke="#231F20" stroke-width="0.5" stroke-miterlimit="10" />
        <path
            d="M50.0927 68.5138C50.0927 68.324 50.0927 68.071 50.0293 67.8812C49.8394 67.5649 49.6494 66.9955 49.4594 66.9955C49.0161 66.9323 48.4461 67.122 48.1928 67.4384C45.4697 70.9178 42.7466 74.3973 42.1767 78.889C42.05 79.7114 41.9234 80.4706 41.7334 81.6725C41.7967 82.5582 41.9234 83.7602 42.05 85.0255C42.05 85.152 42.1134 85.2785 42.1767 85.4051C42.81 87.2397 43.9499 87.6193 45.4064 86.1642C48.1295 83.5072 49.9027 80.4073 50.0927 76.6748C50.156 73.8912 50.0927 71.1709 50.0927 68.5138Z"
            fill="#C1C1C1" stroke="#231F20" stroke-width="0.5" stroke-miterlimit="10" />
        <path
            d="M59.4019 202.252C59.7185 201.999 59.9718 201.809 60.1618 201.683C60.7951 201.177 61.4284 200.544 62.125 200.101C62.8216 199.658 62.9482 199.405 62.4416 198.709C61.2384 196.875 60.2251 194.977 59.7185 192.826C59.7185 192.699 59.5919 192.636 59.4652 192.32C58.7053 193.712 58.072 194.977 57.3754 196.179C57.1221 196.685 57.2487 197.128 57.502 197.634C58.0087 198.646 58.452 199.658 58.8952 200.671C59.0852 201.113 59.2119 201.619 59.4019 202.252Z"
            fill="#C1C1C1" stroke="#231F20" stroke-width="0.5" stroke-miterlimit="10" />
        <path
            d="M121.463 97.9314C123.806 100.399 125.896 103.056 127.669 105.903C127.796 106.092 127.922 106.219 128.049 106.345C128.112 106.282 128.176 106.282 128.239 106.219C128.176 100.778 125.326 96.2233 122.413 91.7949C122.286 91.7949 122.223 91.7949 122.096 91.7949C121.97 92.048 121.78 92.301 121.716 92.5541C121.463 93.8826 121.21 95.2111 120.956 96.4764C120.893 97.0458 121.083 97.4886 121.463 97.9314Z"
            fill="#C1C1C1" stroke="#231F20" stroke-width="0.5" stroke-miterlimit="10" />
        <path
            d="M97.5877 220.788C97.7777 223.002 97.7144 225.28 97.9044 227.494C98.031 229.392 99.3609 230.151 101.261 229.645C103.794 228.949 105.694 227.557 105.884 224.9C105.947 223.825 106.01 220.978 105.884 219.586C105.63 217.372 104.807 215.094 104.11 212.69C102.907 208.452 101.957 206.87 100.311 203.454C99.6142 202.062 98.411 200.544 97.7144 199.152C97.5877 198.899 97.2078 198.52 96.9544 198.52C96.7011 198.52 96.3845 198.836 96.1945 199.089C95.6879 199.911 95.4346 200.86 95.4346 201.872C95.4346 204.53 95.9412 207.123 96.3212 209.78C96.7645 213.45 97.2078 217.119 97.5877 220.788Z"
            fill="#C1C1C1" stroke="#231F20" stroke-width="0.5" stroke-miterlimit="10" />
        <path
            d="M98.2851 103.435C97.2719 104.574 96.322 105.776 95.3721 106.978C96.322 107.674 97.2719 108.243 98.1585 108.939C98.6651 109.382 99.1084 109.951 99.615 110.394C99.805 110.584 100.185 110.71 100.375 110.647C100.565 110.584 100.755 110.141 100.692 109.951C100.248 107.737 99.7417 105.586 99.2351 103.435C99.1084 102.929 98.6651 102.929 98.2851 103.435Z"
            fill="#C1C1C1" stroke="#231F20" stroke-width="0.5" stroke-miterlimit="10" />
        <path
            d="M101.325 85.8479C101.262 85.8479 101.198 85.7847 101.135 85.7847C101.008 86.0377 100.945 86.2275 100.818 86.4806C100.122 87.7458 99.4251 89.0743 98.6019 90.2763C97.7786 91.5416 96.702 92.6171 95.1822 92.9967C93.0924 93.566 91.0659 93.3762 89.0394 92.5538C88.8494 92.4905 88.6594 92.4273 88.3428 92.3008C90.8126 96.7292 92.0158 101.411 92.9657 106.408C93.4723 106.029 93.8523 105.839 94.1689 105.586C95.6888 104.194 96.7654 102.486 97.652 100.651C99.5518 96.6659 100.502 92.4273 101.072 88.0621C101.135 87.3662 101.198 86.6071 101.325 85.8479Z"
            fill="#C1C1C1" stroke="#231F20" stroke-width="0.5" stroke-miterlimit="10" />
        <path
            d="M118.359 82.1785C117.599 82.1152 116.776 81.9254 116.079 81.6091C114.876 81.0397 113.8 80.4071 112.47 79.6479C112.47 79.9643 112.533 80.0908 112.533 80.2806C112.533 81.5458 112.66 82.8111 112.47 84.0764C112.28 85.5947 111.583 86.9232 109.747 87.8089L109.683 87.8721C109.557 87.8721 109.367 87.8721 108.987 87.8721C108.227 87.8089 107.277 86.9865 106.707 86.4171C106.58 86.2906 106.454 86.164 106.327 86.0375C105.947 85.6579 105.567 85.2784 105.25 84.962C105.187 85.0253 105.124 85.0253 104.997 85.0886C105.06 85.2151 105.06 85.3416 105.124 85.4682C106.58 88.1252 107.973 90.7822 109.557 93.376C110.127 94.2617 111.14 95.0841 112.026 95.8433C112.28 96.0963 112.976 96.0963 113.42 96.1596L115.699 96.3494C115.953 96.4127 116.269 96.3494 116.586 96.2229C117.536 95.8433 118.549 95.527 119.626 95.3372C120.322 95.2107 120.639 94.9576 120.702 94.4515C120.892 92.9332 121.146 91.4781 121.146 89.9598C121.082 87.6191 120.702 85.3416 119.752 83.1274C119.436 82.558 119.119 82.2417 118.359 82.1785Z"
            fill="#C1C1C1" stroke="#231F20" stroke-width="0.5" stroke-miterlimit="10" />
        <path
            d="M95.3088 149.87C94.6755 149.617 94.0422 149.427 93.409 149.238C92.3957 148.921 92.0157 149.174 91.9524 150.123C91.8258 151.895 91.6358 153.666 91.6991 155.437C91.8258 158.537 92.0791 161.637 92.269 164.737C92.3324 165.939 92.5857 167.204 92.649 168.406C92.839 172.392 93.029 176.441 93.1556 180.489C93.3456 185.614 94.5488 190.485 97.0186 195.103C98.2852 197.507 99.2351 199.974 100.312 202.442C100.375 202.568 100.438 202.695 100.502 202.821C100.565 202.821 100.692 202.821 100.755 202.821C100.945 202.252 101.262 201.683 101.325 201.05C101.515 199.658 101.705 198.203 101.705 196.811C101.642 193.964 101.325 191.118 101.262 188.271C101.262 188.144 101.262 188.018 101.262 187.891L102.528 180.932C102.655 180.363 102.781 179.794 102.845 179.224C103.668 173.657 104.618 168.027 105.251 162.396C105.758 157.778 105.821 153.16 105.948 148.542C106.011 145.505 105.885 142.532 105.695 139.495C105.505 137.091 105.188 134.687 104.808 132.283C104.618 130.954 103.731 130.575 102.275 131.018C101.072 131.397 100.185 132.22 99.5517 133.169C98.1585 135.256 97.7786 137.534 97.7152 139.938C97.5886 143.101 98.2852 146.201 99.0451 149.301C98.9818 150.946 96.3854 150.25 95.3088 149.87Z"
            fill="#C1C1C1" stroke="#231F20" stroke-width="0.5" stroke-miterlimit="10" />
        <path
            d="M77.1961 124.692C77.1961 126.463 77.1328 128.298 77.1328 130.069C77.1328 130.259 77.2595 130.512 77.3228 130.702C77.5128 130.575 77.8294 130.512 77.9561 130.322C78.6527 129.246 79.4126 128.234 80.0459 127.096C81.9457 123.806 82.8956 120.2 84.0989 116.657C84.9221 114.19 85.7454 111.723 87.1386 109.572C87.9619 108.306 88.8485 107.104 90.3683 106.662C91.4449 106.345 91.4449 106.345 91.3816 105.207C91.0649 100.841 89.8617 96.7293 87.2653 93.1866C85.3021 90.5295 82.8956 88.1888 80.6792 85.6582C80.4892 85.4685 80.2359 85.3419 79.9826 85.1521C79.5393 84.9624 79.096 85.0256 78.9693 85.4685C78.3994 87.1133 77.7028 88.7581 77.5128 90.4662C77.2595 92.9335 77.3228 95.464 77.3228 97.9945C77.3228 102.739 77.3228 107.484 77.3228 112.229H77.2595C77.1961 116.467 77.2595 120.579 77.1961 124.692Z"
            fill="#C1C1C1" stroke="#231F20" stroke-width="0.5" stroke-miterlimit="10" />
        <path
            d="M53.7023 110.394C54.2089 109.951 54.5889 109.318 55.1588 108.939C56.0454 108.243 56.9953 107.61 57.9452 106.978C56.9953 105.839 56.0454 104.637 55.0322 103.435C54.6522 102.929 54.2089 102.992 54.0822 103.435C53.5756 105.586 53.069 107.8 52.6257 109.951C52.5624 110.141 52.7524 110.584 52.9423 110.647C53.1323 110.773 53.5123 110.584 53.7023 110.394Z"
            fill="#C1C1C1" stroke="#231F20" stroke-width="0.5" stroke-miterlimit="10" />
        <path
            d="M110.887 85.3418C110.95 85.2153 110.95 85.0888 111.014 84.9623C111.14 83.697 111.267 82.495 111.33 81.6093C111.14 80.4073 110.95 79.5849 110.887 78.8257C110.317 74.3973 107.594 70.8546 104.871 67.3751C104.618 67.0588 104.048 66.9323 103.604 66.9323C103.351 66.9323 103.161 67.5017 103.034 67.818C102.971 68.0078 102.971 68.1976 102.971 68.4506C102.971 71.1709 102.908 73.8912 103.034 76.6115C103.161 80.3441 104.998 83.444 107.721 86.101C109.114 87.556 110.254 87.1765 110.887 85.3418Z"
            fill="#C1C1C1" stroke="#231F20" stroke-width="0.5" stroke-miterlimit="10" />
        <path
            d="M91.1924 200.038C91.889 200.544 92.4589 201.113 93.1555 201.62C93.3455 201.809 93.5988 201.936 93.9155 202.189C94.1054 201.556 94.2321 201.05 94.4221 200.544C94.8654 199.532 95.2453 198.52 95.8153 197.507C96.0686 197.001 96.1953 196.559 95.9419 196.052C95.2453 194.787 94.6121 193.585 93.8521 192.193C93.7255 192.51 93.5988 192.573 93.5988 192.699C93.0922 194.787 92.0789 196.748 90.8757 198.583C90.4324 199.342 90.5591 199.595 91.1924 200.038Z"
            fill="#C1C1C1" stroke="#231F20" stroke-width="0.5" stroke-miterlimit="10" />
        <path
            d="M88.8489 115.329C90.8121 115.835 92.8386 116.277 94.7384 116.91C95.245 117.1 95.7516 117.353 96.1949 117.606L97.5882 118.492L100.058 120.959C100.185 121.212 100.375 121.528 100.501 121.781C100.945 122.667 101.514 123.426 102.148 124.185C102.338 124.375 102.718 124.438 102.971 124.565C103.034 124.249 103.224 123.996 103.161 123.679C102.718 121.465 102.274 119.251 101.768 117.037C101.261 115.012 100.628 113.051 99.3613 111.343C97.6515 109.065 95.3717 107.8 92.6486 107.61C92.332 107.674 92.0786 107.674 91.8887 107.737C91.762 107.863 91.572 107.927 91.382 108.053C91.2554 108.117 91.1287 108.243 91.0654 108.306L89.6722 109.508V109.572C89.4822 109.698 89.3555 109.951 89.1656 110.267C88.7223 111.533 88.279 112.798 87.899 114.063C87.8357 115.012 88.0257 115.139 88.8489 115.329Z"
            fill="#C1C1C1" stroke="#231F20" stroke-width="0.5" stroke-miterlimit="10" />
        <path
            d="M102.464 71.9933L102.338 69.2098C102.338 69.02 102.274 68.8302 102.211 68.6404C102.021 68.0078 101.831 67.3751 101.578 66.7425C100.375 63.4528 98.2848 60.7325 95.435 58.7081C94.1685 57.8224 93.5985 58.0755 93.3452 59.5938C92.9652 61.808 92.332 63.9589 91.1921 65.9201C90.1788 67.6282 89.0389 69.2098 87.899 70.7913L86.3158 73.3851C84.5426 76.1054 82.7695 78.8257 80.9329 81.5461C80.2997 82.495 80.2997 83.4439 80.9963 84.3296C83.0228 87.1132 85.4292 89.5172 88.4056 91.3518C90.6221 92.6803 92.9019 92.6171 95.1817 91.5416C97.6515 90.3396 99.1714 88.2519 100.375 85.8479C102.021 82.5583 102.528 79.0788 102.528 74.9034C102.591 74.2708 102.528 73.1321 102.464 71.9933Z"
            fill="#C1C1C1" stroke="#231F20" stroke-width="0.5" stroke-miterlimit="10" />
        <path
            d="M87.5829 209.907C87.7095 209.907 87.8995 209.843 88.0262 209.843L88.0895 203.391C88.0895 202.758 88.1528 202.189 88.1528 201.556C88.1528 200.67 88.4694 200.038 89.1027 199.342C91.1292 197.128 92.5858 194.66 93.0924 191.877C93.219 191.118 93.1557 190.358 92.9024 189.663L91.7625 178.275C91.7625 178.022 91.7625 177.769 91.7625 177.516C91.7625 174.669 91.5092 171.822 91.3192 168.976C91.0659 165.749 90.8126 162.459 90.4959 159.233C90.2426 156.513 89.9893 153.792 89.546 151.072C89.166 148.731 87.9628 146.77 85.3031 145.758C83.7199 145.125 82.1367 144.493 80.9334 143.291C80.4901 142.848 79.7935 143.101 79.7302 143.734C79.7302 143.86 79.7302 143.923 79.7302 144.05V146.138C79.7302 147.023 78.9069 157.968 78.9703 158.853C79.3502 165.18 79.4136 173.784 79.7302 180.047C79.9202 183.526 80.9334 188.967 82.1367 193.585C83.5299 198.962 84.0365 202.315 86.6963 208.515C87.0762 208.894 87.3295 209.401 87.5829 209.907Z"
            fill="#C1C1C1" stroke="#231F20" stroke-width="0.5" stroke-miterlimit="10" />
        <path
            d="M81.5662 46.5616L84.9859 45.7392C87.1391 45.8024 89.2289 45.8024 91.382 45.8024C91.5087 45.8024 91.572 45.7392 91.8887 45.6759C91.572 45.4861 91.382 45.3596 91.2554 45.2963C89.9888 44.5372 88.6589 43.778 87.3924 42.9556C85.7459 41.9434 84.9859 40.4251 84.9226 38.5272C84.8593 36.8824 84.6693 35.2375 84.606 33.5927C84.4793 31.1254 83.7827 28.8479 82.5795 26.697C82.4528 26.5072 82.3262 26.3807 82.1362 26.1909C82.0728 26.1909 81.9462 26.2542 81.8829 26.2542C82.1362 29.4806 82.4528 32.7703 82.7061 35.9967C82.6428 35.8069 82.5795 35.6171 82.5795 35.4273C82.1362 32.3274 81.7562 29.1643 81.3129 26.0644C81.2496 25.7481 81.0596 25.242 80.743 25.1154C78.3365 23.7236 75.93 23.7236 73.4603 24.9256C72.7003 25.3052 72.5103 25.7481 72.447 26.5705C72.257 30.1132 71.8137 33.5927 70.8638 37.0089C70.7372 37.3885 70.6105 37.7048 70.4839 38.0844C71.3071 33.0866 71.8771 27.1398 71.4338 26.3174C71.2438 26.5705 71.0538 26.8235 70.8638 27.0766C69.9139 28.6582 69.344 30.3663 69.154 32.2009C68.964 34.5416 68.8373 36.8824 68.584 39.2231C68.394 40.8047 67.8241 42.1964 66.4309 43.1454C65.2276 43.9045 63.9611 44.6637 62.7579 45.3596C62.5679 45.4861 62.3146 45.6127 61.9346 45.8024C62.2512 45.8657 62.3779 45.929 62.5045 45.929C64.7843 45.8657 67.0008 45.8657 69.2806 45.8024L72.257 46.6881C75.2968 49.0921 76.5 52.2553 76.88 56.0511C77.3866 54.1532 77.7666 52.4451 78.3365 50.8635C78.7798 49.0921 80.0464 47.8269 81.5662 46.5616Z"
            fill="#C1C1C1" stroke="#231F20" stroke-width="0.5" stroke-miterlimit="10" />
        <path
            d="M84.7323 144.24C88.0254 146.201 91.6351 147.593 95.4347 148.605C96.8913 148.984 97.6512 148.478 97.3979 147.213C97.2079 145.315 96.8913 143.417 96.8279 141.519C96.7013 138.925 97.1446 136.332 98.0312 133.864C98.6011 132.22 99.8043 130.891 101.578 130.005C102.717 129.499 102.907 129.056 102.527 128.108C101.134 124.691 99.2977 121.528 96.1947 118.998C94.1682 117.29 91.6984 116.088 88.8486 115.771C87.4554 115.581 86.8221 115.961 86.5055 117.1C84.859 122.92 81.8826 128.234 78.0196 133.232C76.8797 134.75 76.8163 136.015 77.6396 137.534C79.1595 140.381 81.6926 142.468 84.7323 144.24Z"
            fill="#C1C1C1" stroke="#231F20" stroke-width="0.5" stroke-miterlimit="10" />
        <path
            d="M76.1834 93.7558C76.12 93.7558 76.12 91.0355 75.8667 89.7703C75.6134 88.4417 75.0435 87.1132 74.5368 85.8479C74.2835 85.0888 73.8402 84.9623 73.1436 85.4051C72.8903 85.5949 72.637 85.848 72.3837 86.0377C71.4338 87.0499 70.5472 88.1254 69.5973 89.1376C68.584 90.2764 67.5708 91.3518 66.6209 92.5538C65.291 94.1354 64.4044 96.0333 63.6444 97.9312C62.6312 100.398 62.1246 102.992 61.9979 105.713C61.9979 106.282 62.1879 106.535 62.6945 106.661C63.7711 106.915 64.5944 107.484 65.291 108.37C67.1908 110.584 68.0774 113.304 69.0273 116.024C69.9139 118.681 70.8005 121.339 71.8137 123.996C72.7003 126.336 73.9036 128.551 75.4234 130.512C75.5501 130.701 75.8034 130.765 75.9934 130.891C76.0567 130.701 76.2467 130.448 76.2467 130.259C76.2467 129.752 76.1834 129.246 76.1834 128.74C76.1834 117.037 76.1834 105.396 76.1834 93.7558Z"
            fill="#C1C1C1" stroke="#231F20" stroke-width="0.5" stroke-miterlimit="10" />
        <path
            d="M73.8405 50.6104C73.0173 48.7125 71.814 47.2575 69.5342 46.8779C66.7478 46.435 63.9614 46.2452 61.2383 46.6881C59.0218 47.0677 56.8053 47.7636 54.5889 48.3329C54.5889 48.4595 54.5889 48.5227 54.5889 48.6492C57.8819 49.5982 59.1485 52.192 59.9084 55.1653C60.225 56.3041 60.415 57.4428 60.6683 58.5815C61.2383 60.9855 61.7449 63.4528 63.1381 65.5405C65.3546 68.8934 67.6977 72.2464 70.0409 75.536C72.1307 78.5094 74.3471 81.3562 75.4237 84.899C75.677 85.6581 75.8037 86.4173 76.057 87.303C76.1203 86.101 76.247 85.0255 76.247 84.0133C76.1837 76.1054 76.057 68.2608 75.9937 60.3529C75.9937 56.9367 75.1704 53.7103 73.8405 50.6104Z"
            fill="#C1C1C1" stroke="#231F20" stroke-width="0.5" stroke-miterlimit="10" />
        <path
            d="M107.657 266.844C106.011 266.464 101.451 266.907 100.375 266.97C99.1714 265.325 99.108 265.262 98.0948 263.048C97.7148 262.225 97.3982 261.403 97.0815 260.58C96.5749 259.125 93.5985 258.176 92.142 258.683C90.6221 259.252 90.0521 260.517 89.7355 261.909C89.2922 263.744 89.4822 265.578 89.7355 267.35C89.9255 269.121 90.1788 270.892 90.4321 272.6C89.9888 276.206 89.7355 278.61 91.4454 282.216C94.1051 283.482 99.6146 282.469 100.691 281.267C101.388 280.508 101.894 279.623 102.591 278.863C104.934 276.459 108.797 277.282 111.077 274.688C112.344 273.233 112.47 271.715 111.964 270.386C111.267 268.678 109.43 267.286 107.657 266.844Z"
            fill="#C1C1C1" stroke="#231F20" stroke-width="0.5" stroke-miterlimit="10" />
        <path
            d="M136.218 132.41C136.915 132.536 137.041 132.22 136.788 131.524C135.395 127.728 133.938 123.932 132.608 120.073C131.975 118.239 131.532 116.341 130.962 114.506C130.899 114.253 130.709 114.127 130.519 113.873C130.329 114.063 130.075 114.253 129.949 114.443C129.822 114.633 129.822 114.886 129.822 115.075C129.759 116.341 129.632 117.606 129.632 118.871C129.632 121.275 129.759 123.679 129.822 126.146C129.759 126.146 129.632 126.146 129.569 126.146C128.872 122.224 128.682 118.302 128.872 114.38C128.999 110.457 128.239 106.915 125.642 103.815C125.452 103.625 125.326 103.435 125.136 103.182C125.072 103.055 124.946 102.992 124.882 102.866L122.919 100.715C122.033 100.082 121.273 99.576 120.513 99.0067L118.993 97.6149C118.93 97.5516 118.866 97.4883 118.803 97.4883C118.613 97.3618 118.296 97.3618 117.916 97.4883C117.283 97.6149 116.65 97.9944 116.08 98.374C115.447 98.7536 115.32 99.3862 115.637 100.019C115.953 100.715 116.333 101.411 116.776 102.043C117.6 103.182 118.486 104.321 118.93 105.713C120.45 110.521 122.033 115.392 123.616 120.2C124.059 121.592 124.502 123.047 124.946 124.438C124.882 124.438 124.882 124.438 124.819 124.502C124.756 124.438 124.692 124.375 124.692 124.249C123.046 119.377 121.463 114.443 119.816 109.572C119.056 107.294 118.36 104.953 116.776 102.929C115.827 101.727 114.877 100.525 113.927 99.323C113.23 98.5005 112.534 97.6781 111.837 96.8557C111.71 96.7292 111.457 96.5394 111.267 96.6027C111.14 96.6659 111.014 96.919 111.014 97.1088C111.014 98.0577 110.95 99.0699 111.204 99.9556C111.584 101.221 112.28 102.423 112.913 103.625C113.357 104.447 113.863 105.27 114.18 106.155C115.7 110.837 117.663 115.392 119.88 119.82C122.286 124.565 124.756 129.183 127.226 133.865C127.542 134.434 127.922 134.434 128.429 134.181C130.962 133.042 133.305 131.84 136.218 132.41Z"
            fill="#C1C1C1" stroke="#231F20" stroke-width="0.5" stroke-miterlimit="10" />
        <path
            d="M150.277 142.785C148.314 141.899 146.351 141.013 145.084 139.305C144.641 138.736 144.198 138.166 143.691 137.597C142.361 136.016 140.905 134.56 138.878 133.738C138.562 133.612 138.245 133.548 137.992 133.485L134.952 133.232C134.952 133.232 134.952 133.232 134.952 133.295C134.445 133.232 134.002 133.295 133.495 133.485C132.166 133.991 130.836 134.624 129.506 135.256C129.316 135.383 129.062 135.699 129.062 135.952C129.062 137.724 129.126 139.432 129.126 141.203C128.873 142.721 129.632 144.176 130.202 145.568C130.772 147.023 131.279 148.289 132.229 149.301C132.292 149.491 132.356 149.617 132.356 149.744C132.989 150.946 133.622 152.211 134.319 153.413C134.825 154.299 135.395 155.247 136.092 156.07C136.282 156.323 136.852 156.449 137.168 156.323C137.675 156.133 137.422 155.69 137.295 155.311C136.725 154.172 136.155 153.033 135.649 151.895C135.585 151.705 135.459 151.515 135.395 151.325C135.649 151.199 135.839 150.946 136.092 150.566C136.345 151.199 136.662 151.768 136.978 152.401C137.738 153.982 138.435 155.564 139.132 157.209C139.512 158.094 140.018 158.79 141.095 158.853C141.728 158.917 141.981 158.6 141.981 157.905C141.918 157.778 141.855 157.525 141.791 157.335C140.968 155.437 140.082 153.539 139.195 151.705C138.815 150.946 138.372 150.123 137.928 149.364C138.055 149.174 138.245 149.048 138.435 148.858C138.815 149.554 139.195 150.313 139.575 151.009C140.651 153.16 141.665 155.311 142.805 157.462C143.058 157.968 143.565 158.411 144.071 158.664C144.325 158.853 144.958 158.727 145.148 158.537C145.401 158.284 145.528 157.778 145.591 157.335C145.654 157.145 145.464 156.892 145.338 156.639C143.691 153.413 142.108 150.25 140.462 147.023C140.588 146.897 140.715 146.707 140.841 146.58C142.361 149.174 143.818 151.831 145.338 154.425C145.528 154.678 146.034 155.058 146.288 154.931C146.604 154.805 146.794 154.299 146.984 153.982C146.668 153.16 146.478 152.464 146.161 151.768C145.274 149.997 144.324 148.225 143.375 146.454C142.868 145.505 142.425 144.619 141.918 143.67C141.918 143.607 141.855 143.544 141.855 143.417C142.171 142.848 142.805 142.658 142.805 142.658C143.058 143.101 143.628 143.607 144.135 143.734C145.401 144.176 146.731 144.429 148.061 144.683C149.074 144.872 149.961 144.556 150.594 143.734C151.037 143.291 150.974 143.101 150.277 142.785Z"
            fill="#C1C1C1" stroke="#231F20" stroke-width="0.5" stroke-miterlimit="10" />
        <path
            d="M66.8111 117.1C66.4945 115.961 65.8612 115.581 64.468 115.771C61.5549 116.151 59.1484 117.29 57.1219 118.998C54.0822 121.528 52.1824 124.691 50.7892 128.108C50.4092 129.056 50.5992 129.499 51.7391 130.005C53.5756 130.891 54.7155 132.156 55.2854 133.864C56.1087 136.395 56.6153 138.925 56.4887 141.519C56.4253 143.417 56.1087 145.315 55.9187 147.213C55.7287 148.541 56.4253 149.048 57.8819 148.605C61.6816 147.593 65.2912 146.201 68.5843 144.24C71.5607 142.468 74.1571 140.381 75.677 137.47C76.5003 135.952 76.4369 134.687 75.297 133.169C71.434 128.234 68.4576 122.92 66.8111 117.1Z"
            fill="#C1C1C1" stroke="#231F20" stroke-width="0.5" stroke-miterlimit="10" />
        <path
            d="M91.4449 248.877C91.8249 250.711 91.7616 253.495 91.2549 255.266C91.0016 256.089 90.7483 256.848 90.495 257.607C90.4317 257.923 90.3684 258.177 90.305 258.683C90.7483 258.366 91.0016 258.177 91.3183 257.987C93.1548 256.911 95.7512 257.417 97.3344 259.125C98.4743 260.391 98.9809 261.846 99.2976 263.427C99.3609 263.68 99.4242 263.997 99.4876 264.25C99.5509 264.25 99.6142 264.25 99.6775 264.25C99.6775 263.997 99.7409 263.744 99.7409 263.491C99.5509 262.099 99.4242 260.644 99.1709 259.252C98.6643 256.658 98.9176 254.128 99.4876 251.597C100.817 245.84 102.211 240.02 104.047 234.39C104.68 232.365 105.567 230.151 105.567 227.874C104.49 229.139 103.097 230.341 102.654 231.796C100.881 237.616 99.4876 243.436 98.2843 249.32C98.2843 249.383 98.221 249.509 98.031 249.573C98.2843 248.054 98.5376 246.536 98.791 245.018C99.1076 243.499 99.4242 241.981 99.7409 240.463C100.058 238.945 100.437 237.426 100.817 235.845C101.134 234.326 101.514 232.871 101.894 231.226C100.881 231.48 100.121 231.796 99.2976 231.922C98.5376 232.049 97.7777 232.049 97.0178 231.986C96.5111 231.922 96.4478 232.112 96.3212 232.492C95.8779 233.757 95.3079 234.959 94.2314 235.908C92.2049 237.743 90.9383 237.806 88.7852 236.034C89.0385 237.236 89.2918 238.312 89.5451 239.387C90.305 242.867 90.6217 245.334 91.4449 248.877Z"
            fill="#C1C1C1" stroke="#231F20" stroke-width="0.5" stroke-miterlimit="10" />
        <path
            d="M89.6093 236.161C90.3059 236.731 91.0658 236.731 91.8891 236.288C93.7889 235.212 94.8022 233.694 95.4354 231.923C96.2587 229.645 96.5753 227.304 96.5753 224.964C96.5753 222.749 96.4487 220.535 96.322 218.321C95.9421 214.209 95.4354 210.097 94.3589 206.048C93.9789 204.53 93.219 203.138 91.8891 202.062C91.3825 201.62 90.6859 201.366 90.0526 201.113C89.4826 200.86 89.1027 201.113 89.0393 201.62C88.976 202.505 88.976 203.391 89.0393 204.277C89.1027 205.542 89.166 207.63 89.166 208.895C89.166 213.64 88.3427 215.031 87.0128 219.207C85.9996 222.433 85.683 225.533 85.9996 228.823C86.1896 230.341 86.6962 232.049 87.8361 234.073C88.1527 234.516 89.2293 235.845 89.6093 236.161Z"
            fill="#C1C1C1" stroke="#231F20" stroke-width="0.5" stroke-miterlimit="10" />
        <path
            d="M23.4318 135.193C22.1019 134.561 20.8353 133.928 19.4421 133.422C18.9355 133.232 18.4922 133.169 17.9856 133.232V133.169L14.9458 133.422C14.6292 133.485 14.3125 133.549 14.0592 133.675C12.0327 134.497 10.5762 135.953 9.24632 137.534C8.80303 138.103 8.29641 138.673 7.85311 139.242C6.58656 141.014 4.62339 141.899 2.66023 142.722C1.96362 143.038 1.9003 143.291 2.34359 143.86C2.97687 144.683 3.86346 144.999 4.8767 144.809C6.20659 144.556 7.53647 144.24 8.80303 143.86C9.30965 143.671 9.81627 143.228 10.1329 142.785C10.1329 142.785 10.7662 142.975 11.0828 143.544C11.0195 143.607 11.0195 143.671 11.0195 143.797C10.5129 144.683 10.0063 145.632 9.56296 146.581C8.61305 148.352 7.66313 150.06 6.77654 151.895C6.4599 152.527 6.26992 153.287 5.95328 154.109C6.20659 154.425 6.33324 154.931 6.64988 155.058C6.83987 155.121 7.40982 154.805 7.5998 154.552C9.11967 151.958 10.6395 149.301 12.0961 146.707C12.2227 146.834 12.3494 147.024 12.476 147.15C10.8295 150.313 9.183 153.54 7.5998 156.766C7.47314 156.956 7.34649 157.209 7.34649 157.462C7.40982 157.905 7.47314 158.411 7.78978 158.664C7.97977 158.854 8.61305 158.917 8.86636 158.79C9.37298 158.474 9.81627 158.095 10.1329 157.588C11.2728 155.438 12.2861 153.287 13.3626 151.136C13.7426 150.44 14.1226 149.681 14.5025 148.985C14.6925 149.174 14.8825 149.301 15.0092 149.491C14.5659 150.25 14.1226 151.009 13.7426 151.832C12.856 153.666 12.0327 155.564 11.1462 157.462C11.0195 157.652 10.9562 157.905 10.9562 158.031C10.9562 158.727 11.2728 159.044 11.8428 158.98C12.9193 158.917 13.426 158.221 13.8059 157.335C14.5025 155.754 15.2625 154.172 15.9591 152.527C16.2124 151.895 16.529 151.325 16.8457 150.693C17.099 151.072 17.3523 151.262 17.5423 151.452C17.4156 151.642 17.3523 151.768 17.289 152.021C16.8457 153.223 16.2124 154.299 15.6424 155.438C15.4524 155.754 15.2625 156.26 15.7691 156.45C16.0857 156.576 16.6557 156.45 16.8457 156.197C17.4789 155.374 18.0489 154.489 18.6188 153.54C19.3154 152.338 19.9487 151.072 20.582 149.87C20.6453 149.744 20.7087 149.617 20.7087 149.428C21.5952 148.352 22.1652 147.087 22.7351 145.695C23.3051 144.303 24.065 142.848 23.8117 141.33C23.875 139.559 23.875 137.85 23.875 136.079C23.875 135.699 23.6851 135.32 23.4318 135.193Z"
            fill="#C1C1C1" stroke="#231F20" stroke-width="0.5" stroke-miterlimit="10" />
        <path
            d="M33.4371 95.2109C34.4503 95.4007 35.4636 95.717 36.4768 96.0966C36.7935 96.2231 37.1101 96.2863 37.3634 96.2231L39.6432 96.0333C40.1498 95.9068 40.7831 95.9068 41.0364 95.717C41.923 94.9578 42.9996 94.1354 43.5062 93.2497C45.0894 90.6559 46.4826 87.9989 47.9392 85.3418C48.0025 85.2153 48.0025 85.0888 48.0658 84.9623C48.0025 84.899 47.9392 84.899 47.8125 84.8357C47.4325 85.2153 47.0526 85.5949 46.7359 85.9112C46.6093 86.0377 46.4826 86.1643 46.356 86.2908C45.786 86.7969 44.8361 87.6826 44.0762 87.7458C43.6962 87.8091 43.5062 87.8091 43.3796 87.7458L43.3162 87.6826C41.4797 86.8602 40.7831 85.4684 40.5931 83.95C40.4031 82.6848 40.5298 81.4195 40.5298 80.1543C40.5298 79.9645 40.5298 79.838 40.5931 79.5216C39.2632 80.2175 38.1867 80.9134 36.9834 81.4828C36.2868 81.7991 35.4636 81.9889 34.7036 82.0522C33.9437 82.1154 33.6271 82.3685 33.3738 82.8746C32.4238 85.0888 32.0439 87.3663 31.9805 89.707C31.9805 91.162 32.2339 92.6803 32.4238 94.1987C32.4238 94.8313 32.7405 95.0843 33.4371 95.2109Z"
            fill="#C1C1C1" stroke="#231F20" stroke-width="0.5" stroke-miterlimit="10" />
        <path
            d="M25.3315 105.903C27.1047 103.056 29.1945 100.399 31.5376 97.9314C31.9176 97.4886 32.1076 97.0458 31.9809 96.4764C31.7276 95.1479 31.4743 93.8193 31.221 92.5541C31.1577 92.301 30.9677 92.048 30.841 91.7949C30.7144 91.7949 30.6511 91.7949 30.5244 91.7949C27.6113 96.2866 24.7616 100.778 24.6982 106.219C24.7616 106.282 24.8249 106.282 24.8882 106.345C25.0782 106.219 25.2682 106.092 25.3315 105.903Z"
            fill="#C1C1C1" stroke="#231F20" stroke-width="0.5" stroke-miterlimit="10" />
        <path
            d="M71.8137 84.9623C73.0803 83.3807 73.207 82.7481 72.1304 81.04C70.4839 78.4462 68.774 75.9789 67.1275 73.4484L65.8609 71.2342H65.7343C65.6709 71.0444 65.5443 70.9179 65.4176 70.7281C64.5944 69.5261 63.7078 68.4506 62.9478 67.1853C61.428 64.7814 60.4781 62.1243 60.0348 59.2775C59.8448 58.202 59.2748 57.9489 58.3249 58.5183C57.9449 58.7714 57.565 59.0244 57.185 59.2775C54.2086 61.6815 52.2454 64.7814 51.2322 68.4506C51.1689 68.7669 51.1055 69.02 51.1055 69.2098L50.9789 71.9933C50.9156 73.0688 50.8522 74.2075 50.7889 75.283C50.8522 76.3585 50.8522 77.3707 50.9789 78.4462C51.2955 82.1154 52.4354 85.5316 54.6519 88.505C55.9818 90.3396 57.8183 91.6049 60.0348 92.111C62.1879 92.6804 64.0877 91.9212 65.8609 90.7192C68.1407 89.2009 70.0406 87.1765 71.8137 84.9623Z"
            fill="#C1C1C1" stroke="#231F20" stroke-width="0.5" stroke-miterlimit="10" />
        <path
            d="M64.9743 92.3641C64.721 92.4273 64.6577 92.4273 64.5944 92.4273C63.2012 93.0599 61.6813 93.313 60.1614 93.2497C58.5149 93.1865 56.8684 92.8702 55.7918 91.4151C54.7152 89.8968 53.702 88.3152 52.6887 86.7336C52.4988 86.4173 52.4354 86.101 52.3088 85.7847C52.2454 85.7847 52.1821 85.7847 52.1188 85.848C52.1188 85.9745 52.0555 86.101 52.1188 86.1643C52.6887 89.7703 53.0687 93.3763 54.2719 96.8557C55.1585 99.4495 56.2351 101.917 57.8816 104.068C58.3882 104.7 58.9582 105.27 59.5915 105.839C60.2881 106.472 60.5414 106.345 60.668 105.459C60.668 105.396 60.668 105.333 60.7314 105.27C61.3647 101.727 62.3146 98.1843 63.8344 94.8946C64.1511 94.0722 64.531 93.313 64.9743 92.3641Z"
            fill="#C1C1C1" stroke="#231F20" stroke-width="0.5" stroke-miterlimit="10" />
        <path
            d="M36.5399 81.0398C39.0097 79.3317 41.2261 77.5603 42.366 74.9033C43.126 73.1319 44.1392 71.3606 45.0258 69.5892C45.1524 69.2729 45.2791 68.9566 45.4691 68.3872C44.3925 68.6403 43.6326 68.83 42.8093 68.9566C41.0361 69.3362 39.263 69.5259 37.4898 69.1464C36.7299 68.9566 36.4132 69.3362 36.2232 69.8423C35.5266 71.4871 34.7034 73.1319 34.1967 74.84C33.7534 76.2318 33.6268 77.6869 33.3735 79.0787C33.3101 79.395 33.3735 79.7746 33.5001 80.0909C33.9434 81.6092 35.1467 82.052 36.5399 81.0398Z"
            fill="#C1C1C1" stroke="#231F20" stroke-width="0.5" stroke-miterlimit="10" />
        <path
            d="M73.5232 143.987C73.5232 143.86 73.5232 143.797 73.5232 143.671C73.4598 143.038 72.7632 142.785 72.3199 143.228C71.1167 144.43 69.5335 145.062 67.9503 145.695C65.2905 146.707 64.0873 148.605 63.7073 151.009C63.264 153.729 63.0107 156.45 62.7574 159.17C62.4408 162.396 62.1875 165.623 61.9342 168.913C61.7442 171.759 61.4909 174.606 61.4909 177.453C61.4909 177.706 61.4909 177.959 61.4909 178.212L60.351 189.6C60.0977 190.295 60.0343 191.055 60.161 191.814C60.7309 194.597 62.1875 197.065 64.1506 199.279C64.7839 199.975 65.1639 200.607 65.1006 201.493C65.1006 202.126 65.1639 202.695 65.1639 203.328L65.2272 209.78C65.3539 209.78 65.5438 209.844 65.6705 209.844C65.9238 209.338 66.1771 208.895 66.4938 208.389C69.1535 202.189 69.6602 198.836 71.0534 193.459C72.2566 188.84 73.2698 183.4 73.4598 179.92C73.8398 173.594 73.9031 164.99 74.2198 158.727C74.2831 157.841 73.4598 146.897 73.4598 146.011L73.5232 143.987Z"
            fill="#C1C1C1" stroke="#231F20" stroke-width="0.5" stroke-miterlimit="10" />
        <path
            d="M64.0244 208.895C64.0244 207.629 64.0877 205.542 64.1511 204.276C64.2144 203.391 64.2144 202.505 64.1511 201.619C64.1511 201.113 63.7078 200.86 63.1378 201.113C62.5046 201.366 61.8079 201.683 61.3013 202.062C59.9714 203.138 59.2115 204.593 58.8315 206.048C57.755 210.097 57.185 214.209 56.8684 218.321C56.8051 220.535 56.6151 222.749 56.6151 224.963C56.6151 227.304 56.9317 229.645 57.755 231.922C58.3882 233.694 59.4015 235.212 61.3013 236.287C62.1246 236.73 62.8845 236.73 63.5811 236.161C63.9611 235.845 65.0377 234.516 65.291 234.137C66.4309 232.112 66.9375 230.404 67.1275 228.886C67.5074 225.596 67.1275 222.496 66.1142 219.27C64.911 215.031 64.0244 213.639 64.0244 208.895Z"
            fill="#C1C1C1" stroke="#231F20" stroke-width="0.5" stroke-miterlimit="10" />
        <path
            d="M41.923 97.1088C41.923 96.919 41.7964 96.6027 41.6697 96.6027C41.543 96.5394 41.2264 96.7292 41.0997 96.8557C40.4031 97.6781 39.7065 98.5005 39.0099 99.323C38.06 100.525 37.1101 101.727 36.1602 102.929C34.577 104.89 33.8804 107.231 33.1204 109.572C31.4739 114.443 29.8907 119.314 28.2442 124.249C28.2442 124.312 28.1809 124.438 28.1175 124.502L27.9909 124.438C28.4342 123.047 28.8775 121.592 29.3208 120.2C30.904 115.392 32.4872 110.584 34.007 105.713C34.4503 104.321 35.3369 103.182 36.1602 102.043C36.6035 101.411 36.9834 100.715 37.3001 100.019C37.6167 99.3862 37.4901 98.7536 36.8568 98.374C36.2868 98.0577 35.6536 97.6781 35.0203 97.4883C34.6403 97.4251 34.3237 97.4251 34.1337 97.4883C34.0704 97.5516 34.007 97.5516 33.9437 97.6149L32.4238 99.0067C31.6639 99.5128 30.904 100.082 30.0174 100.715L28.0542 102.866C27.8009 103.182 27.5476 103.498 27.2943 103.751C24.6978 106.851 23.9379 110.394 24.0646 114.316C24.1912 118.239 24.0646 122.224 23.368 126.083C23.3046 126.083 23.178 126.083 23.1147 126.083C23.178 123.679 23.3046 121.275 23.3046 118.808C23.3046 117.543 23.178 116.277 23.1147 115.012C23.1147 114.822 23.1147 114.569 22.988 114.38C22.8613 114.127 22.608 114 22.418 113.81C22.2914 114 22.0381 114.19 21.9748 114.443C21.4048 116.277 20.9615 118.175 20.3282 120.01C18.9983 123.869 17.5418 127.665 16.1486 131.461C15.8953 132.156 16.0219 132.473 16.7185 132.346C19.5683 131.777 21.9747 132.979 24.3812 134.118C24.8878 134.371 25.2678 134.371 25.5844 133.801C28.0542 129.12 30.524 124.438 32.9305 119.757C35.1469 115.329 37.1101 110.774 38.63 106.092C38.9466 105.206 39.5166 104.447 39.8965 103.562C40.4665 102.36 41.1631 101.158 41.6064 99.8923C41.9863 99.0699 41.8597 98.0577 41.923 97.1088Z"
            fill="#C1C1C1" stroke="#231F20" stroke-width="0.5" stroke-miterlimit="10" />
        <path
            d="M59.0849 235.908C58.0083 234.959 57.4383 233.757 56.995 232.492C56.8684 232.175 56.805 231.986 56.2984 231.986C55.5385 232.049 54.7786 232.049 54.0186 231.922C53.1954 231.796 52.3721 231.479 51.4222 231.226C51.8021 232.871 52.1188 234.39 52.4988 235.845C52.8787 237.363 53.1954 238.881 53.5753 240.463C53.892 241.981 54.2086 243.499 54.5252 245.018C54.8419 246.536 55.0319 248.054 55.2852 249.573C55.0952 249.509 55.0319 249.446 55.0319 249.32C53.8286 243.436 52.3721 237.553 50.6623 231.796C50.219 230.404 48.8257 229.139 47.7492 227.873C47.7492 230.151 48.6358 232.365 49.269 234.39C51.1055 240.083 52.4354 245.84 53.8286 251.597C54.3986 254.128 54.6519 256.658 54.1453 259.252C53.892 260.644 53.7653 262.036 53.5753 263.491C53.5753 263.744 53.6387 263.997 53.6387 264.25C53.702 264.25 53.7653 264.25 53.8286 264.25C53.892 263.997 53.9553 263.68 54.0186 263.427C54.3353 261.846 54.8419 260.327 55.9818 259.125C57.565 257.417 60.1614 256.911 61.9979 257.987C62.3146 258.176 62.5679 258.366 63.0112 258.683C62.9478 258.24 62.8845 257.923 62.8212 257.607C62.5679 256.848 62.2512 256.026 62.0613 255.266C61.5546 253.495 61.4913 250.711 61.8713 248.877C62.6312 245.334 62.9478 242.867 63.7711 239.324C64.0244 238.249 64.2777 237.173 64.531 235.971C62.3779 237.743 61.1113 237.679 59.0849 235.908Z"
            fill="#C1C1C1" stroke="#231F20" stroke-width="0.5" stroke-miterlimit="10" />
        <path
            d="M61.111 258.683C59.6544 258.113 56.678 259.125 56.1714 260.58C55.8548 261.403 55.5381 262.225 55.1582 263.048C54.1449 265.262 54.0183 265.325 52.8784 266.97C51.8018 266.907 47.2422 266.464 45.5957 266.844C43.8225 267.286 41.986 268.678 41.3527 270.45C40.8461 271.778 40.9727 273.296 42.2393 274.751C44.5191 277.345 48.4454 276.523 50.7252 278.927C51.4218 279.623 51.9284 280.572 52.625 281.331C53.7016 282.533 59.1478 283.545 61.8709 282.28C63.5808 278.61 63.3275 276.27 62.8842 272.664C63.1375 270.892 63.3275 269.184 63.5808 267.413C63.7707 265.578 64.0241 263.744 63.5808 261.972C63.2008 260.517 62.6942 259.252 61.111 258.683Z"
            fill="#C1C1C1" stroke="#231F20" stroke-width="0.5" stroke-miterlimit="10" />
    </g>
    <defs>
        <clipPath id="clip0_4_5">
            <rect width="153" height="285" fill="white" />
        </clipPath>
    </defs>
</svg>