<svg width="219" height="439" viewBox="0 0 219 439" fill="none" xmlns="http://www.w3.org/2000/svg">
    <path
        d="M154.909 437.517C150.929 437.517 147.337 436.158 143.746 433.246C143.454 433.052 143.163 432.761 142.872 432.567C141.513 431.402 140.445 430.528 138.989 429.946C138.601 429.849 138.213 429.655 137.825 429.558C135.495 428.781 132 427.519 131.03 423.734L129.671 418.104V418.007C129.574 417.618 129.38 417.133 129.38 416.551C129.185 414.221 128.991 411.988 128.894 409.659L128.797 407.911C128.797 407.426 128.797 407.038 128.797 406.65L128.312 403.543C128.312 403.349 128.215 403.252 128.215 403.155C128.118 402.67 127.924 402.087 128.118 401.214C128.312 400.243 128.409 399.369 128.506 398.399C128.894 395.875 129.185 393.351 130.059 390.827C131.03 387.624 131.224 382.577 130.544 378.985C129.574 374.229 128.409 370.831 127.147 367.337C125.885 363.842 124.623 360.251 123.555 355.203C122.488 350.059 122.391 343.652 123.361 339.09C123.944 336.372 124.332 333.945 124.817 331.324C125.011 329.965 125.303 328.704 125.497 327.247C125.497 326.956 125.497 326.471 125.497 325.791C125.691 320.064 125.788 319.482 125.982 318.9H125.885L125.011 316.861C121.032 307.446 118.702 297.253 118.217 286.576C117.828 279.296 118.217 272.307 119.284 265.512L119.187 265.415C118.411 264.735 117.925 263.862 117.731 262.891C117.537 261.726 117.052 259.882 116.664 258.135C116.081 255.902 115.596 253.67 115.305 252.116C113.46 243.477 113.169 241.342 112.393 235.032L112.101 232.994L112.004 231.926C111.228 225.034 111.034 223.384 111.034 219.016V218.531C111.034 216.686 111.228 214.842 111.713 212.61C111.713 212.61 108.024 212.707 107.054 212.707C107.539 214.26 107.539 216.104 107.539 218.628V219.113C107.539 223.481 107.345 225.131 106.568 232.023L106.471 232.994L106.18 235.032C105.404 241.342 105.112 243.477 103.268 252.116C103.074 253.767 102.492 255.999 101.909 258.135C101.521 259.882 101.036 261.726 100.841 262.891C100.647 263.959 100.162 264.735 99.3854 265.415L99.2883 265.512C100.356 272.307 100.647 279.296 100.356 286.576C99.8707 297.253 97.5411 307.446 93.5612 316.861L92.6876 318.9H92.4935C92.7847 319.482 92.7847 320.064 92.9788 325.791C92.9788 326.471 92.9788 326.956 92.9788 327.247C93.27 328.704 93.4642 329.965 93.6583 331.324C94.1437 333.945 94.5319 336.372 95.1143 339.09C96.085 343.652 95.988 349.962 94.9202 355.203C93.8525 360.251 92.5906 363.842 91.3287 367.337C90.0668 370.831 88.902 374.229 87.9313 378.985C87.1547 382.674 87.3489 387.624 88.4166 390.827C89.1932 393.351 89.5814 395.972 89.9697 398.399C90.0668 399.369 90.2609 400.243 90.358 401.214C90.455 401.99 90.358 402.67 90.2609 403.155C90.2609 403.252 90.1638 403.446 90.1638 403.543L89.6785 406.747C89.6785 407.135 89.6785 407.62 89.6785 408.009L89.5814 409.756C89.3873 412.085 89.2902 414.318 89.0961 416.648C89.0961 417.23 88.902 417.715 88.8049 418.104V418.201L87.4459 423.831C86.4752 427.713 82.9808 428.878 80.6511 429.655C80.2628 429.752 79.8746 429.946 79.4863 430.043C78.0303 430.626 76.9625 431.499 75.6036 432.664C75.3124 432.858 75.0211 433.149 74.7299 433.343C71.2355 436.158 67.5469 437.614 63.5671 437.614C59.199 437.614 54.928 435.867 50.6569 434.023C49.298 433.441 48.4244 432.373 48.1332 431.014C47.5507 428.587 49.2009 426.063 50.4628 424.413C52.6954 421.598 56.0928 418.589 57.0635 418.007C61.1403 415.483 63.7612 413.153 66.8674 408.979L66.9645 408.882L69.3912 406.358L71.0413 396.263C71.1384 394.71 71.3325 393.157 71.5267 391.701L71.6238 390.633C71.7208 389.857 72.1091 388.983 72.7886 388.401C71.5267 385.974 70.3619 383.45 69.7794 381.606C67.0615 373.355 66.285 368.599 65.2172 361.319C65.0231 359.96 64.7319 358.407 64.5377 356.756C63.2759 349.088 63.7612 339.381 64.5377 332.877C65.4114 325.403 67.4498 318.317 70.6531 311.911V308.028C70.6531 306.766 70.6531 305.601 70.6531 304.436C70.6531 301.816 70.6531 299.389 70.556 296.962C70.4589 294.05 70.3619 291.138 70.2648 288.323L61.9169 260.561C61.6257 258.523 61.3345 256.679 61.0433 255.028C60.2667 250.466 59.7814 246.875 59.4902 241.73C59.296 237.653 59.8785 232.897 60.5579 228.238C60.8491 225.811 61.2374 223.481 61.3345 221.249C62.111 211.736 65.2172 201.252 67.8381 191.934L68.3234 190.187C68.8088 188.342 69.7794 186.013 70.2648 184.46C70.556 183.586 72.4974 178.733 72.4974 178.733C71.7208 175.529 71.5267 172.035 72.1091 167.861C72.4003 165.531 72.8856 163.299 73.371 161.066C73.5651 160.387 73.6622 159.707 73.7593 159.028C73.8563 158.348 74.1475 157.863 74.3417 157.377C74.4387 157.28 74.4387 157.086 74.5358 156.989L74.6329 156.698L73.7593 155.63C72.2062 153.786 71.4296 151.456 71.4296 148.738V148.641L70.7501 141.555C70.6531 140.682 70.556 139.808 70.4589 138.837C70.2648 136.702 69.9736 134.566 69.8765 132.819C69.7794 131.751 69.7794 130.781 69.7794 129.713C69.0029 131.946 68.0322 134.081 66.4791 137.284C65.9938 138.255 65.1202 139.711 64.0524 141.361C63.8583 141.749 63.5671 142.041 63.47 142.332C63.2759 142.72 62.9846 143.108 62.6934 143.4C62.8876 143.788 62.9846 144.176 63.0817 144.37C63.9553 147.768 63.5671 151.359 61.8198 154.66C60.7521 156.698 60.2667 158.736 59.7814 161.066C59.3931 162.716 59.0048 164.463 58.4224 166.308C56.2869 172.617 53.3749 179.8 50.5599 186.692C49.0068 190.478 47.1625 194.069 45.4152 197.467C43.7651 200.767 42.0178 204.067 40.5618 207.562C40.3677 207.95 40.1735 208.338 40.0765 208.727L38.9116 211.445H38.8146C40.4647 216.686 39.7853 220.763 36.2908 225.131L31.9227 230.955C30.4667 233.77 28.8165 236.974 26.3898 239.692C26.0986 240.08 25.322 240.954 23.9631 241.148C23.5748 241.148 23.1865 241.245 22.8953 241.245C22.6041 241.245 22.3129 241.245 22.0217 241.148C21.8276 241.536 21.6334 242.021 21.4393 242.41C20.4686 244.351 18.6243 245.419 16.2947 245.419C15.2269 245.419 14.2562 245.127 13.4797 244.545L12.8002 245.127H11.7324C9.88814 245.127 8.33504 244.254 7.46142 242.895C6.68488 241.633 6.58781 240.177 6.97608 238.818C5.61712 237.847 4.7435 236.488 4.64644 234.935C4.4523 232.509 5.71419 230.664 6.68488 229.305C6.97608 228.917 7.26729 228.529 7.36436 228.238C8.52918 226.102 9.79107 223.869 10.9559 221.831C10.3735 221.928 7.17022 222.705 7.17022 222.705L6.58781 222.608C3.96696 222.219 2.12265 220.957 1.0549 218.919C0.375419 217.56 0.860762 216.104 0.95783 215.716C1.3461 214.551 2.21972 213.968 2.80213 213.774L3.86989 213.289C4.93764 212.804 6.10246 212.318 7.17022 211.833L9.20866 209.309L11.15 207.368C12.9943 205.523 14.9357 203.582 16.9741 201.738C17.8478 200.864 18.9155 200.185 20.0803 199.699C20.0803 199.699 21.6334 195.914 21.7305 195.622C26.0986 186.498 28.6224 177.471 29.3989 168.055C30.1755 157.572 33.5729 148.35 39.2999 140.682C39.5911 140.293 40.1735 139.517 41.0472 138.934C39.2999 135.731 38.6204 131.751 38.7175 128.936C39.0087 123.695 39.4941 120.977 41.8237 116.123C43.1827 113.114 44.7358 110.882 46.3859 109.134C46.3859 108.94 46.2889 108.649 46.2889 108.358C46.2889 107.096 46.3859 105.737 46.3859 104.378C46.483 99.0393 46.483 93.6034 48.4244 88.5559C49.8804 84.8672 54.1514 79.9167 57.3547 77.5871C62.4022 73.8014 66.382 72.9278 72.4974 72.0542C72.7886 72.0542 72.9827 71.9571 73.1768 71.9571L78.8068 69.4333L79.8746 69.0451C80.457 68.7539 80.9423 68.5597 81.5247 68.3656C84.728 66.9096 87.8342 65.4535 90.9404 63.9004C91.2316 63.8034 91.5228 63.6092 91.814 63.5122C91.9111 61.9591 92.0081 60.406 92.2023 58.8529L92.3964 57.1056L93.173 54.9701C91.7169 53.9024 90.8433 52.2522 90.7463 50.3108C90.5521 48.2724 90.358 46.1369 90.1638 44.1955C89.2902 44.0984 88.5137 43.7102 87.9313 43.1278C87.1547 42.3512 86.6694 41.4776 86.2811 40.701C85.1163 38.1773 84.2427 36.2359 83.369 34.3916C82.7866 33.0326 82.8837 31.3825 83.8544 29.8294C84.728 28.3733 85.8928 27.3056 87.2518 26.9173L87.543 26.7232C87.543 25.8496 87.543 24.9759 87.6401 24.0053C87.8342 20.2196 88.6107 16.7251 89.9697 13.5218C92.2023 8.28014 98.0264 3.23258 103.462 1.77655C105.404 1.29121 107.345 1 109.286 1C118.12 1 125.788 6.04757 129.185 14.2984C130.253 16.7251 130.641 19.5401 130.933 21.3844C131.03 21.8697 131.03 22.4522 130.933 24.1023C130.933 24.7818 130.933 25.7525 130.933 26.529L132.097 27.3056C135.689 29.7323 136.466 32.3532 134.524 36.333C134.427 36.5271 134.33 36.8183 134.136 37.2066C133.165 39.8274 131.612 43.7102 128.603 44.2926C128.409 46.0398 128.312 47.7871 128.215 49.5343C128.118 51.8639 127.147 53.9024 125.594 55.1643L126.273 56.232L126.37 56.9115C126.467 57.4939 126.467 58.0763 126.565 58.5617C126.662 59.6294 126.759 60.6972 126.953 61.6679C127.05 62.4444 127.05 63.1239 127.05 63.9004C127.147 63.9004 127.244 63.9975 127.341 63.9975C130.447 65.4535 133.651 67.0066 136.757 68.4627C137.242 68.6568 137.825 68.948 138.407 69.1421L139.378 69.5304L145.008 71.9571C145.396 71.9571 145.784 71.9571 146.269 72.0542C152.288 73.0249 156.365 73.8014 161.412 77.5871C164.615 79.9167 168.886 84.8672 170.245 88.5559C172.187 93.6034 172.284 99.1363 172.284 104.378C172.284 105.737 172.284 106.999 172.381 108.358C172.381 108.649 172.381 108.94 172.284 109.134C173.934 110.882 175.487 113.114 176.846 116.123C179.079 120.977 179.564 123.695 179.952 128.936C180.146 131.751 179.467 135.828 177.623 138.934C178.496 139.517 179.176 140.293 179.37 140.682C185.097 148.35 188.397 157.572 189.271 168.055C190.047 177.471 192.474 186.498 196.939 195.622C197.133 195.914 197.328 196.302 197.522 196.69C197.619 196.884 197.813 197.079 197.91 197.273L199.075 199.311L198.687 199.699C199.851 200.185 200.919 200.864 201.793 201.738C203.734 203.582 205.675 205.523 207.617 207.368L209.558 209.309L211.597 211.833C212.664 212.318 213.829 212.804 214.897 213.289L215.868 213.774C216.45 214.066 217.227 214.551 217.712 215.716C217.906 216.104 218.294 217.56 217.615 218.919C216.547 220.957 214.703 222.219 212.082 222.608L211.5 222.705C211.5 222.705 208.296 222.025 207.714 221.831C208.879 223.967 210.141 226.102 211.305 228.238C211.5 228.529 211.791 228.917 211.985 229.305C212.859 230.664 214.12 232.509 214.023 234.935C213.926 236.488 213.15 237.847 211.694 238.818C212.179 240.177 211.985 241.73 211.208 242.895C210.335 244.351 208.782 245.127 206.937 245.127H205.773L205.093 244.545C204.316 245.127 203.346 245.419 202.278 245.419C200.045 245.419 198.104 244.351 197.133 242.41C196.939 242.021 196.745 241.536 196.551 241.148C196.26 241.148 195.969 241.245 195.677 241.245C195.289 241.245 194.901 241.245 194.61 241.148C193.251 240.954 192.474 240.08 192.183 239.789C189.756 236.974 188.106 233.77 186.65 230.955L182.282 225.131C178.885 220.86 178.108 216.783 179.855 211.542H179.758L178.593 208.824C178.399 208.436 178.205 208.047 178.108 207.659C176.652 204.165 174.905 200.864 173.255 197.564C171.507 194.069 169.663 190.575 168.11 186.789C165.295 179.897 162.383 172.617 160.247 166.405C159.568 164.561 159.277 162.813 158.888 161.163C158.403 158.834 157.918 156.795 156.85 154.757C155.103 151.456 154.714 147.865 155.588 144.467C155.685 144.273 155.782 143.885 155.976 143.497C155.685 143.108 155.394 142.72 155.2 142.429C155.006 142.138 154.812 141.847 154.617 141.458C153.55 139.808 152.676 138.352 152.191 137.381C150.735 134.372 149.764 132.237 149.084 130.198C148.987 133.402 148.793 136.411 148.405 139.517C148.308 140.099 148.211 140.779 148.114 141.361L148.017 142.041L147.337 149.515C147.143 151.942 146.367 153.98 144.911 155.824L144.037 156.892C144.037 156.989 144.134 156.989 144.134 157.086C144.328 157.475 144.522 157.96 144.716 158.542C146.464 164.949 147.143 170.288 146.852 175.335C146.755 176.5 146.561 177.665 146.269 178.83C146.269 178.83 148.114 183.295 148.89 185.139C149.667 186.983 150.152 188.439 150.735 190.187L151.22 191.934C153.841 201.252 156.947 211.736 157.724 221.249C157.918 223.481 158.209 225.811 158.5 228.238C159.083 232.897 159.762 237.653 159.568 241.73C159.277 246.875 158.694 250.466 158.015 255.028C157.724 256.679 156.947 259.202 156.656 261.338L148.793 288.42C148.696 291.332 148.599 294.244 148.502 297.059C148.405 299.486 148.405 302.01 148.405 304.533C148.405 305.698 148.405 306.863 148.405 308.125V312.008C151.511 318.414 153.647 325.5 154.52 332.975C155.297 339.478 155.685 349.185 154.52 356.853C154.229 358.504 154.035 359.96 153.841 361.416C152.773 368.696 151.997 373.549 149.279 381.703C148.696 383.547 147.531 385.974 146.269 388.498C146.949 389.177 147.337 389.954 147.434 390.73L147.531 391.798C147.726 393.254 147.92 394.807 148.017 396.36L149.667 406.455L152.094 408.979L152.191 409.076C155.394 413.25 157.918 415.58 161.995 418.104C162.965 418.686 166.363 421.695 168.595 424.51C169.857 426.16 171.604 428.587 170.925 431.111C170.634 432.47 169.663 433.441 168.401 434.023C163.548 435.77 159.277 437.517 154.909 437.517Z"
        fill="white" stroke="#452F2C" stroke-width="1.0172" stroke-miterlimit="10" />
    <path
        d="M108.801 88.7499C108.995 88.5558 109.092 88.4587 109.092 88.3616C109.674 86.032 110.645 83.8965 112.392 82.0522C112.587 81.858 112.587 81.3727 112.587 81.0815C112.295 81.0815 111.907 80.8874 111.616 80.9844C109.869 81.5668 108.218 81.5668 106.471 81.0815C106.083 80.9844 105.598 81.0815 105.112 81.0815C105.306 81.4698 105.306 81.9551 105.598 82.3434C106.859 83.8965 107.733 85.6437 108.316 87.5851C108.51 87.9734 108.607 88.2646 108.801 88.7499Z"
        fill="#C1C1C1" stroke="#231F20" stroke-width="0.5" stroke-miterlimit="10" />
    <path
        d="M59.1995 141.943C59.7819 141.846 60.3643 141.07 60.6555 140.682C61.335 139.614 62.9851 137.09 63.4705 135.925C66.1884 130.198 67.062 128.354 68.1298 122.53C68.2268 121.85 68.518 117.579 68.421 116.9C68.3239 116.511 68.421 114.279 68.3239 113.794C68.0327 110.979 67.4503 106.902 67.2562 107.29C66.7708 109.523 64.8294 119.715 64.4412 120.88C62.9851 126.024 61.5291 131.169 60.1701 136.313C59.7819 137.77 59.3936 139.323 59.0053 140.779C59.2965 140.876 59.1024 141.943 59.1995 141.943Z"
        fill="#C1C1C1" stroke="#231F20" stroke-width="0.5" stroke-miterlimit="10" />
    <path
        d="M109.772 116.706C110.646 115.541 111.422 114.376 112.296 113.114C112.587 112.726 112.781 112.241 112.975 111.755C112.878 111.464 112.878 111.173 112.684 110.882C111.714 109.426 110.84 107.97 109.772 106.611C108.996 105.64 108.51 105.64 107.831 106.611C106.86 107.97 105.889 109.426 105.016 110.882C104.822 111.173 104.822 111.755 105.016 112.144C105.986 113.697 106.957 115.153 108.025 116.609C108.51 117.482 109.19 117.385 109.772 116.706Z"
        fill="#C1C1C1" stroke="#231F20" stroke-width="0.5" stroke-miterlimit="10" />
    <path
        d="M213.927 216.104C212.277 215.424 210.626 214.648 208.879 213.968L206.452 211.056C203.929 208.533 201.502 206.009 198.978 203.679C197.716 202.514 196.066 201.835 194.416 201.544L191.795 199.02C187.912 193.487 184.127 188.051 180.05 182.324C180.05 183.004 179.953 183.489 180.05 183.877C180.147 184.362 180.244 184.945 180.341 185.43L181.7 192.419C181.797 193.002 181.797 193.681 181.894 194.263C182.282 198.534 182.768 202.806 182.962 207.077C183.059 208.63 182.768 210.28 182.185 211.736C180.632 216.104 181.021 219.307 184.03 223.093L188.495 229.111C189.951 232.12 191.601 235.032 193.736 237.556C193.834 237.75 194.028 237.944 194.222 237.944C194.707 238.041 195.193 238.041 195.678 237.944C195.872 237.847 195.872 237.071 195.678 236.779C194.804 235.032 193.834 233.285 193.057 231.538C192.96 231.247 192.863 231.052 192.669 230.858L193.639 229.888C194.901 232.217 196.066 234.644 197.231 236.974C197.91 238.236 198.493 239.594 199.075 240.856C199.561 241.827 200.434 242.312 201.599 242.312C202.764 242.312 203.249 241.633 202.667 240.468C201.793 238.527 200.92 236.585 200.046 234.741C198.687 232.12 197.328 229.596 195.872 227.073L196.551 225.908C198.493 229.499 200.434 233.091 202.376 236.779C203.055 238.041 203.637 239.497 204.511 240.662C204.996 241.342 205.773 241.73 206.161 242.021C207.908 242.021 208.685 240.565 208.006 239.206C206.841 236.779 205.676 234.353 204.414 232.023C202.57 228.723 200.628 225.422 198.784 222.122L199.366 221.443C200.143 222.802 200.92 224.258 201.696 225.617C203.443 228.626 205.288 231.538 207.035 234.45C207.229 234.838 207.52 235.226 207.909 235.518C208.297 235.809 209.073 236.391 209.267 236.197C209.753 235.906 210.335 235.323 210.335 234.547C210.432 232.606 208.782 231.052 207.909 229.402C206.064 226.005 204.123 222.705 202.279 219.404C202.181 219.21 202.084 219.113 201.987 218.919C201.89 218.822 201.89 218.725 201.793 218.628L203.832 217.851C206.161 218.434 208.491 218.919 210.724 219.404C212.18 219.21 213.344 218.628 214.024 217.269C214.315 216.978 214.218 216.201 213.927 216.104Z"
        fill="#C1C1C1" stroke="#231F20" stroke-width="0.5" stroke-miterlimit="10" />
    <path
        d="M159.86 420.53C155.298 417.715 152.483 414.997 149.182 410.726L146.27 407.717L144.426 396.554C144.329 394.71 144.038 392.866 143.844 391.022C143.844 390.827 143.552 390.439 143.358 390.342C143.164 390.342 142.776 390.536 142.679 390.73C140.64 395.293 136.952 398.593 133.748 402.184C132.292 403.835 131.516 405.485 131.71 407.717C131.904 410.532 132.098 413.444 132.292 416.259C132.292 416.648 132.487 417.036 132.584 417.424V417.618C132.584 417.618 133.846 422.666 133.943 422.957C134.622 425.675 137.825 426.257 140.058 427.228C142.291 428.102 143.747 429.461 145.591 431.014C152.774 436.838 158.986 434.605 166.558 431.208C168.305 430.431 167.334 428.296 165.587 426.257C163.549 423.539 160.345 420.822 159.86 420.53Z"
        fill="#C1C1C1" stroke="#231F20" stroke-width="0.5" stroke-miterlimit="10" />
    <path
        d="M88.5138 39.1479C88.805 39.7303 89.0962 40.3128 89.4845 40.701C89.7757 40.9922 90.3581 41.0893 90.7464 40.9922H92.3966C92.6878 43.9043 92.979 46.8163 93.1731 49.7284C93.2702 51.0874 93.8526 52.0581 95.0174 52.6405C98.9002 54.6789 103.365 57.688 107.928 57.688C112.975 57.688 118.023 55.2613 122.391 52.9317C123.944 52.058 124.72 50.6991 124.817 48.8548C124.915 46.2339 125.206 43.6131 125.497 40.9922L127.147 40.7981C129.186 41.4776 130.836 35.8476 131.418 34.5857C132.68 31.9649 132.389 30.8971 129.962 29.2469L127.73 27.6938C127.438 27.4997 127.632 21.9668 127.535 21.1902C127.244 19.1518 126.856 16.8222 125.982 14.8808C122.197 6.04755 112.878 1.58239 103.754 4.10617C99.1914 5.36807 94.0467 9.73615 92.2024 14.2013C90.9405 17.2104 90.2611 20.4137 90.164 23.617C90.0669 25.073 90.0669 26.529 90.164 27.985L87.8343 29.2469C86.5725 29.4411 85.1164 31.5766 85.6018 32.7414C86.5725 35.0711 87.5431 37.1095 88.5138 39.1479Z"
        fill="#C1C1C1" stroke="#231F20" stroke-width="0.5" stroke-miterlimit="10" />
    <path
        d="M158.5 141.943C158.694 141.943 158.403 140.876 158.5 140.779C158.112 139.323 157.821 137.77 157.336 136.313C155.88 131.169 154.521 126.024 153.065 120.88C152.773 119.715 150.832 109.523 150.25 107.29C150.055 106.902 149.473 110.979 149.182 113.794C149.085 114.279 149.182 116.414 149.085 116.9C148.988 117.579 149.279 121.85 149.376 122.53C150.444 128.257 151.317 130.198 154.035 135.925C154.618 137.09 156.268 139.614 156.85 140.682C157.336 141.07 157.918 141.846 158.5 141.943Z"
        fill="#C1C1C1" stroke="#231F20" stroke-width="0.75" stroke-miterlimit="10" />
    <path
        d="M34.7378 207.077C34.9319 202.806 35.4173 198.534 35.8055 194.263C35.9026 193.681 35.9026 193.002 35.9997 192.419L37.3586 185.43C37.4557 184.945 37.5528 184.362 37.6498 183.877C37.7469 183.489 37.6498 183.004 37.6498 182.324C33.67 188.051 29.7873 193.584 25.9045 199.02L23.2837 201.544C21.5364 201.738 19.9833 202.417 18.7215 203.679C16.1977 206.106 13.6739 208.63 11.2472 211.056L8.82046 213.968C7.1703 214.648 5.52013 215.424 3.7729 216.104C3.57876 216.201 3.38462 216.978 3.57876 217.269C4.25824 218.531 5.42306 219.113 6.87909 219.404C9.20874 218.919 11.5384 218.434 13.771 217.851L15.8094 218.628C15.7123 218.725 15.7123 218.822 15.6153 218.919C15.5182 219.113 15.4211 219.21 15.3241 219.404C13.4798 222.705 11.5384 226.102 9.69408 229.402C8.82046 231.052 7.1703 232.508 7.26736 234.547C7.26736 235.323 7.84978 235.809 8.33512 236.197C8.52926 236.294 9.3058 235.809 9.69408 235.518C10.0824 235.226 10.2765 234.838 10.5677 234.45C12.3149 231.538 14.1592 228.529 15.9065 225.617C16.683 224.258 17.5566 222.899 18.2361 221.443L18.8185 222.122C16.8772 225.422 15.0329 228.723 13.1885 232.023C11.9267 234.353 10.7618 236.779 9.59701 239.206C8.91753 240.565 9.69408 242.021 11.4413 242.021C11.8296 241.73 12.6061 241.342 13.0915 240.662C13.9651 239.4 14.5475 238.041 15.227 236.779C17.1684 233.188 19.1097 229.499 21.0511 225.908L21.7306 227.073C20.2746 229.596 18.9156 232.217 17.5566 234.741C16.5859 236.585 15.7123 238.527 14.9358 240.468C14.4504 241.633 14.8387 242.312 16.0035 242.312C17.0713 242.312 18.042 241.924 18.5273 240.856C19.2068 239.594 19.7892 238.236 20.3716 236.974C21.5364 234.644 22.7013 232.217 23.9632 229.888L24.9338 230.858C24.8368 231.052 24.6426 231.344 24.5456 231.538C23.769 233.285 22.7983 235.032 21.9247 236.779C21.7306 237.071 21.8277 237.847 21.9247 237.944C22.313 238.138 22.8954 238.041 23.3807 237.944C23.5749 237.944 23.769 237.653 23.8661 237.556C26.0987 235.032 27.6518 232.023 29.1078 229.111L33.5729 223.093C36.5821 219.307 36.9703 216.104 35.4173 211.736C34.9319 210.28 34.6407 208.63 34.7378 207.077Z"
        fill="#C1C1C1" stroke="#231F20" stroke-width="0.5" stroke-miterlimit="10" />
    <path
        d="M75.4095 390.827C75.3124 390.633 74.9241 390.342 74.73 390.439C74.5359 390.536 74.2447 390.827 74.2447 391.119C74.0505 392.963 73.7593 394.807 73.6622 396.651L71.8179 407.717L68.9059 410.726C65.7026 414.997 62.8876 417.715 58.2283 420.53C57.743 420.822 54.5397 423.539 52.4042 426.257C50.7541 428.393 49.7834 430.431 51.4335 431.208C59.102 434.605 65.3143 436.741 72.4004 431.014C74.2447 429.558 75.7007 428.102 77.9333 427.228C80.1658 426.354 83.3691 425.772 84.0486 422.957C84.1457 422.666 85.4075 417.618 85.4075 417.618V417.424C85.5046 417.036 85.6017 416.648 85.6988 416.259C85.8929 413.444 86.087 410.532 86.2812 407.717C86.4753 405.582 85.6988 403.835 84.2427 402.184C81.1365 398.69 77.4479 395.39 75.4095 390.827Z"
        fill="#C1C1C1" stroke="#231F20" stroke-width="0.5" stroke-miterlimit="10" />
    <path
        d="M107.941 119.155C106.873 117.311 105.708 115.564 104.543 113.816C104.155 113.137 103.476 113.04 102.699 113.331C101.146 113.913 99.4957 114.496 97.9426 115.078C95.1276 116.243 93.1862 118.184 92.5068 121.388C91.8273 124.785 90.9537 128.183 90.1771 131.58C90.08 132.259 90.1771 132.939 90.1771 133.715C90.4683 133.715 90.5654 133.715 90.6625 133.618C90.9537 133.521 91.1478 133.327 91.439 133.23C94.6423 131.386 97.9426 130.124 101.631 129.541C103.281 129.25 104.932 129.056 106.582 128.765C107.941 128.474 108.232 128.085 108.232 126.629C108.232 124.688 108.232 122.747 108.232 120.708C108.135 120.223 108.135 119.641 107.941 119.155Z"
        fill="#C1C1C1" stroke="#231F20" stroke-width="0.5" stroke-miterlimit="10" />
    <path
        d="M107.941 132.745C107.747 131.871 107.261 131.386 106.291 131.289C100.952 130.609 96.2924 132.357 92.1185 135.56C91.3419 136.142 90.5654 137.113 90.1771 137.987C89.1094 141.19 88.527 144.587 88.7211 147.985C88.7211 148.276 88.9152 148.664 89.0123 148.955C89.3035 148.858 89.6918 148.761 89.983 148.567C92.2156 147.014 94.6423 145.946 97.4573 145.655C99.3016 145.461 101.049 145.461 102.893 145.267C102.893 145.267 102.893 145.267 102.893 145.364C104.155 145.364 105.514 145.364 106.776 145.364C107.455 145.364 107.941 145.073 108.038 144.296C108.426 140.413 108.62 136.53 107.941 132.745Z"
        fill="#C1C1C1" stroke="#231F20" stroke-width="0.5" stroke-miterlimit="10" />
    <path
        d="M109.688 143.519C109.688 145.073 109.979 145.267 111.532 145.364C113.473 145.461 115.415 145.461 117.356 145.364C121.142 145.364 124.539 146.431 127.743 148.47C128.034 148.664 128.519 148.761 128.907 148.858C129.004 148.47 129.296 147.985 129.199 147.596C128.81 144.587 128.519 141.578 128.034 138.569C127.937 137.792 127.257 136.919 126.675 136.239C123.18 132.842 118.909 131.289 114.056 130.998C113.473 130.998 112.794 130.998 112.212 131.095C110.464 131.289 110.076 131.677 109.785 133.327C109.688 133.618 109.688 134.007 109.688 134.298C109.591 137.404 109.591 140.413 109.688 143.519Z"
        fill="#C1C1C1" stroke="#231F20" stroke-width="0.5" stroke-miterlimit="10" />
    <path
        d="M109.688 165.942C109.688 167.981 110.853 168.757 112.794 168.272C115.997 167.398 119.201 166.525 122.404 165.748C123.763 165.457 124.734 164.875 125.413 163.71C127.451 160.312 128.519 156.721 128.907 152.838C129.005 151.964 128.616 151.382 127.937 150.994C123.666 148.179 119.006 147.014 113.959 147.208C110.756 147.305 110.367 147.111 109.688 151.188C109.591 151.479 109.591 151.867 109.591 152.159C109.591 154.391 109.591 156.624 109.591 158.953C109.591 158.953 109.591 158.953 109.688 158.953C109.688 161.186 109.688 163.516 109.688 165.942Z"
        fill="#C1C1C1" stroke="#231F20" stroke-width="0.5" stroke-miterlimit="10" />
    <path
        d="M142.692 109.934L129.102 115.078C128.908 115.078 128.714 115.078 128.422 115.175C126.966 115.369 126.19 116.34 126.481 117.796C127.549 123.329 128.617 128.959 129.976 134.395C130.364 135.948 131.237 137.404 132.208 138.666C133.47 140.316 135.023 141.869 136.479 143.325C138.809 145.655 140.556 148.276 141.43 151.382C141.527 151.673 141.624 152.061 141.818 152.644C143.08 151.091 143.468 149.538 143.662 147.887L144.439 140.316C144.536 139.442 144.73 138.666 144.827 137.792C145.506 132.065 145.604 126.241 145.215 120.514C145.021 117.408 144.73 114.302 144.439 111.196C144.342 109.739 143.953 109.448 142.692 109.934Z"
        fill="#C1C1C1" stroke="#231F20" stroke-width="0.5" stroke-miterlimit="10" />
    <path
        d="M127.452 166.816C128.908 166.233 130.461 165.845 131.723 164.972C135.411 162.448 137.741 158.759 139.391 154.585C140.168 152.644 139.876 150.605 138.615 148.858C136.576 145.752 133.955 143.228 131.14 140.802C130.849 140.51 130.461 140.413 129.781 140.122C129.878 140.802 129.976 141.19 130.073 141.481C131.237 145.849 131.723 150.217 131.432 154.682C131.14 158.953 129.878 162.836 126.578 165.942C126.384 166.136 126.287 166.331 125.899 166.816C126.675 166.816 127.161 166.913 127.452 166.816Z"
        fill="#C1C1C1" stroke="#231F20" stroke-width="0.5" stroke-miterlimit="10" />
    <path
        d="M109.688 120.126C109.688 122.456 109.688 124.785 109.688 127.115C109.688 127.988 110.173 128.571 111.047 128.765C111.532 128.862 112.115 128.959 112.697 128.959C117.648 129.444 122.307 130.706 126.578 133.23C126.869 133.424 127.16 133.521 127.84 133.91C127.84 133.133 127.937 132.648 127.84 132.162C126.966 128.086 125.996 124.106 125.025 120.126C124.637 118.379 123.569 116.923 121.919 116.146C119.783 115.175 117.551 114.302 115.318 113.331C114.444 112.943 113.765 113.234 113.28 113.914C112.115 115.564 111.047 117.311 109.979 119.058C109.688 119.349 109.688 119.835 109.688 120.126Z"
        fill="#C1C1C1" stroke="#231F20" stroke-width="0.5" stroke-miterlimit="10" />
    <path
        d="M92.0213 200.79C93.8656 202.343 95.807 203.896 98.2337 204.575C98.5249 204.673 98.9132 204.478 99.2044 204.478C99.1073 204.187 99.1073 203.799 99.0103 203.605C98.0396 201.663 96.8748 199.722 96.0011 197.684C92.1184 189.142 89.2063 180.405 89.2063 170.893C89.2063 169.34 88.6239 168.175 87.1679 167.495C83.2852 165.554 80.6643 162.351 78.5288 158.662C78.1405 158.08 77.8493 157.497 77.5581 156.915C77.461 156.915 77.2669 156.915 77.1698 156.915C76.9757 157.4 76.6845 157.983 76.5874 158.468C76.005 161.38 75.3255 164.195 74.9373 167.107C74.3548 171.184 74.3549 175.261 76.005 179.241C79.4024 187.783 84.9353 194.869 92.0213 200.79Z"
        fill="#C1C1C1" stroke="#231F20" stroke-width="0.5" stroke-miterlimit="10" />
    <path
        d="M91.3421 166.039C88.4301 163.418 87.0711 160.021 86.5858 156.235C85.9063 151.188 86.4887 146.334 87.7506 141.481C87.8477 141.093 87.8477 140.704 87.9447 140.316C87.8477 140.219 87.7506 140.219 87.6535 140.122C87.2653 140.413 86.6828 140.607 86.3916 140.996C84.062 143.422 81.6353 145.752 79.4998 148.373C77.7525 150.411 77.5584 152.935 78.7232 155.362C79.5968 157.206 80.6646 159.147 81.9265 160.798C83.7708 163.321 86.0034 165.457 89.0125 166.525C89.789 166.816 90.7597 167.204 91.7304 166.622C91.5363 166.331 91.4392 166.136 91.3421 166.039Z"
        fill="#C1C1C1" stroke="#231F20" stroke-width="0.5" stroke-miterlimit="10" />
    <path
        d="M95.1276 165.651C98.525 166.428 101.922 167.398 105.223 168.272C106.873 168.757 108.038 167.884 108.038 166.136C108.135 161.962 108.329 157.691 108.329 153.517C108.329 151.867 107.941 150.12 107.552 148.47C107.358 147.596 106.679 147.111 105.805 147.111C103.573 147.111 101.34 147.014 99.1074 147.305C95.807 147.693 92.7979 148.858 90.08 150.702C89.3035 151.285 88.8181 151.867 89.0122 152.935C89.4005 156.721 90.4683 160.409 92.5067 163.71C92.9921 164.777 93.8657 165.36 95.1276 165.651Z"
        fill="#C1C1C1" stroke="#231F20" stroke-width="0.5" stroke-miterlimit="10" />
    <path
        d="M75.4226 110.031H75.3256H75.2285C73.7725 109.448 73.4813 110.031 73.2871 112.166C72.6077 118.573 72.3164 124.979 72.7047 131.386C72.8018 133.91 73.2871 137.404 73.5783 140.219L74.2578 147.208C74.2578 147.305 74.2578 147.305 74.2578 147.402C74.2578 149.149 74.6461 150.897 75.908 152.45C76.1021 152.256 76.1992 152.159 76.1992 152.061C76.2963 151.673 76.3933 151.382 76.5875 150.994C77.2669 148.664 78.3347 146.626 79.9849 144.878C81.4409 143.422 82.7999 141.869 84.2559 140.413C86.4885 138.084 88.0416 135.366 88.5269 132.162C88.624 131.386 88.8181 130.706 88.9152 129.93C89.6917 125.95 90.5653 122.067 91.3419 118.087C91.7302 116.243 90.8565 115.37 89.0122 115.175C88.9152 115.175 88.9152 115.175 88.8181 115.175L75.4226 110.031Z"
        fill="#C1C1C1" stroke="#231F20" stroke-width="0.5" stroke-miterlimit="10" />
    <path
        d="M107.358 172.737C107.164 171.184 106.387 170.213 104.931 169.825C104.252 169.631 103.572 169.243 102.893 169.145C100.078 168.466 97.1659 167.592 94.351 167.107C92.2154 166.719 90.9536 167.981 91.0506 169.922C91.4389 176.911 92.6037 183.706 94.5451 190.404C96.0982 195.645 98.0396 200.693 101.437 204.964C103.281 207.293 105.708 208.167 108.523 208.944C108.62 208.07 108.62 207.391 108.62 206.711C108.62 199.043 108.62 191.471 108.426 183.803C108.232 180.114 107.649 176.426 107.358 172.737Z"
        fill="#C1C1C1" stroke="#231F20" stroke-width="0.5" stroke-miterlimit="10" />
    <path
        d="M117.648 203.314C121.142 198.072 123.083 192.151 124.442 186.035C125.607 180.891 126.481 175.649 126.772 170.31C126.869 167.884 125.898 166.719 123.375 167.01C119.589 167.495 116.095 168.66 112.6 169.922C111.435 170.31 110.756 171.184 110.562 172.349C110.27 174.484 109.785 176.62 109.688 178.852C109.397 184.774 109.203 196.713 109.203 196.713C109.203 200.305 109.203 203.896 109.203 207.488C109.203 208.847 109.397 208.944 110.659 208.555C113.668 207.682 115.997 205.935 117.648 203.314Z"
        fill="#C1C1C1" stroke="#231F20" stroke-width="0.5" stroke-miterlimit="10" />
    <path
        d="M118.91 203.411C118.716 203.702 118.716 204.09 118.618 204.478C119.007 204.478 119.395 204.576 119.783 204.478C120.948 203.993 122.113 203.508 123.084 202.828C130.558 197.489 136.285 190.695 140.362 182.541C141.721 179.823 142.983 176.911 143.177 173.805C143.468 168.466 142.594 163.127 141.138 157.983C141.041 157.594 140.75 157.206 140.459 156.429C140.071 157.206 139.779 157.691 139.585 158.08C137.644 161.671 135.12 164.874 131.529 166.816C129.393 167.981 128.617 169.34 128.617 171.669C128.617 176.426 127.646 181.085 126.384 185.647C124.54 191.86 122.016 197.781 118.91 203.411Z"
        fill="#C1C1C1" stroke="#231F20" stroke-width="0.5" stroke-miterlimit="10" />
    <path
        d="M47.1275 154.378C47.1275 155.154 47.3216 156.028 47.4187 156.998C47.6128 156.707 47.7099 156.61 47.807 156.513C49.1659 154.28 50.3308 151.854 51.8839 149.718C55.2813 145.156 57.708 140.206 59.4552 134.867C60.4259 131.858 61.4937 128.848 62.3673 125.742C64.2116 119.627 65.3764 113.415 65.8617 107.105C66.0559 104.581 64.5998 103.319 62.1731 104.193C55.5725 106.523 49.1659 106.62 44.3125 117.103C42.2741 121.568 41.7887 123.898 41.4975 128.848C41.3034 131.372 42.0799 135.837 44.3125 138.555C47.3216 142.147 47.0304 149.524 47.1275 154.378Z"
        fill="#C1C1C1" stroke="#231F20" stroke-width="0.5" stroke-miterlimit="10" />
    <path
        d="M152.35 107.129C152.835 113.439 154 119.651 155.844 125.767C156.718 128.873 157.785 131.882 158.756 134.891C160.503 140.23 163.027 145.18 166.327 149.743C167.881 151.878 169.045 154.305 170.404 156.537C170.501 156.634 170.598 156.731 170.793 157.023C170.89 155.955 171.084 155.178 171.084 154.402C171.181 149.548 170.793 142.171 173.802 138.483C175.937 135.765 176.714 131.397 176.617 128.776C176.326 123.922 175.937 121.593 173.802 117.03C168.948 106.644 162.542 106.547 155.941 104.12C153.611 103.344 152.155 104.606 152.35 107.129Z"
        fill="#C1C1C1" stroke="#231F20" stroke-width="0.5" stroke-miterlimit="10" />
    <path
        d="M103.108 213.192C100.972 211.445 95.4392 208.921 93.4008 207.076C88.062 202.223 85.3441 200.67 81.3643 194.555C80.4907 193.196 79.617 191.74 78.7434 190.284C78.6464 190.284 78.5493 190.284 78.3552 190.381C78.4522 191.06 78.4522 191.74 78.5493 192.516C79.617 199.117 81.3643 205.62 83.4027 211.93C88.062 226.587 91.8477 241.536 95.3422 256.484C95.9246 259.008 96.4099 261.532 96.9923 264.153C97.2835 263.862 97.3806 263.57 97.4777 263.279C97.963 260.561 99.5161 255.125 99.9044 252.408C101.943 242.895 102.04 241.342 103.108 233.479C104.078 225.714 104.175 224.355 104.175 219.89C104.272 215.813 104.272 214.163 103.108 213.192Z"
        fill="#C1C1C1" stroke="#231F20" stroke-width="0.5" stroke-miterlimit="10" />
    <path
        d="M122.521 256.484C125.919 241.536 129.704 226.587 134.461 211.93C136.499 205.523 138.246 199.117 139.314 192.516C139.411 191.837 139.508 191.157 139.508 190.381C139.411 190.381 139.314 190.381 139.12 190.284C138.246 191.74 137.373 193.099 136.499 194.555C132.519 200.67 129.899 202.223 124.463 207.076C122.424 208.921 116.891 211.445 114.756 213.192C113.591 214.163 113.688 215.813 113.688 219.89C113.688 224.258 113.882 225.617 114.756 233.479C115.727 241.439 115.824 242.992 117.959 252.408C118.347 255.125 119.9 260.561 120.386 263.279C120.483 263.57 120.58 263.862 120.871 264.153C121.454 261.532 121.939 259.008 122.521 256.484Z"
        fill="#C1C1C1" stroke="#231F20" stroke-width="0.5" stroke-miterlimit="10" />
    <path
        d="M106.73 88.9195C106.439 84.8426 104.304 81.7364 100.421 80.2804C96.344 78.7273 92.2671 77.2712 88.1902 76.0093C85.084 75.0386 81.1042 78.436 80.0365 81.154C77.901 86.6869 75.086 91.8315 72.271 96.9761C71.5915 98.238 71.2032 99.597 70.7179 100.956C70.4267 101.83 70.6208 102.703 71.3974 103.383C75.2801 106.974 79.4541 110.177 84.3075 112.119C87.9961 113.575 91.8788 113.866 95.8587 113.284C101.974 112.313 106.73 106.295 107.022 100.568C107.119 96.5879 107.022 92.8022 106.73 88.9195Z"
        fill="#C1C1C1" stroke="#231F20" stroke-width="0.5" stroke-miterlimit="10" />
    <path
        d="M121.582 113.187C125.562 113.866 129.445 113.478 133.133 112.022C138.084 110.08 142.258 106.974 146.043 103.286C146.723 102.606 147.014 101.733 146.723 100.859C146.335 99.4999 145.849 98.141 145.17 96.8791C142.258 91.7345 139.443 86.5898 137.404 81.0569C136.336 78.339 132.357 74.9416 129.25 75.9123C125.077 77.1742 121.097 78.6302 117.02 80.1833C113.04 81.6393 111.002 84.7455 110.71 88.8224C110.419 92.7052 110.225 96.4908 110.419 100.374C110.613 106.198 115.467 112.216 121.582 113.187Z"
        fill="#C1C1C1" stroke="#231F20" stroke-width="0.5" stroke-miterlimit="10" />
    <path
        d="M173.481 143.433C172.025 146.442 172.122 149.548 172.317 152.751C173.19 164.496 177.364 175.077 183.285 185.075C186.003 189.637 189.109 194.005 192.604 198.082C193.186 198.665 193.866 199.15 194.545 199.732C194.642 199.635 194.739 199.538 194.837 199.441C194.448 198.859 194.06 198.179 193.769 197.597C189.401 188.569 186.683 179.057 185.809 168.962C185.033 159.546 182.218 150.81 176.491 143.141C175.326 141.297 174.452 141.491 173.481 143.433Z"
        fill="#C1C1C1" stroke="#231F20" stroke-width="0.5" stroke-miterlimit="10" />
    <path
        d="M175.132 172.068C173.676 167.7 172.22 163.429 170.375 159.158C168.822 155.469 166.298 152.266 163.775 149.257C162.61 147.898 161.445 146.442 160.28 145.083C159.989 144.791 159.31 144.403 159.018 144.5C158.63 144.694 158.339 145.277 158.145 145.762C157.368 148.577 157.854 151.392 159.212 153.916C161.348 157.896 161.348 161.681 162.804 165.952C165.037 172.359 168.046 179.833 170.57 186.24C173.482 193.52 177.558 199.926 180.568 207.109C180.762 207.692 181.053 208.177 181.247 208.76C181.344 208.76 181.538 208.663 181.635 208.663C181.732 207.886 181.829 207.109 181.829 206.333C181.441 194.491 178.917 183.134 175.132 172.068Z"
        fill="#C1C1C1" stroke="#231F20" stroke-width="0.5" stroke-miterlimit="10" />
    <path
        d="M59.0374 153.916C60.3963 151.392 60.7846 148.577 60.1051 145.762C60.0081 145.277 59.6198 144.694 59.2315 144.5C58.9403 144.403 58.2608 144.791 57.9696 145.083C56.8048 146.442 55.64 147.801 54.4751 149.257C51.8543 152.266 49.4276 155.566 47.8745 159.158C46.0302 163.332 44.5742 167.7 43.1181 172.068C39.3324 183.134 36.8087 194.491 36.4204 206.236C36.4204 207.012 36.5175 207.789 36.6145 208.566C36.7116 208.566 36.9057 208.663 37.0028 208.663C37.1969 208.08 37.4881 207.595 37.6823 207.012C40.6914 199.829 44.7683 193.326 47.6803 186.143C50.2041 179.833 53.2133 172.359 55.4458 165.855C56.9989 161.681 56.9989 157.896 59.0374 153.916Z"
        fill="#C1C1C1" stroke="#231F20" stroke-width="0.5" stroke-miterlimit="10" />
    <path
        d="M25.4518 197.985C28.9463 193.908 32.0525 189.54 34.7704 184.978C40.6916 174.98 44.8655 164.399 45.7392 152.654C46.0304 149.451 46.0304 146.345 44.5743 143.335C43.6037 141.394 42.73 141.2 41.3711 142.947C35.644 150.616 32.829 159.352 32.0525 168.767C31.2759 178.862 28.461 188.278 24.0929 197.403C23.8017 198.082 23.4134 198.664 23.0251 199.247C23.1222 199.344 23.2193 199.441 23.3163 199.538C24.1899 199.15 24.9665 198.664 25.4518 197.985Z"
        fill="#C1C1C1" stroke="#231F20" stroke-width="0.5" stroke-miterlimit="10" />
    <path
        d="M85.8648 258.038C85.3795 259.008 84.7971 260.076 84.4088 261.047C83.244 264.832 82.0791 268.521 81.1085 272.307C79.9436 276.966 79.07 281.625 79.2642 286.382C79.3612 291.526 79.4583 296.671 79.7495 301.816C79.9436 306.087 80.3319 310.455 80.6231 314.726C80.6231 315.211 80.8173 315.696 80.9143 316.085C81.0114 316.085 81.1085 316.085 81.2055 316.085C81.3026 315.599 81.4967 315.211 81.5938 314.726C82.9528 308.416 84.3117 302.107 85.6707 295.797C86.3502 292.594 87.2238 289.488 88.0003 286.285C88.4857 284.537 88.971 282.79 89.2622 281.043C89.9417 276.189 89.5534 271.336 88.971 266.483C88.6798 263.668 88.0003 260.95 87.4179 258.135C87.3208 257.746 86.9326 257.358 86.6414 257.261C86.5443 257.261 86.059 257.746 85.8648 258.038Z"
        fill="#C1C1C1" stroke="#231F20" stroke-width="0.5" stroke-miterlimit="10" />
    <path
        d="M133.719 257.953C133.525 257.662 133.04 257.177 132.846 257.274C132.555 257.371 132.166 257.856 132.069 258.147C131.487 260.962 130.807 263.68 130.516 266.495C130.031 271.349 129.643 276.202 130.225 281.055C130.419 282.803 131.002 284.55 131.487 286.297C132.263 289.5 133.137 292.607 133.817 295.81C135.273 302.119 136.534 308.429 137.893 314.738C137.991 315.224 138.185 315.709 138.282 316.097C138.379 316.097 138.476 316.097 138.573 316.097C138.67 315.612 138.864 315.224 138.864 314.738C139.155 310.467 139.544 306.099 139.738 301.828C139.932 296.684 140.029 291.539 140.223 286.394C140.32 281.638 139.544 276.882 138.379 272.319C137.408 268.534 136.243 264.748 135.078 261.059C134.787 259.895 134.205 258.924 133.719 257.953Z"
        fill="#C1C1C1" stroke="#231F20" stroke-width="0.5" stroke-miterlimit="10" />
    <path
        d="M145.562 309.096C145.562 305.213 145.562 301.621 145.659 297.933C145.756 293.565 145.95 289.1 146.144 284.731C146.533 276.092 147.212 267.356 147.503 258.717C147.6 253.767 147.309 248.816 147.018 243.866C146.533 236.488 145.756 229.111 145.077 221.831C144.688 218.045 144.106 214.357 143.815 210.571C143.524 207.077 143.524 203.485 143.427 199.991C143.329 197.079 143.427 194.264 143.427 191.351C143.427 191.06 143.427 190.866 143.329 190.575C143.232 190.284 143.038 190.09 142.844 189.798C142.65 189.993 142.262 190.187 142.165 190.381C141.776 191.449 141.485 192.613 141.194 193.778C138.961 203 136.729 212.318 134.496 221.54C132.846 228.432 130.905 235.226 129.352 242.118C128.381 246.583 128.187 251.146 128.284 255.708C128.381 258.717 128.381 261.629 128.672 264.638C129.449 272.113 130.225 279.587 132.458 286.77C133.72 290.653 135.661 294.244 137.797 297.642C140.126 301.233 142.553 304.728 144.98 308.319C145.077 308.61 145.271 308.804 145.562 309.096Z"
        fill="#C1C1C1" stroke="#231F20" stroke-width="0.5" stroke-miterlimit="10" />
    <path
        d="M65.2863 261.144C65.2863 261.435 72.2752 288.42 72.3723 288.614C72.5664 286.867 70.528 260.658 70.7221 252.893C70.9163 242.021 72.2752 232.897 73.2459 222.025C73.4401 220.181 73.7313 218.239 73.8283 216.395C74.2166 212.318 74.702 208.241 74.799 204.165C74.8961 198.923 74.6049 193.584 74.5078 188.342C74.4107 186.401 74.3137 184.46 74.1195 182.518C74.0225 182.518 73.8283 182.518 73.7313 182.518C73.6342 182.809 73.5371 183.101 73.5371 183.295C72.8576 186.11 72.3723 189.022 71.5958 191.837C68.8778 201.35 65.4804 212.609 64.7039 222.413C64.1215 228.917 62.5684 236.683 62.8596 242.507C63.2479 249.398 64.2185 253.572 65.2863 261.144Z"
        fill="#C1C1C1" stroke="#231F20" stroke-width="0.5" stroke-miterlimit="10" />
    <path
        d="M91.3976 255.805C91.4946 251.243 91.3005 246.681 90.3298 242.215C88.7767 235.324 86.8353 228.529 85.1852 221.637C82.9526 212.415 80.72 203.097 78.4874 193.875C78.1962 192.711 77.905 191.643 77.5167 190.478C77.4197 190.187 77.1285 190.09 76.8373 189.896C76.6431 190.187 76.449 190.381 76.3519 190.672C76.2549 190.866 76.2549 191.157 76.2549 191.449C76.2549 194.361 76.3519 197.176 76.2549 200.088C76.1578 203.582 76.1578 207.174 75.8666 210.668C75.5754 214.454 74.993 218.142 74.6047 221.928C73.9252 229.305 73.2457 236.586 72.6633 243.963C72.275 248.913 71.9838 253.864 72.178 258.814C72.4692 267.453 73.0516 276.19 73.5369 284.829C73.7311 289.197 73.9252 293.662 74.0223 298.03C74.1193 301.621 74.1193 305.31 74.1193 309.193C74.4106 308.805 74.7018 308.61 74.7988 308.416C77.2255 304.825 79.6523 301.33 81.9819 297.739C84.1174 294.341 86.0588 290.75 87.3207 286.867C89.5532 279.684 90.3298 272.21 91.1063 264.735C91.3005 261.823 91.3005 258.814 91.3976 255.805Z"
        fill="#C1C1C1" stroke="#231F20" stroke-width="0.5" stroke-miterlimit="10" />
    <path
        d="M94.0184 255.902C93.9213 256.29 93.8243 256.582 93.8243 256.97C93.5331 260.659 93.2419 264.347 92.8536 268.036C92.5624 270.851 92.3683 273.569 91.7858 276.384C90.8152 281.237 89.6503 285.993 88.5826 290.75C88.4855 291.235 88.4855 291.818 88.5826 292.206C90.7181 298.904 91.1064 305.795 91.0093 312.784C91.0093 314.143 90.9122 315.405 90.9122 316.764C91.0093 316.764 91.1064 316.764 91.2034 316.764C95.1832 307.446 97.3187 297.642 97.8041 287.449C98.2894 276.772 97.3187 266.191 94.4067 255.902C94.3096 255.902 94.1155 255.902 94.0184 255.902Z"
        fill="#C1C1C1" stroke="#231F20" stroke-width="0.5" stroke-miterlimit="10" />
    <path
        d="M128.672 316.764C128.672 315.405 128.575 314.143 128.575 312.784C128.478 305.795 128.866 298.904 131.002 292.206C131.196 291.72 131.099 291.235 131.002 290.75C129.934 285.993 128.769 281.237 127.798 276.384C127.216 273.666 127.022 270.851 126.731 268.036C126.342 264.347 126.051 260.659 125.76 256.97C125.76 256.582 125.663 256.29 125.566 255.902C125.372 255.902 125.275 255.902 125.08 255.902C122.168 266.191 121.198 276.772 121.683 287.449C122.168 297.642 124.304 307.349 128.284 316.764C128.478 316.764 128.575 316.764 128.672 316.764Z"
        fill="#C1C1C1" stroke="#231F20" stroke-width="0.5" stroke-miterlimit="10" />
    <path
        d="M154.298 261.144C155.366 253.573 156.337 249.399 156.725 242.604C157.016 236.877 155.463 229.014 154.881 222.511C154.007 212.707 150.707 201.544 147.989 191.934C147.212 189.119 146.63 186.304 146.047 183.392C145.95 183.101 145.95 182.81 145.853 182.615C145.756 182.615 145.562 182.615 145.465 182.615C145.368 184.557 145.174 186.498 145.077 188.44C144.98 193.681 144.688 199.02 144.785 204.262C144.883 208.339 145.368 212.415 145.756 216.492C145.95 218.337 146.242 220.278 146.339 222.122C147.309 232.897 148.668 242.118 148.862 252.99C149.057 260.756 146.921 286.964 147.212 288.711C147.309 288.42 154.298 261.435 154.298 261.144Z"
        fill="#C1C1C1" stroke="#231F20" stroke-width="0.5" stroke-miterlimit="10" />
    <path
        d="M89.9562 329.092C89.9562 328.898 89.7621 322.006 89.5679 321.52C89.3738 322.103 88.306 325.986 88.209 326.277C87.9178 327.442 87.7236 328.606 87.4324 329.771C86.0735 335.984 84.6174 342.196 83.2585 348.408C82.579 351.709 81.7054 355.009 81.4142 358.309C80.9288 363.648 80.6376 368.987 80.4435 374.326C80.2493 379.859 80.8318 385.392 82.3849 390.73C83.0643 393.254 83.7438 395.778 84.5204 398.205C84.3262 398.107 84.2291 398.01 84.2291 397.913C83.6467 396.263 82.9673 394.613 82.4819 392.866C79.9581 384.615 79.1816 376.073 79.0845 367.434C78.9875 357.921 78.5021 348.505 77.8226 338.993C77.5314 334.625 77.3373 330.16 77.2402 325.694C77.2402 320.453 77.9197 315.308 78.7933 310.163C79.0845 308.416 79.2787 306.669 79.5699 304.825C79.2787 304.922 79.1816 304.922 79.1816 305.019C78.7933 305.504 78.5021 305.989 78.2109 306.475C72.1927 314.92 68.6982 324.432 67.4363 334.819C66.5627 341.711 66.3685 350.932 67.4363 357.824C68.9894 367.725 69.3777 372.676 72.5809 382.188C73.7457 385.78 76.949 391.798 79.2787 394.807C81.5112 397.622 83.8409 400.534 86.0735 403.349C86.3647 403.737 86.6559 404.029 87.2383 404.514C87.3353 403.835 87.5295 403.446 87.4324 403.155C86.85 399.758 86.5588 396.36 85.5881 393.06C84.4233 389.274 84.2292 383.644 85.0057 379.762C86.9471 369.861 89.9562 365.784 92.0917 355.98C92.9653 351.612 93.2565 345.593 92.2858 341.128C91.2181 336.954 90.7327 333.363 89.9562 329.092Z"
        fill="#C1C1C1" stroke="#231F20" stroke-width="0.5" stroke-miterlimit="10" />
    <path
        d="M132.375 403.446C134.608 400.631 136.938 397.816 139.17 394.904C141.597 391.895 144.703 385.877 145.868 382.285C149.071 372.773 149.46 367.822 151.013 357.921C152.08 351.029 151.886 341.808 151.013 334.916C149.751 324.627 146.256 315.114 140.238 306.572C139.947 306.086 139.559 305.601 139.267 305.116C139.267 305.116 139.17 305.019 138.879 304.922C139.17 306.863 139.364 308.61 139.656 310.26C140.529 315.405 141.209 320.55 141.209 325.791C141.209 330.257 141.015 334.625 140.626 339.09C139.947 348.505 139.461 358.018 139.364 367.531C139.267 376.073 138.491 384.712 135.967 392.963C135.482 394.71 134.802 396.36 134.22 398.01C134.22 398.108 134.123 398.205 133.929 398.302C134.608 395.778 135.288 393.254 136.064 390.827C137.617 385.489 138.103 379.956 138.005 374.423C137.811 369.084 137.617 363.745 137.035 358.406C136.744 355.106 135.87 351.806 135.093 348.505C133.734 342.293 132.278 336.081 130.919 329.868C130.628 328.703 130.434 327.539 130.143 326.374C130.046 326.083 128.978 322.103 128.784 321.617C128.59 322.103 128.493 328.995 128.396 329.189C127.619 333.46 127.037 337.051 126.163 341.225C125.192 345.69 125.387 351.709 126.357 356.077C128.396 365.881 131.405 369.958 133.443 379.859C134.22 383.838 134.123 389.371 132.861 393.157C131.89 396.36 131.599 399.855 131.017 403.252C130.919 403.64 131.114 403.932 131.211 404.611C131.696 404.126 132.084 403.737 132.375 403.446Z"
        fill="#C1C1C1" stroke="#231F20" stroke-width="0.5" stroke-miterlimit="10" />
    <path
        d="M138.439 79.5182C139.701 85.2452 143.681 91.7488 146.69 96.8934C148.923 100.776 149.117 99.7084 152.805 101.359C154.747 102.232 159.989 103.106 161.93 103.979C163.58 104.756 165.91 105.824 167.463 106.794C167.754 106.989 168.628 107.765 168.919 108.056C169.016 107.765 169.113 107.571 169.113 107.377C168.919 101.262 169.404 94.3697 167.172 88.5455C165.91 85.3423 161.93 80.8771 159.309 78.8387C154.844 75.5384 151.447 74.7618 145.525 73.8882C144.846 73.7911 143.972 73.6941 143.487 74.0823C142.031 74.9559 140.672 75.9266 139.313 76.9944C138.536 77.6739 138.245 78.5475 138.439 79.5182Z"
        fill="#C1C1C1" stroke="#231F20" stroke-width="0.5" stroke-miterlimit="10" />
    <path
        d="M50.7865 106.794C52.3396 105.824 54.6693 104.756 56.3194 103.979C58.1637 103.009 63.5025 102.232 65.4439 101.359C69.1325 99.7084 69.3266 100.776 71.5592 96.8934C74.4713 91.7488 78.4511 85.2452 79.81 79.5182C80.0042 78.5475 79.713 77.6739 79.0335 77.0915C77.6745 76.0237 76.3156 75.053 74.8595 74.1794C74.3742 73.8882 73.5006 73.8882 72.8211 73.9853C66.997 74.8589 63.5025 75.6354 59.0374 78.9358C56.3194 80.9742 52.3396 85.4394 51.1748 88.6426C48.9422 94.4667 49.4276 101.359 49.2334 107.474C49.2334 107.668 49.3305 107.765 49.4276 108.153C49.6217 107.765 50.4953 106.989 50.7865 106.794Z"
        fill="#C1C1C1" stroke="#231F20" stroke-width="0.5" stroke-miterlimit="10" />
    <path
        d="M98.1565 56.7173C97.1858 56.4261 96.4093 55.9408 95.1474 55.3584L94.3709 57.688C94.1767 59.7265 93.9826 61.7649 93.8855 63.9004C93.8855 64.4828 94.0797 65.1623 94.3709 65.7447C96.1181 68.948 98.2536 71.9571 100.874 74.578C102.233 75.9369 103.884 77.1988 105.534 78.2666C106.504 78.946 106.99 78.6548 106.99 77.49C106.99 76.034 107.087 74.578 106.893 73.1219C106.407 69.3363 105.048 65.7447 103.689 62.1532C102.622 59.5323 100.972 57.591 98.1565 56.7173Z"
        fill="#C1C1C1" stroke="#231F20" stroke-width="0.5" stroke-miterlimit="10" />
    <path
        d="M109.902 77.5872C109.902 78.6549 110.29 78.9461 111.164 78.4608C112.329 77.7813 113.688 77.1018 114.561 76.1311C116.697 73.7044 118.735 71.2777 120.774 68.6568C122.23 66.7155 123.394 64.677 123.006 62.0562C122.715 60.5031 122.618 58.95 122.424 57.1057L121.453 55.5526C119.803 56.135 118.25 56.8145 116.794 57.591C116.017 58.0764 115.046 58.5617 114.658 59.2412C112.62 63.1239 110.97 67.2008 110.193 71.5689C109.902 73.6073 109.902 75.6458 109.902 77.5872Z"
        fill="#C1C1C1" stroke="#231F20" stroke-width="0.5" stroke-miterlimit="10" />
    <path
        d="M103.689 60.2119C105.534 64.4829 107.087 68.948 107.475 73.7044C107.475 74.0927 107.572 74.481 107.766 74.7722C107.863 75.0634 108.154 75.2575 108.349 75.4516C108.543 75.2575 108.834 75.0634 109.028 74.7722C109.222 74.2868 109.319 73.8015 109.319 73.3161C109.707 69.2393 110.969 65.3565 112.522 61.5708C112.814 60.8914 113.105 60.1148 113.396 59.4353H103.398C103.495 59.6295 103.592 59.9207 103.689 60.2119Z"
        fill="#C1C1C1" stroke="#231F20" stroke-width="0.5" stroke-miterlimit="10" />
    <path
        d="M123.298 65.7791C121.842 68.9824 119.512 71.5062 117.182 74.0299C116.018 75.3889 114.756 76.5537 113.494 77.9127C113.3 78.1068 113.3 78.398 113.203 78.6892C113.494 78.7863 113.785 78.9804 113.979 78.8834C114.659 78.7863 115.338 78.5922 116.018 78.398C119.027 77.6215 122.036 76.8449 125.045 76.0684C126.501 75.6801 127.86 75.2918 129.316 74.9036C129.316 74.9036 129.316 74.9036 129.413 74.9036C131.354 74.3211 134.558 75.6801 136.305 76.7479C137.276 74.3211 141.935 72.8651 141.935 72.8651L137.276 70.8267C136.208 70.3413 135.431 70.0501 134.558 69.6618C131.354 68.2058 128.248 66.7498 125.045 65.1967C124.365 65.0026 123.686 64.9055 123.298 65.7791Z"
        fill="#C1C1C1" stroke="#231F20" stroke-width="0.75" stroke-miterlimit="10" />
    <path
        d="M80.0052 76.8449C81.7524 75.7772 84.9557 74.4182 86.897 75.0006C86.897 75.0006 86.897 75.0006 86.9941 75.0006C88.4501 75.3889 89.8091 75.7772 91.2651 76.1655C94.2743 76.942 97.2834 77.7185 100.293 78.4951C100.972 78.6892 101.651 78.8834 102.331 78.9804C102.622 78.9804 102.816 78.8834 103.107 78.7863C103.01 78.4951 103.01 78.2039 102.816 78.0098C101.651 76.7479 100.293 75.486 99.1277 74.127C96.798 71.6032 94.3713 69.0794 93.0124 65.8762C92.6241 65.0026 91.9446 65.0996 91.2651 65.4879C88.1589 66.9439 84.9557 68.497 81.7524 69.9531C80.9759 70.3413 80.1022 70.6325 79.0345 71.1179L74.4723 72.9622C74.4723 72.9622 79.1316 74.4182 80.0052 76.8449Z"
        fill="#C1C1C1" stroke="#231F20" stroke-width="0.5" stroke-miterlimit="10" />
</svg>