<svg width="72" height="16" viewBox="0 0 72 16" fill="none" xmlns="http://www.w3.org/2000/svg">
<path d="M51.2999 1.73535C49.7999 5.03535 47.3999 7.63535 44.9999 10.2354C43.7999 11.6354 42.4999 12.8354 41.1999 14.2354C40.9999 14.4354 40.9999 14.7354 40.8999 15.0354C41.1999 15.1354 41.4999 15.3354 41.6999 15.2354C42.3999 15.1354 43.0999 14.9354 43.7999 14.7354C46.8999 13.9354 49.9999 13.1354 53.0999 12.3354C54.5999 11.9354 55.9999 11.5354 57.4999 11.1354C57.4999 11.1354 57.4999 11.1354 57.5999 11.1354C59.5999 10.5354 62.8999 11.9354 64.6999 13.0354C65.6999 10.5354 70.4999 9.03536 70.4999 9.03536L65.6999 6.93536C64.5999 6.43536 63.7999 6.13535 62.8999 5.73535C59.5999 4.23535 56.3999 2.73536 53.0999 1.13536C52.3999 0.935356 51.6999 0.835355 51.2999 1.73535Z" fill="#C1C1C1" stroke="#231F20" stroke-width="0.75" stroke-miterlimit="10"/>
<path d="M6.7 13.1354C8.5 12.0354 11.8 10.6354 13.8 11.2354C13.8 11.2354 13.8 11.2354 13.9 11.2354C15.4 11.6354 16.8 12.0354 18.3 12.4354C21.4 13.2354 24.5 14.0354 27.6 14.8354C28.3 15.0354 29 15.2354 29.7 15.3354C30 15.3354 30.2 15.2354 30.5 15.1354C30.4 14.8354 30.4 14.5354 30.2 14.3354C29 13.0354 27.6 11.7354 26.4 10.3354C24 7.73536 21.5 5.13536 20.1 1.83536C19.7 0.935363 19 1.03537 18.3 1.43537C15.1 2.93537 11.8 4.53537 8.5 6.03537C7.7 6.43537 6.8 6.73536 5.7 7.23536L1 9.13537C1 9.13537 5.8 10.6354 6.7 13.1354Z" fill="#C1C1C1" stroke="#231F20" stroke-width="0.5" stroke-miterlimit="10"/>
</svg>
