<svg width="89" height="105" viewBox="0 0 89 105" fill="none" xmlns="http://www.w3.org/2000/svg">
<path d="M24.9519 26C24.9519 25.8 24.7519 18.7 24.5519 18.2C24.3519 18.8 23.2519 22.8 23.1519 23.1C22.8519 24.3 22.6519 25.5 22.3519 26.7C20.9519 33.1 19.4519 39.5 18.0519 45.9C17.3519 49.3 16.4519 52.7 16.1519 56.1C15.6519 61.6 15.3519 67.1 15.1519 72.6C14.9519 78.3 15.5519 84 17.1519 89.5C17.8519 92.1 18.5519 94.7 19.3519 97.2C19.1519 97.1 19.0519 97 19.0519 96.9C18.4519 95.2 17.7519 93.5 17.2519 91.7C14.6519 83.2 13.8519 74.4 13.7519 65.5C13.6519 55.7 13.1519 46 12.4519 36.2C12.1519 31.7 11.9519 27.1 11.8519 22.5C11.8519 17.1 12.5519 11.8 13.4519 6.5C13.7519 4.7 13.9519 2.9 14.2519 1C13.9519 1.1 13.8519 1.09998 13.8519 1.19998C13.4519 1.69998 13.1519 2.19998 12.8519 2.69998C6.65186 11.4 3.05187 21.2 1.75187 31.9C0.851866 39 0.651866 48.5 1.75187 55.6C3.35187 65.8 3.75186 70.9 7.05186 80.7C8.25186 84.4 11.5519 90.6 13.9519 93.7C16.2519 96.6 18.6519 99.6 20.9519 102.5C21.2519 102.9 21.5519 103.2 22.1519 103.7C22.2519 103 22.4519 102.6 22.3519 102.3C21.7519 98.8 21.4519 95.3 20.4519 91.9C19.2519 88 19.0519 82.2 19.8519 78.2C21.8519 68 24.9519 63.8 27.1519 53.7C28.0519 49.2 28.3519 43 27.3519 38.4C26.2519 34.1 25.7519 30.4 24.9519 26Z" fill="#C1C1C1" stroke="#231F20" stroke-width="0.5" stroke-miterlimit="10"/>
<path d="M68.6522 102.6C70.9522 99.7 73.3522 96.8 75.6522 93.8C78.1522 90.7 81.3522 84.5 82.5522 80.8C85.8522 71 86.2522 65.9 87.8522 55.7C88.9522 48.6 88.7522 39.1 87.8522 32C86.5522 21.4 82.9522 11.6 76.7522 2.79999C76.4522 2.29999 76.0522 1.79999 75.7522 1.29999C75.7522 1.29999 75.6522 1.19998 75.3522 1.09998C75.6522 3.09998 75.8522 4.89998 76.1522 6.59998C77.0522 11.9 77.7522 17.2 77.7522 22.6C77.7522 27.2 77.5522 31.7 77.1522 36.3C76.4522 46 75.9522 55.8 75.8522 65.6C75.7522 74.4 74.9522 83.3 72.3522 91.8C71.8522 93.6 71.1522 95.3 70.5522 97C70.5522 97.1 70.4522 97.2 70.2522 97.3C70.9522 94.7 71.6522 92.1 72.4522 89.6C74.0522 84.1 74.5522 78.4 74.4522 72.7C74.2522 67.2 74.0522 61.7 73.4522 56.2C73.1522 52.8 72.2522 49.4 71.4522 46C70.0522 39.6 68.5522 33.2 67.1522 26.8C66.8522 25.6 66.6522 24.4 66.3522 23.2C66.2522 22.9 65.1522 18.8 64.9522 18.3C64.7522 18.8 64.6522 25.9 64.5522 26.1C63.7522 30.5 63.1522 34.2 62.2522 38.5C61.2522 43.1 61.4522 49.3 62.4522 53.8C64.5522 63.9 67.6522 68.1 69.7522 78.3C70.5522 82.4 70.4522 88.1 69.1522 92C68.1522 95.3 67.8522 98.9 67.2522 102.4C67.1522 102.8 67.3522 103.1 67.4522 103.8C67.9522 103.3 68.3522 102.9 68.6522 102.6Z" fill="#C1C1C1" stroke="#231F20" stroke-width="0.5" stroke-miterlimit="10"/>
</svg>
